<?xml version="1.0" standalone="no"?>
<!DOCTYPE svg PUBLIC "-//W3C//DTD SVG 1.1//EN" "http://www.w3.org/Graphics/SVG/1.1/DTD/svg11.dtd" >
<svg xmlns="http://www.w3.org/2000/svg" xmlns:xlink="http://www.w3.org/1999/xlink" version="1.1">
<metadata></metadata>
<defs>
<font id="sf_ui_displaylight" horiz-adv-x="1465" >
<font-face units-per-em="2048" ascent="1638" descent="-410" />
<missing-glyph horiz-adv-x="454" />
<glyph horiz-adv-x="0" />
<glyph unicode="&#xd;" horiz-adv-x="0" />
<glyph unicode=" "  horiz-adv-x="454" />
<glyph unicode="&#x09;" horiz-adv-x="454" />
<glyph unicode="&#xa0;" horiz-adv-x="454" />
<glyph unicode="!" horiz-adv-x="531" d="M170 85q0 40 27.5 67.5t67.5 27.5q41 0 68.5 -27.5t27.5 -67.5t-28 -67.5t-68 -27.5t-67.5 27.5t-27.5 67.5zM196 1443h138l-8 -987h-121z" />
<glyph unicode="&#x22;" horiz-adv-x="703" d="M123 955v488h123v-488h-123zM457 955v488h123v-488h-123z" />
<glyph unicode="#" horiz-adv-x="1214" d="M38 426l21 111h232l76 381h-218l22 110h218l87 417h111l-85 -417h339l87 417h111l-86 -417h248l-21 -110h-250l-77 -381h235l-21 -111h-237l-87 -426h-112l88 426h-341l-87 -426h-111l87 426h-229zM400 535h342l77 384h-341z" />
<glyph unicode="$" horiz-adv-x="1219" d="M97 391h130q8 -115 98.5 -191.5t232.5 -89.5v579l-55 15q-189 48 -280 139t-91 232q0 161 116.5 266.5t309.5 119.5v138h104v-137q186 -13 305.5 -119.5t124.5 -262.5h-130q-4 104 -88.5 178t-211.5 85v-544l58 -15q210 -53 304 -144.5t94 -244.5q0 -172 -123 -280.5 t-333 -122.5v-142h-104v141q-203 13 -331 123t-130 277zM263 1082q0 -101 71 -163.5t224 -96.5v521q-128 -6 -211.5 -79.5t-83.5 -181.5zM662 108q147 7 235.5 82.5t88.5 194.5q0 112 -75.5 178t-248.5 105v-560z" />
<glyph unicode="%" horiz-adv-x="1470" d="M50 1105q0 160 76.5 256.5t205.5 96.5t205 -96.5t76 -256.5q0 -161 -76 -257.5t-205 -96.5t-205.5 96.5t-76.5 257.5zM132 0l1065 1443h134l-1063 -1443h-136zM173 1105q0 -119 42.5 -189t116.5 -70q73 0 115.5 70t42.5 189t-42 188t-116 69t-116.5 -69.5t-42.5 -187.5z M858 340q0 160 76.5 256.5t205.5 96.5t205 -96.5t76 -256.5q0 -161 -76 -257.5t-205 -96.5t-205.5 96.5t-76.5 257.5zM981 340q0 -119 42.5 -189t116.5 -70q73 0 115.5 70t42.5 189t-42 188t-116 69t-116.5 -69.5t-42.5 -187.5z" />
<glyph unicode="&#x26;" horiz-adv-x="1372" d="M79 376q0 242 279 391q9 4 27 13.5t32 17t17 8.5q-109 112 -152.5 189.5t-43.5 157.5q0 133 102.5 222.5t253.5 89.5q152 0 252 -88t100 -224q0 -108 -76 -196.5t-250 -178.5l397 -425q93 158 93 401v58h127v-59q0 -291 -131 -491l250 -262h-172l-159 168 q-92 -90 -217.5 -140.5t-257.5 -50.5q-208 0 -339.5 111.5t-131.5 287.5zM214 384q0 -128 96.5 -209.5t250.5 -81.5q106 0 211 44.5t171 117.5l-434 468q-40 -18 -72 -39q-117 -67 -170 -139.5t-53 -160.5zM368 1146q0 -63 38.5 -126t138.5 -164q145 72 209 141t64 151 q0 90 -63.5 149t-160.5 59q-96 0 -161 -60.5t-65 -149.5z" />
<glyph unicode="'" horiz-adv-x="369" d="M123 955v488h123v-488h-123z" />
<glyph unicode="(" horiz-adv-x="607" d="M166 598q0 151 22 281t63.5 232.5t86 178.5t104.5 152h115q-46 -57 -88 -134.5t-82 -182t-63.5 -241.5t-23.5 -284q0 -476 255 -868h-120q-53 68 -98 148.5t-85 187.5t-63 243.5t-23 286.5z" />
<glyph unicode=")" horiz-adv-x="607" d="M51 1442h115q60 -76 104.5 -152t86 -178.5t63.5 -232.5t22 -281q0 -150 -23 -286.5t-63.5 -243.5t-85.5 -187.5t-98 -148.5h-120q255 392 255 868q0 147 -23.5 284t-63 241.5t-81.5 182t-88 134.5z" />
<glyph unicode="*" horiz-adv-x="973" d="M138 976l268 142l-268 141l50 92l258 -165l-12 306h105l-12 -306l258 165l50 -91l-267 -142l267 -142l-50 -90l-258 162l12 -303h-105l12 304l-258 -163z" />
<glyph unicode="+" horiz-adv-x="1218" d="M109 510v124h438v465h124v-465h438v-124h-438v-478h-124v478h-438z" />
<glyph unicode="," horiz-adv-x="509" d="M121 -242l86 434h141l-123 -434h-104z" />
<glyph unicode="-" horiz-adv-x="874" d="M109 510v124h656v-124h-656z" />
<glyph unicode="." horiz-adv-x="509" d="M160 85q0 40 27.5 67.5t67.5 27.5q41 0 68 -27t27 -68q0 -40 -27.5 -67.5t-67.5 -27.5t-67.5 27.5t-27.5 67.5z" />
<glyph unicode="/" horiz-adv-x="559" d="M0 -330l443 1774h116l-446 -1774h-113z" />
<glyph unicode="0" horiz-adv-x="1222" d="M88 722q0 342 140 543t383 201q244 0 383 -200.5t139 -542.5q0 -344 -139 -545t-383 -201q-245 0 -384 200.5t-139 544.5zM226 723q0 -290 102 -458t283 -168t283 168t102 457q0 287 -102.5 455t-282.5 168q-179 0 -282 -169t-103 -453z" />
<glyph unicode="1" horiz-adv-x="863" d="M94 1032v146q20 12 194 133t195 134h134v-1445h-132v1298h-4q-8 -5 -81 -56.5t-164.5 -115t-141.5 -94.5z" />
<glyph unicode="2" horiz-adv-x="1152" d="M115 1038v1q1 184 132.5 305.5t329.5 121.5q189 0 319 -114t130 -280q0 -118 -65.5 -228.5t-245.5 -297.5l-402 -420v-4h750v-122h-941v96l510 539q155 163 206.5 249t51.5 180q0 118 -92 200t-225 82q-139 0 -231.5 -87.5t-94.5 -219.5v-1h-132z" />
<glyph unicode="3" horiz-adv-x="1183" d="M90 374h132q8 -122 108.5 -199.5t255.5 -77.5q157 0 259 83t102 211q0 138 -100 217t-274 79h-174v116h168q141 0 230 78t89 199q0 119 -84.5 192.5t-228.5 73.5q-134 0 -222 -74t-99 -194h-132q13 174 138.5 281t320.5 107q191 0 318 -104.5t127 -264.5q0 -135 -81 -227 t-220 -117v-4q166 -10 264.5 -105.5t98.5 -248.5q0 -120 -66 -216t-180 -149t-253 -53q-216 0 -353 111t-144 286z" />
<glyph unicode="4" horiz-adv-x="1214" d="M75 326v125q222 373 665 994h200v-998h215v-121h-215v-326h-133v326h-732zM213 447h594v878h-2q-364 -504 -592 -874v-4z" />
<glyph unicode="5" horiz-adv-x="1186" d="M121 376h134q14 -121 113 -199.5t239 -78.5q161 0 264.5 102.5t103.5 261.5q0 158 -102.5 262t-259.5 104q-109 0 -199 -49t-140 -135h-131l82 799h800v-122h-687l-54 -533h4q53 74 145.5 116.5t201.5 42.5q206 0 341.5 -137t135.5 -345q0 -214 -143 -351t-364 -137 q-130 0 -237.5 51t-172.5 142t-74 206z" />
<glyph unicode="6" horiz-adv-x="1206" d="M91 691q0 363 145.5 569t402.5 206q180 0 307 -100t158 -266h-138q-27 110 -117 177.5t-211 67.5q-198 0 -306.5 -176.5t-108.5 -497.5h3q44 122 161.5 198t263.5 76q206 0 342.5 -136t136.5 -341q0 -212 -142 -351.5t-359 -139.5q-145 0 -259.5 71t-181.5 202 q-97 169 -97 441zM262 474q0 -158 105.5 -266.5t260.5 -108.5q152 0 257.5 106t105.5 259q0 155 -102.5 257.5t-259.5 102.5q-154 0 -260.5 -101.5t-106.5 -248.5z" />
<glyph unicode="7" horiz-adv-x="1105" d="M79 1321v122h940v-128l-661 -1315h-145l669 1317v4h-803z" />
<glyph unicode="8" horiz-adv-x="1211" d="M91 392q0 136 89 238t233 133v3q-123 34 -195 120.5t-72 202.5q0 164 130 270.5t329 106.5q200 0 329 -106.5t129 -270.5q0 -114 -72 -201t-194 -122v-3q144 -31 233 -133t89 -238q0 -182 -143.5 -298.5t-370.5 -116.5q-226 0 -370 117t-144 298zM230 400 q0 -132 104.5 -217.5t270.5 -85.5t270.5 85.5t104.5 217.5q0 130 -104.5 213t-270.5 83q-165 0 -270 -83t-105 -213zM282 1078q0 -114 90.5 -187t232.5 -73q141 0 231.5 73t90.5 187q0 117 -89.5 193t-232.5 76t-233 -76t-90 -193z" />
<glyph unicode="9" horiz-adv-x="1206" d="M76 972q0 214 142 354t359 140q146 0 260.5 -71t180.5 -202q97 -169 97 -441q0 -363 -145 -569t-402 -206q-182 0 -309 100.5t-157 265.5h139q27 -110 116 -178t212 -68q193 0 301 169.5t113 474.5q0 4 -0.5 15.5t-0.5 17.5h-1h-1q-41 -122 -159 -199t-266 -77 q-206 0 -342.5 135.5t-136.5 338.5zM214 976q0 -152 103 -254.5t260 -102.5q155 0 261.5 102t106.5 248q0 157 -106 265.5t-261 108.5q-154 0 -259 -106t-105 -261z" />
<glyph unicode=":" horiz-adv-x="509" d="M160 85q0 40 27.5 67.5t67.5 27.5q41 0 68 -27t27 -68q0 -40 -27.5 -67.5t-67.5 -27.5t-67.5 27.5t-27.5 67.5zM160 836q0 40 27.5 67.5t67.5 27.5q41 0 68 -27.5t27 -67.5t-27.5 -67.5t-67.5 -27.5t-67.5 27.5t-27.5 67.5z" />
<glyph unicode=";" horiz-adv-x="509" d="M96 -242l84 434h142l-123 -434h-103zM160 836q0 40 27.5 67.5t67.5 27.5q41 0 68 -27.5t27 -67.5t-27.5 -67.5t-67.5 -27.5t-67.5 27.5t-27.5 67.5z" />
<glyph unicode="&#x3c;" horiz-adv-x="1219" d="M184 502v109l851 543v-146l-717 -443v-8l717 -428v-145z" />
<glyph unicode="=" horiz-adv-x="1219" d="M123 323v118h973v-118h-973zM123 703v118h973v-118h-973z" />
<glyph unicode="&#x3e;" horiz-adv-x="1219" d="M184 -16v146l717 428v8l-717 443v146l851 -543v-109z" />
<glyph unicode="?" horiz-adv-x="972" d="M58 1079q9 165 120 271t299 106q179 0 294.5 -102t115.5 -256q0 -108 -52.5 -190.5t-158.5 -150.5q-98 -63 -133 -115.5t-35 -136.5v-75h-133v94q-1 98 45 168t152 139q95 63 134.5 122t39.5 139q0 107 -77 176t-197 69t-197 -70t-87 -188h-130zM348 85q0 40 27.5 67.5 t67.5 27.5q41 0 68 -27t27 -68q0 -40 -27.5 -67.5t-67.5 -27.5t-67.5 27.5t-27.5 67.5z" />
<glyph unicode="@" horiz-adv-x="1770" d="M87 604q0 182 61 336.5t169 263t261 169.5t332 61q231 0 413.5 -93t284.5 -263t102 -388q0 -240 -94 -381t-258 -141q-90 0 -153.5 50.5t-74.5 133.5h-7q-34 -86 -101.5 -131.5t-160.5 -45.5q-155 0 -250.5 116.5t-95.5 305.5q0 184 96.5 300t249.5 116q87 0 156.5 -44 t97.5 -117h7v141h116v-572q0 -70 36 -110.5t103 -40.5q102 0 163 112t61 310q0 286 -195 464.5t-505 178.5q-201 0 -362 -94t-251.5 -262t-90.5 -379q0 -225 94 -392.5t257 -254t373 -86.5q221 0 332 44v-99q-127 -44 -333 -44q-243 0 -430.5 98.5t-295 289.5t-107.5 448z M639 594q0 -141 64.5 -225.5t173.5 -84.5q111 0 177 86t66 229q0 141 -65 224t-177 83q-109 0 -174 -85t-65 -227z" />
<glyph unicode="A" horiz-adv-x="1262" d="M23 0l540 1443h136l539 -1443h-144l-160 442h-606l-160 -442h-145zM369 560h524l-259 714h-6z" />
<glyph unicode="B" horiz-adv-x="1217" d="M135 0v1443h531q186 0 301.5 -98t115.5 -258q0 -120 -74.5 -212t-189.5 -113v-7q152 -18 245 -114.5t93 -244.5q0 -185 -130 -290.5t-358 -105.5h-534zM271 121h380q176 0 271 73.5t95 208.5t-99.5 208t-285.5 73h-361v-563zM271 802h326q164 0 256 71.5t92 198.5 q0 118 -82 184t-226 66h-366v-520z" />
<glyph unicode="C" horiz-adv-x="1371" d="M77 725q0 339 174.5 540t468.5 201q151 0 277.5 -61t207.5 -171t100 -249h-137q-30 156 -155 255t-293 99q-230 0 -366.5 -166.5t-136.5 -447.5q0 -285 136.5 -453t367.5 -168q173 0 294 87t153 236h137q-38 -211 -194 -330.5t-391 -119.5q-295 0 -469 202.5t-174 545.5z " />
<glyph unicode="D" horiz-adv-x="1370" d="M135 0v1443h475q324 0 504 -189.5t180 -531.5q0 -343 -179.5 -532.5t-504.5 -189.5h-475zM272 124h330q266 0 409.5 155t143.5 442q0 288 -143.5 443t-409.5 155h-330v-1195z" />
<glyph unicode="E" horiz-adv-x="1104" d="M135 0v1443h871v-124h-735v-519h698v-122h-698v-554h735v-124h-871z" />
<glyph unicode="F" horiz-adv-x="1061" d="M135 0v1443h856v-124h-720v-542h662v-122h-662v-655h-136z" />
<glyph unicode="G" horiz-adv-x="1409" d="M77 730q0 335 176.5 535.5t471.5 200.5q227 0 388 -125t202 -332h-142q-44 154 -163.5 242t-284.5 88q-235 0 -371.5 -163.5t-136.5 -445.5q0 -286 138 -456t370 -170q209 0 336 123t127 327v51h-448v120h584v-139q0 -286 -159 -447.5t-440 -161.5q-293 0 -470.5 206 t-177.5 547z" />
<glyph unicode="H" horiz-adv-x="1387" d="M135 0v1443h136v-642h844v642h137v-1443h-137v677h-844v-677h-136z" />
<glyph unicode="I" horiz-adv-x="406" d="M135 0v1443h136v-1443h-136z" />
<glyph unicode="J" horiz-adv-x="987" d="M42 331h135q5 -104 77.5 -169t184.5 -65q132 0 204.5 78t72.5 222v1046h136v-1048q0 -199 -109.5 -312t-303.5 -113q-173 0 -284.5 101t-112.5 260z" />
<glyph unicode="K" horiz-adv-x="1209" d="M135 0v1443h136v-748h8l686 748h173l-593 -638l652 -805h-175l-573 708l-178 -193v-515h-136z" />
<glyph unicode="L" horiz-adv-x="1052" d="M135 0v1443h136v-1319h723v-124h-859z" />
<glyph unicode="M" horiz-adv-x="1660" d="M135 0v1443h157l535 -1263h6l534 1263h158v-1443h-128v1184h-6l-502 -1177h-119l-501 1177h-6v-1184h-128z" />
<glyph unicode="N" horiz-adv-x="1393" d="M135 0v1443h135l846 -1205h7v1205h135v-1443h-132l-849 1206h-7v-1206h-135z" />
<glyph unicode="O" d="M77 721q0 343 177 544t478 201q302 0 479 -201t177 -544t-177 -543.5t-479 -200.5t-478.5 200.5t-176.5 543.5zM217 721q0 -284 139 -450.5t376 -166.5t376.5 167t139.5 450q0 284 -139.5 451t-376.5 167t-376 -167t-139 -451z" />
<glyph unicode="P" horiz-adv-x="1171" d="M135 0v1443h512q206 0 334.5 -124t128.5 -325t-129 -325.5t-335 -124.5h-375v-544h-136zM271 666h344q166 0 260.5 87t94.5 241t-94 240.5t-261 86.5h-344v-655z" />
<glyph unicode="Q" d="M77 721q0 343 177 544t478 201q302 0 479 -201t177 -544q0 -213 -71.5 -375.5t-204.5 -256.5l188 -258h-154l-145 198q-122 -52 -269 -52q-302 0 -478.5 200.5t-176.5 543.5zM217 721q0 -283 139.5 -450t375.5 -167q102 0 190 34l-187 257h154l143 -196 q104 77 159.5 211.5t55.5 310.5q0 284 -139 451t-376 167t-376 -167t-139 -451z" />
<glyph unicode="R" horiz-adv-x="1199" d="M135 0v1443h516q211 0 336.5 -114.5t125.5 -307.5q0 -153 -82 -262t-227 -146l349 -613h-159l-332 591h-22h-369v-591h-136zM271 712h369q157 0 244.5 80t87.5 225q0 143 -89.5 223.5t-247.5 80.5h-364v-609z" />
<glyph unicode="S" horiz-adv-x="1182" d="M65 392h137q11 -130 123 -210.5t281 -80.5q162 0 266.5 79t104.5 201q0 101 -73 164.5t-234 104.5l-179 46q-201 51 -293.5 140t-92.5 231q0 174 140 286.5t354 112.5q210 0 349.5 -111.5t145.5 -283.5h-137q-10 122 -109 196.5t-253 74.5q-151 0 -249.5 -75.5 t-98.5 -194.5q0 -93 71 -151.5t231 -99.5l156 -40q218 -55 315 -145t97 -240q0 -190 -142 -304.5t-381 -114.5q-226 0 -372 114.5t-157 300.5z" />
<glyph unicode="T" horiz-adv-x="1179" d="M38 1319v124h1103v-124h-483v-1319h-137v1319h-483z" />
<glyph unicode="U" horiz-adv-x="1386" d="M135 504v939h136v-931q0 -184 113 -296t309 -112t309 112t113 296v931h137v-939q0 -236 -151 -381.5t-408 -145.5t-407.5 145.5t-150.5 381.5z" />
<glyph unicode="V" horiz-adv-x="1262" d="M23 1443h145l460 -1273h6l461 1273h144l-540 -1443h-136z" />
<glyph unicode="W" horiz-adv-x="1854" d="M44 1443h142l318 -1233h6l349 1233h136l348 -1233h7l317 1233h143l-398 -1443h-126l-355 1209h-8l-355 -1209h-127z" />
<glyph unicode="X" horiz-adv-x="1263" d="M44 0l502 722v5l-498 716h165l421 -613h5l424 613h157l-507 -722v-4l499 -717h-164l-419 610h-5l-425 -610h-155z" />
<glyph unicode="Y" horiz-adv-x="1219" d="M24 1443h156l427 -685h5l427 685h156l-517 -819v-624h-137v624z" />
<glyph unicode="Z" horiz-adv-x="1224" d="M87 0v99l866 1214v6h-838v124h1011v-100l-864 -1213v-6h876v-124h-1051z" />
<glyph unicode="[" horiz-adv-x="628" d="M186 -238v1682h417v-106h-288v-1472h301v-104h-430z" />
<glyph unicode="\" horiz-adv-x="559" d="M0 1444h116l443 -1774h-113z" />
<glyph unicode="]" horiz-adv-x="628" d="M12 -134h302v1472h-288v106h416v-1682h-430v104z" />
<glyph unicode="^" horiz-adv-x="847" d="M57 810l296 617h141l296 -617h-130l-231 494h-11l-231 -494h-130z" />
<glyph unicode="_" horiz-adv-x="819" d="M-58 -122h935v-100h-935v100z" />
<glyph unicode="`" horiz-adv-x="899" d="M267 1552h153l220 -301h-117z" />
<glyph unicode="a" horiz-adv-x="1048" d="M76 300q0 138 101 216.5t295 92.5l331 22v92q0 118 -71.5 183t-201.5 65q-113 0 -187 -54.5t-92 -150.5h-127q8 142 122.5 232.5t284.5 90.5q185 0 294.5 -96t109.5 -259v-734h-126v206h-3q-44 -98 -144.5 -158t-224.5 -60q-161 0 -261 86.5t-100 225.5zM211 299 q0 -87 70 -141t182 -54q145 0 242.5 86.5t97.5 214.5v119l-315 -22q-136 -9 -206.5 -60.5t-70.5 -142.5z" />
<glyph unicode="b" horiz-adv-x="1154" d="M129 0v1506h132v-650h3q47 109 145 171t225 62q203 0 329 -152t126 -398q0 -247 -126.5 -399t-330.5 -152q-129 0 -227.5 63.5t-146.5 176.5h-3v-228h-126zM260 538q0 -191 97.5 -311t251.5 -120q155 0 250 118.5t95 313.5q0 194 -94.5 313t-249.5 119t-252.5 -121 t-97.5 -312z" />
<glyph unicode="c" horiz-adv-x="1046" d="M65 539q0 250 132.5 400t351.5 150q182 0 302.5 -101t140.5 -250h-131q-20 103 -103 168t-208 65q-158 0 -254 -118t-96 -314q0 -199 96 -315.5t255 -116.5q124 0 206 59.5t105 165.5h131q-23 -154 -144 -249t-298 -95q-221 0 -353.5 148.5t-132.5 402.5z" />
<glyph unicode="d" horiz-adv-x="1157" d="M65 539q0 245 128 397.5t330 152.5q128 0 227 -63.5t143 -169.5h3v650h133v-1506h-126v229h-3q-47 -111 -146 -176t-228 -65q-203 0 -332 152.5t-129 398.5zM200 539q0 -194 96 -313t251 -119t252.5 120t97.5 312q0 191 -97.5 311.5t-252.5 120.5t-251 -119t-96 -313z " />
<glyph unicode="e" horiz-adv-x="1075" d="M65 536q0 251 131.5 402t348.5 151q212 0 338.5 -142.5t126.5 -382.5v-58h-808v-7q0 -182 96.5 -288t257.5 -106q119 0 202 55t107 145h131q-24 -139 -146.5 -228t-296.5 -89q-224 0 -356 147.5t-132 400.5zM202 614h670q-2 161 -92.5 259.5t-236.5 98.5 q-145 0 -238.5 -98.5t-102.5 -259.5z" />
<glyph unicode="f" horiz-adv-x="589" d="M23 966v111h150v123q0 141 65.5 206.5t200.5 65.5q49 0 89 -9v-111q-35 8 -78 8q-73 0 -108 -38t-36 -124v-121h219v-111h-219v-966h-133v966h-150z" />
<glyph unicode="g" horiz-adv-x="1144" d="M65 541q0 247 126 397.5t332 150.5q127 0 226.5 -64t147.5 -171h2v223h126v-1057q0 -184 -128 -289.5t-345 -105.5q-178 0 -296 76t-138 200h138q20 -73 102 -116.5t202 -43.5q151 0 242 72.5t91 196.5v219h-3q-46 -106 -144.5 -170t-225.5 -64q-203 0 -329 151t-126 395 zM200 541q0 -193 94 -310t249 -117q156 0 253 118.5t97 308.5q0 191 -97 310.5t-253 119.5q-154 0 -248.5 -118t-94.5 -312z" />
<glyph unicode="h" horiz-adv-x="1118" d="M129 0v1506h132v-630h3q46 102 137 157.5t219 55.5q176 0 280.5 -109t104.5 -290v-690h-132v669q0 142 -76.5 222t-213.5 80q-146 0 -234 -94.5t-88 -248.5v-628h-132z" />
<glyph unicode="i" horiz-adv-x="390" d="M105 1379q0 37 26.5 63.5t63.5 26.5t63 -26.5t26 -63.5q0 -36 -26 -62.5t-63 -26.5t-63.5 26.5t-26.5 62.5zM129 0v1077h132v-1077h-132z" />
<glyph unicode="j" horiz-adv-x="390" d="M-78 -254h27q97 0 138.5 42t41.5 140v1149h132v-1145q0 -156 -74.5 -227.5t-233.5 -71.5h-31v113zM105 1379q0 37 26.5 63.5t63.5 26.5t63 -26.5t26 -63.5q0 -36 -26 -62.5t-63 -26.5t-63.5 26.5t-26.5 62.5z" />
<glyph unicode="k" horiz-adv-x="988" d="M129 0v1506h132v-941h1l537 512h164l-486 -465l496 -612h-156l-434 531l-122 -111v-420h-132z" />
<glyph unicode="l" horiz-adv-x="390" d="M129 0v1506h132v-1506h-132z" />
<glyph unicode="m" horiz-adv-x="1677" d="M119 0v1077h124v-201h4q35 97 118 155t196 58q115 0 197.5 -61t113.5 -165h3q39 102 130.5 164t210.5 62q158 0 253 -97.5t95 -260.5v-731h-133v701q0 126 -66.5 198t-184.5 72q-120 0 -196.5 -83.5t-76.5 -214.5v-673h-132v714q0 115 -69 186t-180 71q-120 0 -197.5 -88 t-77.5 -226v-657h-132z" />
<glyph unicode="n" horiz-adv-x="1097" d="M119 0v1077h124v-201h4q46 102 136 157.5t219 55.5q177 0 279.5 -106.5t102.5 -289.5v-693h-132v672q0 143 -75 221t-212 78q-143 0 -228.5 -93t-85.5 -245v-633h-132z" />
<glyph unicode="o" horiz-adv-x="1109" d="M65 539q0 251 133.5 400.5t355.5 149.5q223 0 356.5 -149.5t133.5 -400.5t-133.5 -401t-356.5 -150q-222 0 -355.5 149.5t-133.5 401.5zM200 539q0 -201 95 -316.5t259 -115.5q165 0 260 115.5t95 316.5t-95 316.5t-260 115.5q-164 0 -259 -115.5t-95 -316.5z" />
<glyph unicode="p" horiz-adv-x="1144" d="M119 -357v1434h125v-223h3q43 104 145 169.5t228 65.5q204 0 331.5 -152t127.5 -398t-126.5 -398.5t-330.5 -152.5q-127 0 -224.5 63.5t-143.5 170.5h-3v-579h-132zM250 539q0 -192 96.5 -312t250.5 -120q156 0 251.5 118.5t95.5 312.5t-95.5 313.5t-251.5 119.5 q-154 0 -250.5 -120.5t-96.5 -311.5z" />
<glyph unicode="q" horiz-adv-x="1147" d="M65 539q0 246 127.5 398t332.5 152q130 0 229.5 -63.5t145.5 -171.5h3v223h126v-1434h-133v579h-3q-46 -107 -145 -170.5t-226 -63.5q-203 0 -330 152.5t-127 398.5zM200 538q0 -195 95 -313t250 -118t253 120t98 312q0 191 -98 311.5t-253 120.5t-250 -119t-95 -314z " />
<glyph unicode="r" horiz-adv-x="634" d="M119 0v1077h124v-191h4q28 96 100 149.5t173 53.5q47 0 84 -11v-131q-34 15 -102 15q-114 0 -182.5 -81.5t-68.5 -212.5v-668h-132z" />
<glyph unicode="s" horiz-adv-x="958" d="M65 303h134q12 -93 88.5 -148.5t197.5 -55.5q122 0 197.5 51.5t75.5 136.5q0 69 -46 109.5t-155 67.5l-182 46q-140 35 -209 103t-69 174q0 133 109.5 217.5t277.5 84.5q163 0 271 -88t116 -227h-127q-10 92 -80.5 147.5t-183.5 55.5q-109 0 -180.5 -51t-71.5 -132 q0 -65 48.5 -106t152.5 -67l165 -40q162 -41 230 -105.5t68 -179.5q0 -136 -116.5 -222t-298.5 -86q-172 0 -286.5 88.5t-125.5 226.5z" />
<glyph unicode="t" horiz-adv-x="598" d="M23 966v111h154v258h132v-258h213v-111h-213v-696q0 -84 34.5 -122t109.5 -38q42 0 74 4v-113q-25 -7 -100 -7q-134 0 -192 63t-58 208v701h-154z" />
<glyph unicode="u" horiz-adv-x="1097" d="M113 383v694h132v-672q0 -144 74 -221t211 -77q142 0 229 92.5t87 244.5v633h133v-1077h-125v202h-3q-45 -100 -138.5 -157t-219.5 -57q-176 0 -278 106.5t-102 288.5z" />
<glyph unicode="v" horiz-adv-x="977" d="M17 1077h139l331 -936h3l332 936h138l-401 -1077h-140z" />
<glyph unicode="w" horiz-adv-x="1477" d="M21 1077h133l244 -927h3l270 927h134l271 -927h3l244 927h133l-307 -1077h-139l-270 897h-3l-270 -897h-139z" />
<glyph unicode="x" horiz-adv-x="950" d="M24 0l380 542l-376 535h150l299 -434h3l296 434h150l-377 -530l374 -547h-150l-297 444h-4l-298 -444h-150z" />
<glyph unicode="y" horiz-adv-x="980" d="M17 1077h142l330 -943h3l331 943h140l-423 -1136q-70 -189 -141 -255.5t-202 -66.5q-29 0 -66 7v114q28 -7 64 -7q74 0 118.5 41.5t82.5 145.5l26 73z" />
<glyph unicode="z" horiz-adv-x="963" d="M83 0v100l645 864v2h-645v111h796v-101l-644 -862v-3h646v-111h-798z" />
<glyph unicode="{" horiz-adv-x="717" d="M128 540v158q99 0 138 48t39 170v268q0 172 87.5 251.5t276.5 79.5h56v-109h-53q-127 0 -184 -54.5t-57 -176.5v-313q0 -215 -175 -231v-24q175 -16 175 -233v-360q0 -119 58 -174.5t183 -55.5h53v-109h-56q-188 0 -276 82t-88 258v309q0 121 -39 168.5t-138 47.5z" />
<glyph unicode="|" horiz-adv-x="407" d="M147 -328v1771h113v-1771h-113z" />
<glyph unicode="}" horiz-adv-x="717" d="M-9 -216h54q125 0 183 55.5t58 174.5v360q0 217 175 233v24q-175 16 -175 231v313q0 122 -57 176.5t-184 54.5h-54v109h56q190 0 277.5 -79.5t87.5 -251.5v-268q0 -122 39 -170t137 -48v-158q-99 0 -137.5 -47t-38.5 -169v-309q0 -176 -88.5 -258t-276.5 -82h-56v109z " />
<glyph unicode="~" horiz-adv-x="1219" d="M123 559q0 148 74.5 235t202.5 87q60 0 115 -28.5t126 -96.5q58 -57 98 -80.5t78 -23.5q68 0 110 53t46 147h123q0 -147 -77 -236.5t-204 -89.5q-64 0 -119 28t-126 96q-60 59 -97.5 82t-75.5 23q-67 0 -106.5 -51.5t-44.5 -144.5h-123z" />
<glyph unicode="&#xa2;" horiz-adv-x="1219" d="M111 714q0 229 124 377.5t326 171.5v183h131v-182q165 -14 282.5 -115.5t133.5 -244.5h-133q-22 113 -117.5 179t-229.5 66q-167 0 -274.5 -120t-107.5 -315q0 -196 107.5 -318.5t274.5 -122.5q140 0 232.5 60.5t113.5 178.5h133q-19 -145 -134.5 -242.5t-280.5 -111.5 v-187h-131v189q-203 23 -326.5 173t-123.5 381z" />
<glyph unicode="&#xa3;" horiz-adv-x="1219" d="M84 0v117q143 34 236 129t93 223q0 81 -37 196h-277v112h236q-22 60 -34.5 98t-23.5 93t-11 103q0 188 130.5 296.5t362.5 108.5q94 0 177 -16t131 -40v-123q-41 24 -125 40.5t-177 16.5q-170 0 -265 -75.5t-95 -204.5q0 -48 11 -104t23.5 -93.5t34.5 -99.5h470v-112 h-431q34 -105 34 -191q0 -67 -21 -125t-56.5 -101t-75.5 -73.5t-87 -52.5v-4h841v-118h-1064z" />
<glyph unicode="&#xa5;" horiz-adv-x="1219" d="M24 1443h157l426 -675h6l425 675h157l-471 -738h258v-106h-304v-184h304v-105h-304v-310h-136v310h-305v105h305v184h-305v106h259z" />
<glyph unicode="&#xa8;" horiz-adv-x="898" d="M178 1351q0 38 27.5 65.5t65.5 27.5t65.5 -27.5t27.5 -65.5t-27.5 -65t-65.5 -27t-65.5 27.5t-27.5 64.5zM534 1351q0 38 27.5 65.5t65.5 27.5t65.5 -27.5t27.5 -65.5t-27.5 -65t-65.5 -27t-65.5 27t-27.5 65z" />
<glyph unicode="&#xa9;" horiz-adv-x="1717" d="M76 626q0 165 61 311t165 249.5t249 163.5t308 60t308 -60t249.5 -163.5t165 -249.5t60.5 -311q0 -164 -60.5 -310t-165 -250t-249.5 -164t-308 -60t-308 60.5t-249 164t-165 249.5t-61 310zM185 626q0 -142 52.5 -268t142.5 -215t214.5 -140.5t264.5 -51.5t264.5 51.5 t214.5 140.5t142 215t52 268q0 191 -89 346t-243 242t-341 87q-140 0 -264.5 -51.5t-214.5 -140t-142.5 -214.5t-52.5 -269zM473 630q0 194 108.5 308.5t286.5 114.5q146 0 241.5 -78.5t115.5 -194.5h-108q-21 77 -86 126t-163 49q-128 0 -206 -87.5t-78 -237.5 q0 -153 78 -242t206 -89q99 0 164 45.5t84 123.5h109q-20 -119 -114.5 -192.5t-242.5 -73.5q-178 0 -286.5 115.5t-108.5 312.5z" />
<glyph unicode="&#xab;" horiz-adv-x="1252" d="M143 563v6l358 414h157l-357 -411v-12l357 -411h-157zM593 563v6l359 414h157l-357 -411v-12l357 -411h-157z" />
<glyph unicode="&#xad;" horiz-adv-x="874" d="M109 510v124h656v-124h-656z" />
<glyph unicode="&#xae;" horiz-adv-x="1132" d="M109 1068q0 188 133 319t324 131t324 -130.5t133 -319.5t-133 -320t-324 -131t-324 131t-133 320zM197 1068q0 -154 107.5 -261.5t261.5 -107.5q155 0 262 107t107 262t-107 262t-262 107q-154 0 -261.5 -107.5t-107.5 -261.5zM394 854v449h202q68 0 111 -38.5t43 -98.5 q0 -53 -28 -87.5t-79 -44.5l129 -180h-94l-115 170h-93v-170h-76zM470 1085h110q42 0 65 20.5t23 57.5q0 74 -87 74h-111v-152z" />
<glyph unicode="&#xb4;" horiz-adv-x="899" d="M258 1251l220 301h153l-256 -301h-117z" />
<glyph unicode="&#xb8;" horiz-adv-x="899" d="M268 -370q41 -16 122 -16q63 0 100 24.5t37 65.5q0 82 -155 82h-53v60l65 161l87 -7l-54 -141q101 0 154.5 -39.5t53.5 -112.5q0 -76 -61.5 -124.5t-156.5 -49.5q-84 0 -139 17v80z" />
<glyph unicode="&#xbb;" horiz-adv-x="1251" d="M143 149l357 411v12l-357 411h157l358 -414v-6l-358 -414h-157zM593 149l357 411v12l-357 411h157l359 -414v-6l-359 -414h-157z" />
<glyph unicode="&#xc2;" horiz-adv-x="1262" d="M23 0l540 1443h136l539 -1443h-144l-160 442h-606l-160 -442h-145zM293 1551l283 295h110l283 -295h-131l-206 217h-2l-206 -217h-131zM369 560h524l-259 714h-6z" />
<glyph unicode="&#xc7;" horiz-adv-x="1371" d="M77 725q0 339 174.5 540t468.5 201q151 0 277.5 -61t207.5 -171t100 -249h-137q-30 156 -155 255t-293 99q-230 0 -366.5 -166.5t-136.5 -447.5q0 -285 136.5 -453t367.5 -168q173 0 294 87t153 236h137q-37 -200 -180 -318.5t-360 -130.5l-46 -119q101 0 154.5 -39.5 t53.5 -112.5q0 -76 -61.5 -124.5t-156.5 -49.5q-84 0 -139 17v80q41 -16 122 -16q63 0 100 24.5t37 65.5q0 82 -155 82h-53v60l53 132q-275 17 -436 217.5t-161 529.5z" />
<glyph unicode="&#xce;" horiz-adv-x="406" d="M-135 1551l283 295h110l283 -295h-131l-206 217h-2l-206 -217h-131zM135 0v1443h136v-1443h-136z" />
<glyph unicode="&#xd6;" d="M77 721q0 343 177 544t478 201q302 0 479 -201t177 -544t-177 -543.5t-479 -200.5t-478.5 200.5t-176.5 543.5zM217 721q0 -284 139 -450.5t376 -166.5t376.5 167t139.5 450q0 284 -139.5 451t-376.5 167t-376 -167t-139 -451zM461 1668q0 38 27.5 65.5t65.5 27.5 t65.5 -27.5t27.5 -65.5t-27.5 -65t-65.5 -27t-65.5 27.5t-27.5 64.5zM817 1668q0 38 27.5 65.5t65.5 27.5t65.5 -27.5t27.5 -65.5t-27.5 -65t-65.5 -27t-65.5 27t-27.5 65z" />
<glyph unicode="&#xdb;" horiz-adv-x="1386" d="M135 504v939h136v-931q0 -184 113 -296t309 -112t309 112t113 296v931h137v-939q0 -236 -151 -381.5t-408 -145.5t-407.5 145.5t-150.5 381.5zM355 1551l283 295h110l283 -295h-131l-206 217h-2l-206 -217h-131z" />
<glyph unicode="&#xdc;" horiz-adv-x="1386" d="M135 504v939h136v-931q0 -184 113 -296t309 -112t309 112t113 296v931h137v-939q0 -236 -151 -381.5t-408 -145.5t-407.5 145.5t-150.5 381.5zM422 1668q0 38 27.5 65.5t65.5 27.5t65.5 -27.5t27.5 -65.5t-27.5 -65t-65.5 -27t-65.5 27.5t-27.5 64.5zM778 1668 q0 38 27.5 65.5t65.5 27.5t65.5 -27.5t27.5 -65.5t-27.5 -65t-65.5 -27t-65.5 27t-27.5 65z" />
<glyph unicode="&#xe2;" horiz-adv-x="1048" d="M76 300q0 138 101 216.5t295 92.5l331 22v92q0 118 -71.5 183t-201.5 65q-113 0 -187 -54.5t-92 -150.5h-127q8 142 122.5 232.5t284.5 90.5q185 0 294.5 -96t109.5 -259v-734h-126v206h-3q-44 -98 -144.5 -158t-224.5 -60q-161 0 -261 86.5t-100 225.5zM206 1251 l273 301h97l273 -301h-127l-192 220h-5l-192 -220h-127zM211 299q0 -87 70 -141t182 -54q145 0 242.5 86.5t97.5 214.5v119l-315 -22q-136 -9 -206.5 -60.5t-70.5 -142.5z" />
<glyph unicode="&#xe7;" horiz-adv-x="1046" d="M65 539q0 250 132.5 400t351.5 150q182 0 302.5 -101t140.5 -250h-131q-20 103 -103 168t-208 65q-158 0 -254 -118t-96 -314q0 -199 96 -315.5t255 -116.5q124 0 206 59.5t105 165.5h131q-22 -143 -128 -236t-265 -106l-50 -131q101 0 154.5 -39.5t53.5 -112.5 q0 -76 -61.5 -124.5t-156.5 -49.5q-84 0 -139 17v80q41 -16 122 -16q63 0 100 24.5t37 65.5q0 82 -155 82h-53v60l58 143q-204 14 -324.5 161.5t-120.5 388.5z" />
<glyph unicode="&#xee;" horiz-adv-x="390" d="M-127 1251l273 301h97l273 -301h-127l-192 220h-5l-192 -220h-127zM129 0v1077h132v-1077h-132z" />
<glyph unicode="&#xf6;" horiz-adv-x="1109" d="M65 539q0 251 133.5 400.5t355.5 149.5q223 0 356.5 -149.5t133.5 -400.5t-133.5 -401t-356.5 -150q-222 0 -355.5 149.5t-133.5 401.5zM200 539q0 -201 95 -316.5t259 -115.5q165 0 260 115.5t95 316.5t-95 316.5t-260 115.5q-164 0 -259 -115.5t-95 -316.5zM283 1351 q0 38 27.5 65.5t65.5 27.5t65.5 -27.5t27.5 -65.5t-27.5 -65t-65.5 -27t-65.5 27.5t-27.5 64.5zM639 1351q0 38 27.5 65.5t65.5 27.5t65.5 -27.5t27.5 -65.5t-27.5 -65t-65.5 -27t-65.5 27t-27.5 65z" />
<glyph unicode="&#xfb;" horiz-adv-x="1097" d="M113 383v694h132v-672q0 -144 74 -221t211 -77q142 0 229 92.5t87 244.5v633h133v-1077h-125v202h-3q-45 -100 -138.5 -157t-219.5 -57q-176 0 -278 106.5t-102 288.5zM224 1251l273 301h97l273 -301h-127l-192 220h-5l-192 -220h-127z" />
<glyph unicode="&#xfc;" horiz-adv-x="1097" d="M113 383v694h132v-672q0 -144 74 -221t211 -77q142 0 229 92.5t87 244.5v633h133v-1077h-125v202h-3q-45 -100 -138.5 -157t-219.5 -57q-176 0 -278 106.5t-102 288.5zM275 1351q0 38 27.5 65.5t65.5 27.5t65.5 -27.5t27.5 -65.5t-27.5 -65t-65.5 -27t-65.5 27.5 t-27.5 64.5zM631 1351q0 38 27.5 65.5t65.5 27.5t65.5 -27.5t27.5 -65.5t-27.5 -65t-65.5 -27t-65.5 27t-27.5 65z" />
<glyph unicode="&#x100;" horiz-adv-x="1262" d="M23 0l540 1443h136l539 -1443h-144l-160 442h-606l-160 -442h-145zM326 1633v85h610v-85h-610zM369 560h524l-259 714h-6z" />
<glyph unicode="&#x101;" horiz-adv-x="1048" d="M76 300q0 138 101 216.5t295 92.5l331 22v92q0 118 -71.5 183t-201.5 65q-113 0 -187 -54.5t-92 -150.5h-127q8 142 122.5 232.5t284.5 90.5q185 0 294.5 -96t109.5 -259v-734h-126v206h-3q-44 -98 -144.5 -158t-224.5 -60q-161 0 -261 86.5t-100 225.5zM211 299 q0 -87 70 -141t182 -54q145 0 242.5 86.5t97.5 214.5v119l-315 -22q-136 -9 -206.5 -60.5t-70.5 -142.5zM217 1315v85h618v-85h-618z" />
<glyph unicode="&#x102;" horiz-adv-x="1262" d="M23 0l540 1443h136l539 -1443h-144l-160 442h-606l-160 -442h-145zM339 1823h94q0 -80 56 -134.5t142 -54.5t142 54.5t56 134.5h94q0 -121 -81.5 -196.5t-210.5 -75.5t-210.5 75.5t-81.5 196.5zM369 560h524l-259 714h-6z" />
<glyph unicode="&#x103;" horiz-adv-x="1048" d="M76 300q0 138 101 216.5t295 92.5l331 22v92q0 118 -71.5 183t-201.5 65q-113 0 -187 -54.5t-92 -150.5h-127q8 142 122.5 232.5t284.5 90.5q185 0 294.5 -96t109.5 -259v-734h-126v206h-3q-44 -98 -144.5 -158t-224.5 -60q-161 0 -261 86.5t-100 225.5zM211 299 q0 -87 70 -141t182 -54q145 0 242.5 86.5t97.5 214.5v119l-315 -22q-136 -9 -206.5 -60.5t-70.5 -142.5zM226 1530h97q0 -86 58 -143t146 -57t146 57t58 143h97q0 -129 -83.5 -207.5t-217.5 -78.5t-217.5 78.5t-83.5 207.5z" />
<glyph unicode="&#x104;" horiz-adv-x="1262" d="M23 0l540 1443h136l539 -1443l-6 -2q-93 -32 -146 -83.5t-53 -111.5q0 -47 34.5 -77.5t88.5 -30.5q44 0 67 7v-104q-37 -14 -93 -14q-99 0 -162.5 54.5t-63.5 139.5q0 68 47 128.5t138 106.5l-155 429h-606l-160 -442h-145zM369 560h524l-259 714h-6z" />
<glyph unicode="&#x105;" horiz-adv-x="1048" d="M76 300q0 138 101 216.5t295 92.5l331 22v92q0 118 -71.5 183t-201.5 65q-113 0 -187 -54.5t-92 -150.5h-127q8 142 122.5 232.5t284.5 90.5q185 0 294.5 -96t109.5 -259v-734l-10 -4q-90 -38 -138 -87.5t-48 -105.5q0 -47 34.5 -77.5t89.5 -30.5q43 0 67 7v-104 q-39 -14 -94 -14q-99 0 -162.5 54t-63.5 138q0 75 53.5 139t145.5 99v192h-3q-44 -98 -144.5 -158t-224.5 -60q-161 0 -261 86.5t-100 225.5zM211 299q0 -87 70 -141t182 -54q145 0 242.5 86.5t97.5 214.5v119l-315 -22q-136 -9 -206.5 -60.5t-70.5 -142.5z" />
<glyph unicode="&#x106;" horiz-adv-x="1371" d="M77 725q0 339 174.5 540t468.5 201q151 0 277.5 -61t207.5 -171t100 -249h-137q-30 156 -155 255t-293 99q-230 0 -366.5 -166.5t-136.5 -447.5q0 -285 136.5 -453t367.5 -168q173 0 294 87t153 236h137q-38 -211 -194 -330.5t-391 -119.5q-295 0 -469 202.5t-174 545.5z M660 1552l252 295h154l-289 -295h-117z" />
<glyph unicode="&#x107;" horiz-adv-x="1046" d="M65 539q0 250 132.5 400t351.5 150q182 0 302.5 -101t140.5 -250h-131q-20 103 -103 168t-208 65q-158 0 -254 -118t-96 -314q0 -199 96 -315.5t255 -116.5q124 0 206 59.5t105 165.5h131q-23 -154 -144 -249t-298 -95q-221 0 -353.5 148.5t-132.5 402.5zM483 1251 l220 301h153l-256 -301h-117z" />
<glyph unicode="&#x108;" horiz-adv-x="1371" d="M77 725q0 339 174.5 540t468.5 201q151 0 277.5 -61t207.5 -171t100 -249h-137q-30 156 -155 255t-293 99q-230 0 -366.5 -166.5t-136.5 -447.5q0 -285 136.5 -453t367.5 -168q173 0 294 87t153 236h137q-38 -211 -194 -330.5t-391 -119.5q-295 0 -469 202.5t-174 545.5z M382 1552l283 295h110l283 -295h-131l-206 217h-2l-206 -217h-131z" />
<glyph unicode="&#x109;" horiz-adv-x="1046" d="M65 539q0 250 132.5 400t351.5 150q182 0 302.5 -101t140.5 -250h-131q-20 103 -103 168t-208 65q-158 0 -254 -118t-96 -314q0 -199 96 -315.5t255 -116.5q124 0 206 59.5t105 165.5h131q-23 -154 -144 -249t-298 -95q-221 0 -353.5 148.5t-132.5 402.5zM227 1251 l273 301h97l273 -301h-127l-192 220h-5l-192 -220h-127z" />
<glyph unicode="&#x10a;" horiz-adv-x="1371" d="M77 725q0 339 174.5 540t468.5 201q151 0 277.5 -61t207.5 -171t100 -249h-137q-30 156 -155 255t-293 99q-230 0 -366.5 -166.5t-136.5 -447.5q0 -285 136.5 -453t367.5 -168q173 0 294 87t153 236h137q-38 -211 -194 -330.5t-391 -119.5q-295 0 -469 202.5t-174 545.5z M618 1678q0 42 30 72t72 30t72 -30t30 -72t-30 -72t-72 -30t-72 30t-30 72z" />
<glyph unicode="&#x10b;" horiz-adv-x="1046" d="M65 539q0 250 132.5 400t351.5 150q182 0 302.5 -101t140.5 -250h-131q-20 103 -103 168t-208 65q-158 0 -254 -118t-96 -314q0 -199 96 -315.5t255 -116.5q124 0 206 59.5t105 165.5h131q-23 -154 -144 -249t-298 -95q-221 0 -353.5 148.5t-132.5 402.5zM445 1363 q0 43 30.5 73.5t73.5 30.5t73.5 -30.5t30.5 -73.5t-30.5 -73.5t-73.5 -30.5t-73.5 30.5t-30.5 73.5z" />
<glyph unicode="&#x10c;" horiz-adv-x="1371" d="M77 725q0 339 174.5 540t468.5 201q151 0 277.5 -61t207.5 -171t100 -249h-137q-30 156 -155 255t-293 99q-230 0 -366.5 -166.5t-136.5 -447.5q0 -285 136.5 -453t367.5 -168q173 0 294 87t153 236h137q-38 -211 -194 -330.5t-391 -119.5q-295 0 -469 202.5t-174 545.5z M382 1847h131l206 -217h2l206 217h131l-283 -295h-110z" />
<glyph unicode="&#x10d;" horiz-adv-x="1046" d="M65 539q0 250 132.5 400t351.5 150q182 0 302.5 -101t140.5 -250h-131q-20 103 -103 168t-208 65q-158 0 -254 -118t-96 -314q0 -199 96 -315.5t255 -116.5q124 0 206 59.5t105 165.5h131q-23 -154 -144 -249t-298 -95q-221 0 -353.5 148.5t-132.5 402.5zM227 1552h127 l192 -219h5l192 219h127l-273 -301h-97z" />
<glyph unicode="&#x10e;" horiz-adv-x="1370" d="M135 0v1443h475q324 0 504 -189.5t180 -531.5q0 -343 -179.5 -532.5t-504.5 -189.5h-475zM213 1846h131l206 -217h2l206 217h131l-283 -295h-110zM272 124h330q266 0 409.5 155t143.5 442q0 288 -143.5 443t-409.5 155h-330v-1195z" />
<glyph unicode="&#x10f;" horiz-adv-x="1274" d="M65 539q0 245 128 397.5t330 152.5q128 0 227 -63.5t143 -169.5h3v650h133v-1506h-126v229h-3q-47 -111 -146 -176t-228 -65q-203 0 -332 152.5t-129 398.5zM200 539q0 -194 96 -313t251 -119t252.5 120t97.5 312q0 191 -97.5 311.5t-252.5 120.5t-251 -119t-96 -313z M1195 1052v444h109l-24 -444h-85z" />
<glyph unicode="&#x110;" horiz-adv-x="1385" d="M24 681v124h126v638h475q324 0 504 -189.5t180 -531.5q0 -343 -179.5 -532.5t-504.5 -189.5h-475v681h-126zM287 124h330q266 0 409.5 155t143.5 442q0 288 -143.5 443t-409.5 155h-330v-514h312v-124h-312v-557z" />
<glyph unicode="&#x111;" horiz-adv-x="1177" d="M65 539q0 245 128 397.5t330 152.5q128 0 227 -63.5t143 -169.5h3v416h-262v97h262v137h133v-137h134v-97h-134v-1272h-126v229h-3q-47 -111 -146 -176t-228 -65q-203 0 -332 152.5t-129 398.5zM200 539q0 -194 96 -313t251 -119t252.5 120t97.5 312q0 191 -97.5 311.5 t-252.5 120.5t-251 -119t-96 -313z" />
<glyph unicode="&#x112;" horiz-adv-x="1104" d="M135 0v1443h871v-124h-735v-519h698v-122h-698v-554h735v-124h-871zM265 1633v85h610v-85h-610z" />
<glyph unicode="&#x113;" horiz-adv-x="1075" d="M65 536q0 251 131.5 402t348.5 151q212 0 338.5 -142.5t126.5 -382.5v-58h-808v-7q0 -182 96.5 -288t257.5 -106q119 0 202 55t107 145h131q-24 -139 -146.5 -228t-296.5 -89q-224 0 -356 147.5t-132 400.5zM202 614h670q-2 161 -92.5 259.5t-236.5 98.5 q-145 0 -238.5 -98.5t-102.5 -259.5zM234 1315v85h618v-85h-618z" />
<glyph unicode="&#x114;" horiz-adv-x="1104" d="M135 0v1443h871v-124h-735v-519h698v-122h-698v-554h735v-124h-871zM278 1823h94q0 -80 56 -134.5t142 -54.5t142 54.5t56 134.5h94q0 -121 -81.5 -196.5t-210.5 -75.5t-210.5 75.5t-81.5 196.5z" />
<glyph unicode="&#x115;" horiz-adv-x="1075" d="M65 536q0 251 131.5 402t348.5 151q212 0 338.5 -142.5t126.5 -382.5v-58h-808v-7q0 -182 96.5 -288t257.5 -106q119 0 202 55t107 145h131q-24 -139 -146.5 -228t-296.5 -89q-224 0 -356 147.5t-132 400.5zM202 614h670q-2 161 -92.5 259.5t-236.5 98.5 q-145 0 -238.5 -98.5t-102.5 -259.5zM243 1530h97q0 -86 58 -143t146 -57t146 57t58 143h97q0 -129 -83.5 -207.5t-217.5 -78.5t-217.5 78.5t-83.5 207.5z" />
<glyph unicode="&#x116;" horiz-adv-x="1104" d="M135 0v1443h871v-124h-735v-519h698v-122h-698v-554h735v-124h-871zM468 1677q0 42 30 72t72 30t72 -30t30 -72t-30 -72t-72 -30t-72 30t-30 72z" />
<glyph unicode="&#x117;" horiz-adv-x="1075" d="M65 536q0 251 131.5 402t348.5 151q212 0 338.5 -142.5t126.5 -382.5v-58h-808v-7q0 -182 96.5 -288t257.5 -106q119 0 202 55t107 145h131q-24 -139 -146.5 -228t-296.5 -89q-224 0 -356 147.5t-132 400.5zM202 614h670q-2 161 -92.5 259.5t-236.5 98.5 q-145 0 -238.5 -98.5t-102.5 -259.5zM441 1363q0 43 30.5 73.5t73.5 30.5t73.5 -30.5t30.5 -73.5t-30.5 -73.5t-73.5 -30.5t-73.5 30.5t-30.5 73.5z" />
<glyph unicode="&#x118;" horiz-adv-x="1104" d="M135 0v1443h871v-124h-735v-519h698v-122h-698v-554h735v-115l-33 -11q-88 -28 -143.5 -81.5t-55.5 -113.5q0 -47 34.5 -77.5t88.5 -30.5q42 0 68 7v-104q-40 -14 -94 -14q-98 0 -162 54.5t-64 139.5q0 65 41 122t114 96v4h-665z" />
<glyph unicode="&#x119;" horiz-adv-x="1075" d="M65 536q0 251 131.5 402t348.5 151q212 0 338.5 -142.5t126.5 -382.5v-58h-808v-7q0 -182 96.5 -288t257.5 -106q119 0 202 55t107 145h131q-26 -153 -199 -277q-82 -57 -120 -111t-38 -114q0 -47 34.5 -77.5t88.5 -30.5q44 0 67 7v-104q-39 -14 -93 -14q-99 0 -162.5 54 t-63.5 138q0 122 135 221v4q-39 -13 -92 -13q-224 0 -356 147.5t-132 400.5zM202 614h670q-2 161 -92.5 259.5t-236.5 98.5q-145 0 -238.5 -98.5t-102.5 -259.5z" />
<glyph unicode="&#x11a;" horiz-adv-x="1104" d="M135 0v1443h871v-124h-735v-519h698v-122h-698v-554h735v-124h-871zM232 1846h131l206 -217h2l206 217h131l-283 -295h-110z" />
<glyph unicode="&#x11b;" horiz-adv-x="1075" d="M65 536q0 251 131.5 402t348.5 151q212 0 338.5 -142.5t126.5 -382.5v-58h-808v-7q0 -182 96.5 -288t257.5 -106q119 0 202 55t107 145h131q-24 -139 -146.5 -228t-296.5 -89q-224 0 -356 147.5t-132 400.5zM202 614h670q-2 161 -92.5 259.5t-236.5 98.5 q-145 0 -238.5 -98.5t-102.5 -259.5zM223 1552h127l192 -219h5l192 219h127l-273 -301h-97z" />
<glyph unicode="&#x11c;" horiz-adv-x="1409" d="M77 730q0 335 176.5 535.5t471.5 200.5q227 0 388 -125t202 -332h-142q-44 154 -163.5 242t-284.5 88q-235 0 -371.5 -163.5t-136.5 -445.5q0 -286 138 -456t370 -170q209 0 336 123t127 327v51h-448v120h584v-139q0 -286 -159 -447.5t-440 -161.5q-293 0 -470.5 206 t-177.5 547zM387 1551l283 295h110l283 -295h-131l-206 217h-2l-206 -217h-131z" />
<glyph unicode="&#x11d;" horiz-adv-x="1144" d="M65 541q0 247 126 397.5t332 150.5q127 0 226.5 -64t147.5 -171h2v223h126v-1057q0 -184 -128 -289.5t-345 -105.5q-178 0 -296 76t-138 200h138q20 -73 102 -116.5t202 -43.5q151 0 242 72.5t91 196.5v219h-3q-46 -106 -144.5 -170t-225.5 -64q-203 0 -329 151t-126 395 zM200 541q0 -193 94 -310t249 -117q156 0 253 118.5t97 308.5q0 191 -97 310.5t-253 119.5q-154 0 -248.5 -118t-94.5 -312zM234 1251l273 301h97l273 -301h-127l-192 220h-5l-192 -220h-127z" />
<glyph unicode="&#x11e;" horiz-adv-x="1409" d="M77 730q0 335 176.5 535.5t471.5 200.5q227 0 388 -125t202 -332h-142q-44 154 -163.5 242t-284.5 88q-235 0 -371.5 -163.5t-136.5 -445.5q0 -286 138 -456t370 -170q209 0 336 123t127 327v51h-448v120h584v-139q0 -286 -159 -447.5t-440 -161.5q-293 0 -470.5 206 t-177.5 547zM433 1823h94q0 -80 56 -134.5t142 -54.5t142 54.5t56 134.5h94q0 -121 -81.5 -196.5t-210.5 -75.5t-210.5 75.5t-81.5 196.5z" />
<glyph unicode="&#x11f;" horiz-adv-x="1144" d="M65 541q0 247 126 397.5t332 150.5q127 0 226.5 -64t147.5 -171h2v223h126v-1057q0 -184 -128 -289.5t-345 -105.5q-178 0 -296 76t-138 200h138q20 -73 102 -116.5t202 -43.5q151 0 242 72.5t91 196.5v219h-3q-46 -106 -144.5 -170t-225.5 -64q-203 0 -329 151t-126 395 zM200 541q0 -193 94 -310t249 -117q156 0 253 118.5t97 308.5q0 191 -97 310.5t-253 119.5q-154 0 -248.5 -118t-94.5 -312zM254 1530h97q0 -86 58 -143t146 -57t146 57t58 143h97q0 -129 -83.5 -207.5t-217.5 -78.5t-217.5 78.5t-83.5 207.5z" />
<glyph unicode="&#x120;" horiz-adv-x="1409" d="M77 730q0 335 176.5 535.5t471.5 200.5q227 0 388 -125t202 -332h-142q-44 154 -163.5 242t-284.5 88q-235 0 -371.5 -163.5t-136.5 -445.5q0 -286 138 -456t370 -170q209 0 336 123t127 327v51h-448v120h584v-139q0 -286 -159 -447.5t-440 -161.5q-293 0 -470.5 206 t-177.5 547zM623 1677q0 42 30 72t72 30t72 -30t30 -72t-30 -72t-72 -30t-72 30t-30 72z" />
<glyph unicode="&#x121;" horiz-adv-x="1144" d="M65 541q0 247 126 397.5t332 150.5q127 0 226.5 -64t147.5 -171h2v223h126v-1057q0 -184 -128 -289.5t-345 -105.5q-178 0 -296 76t-138 200h138q20 -73 102 -116.5t202 -43.5q151 0 242 72.5t91 196.5v219h-3q-46 -106 -144.5 -170t-225.5 -64q-203 0 -329 151t-126 395 zM200 541q0 -193 94 -310t249 -117q156 0 253 118.5t97 308.5q0 191 -97 310.5t-253 119.5q-154 0 -248.5 -118t-94.5 -312zM452 1363q0 43 30.5 73.5t73.5 30.5t73.5 -30.5t30.5 -73.5t-30.5 -73.5t-73.5 -30.5t-73.5 30.5t-30.5 73.5z" />
<glyph unicode="&#x122;" horiz-adv-x="1409" d="M77 730q0 335 176.5 535.5t471.5 200.5q227 0 388 -125t202 -332h-142q-44 154 -163.5 242t-284.5 88q-235 0 -371.5 -163.5t-136.5 -445.5q0 -286 138 -456t370 -170q209 0 336 123t127 327v51h-448v120h584v-139q0 -286 -159 -447.5t-440 -161.5q-293 0 -470.5 206 t-177.5 547zM592 -520l95 358h121l-116 -358h-100z" />
<glyph unicode="&#x123;" horiz-adv-x="1144" d="M65 541q0 247 126 397.5t332 150.5q127 0 226.5 -64t147.5 -171h2v223h126v-1057q0 -184 -128 -289.5t-345 -105.5q-178 0 -296 76t-138 200h138q20 -73 102 -116.5t202 -43.5q151 0 242 72.5t91 196.5v219h-3q-46 -106 -144.5 -170t-225.5 -64q-203 0 -329 151t-126 395 zM200 541q0 -193 94 -310t249 -117q156 0 253 118.5t97 308.5q0 191 -97 310.5t-253 119.5q-154 0 -248.5 -118t-94.5 -312zM419 -882l95 358h121l-116 -358h-100z" />
<glyph unicode="&#x124;" horiz-adv-x="1387" d="M135 0v1443h136v-642h844v642h137v-1443h-137v677h-844v-677h-136zM355 1551l283 295h110l283 -295h-131l-206 217h-2l-206 -217h-131z" />
<glyph unicode="&#x125;" horiz-adv-x="1118" d="M-142 1614l283 295h110l283 -295h-131l-206 217h-2l-206 -217h-131zM129 0v1506h132v-630h3q46 102 137 157.5t219 55.5q176 0 280.5 -109t104.5 -290v-690h-132v669q0 142 -76.5 222t-213.5 80q-146 0 -234 -94.5t-88 -248.5v-628h-132z" />
<glyph unicode="&#x126;" horiz-adv-x="1401" d="M11 1095v111h131v237h136v-237h844v237h137v-237h131v-111h-131v-1095h-137v677h-844v-677h-136v1095h-131zM278 801h844v294h-844v-294z" />
<glyph unicode="&#x127;" horiz-adv-x="1126" d="M14 1272v97h122v137h132v-137h275v-97h-275v-396h4q45 102 136 157.5t219 55.5q176 0 281 -109t105 -290v-690h-133v669q0 142 -76.5 222t-213.5 80q-146 0 -234 -94.5t-88 -248.5v-628h-132v1272h-122z" />
<glyph unicode="&#x128;" horiz-adv-x="406" d="M-93 1554q0 109 43.5 171.5t122.5 62.5q46 0 86 -24.5t64 -54t54 -54t57 -24.5q73 0 73 144h91q0 -107 -43.5 -170.5t-120.5 -63.5q-36 0 -67.5 16t-54.5 39.5t-44 46.5t-44.5 39t-47.5 16q-38 0 -58 -38t-20 -106h-91zM135 0v1443h136v-1443h-136z" />
<glyph unicode="&#x129;" horiz-adv-x="390" d="M-98 1270q0 109 43.5 171.5t122.5 62.5q46 0 86 -24.5t64 -54t54 -54t57 -24.5q73 0 73 144h91q0 -107 -43.5 -170.5t-120.5 -63.5q-36 0 -67.5 16t-54.5 39.5t-44 46.5t-44.5 39t-47.5 16q-38 0 -58 -38t-20 -106h-91zM129 0v1077h132v-1077h-132z" />
<glyph unicode="&#x12a;" horiz-adv-x="406" d="M-102 1633v85h610v-85h-610zM135 0v1443h136v-1443h-136z" />
<glyph unicode="&#x12b;" horiz-adv-x="390" d="M-116 1315v85h618v-85h-618zM129 0v1077h132v-1077h-132z" />
<glyph unicode="&#x12c;" horiz-adv-x="406" d="M-89 1823h94q0 -80 56 -134.5t142 -54.5t142 54.5t56 134.5h94q0 -121 -81.5 -196.5t-210.5 -75.5t-210.5 75.5t-81.5 196.5zM135 0v1443h136v-1443h-136z" />
<glyph unicode="&#x12d;" horiz-adv-x="390" d="M-107 1530h97q0 -86 58 -143t146 -57t146 57t58 143h97q0 -129 -83.5 -207.5t-217.5 -78.5t-217.5 78.5t-83.5 207.5zM129 0v1077h132v-1077h-132z" />
<glyph unicode="&#x12e;" horiz-adv-x="406" d="M-16 -224q0 69 39.5 129.5t111.5 100.5v1437h136v-1443l-5 -3q-153 -86 -153 -194q0 -47 34.5 -77.5t89.5 -30.5q43 0 67 7v-104q-40 -14 -93 -14q-99 0 -163 54t-64 138z" />
<glyph unicode="&#x12f;" horiz-adv-x="390" d="M-26 -224q0 69 41 130t114 102v1069h132v-1077l-5 -3q-153 -86 -153 -194q0 -47 34.5 -77.5t89.5 -30.5q43 0 67 7v-104q-40 -14 -94 -14q-99 0 -162.5 54t-63.5 138zM105 1379q0 37 26.5 63.5t63.5 26.5t63 -26.5t26 -63.5q0 -36 -26 -62.5t-63 -26.5t-63.5 26.5 t-26.5 62.5z" />
<glyph unicode="&#x130;" horiz-adv-x="406" d="M101 1677q0 42 30 72t72 30t72 -30t30 -72t-30 -72t-72 -30t-72 30t-30 72zM135 0v1443h136v-1443h-136z" />
<glyph unicode="&#x131;" horiz-adv-x="390" d="M129 0v1077h132v-1077h-132z" />
<glyph unicode="&#x132;" horiz-adv-x="1393" d="M135 0v1443h136v-1443h-136zM448 331h135q5 -104 77.5 -169t184.5 -65q132 0 204.5 78t72.5 222v1046h136v-1048q0 -199 -109.5 -312t-303.5 -113q-173 0 -284.5 101t-112.5 260z" />
<glyph unicode="&#x133;" horiz-adv-x="779" d="M105 1379q0 37 26.5 63.5t63.5 26.5t63 -26.5t26 -63.5q0 -36 -26 -62.5t-63 -26.5t-63.5 26.5t-26.5 62.5zM129 0v1077h132v-1077h-132zM312 -254h27q97 0 138.5 42t41.5 140v1149h132v-1145q0 -156 -74.5 -227.5t-233.5 -71.5h-31v113zM495 1379q0 37 26.5 63.5 t63.5 26.5t63 -26.5t26 -63.5q0 -36 -26 -62.5t-63 -26.5t-63.5 26.5t-26.5 62.5z" />
<glyph unicode="&#x134;" horiz-adv-x="987" d="M42 331h135q5 -104 77.5 -169t184.5 -65q132 0 204.5 78t72.5 222v1046h136v-1048q0 -199 -109.5 -312t-303.5 -113q-173 0 -284.5 101t-112.5 260zM446 1551l283 295h110l283 -295h-131l-206 217h-2l-206 -217h-131z" />
<glyph unicode="&#x135;" horiz-adv-x="388" d="M-128 1251l273 301h97l273 -301h-127l-192 220h-5l-192 -220h-127zM-78 -254h27q97 0 138.5 42t41.5 140v1149h132v-1145q0 -155 -74 -227t-234 -72h-31v113z" />
<glyph unicode="&#x136;" horiz-adv-x="1209" d="M135 0v1443h136v-748h8l686 748h173l-593 -638l652 -805h-175l-573 708l-178 -193v-515h-136zM448 -520l95 358h121l-116 -358h-100z" />
<glyph unicode="&#x137;" horiz-adv-x="988" d="M129 0v1506h132v-941h1l537 512h164l-486 -465l496 -612h-156l-434 531l-122 -111v-420h-132zM393 -520l95 358h121l-116 -358h-100z" />
<glyph unicode="&#x139;" horiz-adv-x="1052" d="M135 0v1443h136v-1319h723v-124h-859zM143 1551l252 295h154l-289 -295h-117z" />
<glyph unicode="&#x13a;" horiz-adv-x="390" d="M129 0v1506h132v-1506h-132zM135 1614l252 295h154l-289 -295h-117z" />
<glyph unicode="&#x13b;" horiz-adv-x="1052" d="M135 0v1443h136v-1319h723v-124h-859zM431 -520l95 358h121l-116 -358h-100z" />
<glyph unicode="&#x13c;" horiz-adv-x="390" d="M62 -520l95 358h121l-116 -358h-100zM129 0v1506h132v-1506h-132z" />
<glyph unicode="&#x13d;" horiz-adv-x="1052" d="M135 0v1443h136v-1319h723v-124h-859zM529 999v444h129l-37 -444h-92z" />
<glyph unicode="&#x13e;" horiz-adv-x="498" d="M129 0v1506h132v-1506h-132zM418 1062v444h109l-24 -444h-85z" />
<glyph unicode="&#x141;" horiz-adv-x="1061" d="M20 645v111l124 60v627h136v-560l360 175v-111l-360 -175v-648h723v-124h-859v705z" />
<glyph unicode="&#x142;" horiz-adv-x="408" d="M14 655v113l124 63v675h132v-607l124 63v-112l-124 -64v-786h-132v719z" />
<glyph unicode="&#x143;" horiz-adv-x="1393" d="M135 0v1443h135l846 -1205h7v1205h135v-1443h-132l-849 1206h-7v-1206h-135zM636 1551l252 295h154l-289 -295h-117z" />
<glyph unicode="&#x144;" horiz-adv-x="1097" d="M119 0v1077h124v-201h4q46 102 136 157.5t219 55.5q177 0 279.5 -106.5t102.5 -289.5v-693h-132v672q0 143 -75 221t-212 78q-143 0 -228.5 -93t-85.5 -245v-633h-132zM487 1251l220 301h153l-256 -301h-117z" />
<glyph unicode="&#x145;" horiz-adv-x="1393" d="M135 0v1443h135l846 -1205h7v1205h135v-1443h-132l-849 1206h-7v-1206h-135zM563 -520l95 358h121l-116 -358h-100z" />
<glyph unicode="&#x146;" horiz-adv-x="1097" d="M119 0v1077h124v-201h4q46 102 136 157.5t219 55.5q177 0 279.5 -106.5t102.5 -289.5v-693h-132v672q0 143 -75 221t-212 78q-143 0 -228.5 -93t-85.5 -245v-633h-132zM420 -520l95 358h121l-116 -358h-100z" />
<glyph unicode="&#x147;" horiz-adv-x="1393" d="M135 0v1443h135l846 -1205h7v1205h135v-1443h-132l-849 1206h-7v-1206h-135zM358 1846h131l206 -217h2l206 217h131l-283 -295h-110z" />
<glyph unicode="&#x148;" horiz-adv-x="1097" d="M119 0v1077h124v-201h4q46 102 136 157.5t219 55.5q177 0 279.5 -106.5t102.5 -289.5v-693h-132v672q0 143 -75 221t-212 78q-143 0 -228.5 -93t-85.5 -245v-633h-132zM231 1552h127l192 -219h5l192 219h127l-273 -301h-97z" />
<glyph unicode="&#x14c;" d="M77 721q0 343 177 544t478 201q302 0 479 -201t177 -544t-177 -543.5t-479 -200.5t-478.5 200.5t-176.5 543.5zM217 721q0 -284 139 -450.5t376 -166.5t376.5 167t139.5 450q0 284 -139.5 451t-376.5 167t-376 -167t-139 -451zM427 1633v85h610v-85h-610z" />
<glyph unicode="&#x14d;" horiz-adv-x="1109" d="M65 539q0 251 133.5 400.5t355.5 149.5q223 0 356.5 -149.5t133.5 -400.5t-133.5 -401t-356.5 -150q-222 0 -355.5 149.5t-133.5 401.5zM200 539q0 -201 95 -316.5t259 -115.5q165 0 260 115.5t95 316.5t-95 316.5t-260 115.5q-164 0 -259 -115.5t-95 -316.5zM243 1315 v85h618v-85h-618z" />
<glyph unicode="&#x14e;" d="M77 721q0 343 177 544t478 201q302 0 479 -201t177 -544t-177 -543.5t-479 -200.5t-478.5 200.5t-176.5 543.5zM217 721q0 -284 139 -450.5t376 -166.5t376.5 167t139.5 450q0 284 -139.5 451t-376.5 167t-376 -167t-139 -451zM440 1823h94q0 -80 56 -134.5t142 -54.5 t142 54.5t56 134.5h94q0 -121 -81.5 -196.5t-210.5 -75.5t-210.5 75.5t-81.5 196.5z" />
<glyph unicode="&#x14f;" horiz-adv-x="1109" d="M65 539q0 251 133.5 400.5t355.5 149.5q223 0 356.5 -149.5t133.5 -400.5t-133.5 -401t-356.5 -150q-222 0 -355.5 149.5t-133.5 401.5zM200 539q0 -201 95 -316.5t259 -115.5q165 0 260 115.5t95 316.5t-95 316.5t-260 115.5q-164 0 -259 -115.5t-95 -316.5zM252 1530 h97q0 -86 58 -143t146 -57t146 57t58 143h97q0 -129 -83.5 -207.5t-217.5 -78.5t-217.5 78.5t-83.5 207.5z" />
<glyph unicode="&#x150;" d="M77 721q0 343 177 544t478 201q302 0 479 -201t177 -544t-177 -543.5t-479 -200.5t-478.5 200.5t-176.5 543.5zM217 721q0 -284 139 -450.5t376 -166.5t376.5 167t139.5 450q0 284 -139.5 451t-376.5 167t-376 -167t-139 -451zM534 1551l252 295h147l-288 -295h-111z M825 1551l252 295h147l-288 -295h-111z" />
<glyph unicode="&#x151;" horiz-adv-x="1109" d="M65 539q0 251 133.5 400.5t355.5 149.5q223 0 356.5 -149.5t133.5 -400.5t-133.5 -401t-356.5 -150q-222 0 -355.5 149.5t-133.5 401.5zM200 539q0 -201 95 -316.5t259 -115.5q165 0 260 115.5t95 316.5t-95 316.5t-260 115.5q-164 0 -259 -115.5t-95 -316.5zM357 1251 l209 301h151l-252 -301h-108zM642 1251l209 301h151l-252 -301h-108z" />
<glyph unicode="&#x152;" horiz-adv-x="2200" d="M77 721q0 344 178.5 544.5t483.5 200.5q180 0 316 -80.5t207 -229.5v287h849v-124h-712v-519h674v-122h-674v-554h712v-124h-849v290q-71 -149 -208 -231t-315 -82q-305 0 -483.5 200.5t-178.5 543.5zM217 721q0 -283 141 -450t381 -167q239 0 380 167t141 450 t-141 450.5t-380 167.5q-240 0 -381 -167t-141 -451z" />
<glyph unicode="&#x153;" horiz-adv-x="1919" d="M65 537q0 252 133 401.5t356 149.5q149 0 255 -70t162 -202h7q48 125 158.5 199t252.5 74q213 0 339 -142t126 -383v-58h-808v-8q0 -177 97 -285t257 -108q119 0 202 55t107 145h132q-24 -139 -147 -228t-296 -89q-146 0 -259 73.5t-161 196.5h-7q-54 -131 -160.5 -201 t-256.5 -70q-223 0 -356 149t-133 401zM200 537q0 -201 95 -316t259 -115q165 0 260 115t95 316q0 202 -95 317.5t-260 115.5q-164 0 -259 -116t-95 -317zM1046 613h671q-2 161 -93.5 260t-236.5 99q-144 0 -238 -99t-103 -260z" />
<glyph unicode="&#x154;" horiz-adv-x="1199" d="M135 0v1443h516q211 0 336.5 -114.5t125.5 -307.5q0 -153 -82 -262t-227 -146l349 -613h-159l-332 591h-22h-369v-591h-136zM271 712h369q157 0 244.5 80t87.5 225q0 143 -89.5 223.5t-247.5 80.5h-364v-609zM458 1551l252 295h154l-289 -295h-117z" />
<glyph unicode="&#x155;" horiz-adv-x="634" d="M119 0v1077h124v-191h4q28 96 100 149.5t173 53.5q47 0 84 -11v-131q-34 15 -102 15q-114 0 -182.5 -81.5t-68.5 -212.5v-668h-132zM289 1251l220 301h153l-256 -301h-117z" />
<glyph unicode="&#x156;" horiz-adv-x="1199" d="M135 0v1443h516q211 0 336.5 -114.5t125.5 -307.5q0 -153 -82 -262t-227 -146l349 -613h-159l-332 591h-22h-369v-591h-136zM271 712h369q157 0 244.5 80t87.5 225q0 143 -89.5 223.5t-247.5 80.5h-364v-609zM385 -520l95 358h121l-116 -358h-100z" />
<glyph unicode="&#x157;" horiz-adv-x="634" d="M52 -520l95 358h121l-116 -358h-100zM119 0v1077h124v-191h4q28 96 100 149.5t173 53.5q47 0 84 -11v-131q-34 15 -102 15q-114 0 -182.5 -81.5t-68.5 -212.5v-668h-132z" />
<glyph unicode="&#x158;" horiz-adv-x="1199" d="M135 0v1443h516q211 0 336.5 -114.5t125.5 -307.5q0 -153 -82 -262t-227 -146l349 -613h-159l-332 591h-22h-369v-591h-136zM180 1846h131l206 -217h2l206 217h131l-283 -295h-110zM271 712h369q157 0 244.5 80t87.5 225q0 143 -89.5 223.5t-247.5 80.5h-364v-609z" />
<glyph unicode="&#x159;" horiz-adv-x="634" d="M33 1552h127l192 -219h5l192 219h127l-273 -301h-97zM119 0v1077h124v-191h4q28 96 100 149.5t173 53.5q47 0 84 -11v-131q-34 15 -102 15q-114 0 -182.5 -81.5t-68.5 -212.5v-668h-132z" />
<glyph unicode="&#x15a;" horiz-adv-x="1182" d="M65 392h137q11 -130 123 -210.5t281 -80.5q162 0 266.5 79t104.5 201q0 101 -73 164.5t-234 104.5l-179 46q-201 51 -293.5 140t-92.5 231q0 174 140 286.5t354 112.5q210 0 349.5 -111.5t145.5 -283.5h-137q-10 122 -109 196.5t-253 74.5q-151 0 -249.5 -75.5 t-98.5 -194.5q0 -93 71 -151.5t231 -99.5l156 -40q218 -55 315 -145t97 -240q0 -190 -142 -304.5t-381 -114.5q-226 0 -372 114.5t-157 300.5zM539 1551l252 295h154l-289 -295h-117z" />
<glyph unicode="&#x15b;" horiz-adv-x="958" d="M65 303h134q12 -93 88.5 -148.5t197.5 -55.5q122 0 197.5 51.5t75.5 136.5q0 69 -46 109.5t-155 67.5l-182 46q-140 35 -209 103t-69 174q0 133 109.5 217.5t277.5 84.5q163 0 271 -88t116 -227h-127q-10 92 -80.5 147.5t-183.5 55.5q-109 0 -180.5 -51t-71.5 -132 q0 -65 48.5 -106t152.5 -67l165 -40q162 -41 230 -105.5t68 -179.5q0 -136 -116.5 -222t-298.5 -86q-172 0 -286.5 88.5t-125.5 226.5zM418 1251l220 301h153l-256 -301h-117z" />
<glyph unicode="&#x15c;" horiz-adv-x="1182" d="M65 392h137q11 -130 123 -210.5t281 -80.5q162 0 266.5 79t104.5 201q0 101 -73 164.5t-234 104.5l-179 46q-201 51 -293.5 140t-92.5 231q0 174 140 286.5t354 112.5q210 0 349.5 -111.5t145.5 -283.5h-137q-10 122 -109 196.5t-253 74.5q-151 0 -249.5 -75.5 t-98.5 -194.5q0 -93 71 -151.5t231 -99.5l156 -40q218 -55 315 -145t97 -240q0 -190 -142 -304.5t-381 -114.5q-226 0 -372 114.5t-157 300.5zM261 1551l283 295h110l283 -295h-131l-206 217h-2l-206 -217h-131z" />
<glyph unicode="&#x15d;" horiz-adv-x="958" d="M65 303h134q12 -93 88.5 -148.5t197.5 -55.5q122 0 197.5 51.5t75.5 136.5q0 69 -46 109.5t-155 67.5l-182 46q-140 35 -209 103t-69 174q0 133 109.5 217.5t277.5 84.5q163 0 271 -88t116 -227h-127q-10 92 -80.5 147.5t-183.5 55.5q-109 0 -180.5 -51t-71.5 -132 q0 -65 48.5 -106t152.5 -67l165 -40q162 -41 230 -105.5t68 -179.5q0 -136 -116.5 -222t-298.5 -86q-172 0 -286.5 88.5t-125.5 226.5zM162 1251l273 301h97l273 -301h-127l-192 220h-5l-192 -220h-127z" />
<glyph unicode="&#x15e;" horiz-adv-x="1182" d="M65 392h137q11 -130 123 -210.5t281 -80.5q162 0 266.5 79t104.5 201q0 101 -73 164.5t-234 104.5l-179 46q-201 51 -293.5 140t-92.5 231q0 174 140 286.5t354 112.5q210 0 349.5 -111.5t145.5 -283.5h-137q-10 122 -109 196.5t-253 74.5q-151 0 -249.5 -75.5 t-98.5 -194.5q0 -93 71 -151.5t231 -99.5l156 -40q218 -55 315 -145t97 -240q0 -181 -129 -294t-349 -124l-46 -119q101 0 154.5 -39.5t53.5 -112.5q0 -76 -61.5 -124.5t-156.5 -49.5q-84 0 -139 17v80q41 -16 122 -16q63 0 100 24.5t37 65.5q0 82 -155 82h-53v60l53 132 q-208 12 -340.5 125t-142.5 289z" />
<glyph unicode="&#x15f;" horiz-adv-x="958" d="M65 303h134q12 -93 88.5 -148.5t197.5 -55.5q122 0 197.5 51.5t75.5 136.5q0 69 -46 109.5t-155 67.5l-182 46q-140 35 -209 103t-69 174q0 133 109.5 217.5t277.5 84.5q163 0 271 -88t116 -227h-127q-10 92 -80.5 147.5t-183.5 55.5q-109 0 -180.5 -51t-71.5 -132 q0 -65 48.5 -106t152.5 -67l165 -40q162 -41 230 -105.5t68 -179.5q0 -126 -101 -210t-264 -96l-50 -131q101 0 154.5 -39.5t53.5 -112.5q0 -76 -61.5 -124.5t-156.5 -49.5q-84 0 -139 17v80q41 -16 122 -16q63 0 100 24.5t37 65.5q0 82 -155 82h-53v60l58 143 q-157 11 -259 98t-113 216z" />
<glyph unicode="&#x160;" horiz-adv-x="1182" d="M65 392h137q11 -130 123 -210.5t281 -80.5q162 0 266.5 79t104.5 201q0 101 -73 164.5t-234 104.5l-179 46q-201 51 -293.5 140t-92.5 231q0 174 140 286.5t354 112.5q210 0 349.5 -111.5t145.5 -283.5h-137q-10 122 -109 196.5t-253 74.5q-151 0 -249.5 -75.5 t-98.5 -194.5q0 -93 71 -151.5t231 -99.5l156 -40q218 -55 315 -145t97 -240q0 -190 -142 -304.5t-381 -114.5q-226 0 -372 114.5t-157 300.5zM261 1846h131l206 -217h2l206 217h131l-283 -295h-110z" />
<glyph unicode="&#x161;" horiz-adv-x="958" d="M65 303h134q12 -93 88.5 -148.5t197.5 -55.5q122 0 197.5 51.5t75.5 136.5q0 69 -46 109.5t-155 67.5l-182 46q-140 35 -209 103t-69 174q0 133 109.5 217.5t277.5 84.5q163 0 271 -88t116 -227h-127q-10 92 -80.5 147.5t-183.5 55.5q-109 0 -180.5 -51t-71.5 -132 q0 -65 48.5 -106t152.5 -67l165 -40q162 -41 230 -105.5t68 -179.5q0 -136 -116.5 -222t-298.5 -86q-172 0 -286.5 88.5t-125.5 226.5zM162 1552h127l192 -219h5l192 219h127l-273 -301h-97z" />
<glyph unicode="&#x162;" horiz-adv-x="1179" d="M38 1319v124h1103v-124h-483v-1319h-15l-54 -141q101 0 154.5 -39.5t53.5 -112.5q0 -76 -61.5 -124.5t-156.5 -49.5q-84 0 -139 17v80q41 -16 122 -16q63 0 100 24.5t37 65.5q0 82 -155 82h-53v60l62 154h-32v1319h-483z" />
<glyph unicode="&#x163;" horiz-adv-x="598" d="M23 966v111h154v258h132v-258h213v-111h-213v-696q0 -84 34.5 -122t109.5 -38q42 0 74 4v-113q-25 -7 -100 -7h-14l-52 -135q101 0 154.5 -39.5t53.5 -112.5q0 -76 -61.5 -124.5t-156.5 -49.5q-84 0 -139 17v80q41 -16 122 -16q63 0 100 24.5t37 65.5q0 82 -155 82h-53 v60l64 159q-78 20 -114 82.5t-36 177.5v701h-154z" />
<glyph unicode="&#x164;" horiz-adv-x="1179" d="M38 1319v124h1103v-124h-483v-1319h-137v1319h-483zM252 1846h131l206 -217h2l206 217h131l-283 -295h-110z" />
<glyph unicode="&#x165;" horiz-adv-x="694" d="M23 966v111h154v258h132v-258h213v-111h-213v-696q0 -84 34.5 -122t109.5 -38q42 0 74 4v-113q-25 -7 -100 -7q-134 0 -192 63t-58 208v701h-154zM457 1233v444h109l-24 -444h-85z" />
<glyph unicode="&#x166;" horiz-adv-x="1207" d="M38 1319v124h1103v-124h-483v-531h317v-110h-317v-678h-137v678h-289v110h289v531h-483z" />
<glyph unicode="&#x167;" horiz-adv-x="600" d="M23 539v111h154v316h-154v111h154v258h132v-258h213v-111h-213v-316h217v-111h-217v-269q0 -84 34.5 -122t109.5 -38q42 0 74 4v-113q-25 -7 -100 -7q-134 0 -192 63t-58 208v274h-154z" />
<glyph unicode="&#x168;" horiz-adv-x="1386" d="M135 504v939h136v-931q0 -184 113 -296t309 -112t309 112t113 296v931h137v-939q0 -236 -151 -381.5t-408 -145.5t-407.5 145.5t-150.5 381.5zM397 1554q0 109 43.5 171.5t122.5 62.5q46 0 86 -24.5t64 -54t54 -54t57 -24.5q73 0 73 144h91q0 -107 -43.5 -170.5 t-120.5 -63.5q-36 0 -67.5 16t-54.5 39.5t-44 46.5t-44.5 39t-47.5 16q-38 0 -58 -38t-20 -106h-91z" />
<glyph unicode="&#x169;" horiz-adv-x="1097" d="M113 383v694h132v-672q0 -144 74 -221t211 -77q142 0 229 92.5t87 244.5v633h133v-1077h-125v202h-3q-45 -100 -138.5 -157t-219.5 -57q-176 0 -278 106.5t-102 288.5zM253 1270q0 109 43.5 171.5t122.5 62.5q46 0 86 -24.5t64 -54t54 -54t57 -24.5q73 0 73 144h91 q0 -107 -43.5 -170.5t-120.5 -63.5q-36 0 -67.5 16t-54.5 39.5t-44 46.5t-44.5 39t-47.5 16q-38 0 -58 -38t-20 -106h-91z" />
<glyph unicode="&#x16a;" horiz-adv-x="1386" d="M135 504v939h136v-931q0 -184 113 -296t309 -112t309 112t113 296v931h137v-939q0 -236 -151 -381.5t-408 -145.5t-407.5 145.5t-150.5 381.5zM388 1633v85h610v-85h-610z" />
<glyph unicode="&#x16b;" horiz-adv-x="1097" d="M113 383v694h132v-672q0 -144 74 -221t211 -77q142 0 229 92.5t87 244.5v633h133v-1077h-125v202h-3q-45 -100 -138.5 -157t-219.5 -57q-176 0 -278 106.5t-102 288.5zM235 1315v85h618v-85h-618z" />
<glyph unicode="&#x16c;" horiz-adv-x="1386" d="M135 504v939h136v-931q0 -184 113 -296t309 -112t309 112t113 296v931h137v-939q0 -236 -151 -381.5t-408 -145.5t-407.5 145.5t-150.5 381.5zM401 1823h94q0 -80 56 -134.5t142 -54.5t142 54.5t56 134.5h94q0 -121 -81.5 -196.5t-210.5 -75.5t-210.5 75.5t-81.5 196.5z " />
<glyph unicode="&#x16d;" horiz-adv-x="1097" d="M113 383v694h132v-672q0 -144 74 -221t211 -77q142 0 229 92.5t87 244.5v633h133v-1077h-125v202h-3q-45 -100 -138.5 -157t-219.5 -57q-176 0 -278 106.5t-102 288.5zM244 1530h97q0 -86 58 -143t146 -57t146 57t58 143h97q0 -129 -83.5 -207.5t-217.5 -78.5 t-217.5 78.5t-83.5 207.5z" />
<glyph unicode="&#x16e;" horiz-adv-x="1386" d="M135 504v939h136v-931q0 -184 113 -296t309 -112t309 112t113 296v931h137v-939q0 -236 -151 -381.5t-408 -145.5t-407.5 145.5t-150.5 381.5zM505 1695q0 77 55.5 132t132.5 55t132.5 -55t55.5 -132t-55.5 -132.5t-132.5 -55.5t-132.5 55.5t-55.5 132.5zM574 1695 q0 -50 34.5 -85t84.5 -35t84.5 35t34.5 85q0 49 -35 84t-84 35t-84 -35t-35 -84z" />
<glyph unicode="&#x16f;" horiz-adv-x="1097" d="M113 383v694h132v-672q0 -144 74 -221t211 -77q142 0 229 92.5t87 244.5v633h133v-1077h-125v202h-3q-45 -100 -138.5 -157t-219.5 -57q-176 0 -278 106.5t-102 288.5zM359 1394q0 77 55 132.5t132 55.5t132.5 -55.5t55.5 -132.5t-55.5 -132.5t-132.5 -55.5t-132 55.5 t-55 132.5zM427 1394q0 -50 35 -85t84 -35q50 0 85 35t35 85t-35 85t-85 35q-49 0 -84 -35t-35 -85z" />
<glyph unicode="&#x170;" horiz-adv-x="1386" d="M135 504v939h136v-931q0 -184 113 -296t309 -112t309 112t113 296v931h137v-939q0 -236 -151 -381.5t-408 -145.5t-407.5 145.5t-150.5 381.5zM495 1551l252 295h147l-288 -295h-111zM786 1551l252 295h147l-288 -295h-111z" />
<glyph unicode="&#x171;" horiz-adv-x="1097" d="M113 383v694h132v-672q0 -144 74 -221t211 -77q142 0 229 92.5t87 244.5v633h133v-1077h-125v202h-3q-45 -100 -138.5 -157t-219.5 -57q-176 0 -278 106.5t-102 288.5zM349 1251l209 301h151l-252 -301h-108zM634 1251l209 301h151l-252 -301h-108z" />
<glyph unicode="&#x172;" horiz-adv-x="1386" d="M135 504v939h136v-931q0 -187 114.5 -297.5t307.5 -110.5t307.5 110.5t114.5 297.5v931h137v-939q0 -147 -61 -259.5t-189 -212.5q-162 -121 -162 -229q0 -47 34.5 -77.5t88.5 -30.5q43 0 68 7v-104q-40 -14 -94 -14q-99 0 -162.5 54t-63.5 138q0 122 137 225v4 q-74 -28 -155 -28q-253 0 -405.5 144t-152.5 383z" />
<glyph unicode="&#x173;" horiz-adv-x="1097" d="M113 383v694h132v-672q0 -144 74 -221t211 -77q142 0 229 92.5t87 244.5v633h133v-1077l-11 -4q-90 -38 -138 -87.5t-48 -105.5q0 -47 34.5 -77.5t89.5 -30.5q44 0 67 7v-104q-39 -14 -93 -14q-99 0 -163 54t-64 138q0 76 54 139.5t147 98.5v188h-3q-45 -100 -138.5 -157 t-219.5 -57q-176 0 -278 106.5t-102 288.5z" />
<glyph unicode="&#x174;" horiz-adv-x="1854" d="M44 1443h142l318 -1233h6l349 1233h136l348 -1233h7l317 1233h143l-398 -1443h-126l-355 1209h-8l-355 -1209h-127zM589 1551l283 295h110l283 -295h-131l-206 217h-2l-206 -217h-131z" />
<glyph unicode="&#x175;" horiz-adv-x="1477" d="M21 1077h133l244 -927h3l270 927h134l271 -927h3l244 927h133l-307 -1077h-139l-270 897h-3l-270 -897h-139zM416 1251l273 301h97l273 -301h-127l-192 220h-5l-192 -220h-127z" />
<glyph unicode="&#x176;" horiz-adv-x="1219" d="M24 1443h156l427 -685h5l427 685h156l-517 -819v-624h-137v624zM271 1551l283 295h110l283 -295h-131l-206 217h-2l-206 -217h-131z" />
<glyph unicode="&#x177;" horiz-adv-x="980" d="M17 1077h142l330 -943h3l331 943h140l-423 -1136q-70 -189 -141 -255.5t-202 -66.5q-29 0 -66 7v114q28 -7 64 -7q74 0 118.5 41.5t82.5 145.5l26 73zM169 1251l273 301h97l273 -301h-127l-192 220h-5l-192 -220h-127z" />
<glyph unicode="&#x178;" horiz-adv-x="1219" d="M24 1443h156l427 -685h5l427 685h156l-517 -819v-624h-137v624zM338 1668q0 38 27.5 65.5t65.5 27.5t65.5 -27.5t27.5 -65.5t-27.5 -65t-65.5 -27t-65.5 27.5t-27.5 64.5zM694 1668q0 38 27.5 65.5t65.5 27.5t65.5 -27.5t27.5 -65.5t-27.5 -65t-65.5 -27t-65.5 27 t-27.5 65z" />
<glyph unicode="&#x179;" horiz-adv-x="1224" d="M87 0v99l866 1214v6h-838v124h1011v-100l-864 -1213v-6h876v-124h-1051zM552 1551l252 295h154l-289 -295h-117z" />
<glyph unicode="&#x17a;" horiz-adv-x="963" d="M83 0v100l645 864v2h-645v111h796v-101l-644 -862v-3h646v-111h-798zM416 1251l220 301h153l-256 -301h-117z" />
<glyph unicode="&#x17b;" horiz-adv-x="1224" d="M87 0v99l866 1214v6h-838v124h1011v-100l-864 -1213v-6h876v-124h-1051zM510 1677q0 42 30 72t72 30t72 -30t30 -72t-30 -72t-72 -30t-72 30t-30 72z" />
<glyph unicode="&#x17c;" horiz-adv-x="963" d="M83 0v100l645 864v2h-645v111h796v-101l-644 -862v-3h646v-111h-798zM378 1363q0 43 30.5 73.5t73.5 30.5t73.5 -30.5t30.5 -73.5t-30.5 -73.5t-73.5 -30.5t-73.5 30.5t-30.5 73.5z" />
<glyph unicode="&#x17d;" horiz-adv-x="1224" d="M87 0v99l866 1214v6h-838v124h1011v-100l-864 -1213v-6h876v-124h-1051zM274 1846h131l206 -217h2l206 217h131l-283 -295h-110z" />
<glyph unicode="&#x17e;" horiz-adv-x="963" d="M83 0v100l645 864v2h-645v111h796v-101l-644 -862v-3h646v-111h-798zM160 1552h127l192 -219h5l192 219h127l-273 -301h-97z" />
<glyph unicode="&#x192;" horiz-adv-x="1219" d="M40 21v127q34 -21 87.5 -35t99.5 -14q115 0 176 59.5t81 192.5l60 390h-361v111h378l41 263q56 351 383 351q119 0 195 -39v-121q-75 40 -180 40q-118 0 -182.5 -57.5t-83.5 -182.5l-39 -254h389v-111h-406l-63 -406q-28 -182 -120.5 -269.5t-255.5 -87.5q-116 0 -199 43 z" />
<glyph unicode="&#x1a0;" d="M77 721q0 343 177 544t478 201q69 0 194.5 -17t209.5 -17q79 0 109.5 23t30.5 84v129h122v-168q0 -81 -52.5 -125.5t-149.5 -44.5h-72v-5q119 -73 191.5 -239.5t72.5 -364.5q0 -343 -177 -543.5t-479 -200.5t-478.5 200.5t-176.5 543.5zM217 721q0 -284 139 -450.5 t376 -166.5t376.5 167t139.5 450q0 285 -139.5 451.5t-376.5 166.5t-376 -167t-139 -451z" />
<glyph unicode="&#x1a1;" horiz-adv-x="1139" d="M65 539q0 251 133 400.5t356 149.5q64 0 147 -11.5t135 -11.5q65 0 90.5 21.5t25.5 76.5v133h122v-172q0 -70 -40.5 -111t-111.5 -41h-64v-4q87 -51 136.5 -165t49.5 -265q0 -251 -133.5 -401t-356.5 -150t-356 150t-133 401zM200 539q0 -201 95 -316.5t259 -115.5 q165 0 260 116t95 316t-95 316t-260 116t-259.5 -115.5t-94.5 -316.5z" />
<glyph unicode="&#x1af;" horiz-adv-x="1531" d="M135 504v939h136v-931q0 -185 115.5 -296.5t306.5 -111.5q192 0 307 111.5t115 296.5v931h163q101 0 101 94v158h122v-182q0 -80 -50 -125t-139 -45h-60v-839q0 -240 -152.5 -383.5t-406.5 -143.5t-406 143.5t-152 383.5z" />
<glyph unicode="&#x1b0;" horiz-adv-x="1200" d="M113 383v694h132v-672q0 -144 74.5 -221t210.5 -77q141 0 228.5 92t87.5 245v633h138q101 0 101 94v143h122v-167q0 -80 -50 -125t-139 -45h-39v-977h-125v202h-3q-45 -101 -139 -157.5t-219 -56.5q-175 0 -277.5 106t-102.5 289z" />
<glyph unicode="&#x1c4;" horiz-adv-x="2594" d="M135 0v1443h475q324 0 504 -189.5t180 -531.5q0 -343 -179.5 -532.5t-504.5 -189.5h-475zM272 124h330q266 0 409.5 155t143.5 442q0 288 -143.5 443t-409.5 155h-330v-1195zM1457 0v99l866 1214v6h-838v124h1011v-100l-864 -1213v-6h876v-124h-1051zM1644 1846h131 l206 -217h2l206 217h131l-283 -295h-110z" />
<glyph unicode="&#x1c5;" horiz-adv-x="2334" d="M135 0v1443h475q324 0 504 -189.5t180 -531.5q0 -343 -179.5 -532.5t-504.5 -189.5h-475zM272 124h330q266 0 409.5 155t143.5 442q0 288 -143.5 443t-409.5 155h-330v-1195zM1453 0v100l645 864v2h-645v111h796v-101l-644 -862v-3h646v-111h-798zM1530 1552h127 l192 -219h5l192 219h127l-273 -301h-97z" />
<glyph unicode="&#x1c6;" horiz-adv-x="2121" d="M65 539q0 245 128 397.5t330 152.5q128 0 227 -63.5t143 -169.5h3v650h133v-1506h-126v229h-3q-47 -111 -146 -176t-228 -65q-203 0 -332 152.5t-129 398.5zM200 539q0 -194 96 -313t251 -119t252.5 120t97.5 312q0 191 -97.5 311.5t-252.5 120.5t-251 -119t-96 -313z M1240 0v100l645 864v2h-645v111h796v-101l-644 -862v-3h646v-111h-798zM1317 1552h127l192 -219h5l192 219h127l-273 -301h-97z" />
<glyph unicode="&#x1c7;" horiz-adv-x="2037" d="M135 0v1443h136v-1319h723v-124h-859zM1092 331h135q5 -104 77.5 -169t184.5 -65q132 0 204.5 78t72.5 222v1046h136v-1048q0 -199 -109.5 -312t-303.5 -113q-173 0 -284.5 101t-112.5 260z" />
<glyph unicode="&#x1c8;" horiz-adv-x="1439" d="M135 0v1443h136v-1319h723v-124h-859zM972 -254h27q97 0 138.5 42t41.5 140v1149h132v-1145q0 -156 -74.5 -227.5t-233.5 -71.5h-31v113zM1155 1379q0 37 26.5 63.5t63.5 26.5t63 -26.5t26 -63.5q0 -36 -26 -62.5t-63 -26.5t-63.5 26.5t-26.5 62.5z" />
<glyph unicode="&#x1c9;" horiz-adv-x="779" d="M129 0v1506h132v-1506h-132zM312 -254h27q97 0 138.5 42t41.5 140v1149h132v-1145q0 -156 -74.5 -227.5t-233.5 -71.5h-31v113zM495 1379q0 37 26.5 63.5t63.5 26.5t63 -26.5t26 -63.5q0 -36 -26 -62.5t-63 -26.5t-63.5 26.5t-26.5 62.5z" />
<glyph unicode="&#x1ca;" horiz-adv-x="2380" d="M135 0v1443h135l846 -1205h7v1205h135v-1443h-132l-849 1206h-7v-1206h-135zM1435 331h135q5 -104 77.5 -169t184.5 -65q132 0 204.5 78t72.5 222v1046h136v-1048q0 -199 -109.5 -312t-303.5 -113q-173 0 -284.5 101t-112.5 260z" />
<glyph unicode="&#x1cb;" horiz-adv-x="1783" d="M135 0v1443h135l846 -1205h7v1205h135v-1443h-132l-849 1206h-7v-1206h-135zM1315 -254h27q97 0 138.5 42t41.5 140v1149h132v-1145q0 -156 -74.5 -227.5t-233.5 -71.5h-31v113zM1498 1379q0 37 26.5 63.5t63.5 26.5t63 -26.5t26 -63.5q0 -36 -26 -62.5t-63 -26.5 t-63.5 26.5t-26.5 62.5z" />
<glyph unicode="&#x1cc;" horiz-adv-x="1487" d="M119 0v1077h124v-201h4q46 102 136 157.5t219 55.5q177 0 279.5 -106.5t102.5 -289.5v-693h-132v672q0 143 -75 221t-212 78q-143 0 -228.5 -93t-85.5 -245v-633h-132zM1019 -254h27q97 0 138.5 42t41.5 140v1149h132v-1145q0 -156 -74.5 -227.5t-233.5 -71.5h-31v113z M1202 1379q0 37 26.5 63.5t63.5 26.5t63 -26.5t26 -63.5q0 -36 -26 -62.5t-63 -26.5t-63.5 26.5t-26.5 62.5z" />
<glyph unicode="&#x1cd;" horiz-adv-x="1262" d="M23 0l540 1443h136l539 -1443h-144l-160 442h-606l-160 -442h-145zM293 1846h131l206 -217h2l206 217h131l-283 -295h-110zM369 560h524l-259 714h-6z" />
<glyph unicode="&#x1ce;" horiz-adv-x="1048" d="M76 300q0 138 101 216.5t295 92.5l331 22v92q0 118 -71.5 183t-201.5 65q-113 0 -187 -54.5t-92 -150.5h-127q8 142 122.5 232.5t284.5 90.5q185 0 294.5 -96t109.5 -259v-734h-126v206h-3q-44 -98 -144.5 -158t-224.5 -60q-161 0 -261 86.5t-100 225.5zM206 1552h127 l192 -219h5l192 219h127l-273 -301h-97zM211 299q0 -87 70 -141t182 -54q145 0 242.5 86.5t97.5 214.5v119l-315 -22q-136 -9 -206.5 -60.5t-70.5 -142.5z" />
<glyph unicode="&#x1cf;" horiz-adv-x="406" d="M-135 1846h131l206 -217h2l206 217h131l-283 -295h-110zM135 0v1443h136v-1443h-136z" />
<glyph unicode="&#x1d0;" horiz-adv-x="390" d="M-127 1552h127l192 -219h5l192 219h127l-273 -301h-97zM129 0v1077h132v-1077h-132z" />
<glyph unicode="&#x1d1;" d="M77 721q0 343 177 544t478 201q302 0 479 -201t177 -544t-177 -543.5t-479 -200.5t-478.5 200.5t-176.5 543.5zM217 721q0 -284 139 -450.5t376 -166.5t376.5 167t139.5 450q0 284 -139.5 451t-376.5 167t-376 -167t-139 -451zM394 1846h131l206 -217h2l206 217h131 l-283 -295h-110z" />
<glyph unicode="&#x1d2;" horiz-adv-x="1109" d="M65 539q0 251 133.5 400.5t355.5 149.5q223 0 356.5 -149.5t133.5 -400.5t-133.5 -401t-356.5 -150q-222 0 -355.5 149.5t-133.5 401.5zM200 539q0 -201 95 -316.5t259 -115.5q165 0 260 115.5t95 316.5t-95 316.5t-260 115.5q-164 0 -259 -115.5t-95 -316.5zM232 1552 h127l192 -219h5l192 219h127l-273 -301h-97z" />
<glyph unicode="&#x1d3;" horiz-adv-x="1386" d="M135 504v939h136v-931q0 -184 113 -296t309 -112t309 112t113 296v931h137v-939q0 -236 -151 -381.5t-408 -145.5t-407.5 145.5t-150.5 381.5zM355 1846h131l206 -217h2l206 217h131l-283 -295h-110z" />
<glyph unicode="&#x1d4;" horiz-adv-x="1097" d="M113 383v694h132v-672q0 -144 74 -221t211 -77q142 0 229 92.5t87 244.5v633h133v-1077h-125v202h-3q-45 -100 -138.5 -157t-219.5 -57q-176 0 -278 106.5t-102 288.5zM224 1552h127l192 -219h5l192 219h127l-273 -301h-97z" />
<glyph unicode="&#x1d5;" horiz-adv-x="1386" d="M135 504v939h136v-931q0 -184 113 -296t309 -112t309 112t113 296v931h137v-939q0 -236 -151 -381.5t-408 -145.5t-407.5 145.5t-150.5 381.5zM388 1895v84h610v-84h-610zM439 1664q0 34 24.5 58.5t59.5 24.5q34 0 58.5 -24.5t24.5 -58.5q0 -35 -24.5 -59.5t-58.5 -24.5 q-35 0 -59.5 24.5t-24.5 59.5zM780 1664q0 34 24.5 58.5t58.5 24.5q35 0 59.5 -24.5t24.5 -58.5q0 -35 -24.5 -59.5t-59.5 -24.5q-34 0 -58.5 24.5t-24.5 59.5z" />
<glyph unicode="&#x1d6;" horiz-adv-x="1097" d="M113 383v694h132v-672q0 -144 74 -221t211 -77q142 0 229 92.5t87 244.5v633h133v-1077h-125v202h-3q-45 -100 -138.5 -157t-219.5 -57q-176 0 -278 106.5t-102 288.5zM235 1634v85h618v-85h-618zM279 1348q0 37 26 63t63 26q38 0 64 -26t26 -63t-26.5 -63t-63.5 -26 t-63 26t-26 63zM634 1348q0 37 26.5 63t63.5 26q38 0 63.5 -25.5t25.5 -63.5q0 -37 -26 -63t-63 -26t-63.5 26t-26.5 63z" />
<glyph unicode="&#x1d7;" horiz-adv-x="1386" d="M135 504v939h136v-931q0 -184 113 -296t309 -112t309 112t113 296v931h137v-939q0 -236 -151 -381.5t-408 -145.5t-407.5 145.5t-150.5 381.5zM439 1664q0 34 24.5 58.5t59.5 24.5q34 0 58.5 -24.5t24.5 -58.5q0 -35 -24.5 -59.5t-58.5 -24.5q-35 0 -59.5 24.5 t-24.5 59.5zM633 1818l195 203h145l-231 -203h-109zM780 1664q0 34 24.5 58.5t58.5 24.5q35 0 59.5 -24.5t24.5 -58.5q0 -35 -24.5 -59.5t-59.5 -24.5q-34 0 -58.5 24.5t-24.5 59.5z" />
<glyph unicode="&#x1d8;" horiz-adv-x="1097" d="M113 383v694h132v-672q0 -144 74 -221t211 -77q142 0 229 92.5t87 244.5v633h133v-1077h-125v202h-3q-45 -100 -138.5 -157t-219.5 -57q-176 0 -278 106.5t-102 288.5zM275 1351q0 38 27.5 65.5t65.5 27.5t65.5 -27.5t27.5 -65.5t-27.5 -65t-65.5 -27t-65.5 27.5 t-27.5 64.5zM483 1565l187 269h148l-217 -269h-118zM631 1351q0 38 27.5 65.5t65.5 27.5t65.5 -27.5t27.5 -65.5t-27.5 -65t-65.5 -27t-65.5 27t-27.5 65z" />
<glyph unicode="&#x1d9;" horiz-adv-x="1386" d="M135 504v939h136v-931q0 -184 113 -296t309 -112t309 112t113 296v931h137v-939q0 -236 -151 -381.5t-408 -145.5t-407.5 145.5t-150.5 381.5zM368 2021h144l176 -135h10l176 135h144l-266 -203h-118zM439 1664q0 34 24.5 58.5t59.5 24.5q34 0 58.5 -24.5t24.5 -58.5 q0 -35 -24.5 -59.5t-58.5 -24.5q-35 0 -59.5 24.5t-24.5 59.5zM780 1664q0 34 24.5 58.5t58.5 24.5q35 0 59.5 -24.5t24.5 -58.5q0 -35 -24.5 -59.5t-59.5 -24.5q-34 0 -58.5 24.5t-24.5 59.5z" />
<glyph unicode="&#x1da;" horiz-adv-x="1097" d="M113 383v694h132v-672q0 -144 74 -221t211 -77q142 0 229 92.5t87 244.5v633h133v-1077h-125v202h-3q-45 -100 -138.5 -157t-219.5 -57q-176 0 -278 106.5t-102 288.5zM220 1834h125l199 -205h4l199 205h125l-261 -269h-130zM275 1351q0 38 27.5 65.5t65.5 27.5 t65.5 -27.5t27.5 -65.5t-27.5 -65t-65.5 -27t-65.5 27.5t-27.5 64.5zM631 1351q0 38 27.5 65.5t65.5 27.5t65.5 -27.5t27.5 -65.5t-27.5 -65t-65.5 -27t-65.5 27t-27.5 65z" />
<glyph unicode="&#x1db;" horiz-adv-x="1386" d="M135 504v939h136v-931q0 -184 113 -296t309 -112t309 112t113 296v931h137v-939q0 -236 -151 -381.5t-408 -145.5t-407.5 145.5t-150.5 381.5zM413 2021h145l195 -203h-109zM439 1664q0 34 24.5 58.5t59.5 24.5q34 0 58.5 -24.5t24.5 -58.5q0 -35 -24.5 -59.5 t-58.5 -24.5q-35 0 -59.5 24.5t-24.5 59.5zM780 1664q0 34 24.5 58.5t58.5 24.5q35 0 59.5 -24.5t24.5 -58.5q0 -35 -24.5 -59.5t-59.5 -24.5q-34 0 -58.5 24.5t-24.5 59.5z" />
<glyph unicode="&#x1dc;" horiz-adv-x="1097" d="M113 383v694h132v-672q0 -144 74 -221t211 -77q142 0 229 92.5t87 244.5v633h133v-1077h-125v202h-3q-45 -100 -138.5 -157t-219.5 -57q-176 0 -278 106.5t-102 288.5zM274 1834h148l187 -269h-118zM275 1351q0 38 27.5 65.5t65.5 27.5t65.5 -27.5t27.5 -65.5t-27.5 -65 t-65.5 -27t-65.5 27.5t-27.5 64.5zM631 1351q0 38 27.5 65.5t65.5 27.5t65.5 -27.5t27.5 -65.5t-27.5 -65t-65.5 -27t-65.5 27t-27.5 65z" />
<glyph unicode="&#x1de;" horiz-adv-x="1262" d="M23 0l540 1443h136l539 -1443h-144l-160 442h-606l-160 -442h-145zM326 1895v84h610v-84h-610zM369 560h524l-259 714h-6zM377 1664q0 34 24.5 58.5t59.5 24.5q34 0 58.5 -24.5t24.5 -58.5q0 -35 -24.5 -59.5t-58.5 -24.5q-35 0 -59.5 24.5t-24.5 59.5zM718 1664 q0 34 24.5 58.5t58.5 24.5q35 0 59.5 -24.5t24.5 -58.5q0 -35 -24.5 -59.5t-59.5 -24.5q-34 0 -58.5 24.5t-24.5 59.5z" />
<glyph unicode="&#x1df;" horiz-adv-x="1048" d="M76 300q0 138 101 216.5t295 92.5l331 22v92q0 118 -71.5 183t-201.5 65q-113 0 -187 -54.5t-92 -150.5h-127q8 142 122.5 232.5t284.5 90.5q185 0 294.5 -96t109.5 -259v-734h-126v206h-3q-44 -98 -144.5 -158t-224.5 -60q-161 0 -261 86.5t-100 225.5zM211 299 q0 -87 70 -141t182 -54q145 0 242.5 86.5t97.5 214.5v119l-315 -22q-136 -9 -206.5 -60.5t-70.5 -142.5zM217 1634v85h618v-85h-618zM261 1348q0 37 26 63t63 26q38 0 64 -26t26 -63t-26.5 -63t-63.5 -26t-63 26t-26 63zM616 1348q0 37 26.5 63t63.5 26q38 0 63.5 -25.5 t25.5 -63.5q0 -37 -26 -63t-63 -26t-63.5 26t-26.5 63z" />
<glyph unicode="&#x1e0;" horiz-adv-x="1262" d="M23 0l540 1443h136l539 -1443h-144l-160 442h-606l-160 -442h-145zM326 1895v84h610v-84h-610zM369 560h524l-259 714h-6zM532 1667q0 40 29 68.5t70 28.5t70 -28.5t29 -68.5q0 -41 -29 -70t-70 -29t-70 29t-29 70z" />
<glyph unicode="&#x1e1;" horiz-adv-x="1048" d="M76 300q0 138 101 216.5t295 92.5l331 22v92q0 118 -71.5 183t-201.5 65q-113 0 -187 -54.5t-92 -150.5h-127q8 142 122.5 232.5t284.5 90.5q185 0 294.5 -96t109.5 -259v-734h-126v206h-3q-44 -98 -144.5 -158t-224.5 -60q-161 0 -261 86.5t-100 225.5zM211 299 q0 -87 70 -141t182 -54q145 0 242.5 86.5t97.5 214.5v119l-315 -22q-136 -9 -206.5 -60.5t-70.5 -142.5zM217 1634v85h618v-85h-618zM425 1361q0 42 31 72.5t72 30.5t72 -30.5t31 -72.5t-30.5 -72t-72.5 -30t-72.5 30t-30.5 72z" />
<glyph unicode="&#x1e2;" horiz-adv-x="1945" d="M23 0l702 1443h1091v-124h-702v-526h665v-122h-665v-547h702v-124h-838v443h-600l-214 -443h-141zM434 561h544v766h-170zM1065 1633v85h610v-85h-610z" />
<glyph unicode="&#x1e3;" horiz-adv-x="1795" d="M76 296q0 136 101.5 214.5t291.5 88.5l333 19v98q0 116 -76 185.5t-202 69.5q-119 0 -193.5 -55t-85.5 -150h-130q12 144 123 233.5t282 89.5q142 0 242.5 -65t128.5 -179h8q51 115 150.5 179.5t235.5 64.5q205 0 325 -141t120 -381v-58h-795v-10q0 -179 96 -286.5 t256 -107.5q116 0 194.5 54t102.5 146h132q-25 -141 -143 -229t-288 -88q-142 0 -247 66.5t-157 191.5h-8q-57 -124 -165.5 -191t-252.5 -67q-172 0 -275.5 84t-103.5 224zM211 298q0 -87 68 -140.5t179 -53.5q145 0 244.5 88t99.5 215v104l-318 -19q-133 -8 -203 -57.5 t-70 -136.5zM594 1315v85h618v-85h-618zM935 616h658q-2 163 -88 259.5t-229 96.5q-146 0 -239 -97.5t-102 -258.5z" />
<glyph unicode="&#x1e6;" horiz-adv-x="1409" d="M77 730q0 335 176.5 535.5t471.5 200.5q227 0 388 -125t202 -332h-142q-44 154 -163.5 242t-284.5 88q-235 0 -371.5 -163.5t-136.5 -445.5q0 -286 138 -456t370 -170q209 0 336 123t127 327v51h-448v120h584v-139q0 -286 -159 -447.5t-440 -161.5q-293 0 -470.5 206 t-177.5 547zM387 1846h131l206 -217h2l206 217h131l-283 -295h-110z" />
<glyph unicode="&#x1e7;" horiz-adv-x="1144" d="M65 541q0 247 126 397.5t332 150.5q127 0 226.5 -64t147.5 -171h2v223h126v-1057q0 -184 -128 -289.5t-345 -105.5q-178 0 -296 76t-138 200h138q20 -73 102 -116.5t202 -43.5q151 0 242 72.5t91 196.5v219h-3q-46 -106 -144.5 -170t-225.5 -64q-203 0 -329 151t-126 395 zM200 541q0 -193 94 -310t249 -117q156 0 253 118.5t97 308.5q0 191 -97 310.5t-253 119.5q-154 0 -248.5 -118t-94.5 -312zM234 1552h127l192 -219h5l192 219h127l-273 -301h-97z" />
<glyph unicode="&#x1e8;" horiz-adv-x="1209" d="M135 0v1443h136v-748h8l686 748h173l-593 -638l652 -805h-175l-573 708l-178 -193v-515h-136zM243 1846h131l206 -217h2l206 217h131l-283 -295h-110z" />
<glyph unicode="&#x1e9;" horiz-adv-x="988" d="M-143 1909h131l206 -217h2l206 217h131l-283 -295h-110zM129 0v1506h132v-941h1l537 512h164l-486 -465l496 -612h-156l-434 531l-122 -111v-420h-132z" />
<glyph unicode="&#x1ea;" d="M77 721q0 343 177 544t478 201q302 0 479 -201t177 -544q0 -221 -80 -388t-247 -298q-89 -66 -128 -120.5t-39 -111.5q0 -47 34.5 -77.5t89.5 -30.5q44 0 67 7v-104q-39 -14 -93 -14q-100 0 -163.5 54t-63.5 138q0 123 138 225v4q-76 -28 -171 -28q-302 0 -478.5 200.5 t-176.5 543.5zM217 721q0 -284 139 -450.5t376 -166.5t376.5 167t139.5 450q0 284 -139.5 451t-376.5 167t-376 -167t-139 -451z" />
<glyph unicode="&#x1eb;" horiz-adv-x="1109" d="M65 539q0 251 133.5 400.5t355.5 149.5q223 0 356.5 -149.5t133.5 -400.5q0 -163 -62 -293.5t-175 -210.5q-158 -108 -158 -232q0 -47 34.5 -77.5t89.5 -30.5q44 0 67 7v-104q-39 -14 -93 -14q-99 0 -163 54t-64 138q0 119 129 221v4q-36 -13 -95 -13 q-222 0 -355.5 149.5t-133.5 401.5zM200 539q0 -201 95 -316.5t259 -115.5q165 0 260 115.5t95 316.5t-95 316.5t-260 115.5q-164 0 -259 -115.5t-95 -316.5z" />
<glyph unicode="&#x1ec;" horiz-adv-x="1464" d="M77 721q0 343 177 544t478 201q302 0 479 -201t177 -544q0 -221 -80 -388t-247 -298q-89 -66 -128 -120.5t-39 -111.5q0 -47 34.5 -77.5t89.5 -30.5q44 0 67 7v-104q-39 -14 -93 -14q-100 0 -163.5 54t-63.5 138q0 123 138 225v4q-76 -28 -171 -28q-302 0 -478.5 200.5 t-176.5 543.5zM217 721q0 -284 139 -450.5t376 -166.5t376.5 167t139.5 450q0 284 -139.5 451t-376.5 167t-376 -167t-139 -451zM427 1633v85h610v-85h-610z" />
<glyph unicode="&#x1ed;" horiz-adv-x="1109" d="M65 539q0 251 133.5 400.5t355.5 149.5q223 0 356.5 -149.5t133.5 -400.5q0 -163 -62 -293.5t-175 -210.5q-158 -108 -158 -232q0 -47 34.5 -77.5t89.5 -30.5q44 0 67 7v-104q-39 -14 -93 -14q-99 0 -163 54t-64 138q0 119 129 221v4q-36 -13 -95 -13 q-222 0 -355.5 149.5t-133.5 401.5zM200 539q0 -201 95 -316.5t259 -115.5q165 0 260 115.5t95 316.5t-95 316.5t-260 115.5q-164 0 -259 -115.5t-95 -316.5zM243 1315v85h618v-85h-618z" />
<glyph unicode="&#x1f1;" horiz-adv-x="2594" d="M135 0v1443h475q324 0 504 -189.5t180 -531.5q0 -343 -179.5 -532.5t-504.5 -189.5h-475zM272 124h330q266 0 409.5 155t143.5 442q0 288 -143.5 443t-409.5 155h-330v-1195zM1457 0v99l866 1214v6h-838v124h1011v-100l-864 -1213v-6h876v-124h-1051z" />
<glyph unicode="&#x1f2;" horiz-adv-x="2334" d="M135 0v1443h475q324 0 504 -189.5t180 -531.5q0 -343 -179.5 -532.5t-504.5 -189.5h-475zM272 124h330q266 0 409.5 155t143.5 442q0 288 -143.5 443t-409.5 155h-330v-1195zM1453 0v100l645 864v2h-645v111h796v-101l-644 -862v-3h646v-111h-798z" />
<glyph unicode="&#x1f3;" horiz-adv-x="2121" d="M65 539q0 245 128 397.5t330 152.5q128 0 227 -63.5t143 -169.5h3v650h133v-1506h-126v229h-3q-47 -111 -146 -176t-228 -65q-203 0 -332 152.5t-129 398.5zM200 539q0 -194 96 -313t251 -119t252.5 120t97.5 312q0 191 -97.5 311.5t-252.5 120.5t-251 -119t-96 -313z M1240 0v100l645 864v2h-645v111h796v-101l-644 -862v-3h646v-111h-798z" />
<glyph unicode="&#x1f4;" horiz-adv-x="1409" d="M77 730q0 335 176.5 535.5t471.5 200.5q227 0 388 -125t202 -332h-142q-44 154 -163.5 242t-284.5 88q-235 0 -371.5 -163.5t-136.5 -445.5q0 -286 138 -456t370 -170q209 0 336 123t127 327v51h-448v120h584v-139q0 -286 -159 -447.5t-440 -161.5q-293 0 -470.5 206 t-177.5 547zM665 1551l252 295h154l-289 -295h-117z" />
<glyph unicode="&#x1f5;" horiz-adv-x="1144" d="M65 541q0 247 126 397.5t332 150.5q127 0 226.5 -64t147.5 -171h2v223h126v-1057q0 -184 -128 -289.5t-345 -105.5q-178 0 -296 76t-138 200h138q20 -73 102 -116.5t202 -43.5q151 0 242 72.5t91 196.5v219h-3q-46 -106 -144.5 -170t-225.5 -64q-203 0 -329 151t-126 395 zM200 541q0 -193 94 -310t249 -117q156 0 253 118.5t97 308.5q0 191 -97 310.5t-253 119.5q-154 0 -248.5 -118t-94.5 -312zM490 1251l220 301h153l-256 -301h-117z" />
<glyph unicode="&#x1f8;" horiz-adv-x="1393" d="M135 0v1443h135l846 -1205h7v1205h135v-1443h-132l-849 1206h-7v-1206h-135zM352 1846h154l252 -295h-117z" />
<glyph unicode="&#x1f9;" horiz-adv-x="1097" d="M119 0v1077h124v-201h4q46 102 136 157.5t219 55.5q177 0 279.5 -106.5t102.5 -289.5v-693h-132v672q0 143 -75 221t-212 78q-143 0 -228.5 -93t-85.5 -245v-633h-132zM240 1552h153l220 -301h-117z" />
<glyph unicode="&#x1fa;" horiz-adv-x="1262" d="M23 0l540 1443h136l539 -1443h-144l-160 442h-606l-160 -442h-145zM369 560h524l-259 714h-6zM443 1673q0 77 55.5 132.5t132.5 55.5t132.5 -55.5t55.5 -132.5t-55.5 -132.5t-132.5 -55.5t-132.5 55.5t-55.5 132.5zM511 1673q0 -50 35 -85t85 -35t85 35t35 85t-35 85.5 t-85 35.5t-85 -35.5t-35 -85.5zM584 1913l131 178h137l-173 -178h-95z" />
<glyph unicode="&#x1fb;" horiz-adv-x="1048" d="M76 300q0 138 101 216.5t295 92.5l331 22v92q0 118 -71.5 183t-201.5 65q-113 0 -187 -54.5t-92 -150.5h-127q8 142 122.5 232.5t284.5 90.5q185 0 294.5 -96t109.5 -259v-734h-126v206h-3q-44 -98 -144.5 -158t-224.5 -60q-161 0 -261 86.5t-100 225.5zM211 299 q0 -87 70 -141t182 -54q145 0 242.5 86.5t97.5 214.5v119l-315 -22q-136 -9 -206.5 -60.5t-70.5 -142.5zM340 1387q0 77 55.5 132.5t132.5 55.5t132.5 -55.5t55.5 -132.5t-55.5 -132t-132.5 -55t-132.5 55t-55.5 132zM409 1387q0 -49 34.5 -84t84.5 -35t84.5 35t34.5 84 q0 50 -34.5 85t-84.5 35t-84.5 -35t-34.5 -85zM474 1651l132 186h125l-160 -186h-97z" />
<glyph unicode="&#x1fc;" horiz-adv-x="1945" d="M23 0l702 1443h1091v-124h-702v-526h665v-122h-665v-547h702v-124h-838v443h-600l-214 -443h-141zM434 561h544v766h-170zM1310 1551l252 295h154l-289 -295h-117z" />
<glyph unicode="&#x1fd;" horiz-adv-x="1795" d="M76 296q0 136 101.5 214.5t291.5 88.5l333 19v98q0 116 -76 185.5t-202 69.5q-119 0 -193.5 -55t-85.5 -150h-130q12 144 123 233.5t282 89.5q142 0 242.5 -65t128.5 -179h8q51 115 150.5 179.5t235.5 64.5q205 0 325 -141t120 -381v-58h-795v-10q0 -179 96 -286.5 t256 -107.5q116 0 194.5 54t102.5 146h132q-25 -141 -143 -229t-288 -88q-142 0 -247 66.5t-157 191.5h-8q-57 -124 -165.5 -191t-252.5 -67q-172 0 -275.5 84t-103.5 224zM211 298q0 -87 68 -140.5t179 -53.5q145 0 244.5 88t99.5 215v104l-318 -19q-133 -8 -203 -57.5 t-70 -136.5zM839 1251l220 301h153l-256 -301h-117zM935 616h658q-2 163 -88 259.5t-229 96.5q-146 0 -239 -97.5t-102 -258.5z" />
<glyph unicode="&#x1fe;" d="M77 721q0 343 177 544t478 201q255 0 424 -147l130 167l77 -54l-140 -182q165 -199 165 -529q0 -343 -177 -543.5t-479 -200.5q-233 0 -396 124l-126 -164l-79 59l132 171q-186 202 -186 554zM217 721q0 -278 133 -443l723 933q-136 128 -341 128q-237 0 -376 -167 t-139 -451zM419 208q129 -104 313 -104q237 0 376.5 167t139.5 450q0 253 -113 416zM705 1551l252 295h154l-289 -295h-117z" />
<glyph unicode="&#x1ff;" horiz-adv-x="1109" d="M65 539q0 251 133.5 400.5t355.5 149.5q162 0 278 -81l81 116l79 -51l-88 -127q140 -149 140 -407q0 -251 -133.5 -401t-356.5 -150q-152 0 -264 72l-81 -117l-82 55l86 124q-148 151 -148 417zM200 539q0 -193 89 -309l472 676q-87 65 -207 65q-164 0 -259 -115.5 t-95 -316.5zM361 162q81 -55 193 -55q165 0 260 115.5t95 316.5q0 183 -81 298zM488 1251l220 301h153l-256 -301h-117z" />
<glyph unicode="&#x200;" horiz-adv-x="1262" d="M23 0l540 1443h136l539 -1443h-144l-160 442h-606l-160 -442h-145zM139 1846h147l252 -295h-111zM369 560h524l-259 714h-6zM430 1846h147l252 -295h-111z" />
<glyph unicode="&#x201;" horiz-adv-x="1048" d="M76 300q0 138 101 216.5t295 92.5l331 22v92q0 118 -71.5 183t-201.5 65q-113 0 -187 -54.5t-92 -150.5h-127q8 142 122.5 232.5t284.5 90.5q185 0 294.5 -96t109.5 -259v-734h-126v206h-3q-44 -98 -144.5 -158t-224.5 -60q-161 0 -261 86.5t-100 225.5zM80 1552h151 l209 -301h-108zM211 299q0 -87 70 -141t182 -54q145 0 242.5 86.5t97.5 214.5v119l-315 -22q-136 -9 -206.5 -60.5t-70.5 -142.5zM365 1552h151l209 -301h-108z" />
<glyph unicode="&#x202;" horiz-adv-x="1262" d="M23 0l540 1443h136l539 -1443h-144l-160 442h-606l-160 -442h-145zM339 1551q0 121 81.5 196.5t210.5 75.5t210.5 -75.5t81.5 -196.5h-94q0 81 -56 135t-142 54t-142 -54t-56 -135h-94zM369 560h524l-259 714h-6z" />
<glyph unicode="&#x203;" horiz-adv-x="1048" d="M76 300q0 138 101 216.5t295 92.5l331 22v92q0 118 -71.5 183t-201.5 65q-113 0 -187 -54.5t-92 -150.5h-127q8 142 122.5 232.5t284.5 90.5q185 0 294.5 -96t109.5 -259v-734h-126v206h-3q-44 -98 -144.5 -158t-224.5 -60q-161 0 -261 86.5t-100 225.5zM211 299 q0 -87 70 -141t182 -54q145 0 242.5 86.5t97.5 214.5v119l-315 -22q-136 -9 -206.5 -60.5t-70.5 -142.5zM227 1251q0 129 83.5 207.5t217.5 78.5t217.5 -78.5t83.5 -207.5h-97q0 86 -58 143t-146 57t-146 -57t-58 -143h-97z" />
<glyph unicode="&#x204;" horiz-adv-x="1104" d="M78 1846h147l252 -295h-111zM135 0v1443h871v-124h-735v-519h698v-122h-698v-554h735v-124h-871zM369 1846h147l252 -295h-111z" />
<glyph unicode="&#x205;" horiz-adv-x="1075" d="M65 536q0 251 131.5 402t348.5 151q212 0 338.5 -142.5t126.5 -382.5v-58h-808v-7q0 -182 96.5 -288t257.5 -106q119 0 202 55t107 145h131q-24 -139 -146.5 -228t-296.5 -89q-224 0 -356 147.5t-132 400.5zM97 1552h151l209 -301h-108zM202 614h670q-2 161 -92.5 259.5 t-236.5 98.5q-145 0 -238.5 -98.5t-102.5 -259.5zM382 1552h151l209 -301h-108z" />
<glyph unicode="&#x206;" horiz-adv-x="1104" d="M135 0v1443h871v-124h-735v-519h698v-122h-698v-554h735v-124h-871zM278 1551q0 121 81.5 196.5t210.5 75.5t210.5 -75.5t81.5 -196.5h-94q0 81 -56 135t-142 54t-142 -54t-56 -135h-94z" />
<glyph unicode="&#x207;" horiz-adv-x="1075" d="M65 536q0 251 131.5 402t348.5 151q212 0 338.5 -142.5t126.5 -382.5v-58h-808v-7q0 -182 96.5 -288t257.5 -106q119 0 202 55t107 145h131q-24 -139 -146.5 -228t-296.5 -89q-224 0 -356 147.5t-132 400.5zM202 614h670q-2 161 -92.5 259.5t-236.5 98.5 q-145 0 -238.5 -98.5t-102.5 -259.5zM244 1251q0 129 83.5 207.5t217.5 78.5t217.5 -78.5t83.5 -207.5h-97q0 86 -58 143t-146 57t-146 -57t-58 -143h-97z" />
<glyph unicode="&#x208;" horiz-adv-x="406" d="M-289 1846h147l252 -295h-111zM2 1846h147l252 -295h-111zM135 0v1443h136v-1443h-136z" />
<glyph unicode="&#x209;" horiz-adv-x="390" d="M-253 1552h151l209 -301h-108zM32 1552h151l209 -301h-108zM129 0v1077h132v-1077h-132z" />
<glyph unicode="&#x20a;" horiz-adv-x="406" d="M-89 1551q0 121 81.5 196.5t210.5 75.5t210.5 -75.5t81.5 -196.5h-94q0 81 -56 135t-142 54t-142 -54t-56 -135h-94zM135 0v1443h136v-1443h-136z" />
<glyph unicode="&#x20b;" horiz-adv-x="390" d="M-106 1251q0 129 83.5 207.5t217.5 78.5t217.5 -78.5t83.5 -207.5h-97q0 86 -58 143t-146 57t-146 -57t-58 -143h-97zM129 0v1077h132v-1077h-132z" />
<glyph unicode="&#x20c;" d="M77 721q0 343 177 544t478 201q302 0 479 -201t177 -544t-177 -543.5t-479 -200.5t-478.5 200.5t-176.5 543.5zM217 721q0 -284 139 -450.5t376 -166.5t376.5 167t139.5 450q0 284 -139.5 451t-376.5 167t-376 -167t-139 -451zM240 1846h147l252 -295h-111zM531 1846h147 l252 -295h-111z" />
<glyph unicode="&#x20d;" horiz-adv-x="1109" d="M65 539q0 251 133.5 400.5t355.5 149.5q223 0 356.5 -149.5t133.5 -400.5t-133.5 -401t-356.5 -150q-222 0 -355.5 149.5t-133.5 401.5zM106 1552h151l209 -301h-108zM200 539q0 -201 95 -316.5t259 -115.5q165 0 260 115.5t95 316.5t-95 316.5t-260 115.5 q-164 0 -259 -115.5t-95 -316.5zM391 1552h151l209 -301h-108z" />
<glyph unicode="&#x20e;" d="M77 721q0 343 177 544t478 201q302 0 479 -201t177 -544t-177 -543.5t-479 -200.5t-478.5 200.5t-176.5 543.5zM217 721q0 -284 139 -450.5t376 -166.5t376.5 167t139.5 450q0 284 -139.5 451t-376.5 167t-376 -167t-139 -451zM440 1551q0 121 81.5 196.5t210.5 75.5 t210.5 -75.5t81.5 -196.5h-94q0 81 -56 135t-142 54t-142 -54t-56 -135h-94z" />
<glyph unicode="&#x20f;" horiz-adv-x="1109" d="M65 539q0 251 133.5 400.5t355.5 149.5q223 0 356.5 -149.5t133.5 -400.5t-133.5 -401t-356.5 -150q-222 0 -355.5 149.5t-133.5 401.5zM200 539q0 -201 95 -316.5t259 -115.5q165 0 260 115.5t95 316.5t-95 316.5t-260 115.5q-164 0 -259 -115.5t-95 -316.5zM253 1251 q0 129 83.5 207.5t217.5 78.5t217.5 -78.5t83.5 -207.5h-97q0 86 -58 143t-146 57t-146 -57t-58 -143h-97z" />
<glyph unicode="&#x210;" horiz-adv-x="1199" d="M26 1846h147l252 -295h-111zM135 0v1443h516q211 0 336.5 -114.5t125.5 -307.5q0 -153 -82 -262t-227 -146l349 -613h-159l-332 591h-22h-369v-591h-136zM271 712h369q157 0 244.5 80t87.5 225q0 143 -89.5 223.5t-247.5 80.5h-364v-609zM317 1846h147l252 -295h-111z " />
<glyph unicode="&#x211;" horiz-adv-x="634" d="M-93 1552h151l209 -301h-108zM119 0v1077h124v-191h4q28 96 100 149.5t173 53.5q47 0 84 -11v-131q-34 15 -102 15q-114 0 -182.5 -81.5t-68.5 -212.5v-668h-132zM192 1552h151l209 -301h-108z" />
<glyph unicode="&#x212;" horiz-adv-x="1199" d="M135 0v1443h516q211 0 336.5 -114.5t125.5 -307.5q0 -153 -82 -262t-227 -146l349 -613h-159l-332 591h-22h-369v-591h-136zM226 1551q0 121 81.5 196.5t210.5 75.5t210.5 -75.5t81.5 -196.5h-94q0 81 -56 135t-142 54t-142 -54t-56 -135h-94zM271 712h369 q157 0 244.5 80t87.5 225q0 143 -89.5 223.5t-247.5 80.5h-364v-609z" />
<glyph unicode="&#x213;" horiz-adv-x="634" d="M54 1251q0 129 83.5 207.5t217.5 78.5t217.5 -78.5t83.5 -207.5h-97q0 86 -58 143t-146 57t-146 -57t-58 -143h-97zM119 0v1077h124v-191h4q28 96 100 149.5t173 53.5q47 0 84 -11v-131q-34 15 -102 15q-114 0 -182.5 -81.5t-68.5 -212.5v-668h-132z" />
<glyph unicode="&#x214;" horiz-adv-x="1386" d="M135 504v939h136v-931q0 -184 113 -296t309 -112t309 112t113 296v931h137v-939q0 -236 -151 -381.5t-408 -145.5t-407.5 145.5t-150.5 381.5zM201 1846h147l252 -295h-111zM492 1846h147l252 -295h-111z" />
<glyph unicode="&#x215;" horiz-adv-x="1097" d="M98 1552h151l209 -301h-108zM113 383v694h132v-672q0 -144 74 -221t211 -77q142 0 229 92.5t87 244.5v633h133v-1077h-125v202h-3q-45 -100 -138.5 -157t-219.5 -57q-176 0 -278 106.5t-102 288.5zM383 1552h151l209 -301h-108z" />
<glyph unicode="&#x216;" horiz-adv-x="1386" d="M135 504v939h136v-931q0 -184 113 -296t309 -112t309 112t113 296v931h137v-939q0 -236 -151 -381.5t-408 -145.5t-407.5 145.5t-150.5 381.5zM401 1551q0 121 81.5 196.5t210.5 75.5t210.5 -75.5t81.5 -196.5h-94q0 81 -56 135t-142 54t-142 -54t-56 -135h-94z" />
<glyph unicode="&#x217;" horiz-adv-x="1097" d="M113 383v694h132v-672q0 -144 74 -221t211 -77q142 0 229 92.5t87 244.5v633h133v-1077h-125v202h-3q-45 -100 -138.5 -157t-219.5 -57q-176 0 -278 106.5t-102 288.5zM245 1251q0 129 83.5 207.5t217.5 78.5t217.5 -78.5t83.5 -207.5h-97q0 86 -58 143t-146 57t-146 -57 t-58 -143h-97z" />
<glyph unicode="&#x218;" horiz-adv-x="1182" d="M65 392h137q11 -130 123 -210.5t281 -80.5q162 0 266.5 79t104.5 201q0 101 -73 164.5t-234 104.5l-179 46q-201 51 -293.5 140t-92.5 231q0 174 140 286.5t354 112.5q210 0 349.5 -111.5t145.5 -283.5h-137q-10 122 -109 196.5t-253 74.5q-151 0 -249.5 -75.5 t-98.5 -194.5q0 -93 71 -151.5t231 -99.5l156 -40q218 -55 315 -145t97 -240q0 -190 -142 -304.5t-381 -114.5q-226 0 -372 114.5t-157 300.5zM461 -520l95 358h121l-116 -358h-100z" />
<glyph unicode="&#x219;" horiz-adv-x="958" d="M65 303h134q12 -93 88.5 -148.5t197.5 -55.5q122 0 197.5 51.5t75.5 136.5q0 69 -46 109.5t-155 67.5l-182 46q-140 35 -209 103t-69 174q0 133 109.5 217.5t277.5 84.5q163 0 271 -88t116 -227h-127q-10 92 -80.5 147.5t-183.5 55.5q-109 0 -180.5 -51t-71.5 -132 q0 -65 48.5 -106t152.5 -67l165 -40q162 -41 230 -105.5t68 -179.5q0 -136 -116.5 -222t-298.5 -86q-172 0 -286.5 88.5t-125.5 226.5zM345 -520l95 358h121l-116 -358h-100z" />
<glyph unicode="&#x21a;" horiz-adv-x="1179" d="M38 1319v124h1103v-124h-483v-1319h-137v1319h-483zM457 -520l95 358h121l-116 -358h-100z" />
<glyph unicode="&#x21b;" horiz-adv-x="598" d="M23 966v111h154v258h132v-258h213v-111h-213v-696q0 -84 34.5 -122t109.5 -38q42 0 74 4v-113q-25 -7 -100 -7q-134 0 -192 63t-58 208v701h-154zM229 -520l95 358h121l-116 -358h-100z" />
<glyph unicode="&#x21e;" horiz-adv-x="1387" d="M135 0v1443h136v-642h844v642h137v-1443h-137v677h-844v-677h-136zM355 1846h131l206 -217h2l206 217h131l-283 -295h-110z" />
<glyph unicode="&#x21f;" horiz-adv-x="1118" d="M-142 1909h131l206 -217h2l206 217h131l-283 -295h-110zM129 0v1506h132v-630h3q46 102 137 157.5t219 55.5q176 0 280.5 -109t104.5 -290v-690h-132v669q0 142 -76.5 222t-213.5 80q-146 0 -234 -94.5t-88 -248.5v-628h-132z" />
<glyph unicode="&#x226;" horiz-adv-x="1262" d="M23 0l540 1443h136l539 -1443h-144l-160 442h-606l-160 -442h-145zM369 560h524l-259 714h-6zM529 1677q0 42 30 72t72 30t72 -30t30 -72t-30 -72t-72 -30t-72 30t-30 72z" />
<glyph unicode="&#x227;" horiz-adv-x="1048" d="M76 300q0 138 101 216.5t295 92.5l331 22v92q0 118 -71.5 183t-201.5 65q-113 0 -187 -54.5t-92 -150.5h-127q8 142 122.5 232.5t284.5 90.5q185 0 294.5 -96t109.5 -259v-734h-126v206h-3q-44 -98 -144.5 -158t-224.5 -60q-161 0 -261 86.5t-100 225.5zM211 299 q0 -87 70 -141t182 -54q145 0 242.5 86.5t97.5 214.5v119l-315 -22q-136 -9 -206.5 -60.5t-70.5 -142.5zM424 1363q0 43 30.5 73.5t73.5 30.5t73.5 -30.5t30.5 -73.5t-30.5 -73.5t-73.5 -30.5t-73.5 30.5t-30.5 73.5z" />
<glyph unicode="&#x228;" horiz-adv-x="1104" d="M135 0v1443h871v-124h-735v-519h698v-122h-698v-554h735v-124h-383l-54 -141q101 0 154.5 -39.5t53.5 -112.5q0 -76 -61.5 -124.5t-156.5 -49.5q-84 0 -139 17v80q41 -16 122 -16q63 0 100 24.5t37 65.5q0 82 -155 82h-53v60l62 154h-398z" />
<glyph unicode="&#x229;" horiz-adv-x="1075" d="M65 536q0 251 131.5 402t348.5 151q212 0 338.5 -142.5t126.5 -382.5v-58h-808v-7q0 -182 96.5 -288t257.5 -106q119 0 202 55t107 145h131q-23 -129 -130 -215.5t-264 -99.5l-50 -131q101 0 154.5 -39.5t53.5 -112.5q0 -76 -61.5 -124.5t-156.5 -49.5q-84 0 -139 17v80 q41 -16 122 -16q63 0 100 24.5t37 65.5q0 82 -155 82h-53v60l58 143q-207 14 -327 160t-120 387zM202 614h670q-2 161 -92.5 259.5t-236.5 98.5q-145 0 -238.5 -98.5t-102.5 -259.5z" />
<glyph unicode="&#x22a;" d="M77 721q0 343 177 544t478 201q302 0 479 -201t177 -544t-177 -543.5t-479 -200.5t-478.5 200.5t-176.5 543.5zM217 721q0 -284 139 -450.5t376 -166.5t376.5 167t139.5 450q0 284 -139.5 451t-376.5 167t-376 -167t-139 -451zM427 1895v84h610v-84h-610zM478 1664 q0 34 24.5 58.5t59.5 24.5q34 0 58.5 -24.5t24.5 -58.5q0 -35 -24.5 -59.5t-58.5 -24.5q-35 0 -59.5 24.5t-24.5 59.5zM819 1664q0 34 24.5 58.5t58.5 24.5q35 0 59.5 -24.5t24.5 -58.5q0 -35 -24.5 -59.5t-59.5 -24.5q-34 0 -58.5 24.5t-24.5 59.5z" />
<glyph unicode="&#x22b;" horiz-adv-x="1109" d="M65 539q0 251 133.5 400.5t355.5 149.5q223 0 356.5 -149.5t133.5 -400.5t-133.5 -401t-356.5 -150q-222 0 -355.5 149.5t-133.5 401.5zM200 539q0 -201 95 -316.5t259 -115.5q165 0 260 115.5t95 316.5t-95 316.5t-260 115.5q-164 0 -259 -115.5t-95 -316.5zM243 1634 v85h618v-85h-618zM287 1348q0 37 26 63t63 26q38 0 64 -26t26 -63t-26.5 -63t-63.5 -26t-63 26t-26 63zM642 1348q0 37 26.5 63t63.5 26q38 0 63.5 -25.5t25.5 -63.5q0 -37 -26 -63t-63 -26t-63.5 26t-26.5 63z" />
<glyph unicode="&#x22c;" d="M77 721q0 343 177 544t478 201q302 0 479 -201t177 -544t-177 -543.5t-479 -200.5t-478.5 200.5t-176.5 543.5zM217 721q0 -284 139 -450.5t376 -166.5t376.5 167t139.5 450q0 284 -139.5 451t-376.5 167t-376 -167t-139 -451zM427 1895v84h610v-84h-610zM441 1557 q0 104 43.5 164t121.5 60q37 0 68.5 -15.5t53.5 -37.5t41.5 -44.5t41 -38t43.5 -15.5q72 0 72 136h91q0 -102 -44 -163.5t-119 -61.5q-35 0 -65.5 15.5t-52 37.5t-40.5 44.5t-41.5 38t-45.5 15.5q-38 0 -57.5 -36t-19.5 -99h-91z" />
<glyph unicode="&#x22d;" horiz-adv-x="1109" d="M65 539q0 251 133.5 400.5t355.5 149.5q223 0 356.5 -149.5t133.5 -400.5t-133.5 -401t-356.5 -150q-222 0 -355.5 149.5t-133.5 401.5zM200 539q0 -201 95 -316.5t259 -115.5q165 0 260 115.5t95 316.5t-95 316.5t-260 115.5q-164 0 -259 -115.5t-95 -316.5zM245 1634 v85h618v-85h-618zM263 1256q0 109 43.5 171.5t122.5 62.5q46 0 86 -24.5t64 -54t54 -54t57 -24.5q73 0 73 144h91q0 -107 -43.5 -170.5t-120.5 -63.5q-36 0 -67.5 16t-54.5 39.5t-44 46.5t-44.5 39t-47.5 16q-38 0 -58 -38t-20 -106h-91z" />
<glyph unicode="&#x22e;" d="M77 721q0 343 177 544t478 201q302 0 479 -201t177 -544t-177 -543.5t-479 -200.5t-478.5 200.5t-176.5 543.5zM217 721q0 -284 139 -450.5t376 -166.5t376.5 167t139.5 450q0 284 -139.5 451t-376.5 167t-376 -167t-139 -451zM630 1677q0 42 30 72t72 30t72 -30t30 -72 t-30 -72t-72 -30t-72 30t-30 72z" />
<glyph unicode="&#x22f;" horiz-adv-x="1109" d="M65 539q0 251 133.5 400.5t355.5 149.5q223 0 356.5 -149.5t133.5 -400.5t-133.5 -401t-356.5 -150q-222 0 -355.5 149.5t-133.5 401.5zM200 539q0 -201 95 -316.5t259 -115.5q165 0 260 115.5t95 316.5t-95 316.5t-260 115.5q-164 0 -259 -115.5t-95 -316.5zM450 1363 q0 43 30.5 73.5t73.5 30.5t73.5 -30.5t30.5 -73.5t-30.5 -73.5t-73.5 -30.5t-73.5 30.5t-30.5 73.5z" />
<glyph unicode="&#x230;" d="M77 721q0 343 177 544t478 201q302 0 479 -201t177 -544t-177 -543.5t-479 -200.5t-478.5 200.5t-176.5 543.5zM217 721q0 -284 139 -450.5t376 -166.5t376.5 167t139.5 450q0 284 -139.5 451t-376.5 167t-376 -167t-139 -451zM427 1895v84h610v-84h-610zM633 1667 q0 40 29 68.5t70 28.5t70 -28.5t29 -68.5q0 -41 -29 -70t-70 -29t-70 29t-29 70z" />
<glyph unicode="&#x2c6;" horiz-adv-x="899" d="M128 1251l273 301h97l273 -301h-127l-192 220h-5l-192 -220h-127z" />
<glyph unicode="&#x2da;" horiz-adv-x="928" d="M277 1395q0 77 55 132.5t132 55.5t132.5 -55.5t55.5 -132.5t-55.5 -132.5t-132.5 -55.5t-132 55.5t-55 132.5zM345 1395q0 -50 35 -85t84 -35q50 0 85 35t35 85t-35 85t-85 35q-49 0 -84 -35t-35 -85z" />
<glyph unicode="&#x2dc;" horiz-adv-x="899" d="M154 1270q0 109 43.5 171.5t122.5 62.5q46 0 86 -24.5t64 -54t54 -54t57 -24.5q73 0 73 144h91q0 -107 -43.5 -170.5t-120.5 -63.5q-36 0 -67.5 16t-54.5 39.5t-44 46.5t-44.5 39t-47.5 16q-38 0 -58 -38t-20 -106h-91z" />
<glyph unicode="&#x1e00;" horiz-adv-x="1262" d="M23 0l540 1443h136l539 -1443h-144l-160 442h-606l-160 -442h-145zM369 560h524l-259 714h-6zM444 -341q0 77 55 132.5t132 55.5t132.5 -55.5t55.5 -132.5t-55.5 -132.5t-132.5 -55.5t-132 55.5t-55 132.5zM512 -341q0 -50 35 -85t84 -35q50 0 85 35t35 85t-35 85t-85 35 q-49 0 -84 -35t-35 -85z" />
<glyph unicode="&#x1e01;" horiz-adv-x="1048" d="M76 300q0 138 101 216.5t295 92.5l331 22v92q0 118 -71.5 183t-201.5 65q-113 0 -187 -54.5t-92 -150.5h-127q8 142 122.5 232.5t284.5 90.5q185 0 294.5 -96t109.5 -259v-734h-126v206h-3q-44 -98 -144.5 -158t-224.5 -60q-161 0 -261 86.5t-100 225.5zM211 299 q0 -87 70 -141t182 -54q145 0 242.5 86.5t97.5 214.5v119l-315 -22q-136 -9 -206.5 -60.5t-70.5 -142.5zM327 -341q0 77 55 132.5t132 55.5t132.5 -55.5t55.5 -132.5t-55.5 -132.5t-132.5 -55.5t-132 55.5t-55 132.5zM395 -341q0 -50 35 -85t84 -35q50 0 85 35t35 85t-35 85 t-85 35q-49 0 -84 -35t-35 -85z" />
<glyph unicode="&#x1e02;" horiz-adv-x="1217" d="M135 0v1443h531q186 0 301.5 -98t115.5 -258q0 -120 -74.5 -212t-189.5 -113v-7q152 -18 245 -114.5t93 -244.5q0 -185 -130 -290.5t-358 -105.5h-534zM271 121h380q176 0 271 73.5t95 208.5t-99.5 208t-285.5 73h-361v-563zM271 802h326q164 0 256 71.5t92 198.5 q0 118 -82 184t-226 66h-366v-520zM440 1677q0 42 30 72t72 30t72 -30t30 -72t-30 -72t-72 -30t-72 30t-30 72z" />
<glyph unicode="&#x1e03;" horiz-adv-x="1154" d="M93 1740q0 42 30 72t72 30t72 -30t30 -72t-30 -72t-72 -30t-72 30t-30 72zM129 0v1506h132v-650h3q47 109 145 171t225 62q203 0 329 -152t126 -398q0 -247 -126.5 -399t-330.5 -152q-129 0 -227.5 63.5t-146.5 176.5h-3v-228h-126zM260 538q0 -191 97.5 -311t251.5 -120 q155 0 250 118.5t95 313.5q0 194 -94.5 313t-249.5 119t-252.5 -121t-97.5 -312z" />
<glyph unicode="&#x1e04;" horiz-adv-x="1217" d="M135 0v1443h531q186 0 301.5 -98t115.5 -258q0 -120 -74.5 -212t-189.5 -113v-7q152 -18 245 -114.5t93 -244.5q0 -185 -130 -290.5t-358 -105.5h-534zM271 121h380q176 0 271 73.5t95 208.5t-99.5 208t-285.5 73h-361v-563zM271 802h326q164 0 256 71.5t92 198.5 q0 118 -82 184t-226 66h-366v-520zM440 -249q0 42 30 72t72 30t72 -30t30 -72t-30 -72t-72 -30t-72 30t-30 72z" />
<glyph unicode="&#x1e05;" horiz-adv-x="1154" d="M129 0v1506h132v-650h3q47 109 145 171t225 62q203 0 329 -152t126 -398q0 -247 -126.5 -399t-330.5 -152q-129 0 -227.5 63.5t-146.5 176.5h-3v-228h-126zM260 538q0 -191 97.5 -311t251.5 -120q155 0 250 118.5t95 313.5q0 194 -94.5 313t-249.5 119t-252.5 -121 t-97.5 -312zM508 -249q0 42 30 72t72 30t72 -30t30 -72t-30 -72t-72 -30t-72 30t-30 72z" />
<glyph unicode="&#x1e06;" horiz-adv-x="1217" d="M135 0v1443h531q186 0 301.5 -98t115.5 -258q0 -120 -74.5 -212t-189.5 -113v-7q152 -18 245 -114.5t93 -244.5q0 -185 -130 -290.5t-358 -105.5h-534zM237 -214h610v-85h-610v85zM271 121h380q176 0 271 73.5t95 208.5t-99.5 208t-285.5 73h-361v-563zM271 802h326 q164 0 256 71.5t92 198.5q0 118 -82 184t-226 66h-366v-520z" />
<glyph unicode="&#x1e07;" horiz-adv-x="1154" d="M129 0v1506h132v-650h3q47 109 145 171t225 62q203 0 329 -152t126 -398q0 -247 -126.5 -399t-330.5 -152q-129 0 -227.5 63.5t-146.5 176.5h-3v-228h-126zM260 538q0 -191 97.5 -311t251.5 -120q155 0 250 118.5t95 313.5q0 194 -94.5 313t-249.5 119t-252.5 -121 t-97.5 -312zM305 -214h610v-85h-610v85z" />
<glyph unicode="&#x1e08;" horiz-adv-x="1371" d="M77 725q0 339 174.5 540t468.5 201q151 0 277.5 -61t207.5 -171t100 -249h-137q-30 156 -155 255t-293 99q-230 0 -366.5 -166.5t-136.5 -447.5q0 -285 136.5 -453t367.5 -168q173 0 294 87t153 236h137q-37 -200 -180 -318.5t-360 -130.5l-46 -119q101 0 154.5 -39.5 t53.5 -112.5q0 -76 -61.5 -124.5t-156.5 -49.5q-84 0 -139 17v80q41 -16 122 -16q63 0 100 24.5t37 65.5q0 82 -155 82h-53v60l53 132q-275 17 -436 217.5t-161 529.5zM660 1552l252 295h154l-289 -295h-117z" />
<glyph unicode="&#x1e09;" horiz-adv-x="1046" d="M65 539q0 250 132.5 400t351.5 150q182 0 302.5 -101t140.5 -250h-131q-20 103 -103 168t-208 65q-158 0 -254 -118t-96 -314q0 -199 96 -315.5t255 -116.5q124 0 206 59.5t105 165.5h131q-22 -143 -128 -236t-265 -106l-50 -131q101 0 154.5 -39.5t53.5 -112.5 q0 -76 -61.5 -124.5t-156.5 -49.5q-84 0 -139 17v80q41 -16 122 -16q63 0 100 24.5t37 65.5q0 82 -155 82h-53v60l58 143q-204 14 -324.5 161.5t-120.5 388.5zM483 1251l220 301h153l-256 -301h-117z" />
<glyph unicode="&#x1e0a;" horiz-adv-x="1370" d="M135 0v1443h475q324 0 504 -189.5t180 -531.5q0 -343 -179.5 -532.5t-504.5 -189.5h-475zM272 124h330q266 0 409.5 155t143.5 442q0 288 -143.5 443t-409.5 155h-330v-1195zM449 1677q0 42 30 72t72 30t72 -30t30 -72t-30 -72t-72 -30t-72 30t-30 72z" />
<glyph unicode="&#x1e0b;" horiz-adv-x="1157" d="M65 539q0 245 128 397.5t330 152.5q128 0 227 -63.5t143 -169.5h3v650h133v-1506h-126v229h-3q-47 -111 -146 -176t-228 -65q-203 0 -332 152.5t-129 398.5zM200 539q0 -194 96 -313t251 -119t252.5 120t97.5 312q0 191 -97.5 311.5t-252.5 120.5t-251 -119t-96 -313z M860 1740q0 42 30 72t72 30t72 -30t30 -72t-30 -72t-72 -30t-72 30t-30 72z" />
<glyph unicode="&#x1e0c;" horiz-adv-x="1370" d="M135 0v1443h475q324 0 504 -189.5t180 -531.5q0 -343 -179.5 -532.5t-504.5 -189.5h-475zM272 124h330q266 0 409.5 155t143.5 442q0 288 -143.5 443t-409.5 155h-330v-1195zM449 -249q0 42 30 72t72 30t72 -30t30 -72t-30 -72t-72 -30t-72 30t-30 72z" />
<glyph unicode="&#x1e0d;" horiz-adv-x="1157" d="M65 539q0 245 128 397.5t330 152.5q128 0 227 -63.5t143 -169.5h3v650h133v-1506h-126v229h-3q-47 -111 -146 -176t-228 -65q-203 0 -332 152.5t-129 398.5zM200 539q0 -194 96 -313t251 -119t252.5 120t97.5 312q0 191 -97.5 311.5t-252.5 120.5t-251 -119t-96 -313z M433 -249q0 42 30 72t72 30t72 -30t30 -72t-30 -72t-72 -30t-72 30t-30 72z" />
<glyph unicode="&#x1e0e;" horiz-adv-x="1370" d="M135 0v1443h475q324 0 504 -189.5t180 -531.5q0 -343 -179.5 -532.5t-504.5 -189.5h-475zM246 -214h610v-85h-610v85zM272 124h330q266 0 409.5 155t143.5 442q0 288 -143.5 443t-409.5 155h-330v-1195z" />
<glyph unicode="&#x1e0f;" horiz-adv-x="1157" d="M65 539q0 245 128 397.5t330 152.5q128 0 227 -63.5t143 -169.5h3v650h133v-1506h-126v229h-3q-47 -111 -146 -176t-228 -65q-203 0 -332 152.5t-129 398.5zM200 539q0 -194 96 -313t251 -119t252.5 120t97.5 312q0 191 -97.5 311.5t-252.5 120.5t-251 -119t-96 -313z M230 -214h610v-85h-610v85z" />
<glyph unicode="&#x1e10;" horiz-adv-x="1370" d="M135 0v1443h475q324 0 504 -189.5t180 -531.5q0 -343 -179.5 -532.5t-504.5 -189.5h-475zM272 124h330q266 0 409.5 155t143.5 442q0 288 -143.5 443t-409.5 155h-330v-1195zM418 -520l95 358h121l-116 -358h-100z" />
<glyph unicode="&#x1e11;" horiz-adv-x="1157" d="M65 539q0 245 128 397.5t330 152.5q128 0 227 -63.5t143 -169.5h3v650h133v-1506h-126v229h-3q-47 -111 -146 -176t-228 -65q-203 0 -332 152.5t-129 398.5zM200 539q0 -194 96 -313t251 -119t252.5 120t97.5 312q0 191 -97.5 311.5t-252.5 120.5t-251 -119t-96 -313z M402 -520l95 358h121l-116 -358h-100z" />
<glyph unicode="&#x1e12;" horiz-adv-x="1370" d="M135 0v1443h475q324 0 504 -189.5t180 -531.5q0 -343 -179.5 -532.5t-504.5 -189.5h-475zM213 -453l283 295h110l283 -295h-131l-206 217h-2l-206 -217h-131zM272 124h330q266 0 409.5 155t143.5 442q0 288 -143.5 443t-409.5 155h-330v-1195z" />
<glyph unicode="&#x1e13;" horiz-adv-x="1157" d="M65 539q0 245 128 397.5t330 152.5q128 0 227 -63.5t143 -169.5h3v650h133v-1506h-126v229h-3q-47 -111 -146 -176t-228 -65q-203 0 -332 152.5t-129 398.5zM197 -453l283 295h110l283 -295h-131l-206 217h-2l-206 -217h-131zM200 539q0 -194 96 -313t251 -119t252.5 120 t97.5 312q0 191 -97.5 311.5t-252.5 120.5t-251 -119t-96 -313z" />
<glyph unicode="&#x1e14;" horiz-adv-x="1104" d="M135 0v1443h871v-124h-735v-519h698v-122h-698v-554h735v-124h-871zM265 1633v85h610v-85h-610zM290 2021h145l195 -203h-109z" />
<glyph unicode="&#x1e15;" horiz-adv-x="1075" d="M65 536q0 251 131.5 402t348.5 151q212 0 338.5 -142.5t126.5 -382.5v-58h-808v-7q0 -182 96.5 -288t257.5 -106q119 0 202 55t107 145h131q-24 -139 -146.5 -228t-296.5 -89q-224 0 -356 147.5t-132 400.5zM202 614h670q-2 161 -92.5 259.5t-236.5 98.5 q-145 0 -238.5 -98.5t-102.5 -259.5zM234 1315v85h618v-85h-618zM277 1837h145l190 -274h-117z" />
<glyph unicode="&#x1e16;" horiz-adv-x="1104" d="M135 0v1443h871v-124h-735v-519h698v-122h-698v-554h735v-124h-871zM265 1633v85h610v-85h-610zM510 1818l195 203h145l-231 -203h-109z" />
<glyph unicode="&#x1e17;" horiz-adv-x="1075" d="M65 536q0 251 131.5 402t348.5 151q212 0 338.5 -142.5t126.5 -382.5v-58h-808v-7q0 -182 96.5 -288t257.5 -106q119 0 202 55t107 145h131q-24 -139 -146.5 -228t-296.5 -89q-224 0 -356 147.5t-132 400.5zM202 614h670q-2 161 -92.5 259.5t-236.5 98.5 q-145 0 -238.5 -98.5t-102.5 -259.5zM234 1315v85h618v-85h-618zM478 1563l190 274h145l-218 -274h-117z" />
<glyph unicode="&#x1e18;" horiz-adv-x="1104" d="M135 0v1443h871v-124h-735v-519h698v-122h-698v-554h735v-124h-871zM232 -453l283 295h110l283 -295h-131l-206 217h-2l-206 -217h-131z" />
<glyph unicode="&#x1e19;" horiz-adv-x="1075" d="M65 536q0 251 131.5 402t348.5 151q212 0 338.5 -142.5t126.5 -382.5v-58h-808v-7q0 -182 96.5 -288t257.5 -106q119 0 202 55t107 145h131q-24 -139 -146.5 -228t-296.5 -89q-224 0 -356 147.5t-132 400.5zM202 614h670q-2 161 -92.5 259.5t-236.5 98.5 q-145 0 -238.5 -98.5t-102.5 -259.5zM215 -453l283 295h110l283 -295h-131l-206 217h-2l-206 -217h-131z" />
<glyph unicode="&#x1e1a;" horiz-adv-x="1104" d="M135 0v1443h871v-124h-735v-519h698v-122h-698v-554h735v-124h-871zM274 -381q0 109 43.5 171.5t122.5 62.5q46 0 86 -24.5t64 -54t54 -54t57 -24.5q73 0 73 144h91q0 -107 -43.5 -170.5t-120.5 -63.5q-36 0 -67.5 16t-54.5 39t-44 46.5t-44.5 39.5t-47.5 16 q-38 0 -58 -38t-20 -106h-91z" />
<glyph unicode="&#x1e1b;" horiz-adv-x="1075" d="M65 536q0 251 131.5 402t348.5 151q212 0 338.5 -142.5t126.5 -382.5v-58h-808v-7q0 -182 96.5 -288t257.5 -106q119 0 202 55t107 145h131q-24 -139 -146.5 -228t-296.5 -89q-224 0 -356 147.5t-132 400.5zM202 614h670q-2 161 -92.5 259.5t-236.5 98.5 q-145 0 -238.5 -98.5t-102.5 -259.5zM257 -381q0 109 43.5 171.5t122.5 62.5q46 0 86 -24.5t64 -54t54 -54t57 -24.5q73 0 73 144h91q0 -107 -43.5 -170.5t-120.5 -63.5q-36 0 -67.5 16t-54.5 39t-44 46.5t-44.5 39.5t-47.5 16q-38 0 -58 -38t-20 -106h-91z" />
<glyph unicode="&#x1e1c;" horiz-adv-x="1104" d="M135 0v1443h871v-124h-735v-519h698v-122h-698v-554h735v-124h-383l-54 -141q101 0 154.5 -39.5t53.5 -112.5q0 -76 -61.5 -124.5t-156.5 -49.5q-84 0 -139 17v80q41 -16 122 -16q63 0 100 24.5t37 65.5q0 82 -155 82h-53v60l62 154h-398zM278 1823h94q0 -80 56 -134.5 t142 -54.5t142 54.5t56 134.5h94q0 -121 -81.5 -196.5t-210.5 -75.5t-210.5 75.5t-81.5 196.5z" />
<glyph unicode="&#x1e1d;" horiz-adv-x="1075" d="M65 536q0 251 131.5 402t348.5 151q212 0 338.5 -142.5t126.5 -382.5v-58h-808v-7q0 -182 96.5 -288t257.5 -106q119 0 202 55t107 145h131q-23 -129 -130 -215.5t-264 -99.5l-50 -131q101 0 154.5 -39.5t53.5 -112.5q0 -76 -61.5 -124.5t-156.5 -49.5q-84 0 -139 17v80 q41 -16 122 -16q63 0 100 24.5t37 65.5q0 82 -155 82h-53v60l58 143q-207 14 -327 160t-120 387zM202 614h670q-2 161 -92.5 259.5t-236.5 98.5q-145 0 -238.5 -98.5t-102.5 -259.5zM243 1530h97q0 -86 58 -143t146 -57t146 57t58 143h97q0 -129 -83.5 -207.5t-217.5 -78.5 t-217.5 78.5t-83.5 207.5z" />
<glyph unicode="&#x1e1e;" horiz-adv-x="1061" d="M135 0v1443h856v-124h-720v-542h662v-122h-662v-655h-136zM461 1677q0 42 30 72t72 30t72 -30t30 -72t-30 -72t-72 -30t-72 30t-30 72z" />
<glyph unicode="&#x1e1f;" horiz-adv-x="589" d="M23 966v111h150v123q0 141 65.5 206.5t200.5 65.5q49 0 89 -9v-111q-35 8 -78 8q-73 0 -108 -38t-36 -124v-121h219v-111h-219v-966h-133v966h-150zM244 1699q0 42 30 72t72 30t72 -30t30 -72t-30 -72t-72 -30t-72 30t-30 72z" />
<glyph unicode="&#x1e20;" horiz-adv-x="1409" d="M77 730q0 335 176.5 535.5t471.5 200.5q227 0 388 -125t202 -332h-142q-44 154 -163.5 242t-284.5 88q-235 0 -371.5 -163.5t-136.5 -445.5q0 -286 138 -456t370 -170q209 0 336 123t127 327v51h-448v120h584v-139q0 -286 -159 -447.5t-440 -161.5q-293 0 -470.5 206 t-177.5 547zM420 1633v85h610v-85h-610z" />
<glyph unicode="&#x1e21;" horiz-adv-x="1144" d="M65 541q0 247 126 397.5t332 150.5q127 0 226.5 -64t147.5 -171h2v223h126v-1057q0 -184 -128 -289.5t-345 -105.5q-178 0 -296 76t-138 200h138q20 -73 102 -116.5t202 -43.5q151 0 242 72.5t91 196.5v219h-3q-46 -106 -144.5 -170t-225.5 -64q-203 0 -329 151t-126 395 zM200 541q0 -193 94 -310t249 -117q156 0 253 118.5t97 308.5q0 191 -97 310.5t-253 119.5q-154 0 -248.5 -118t-94.5 -312zM245 1315v85h618v-85h-618z" />
<glyph unicode="&#x1e22;" horiz-adv-x="1387" d="M135 0v1443h136v-642h844v642h137v-1443h-137v677h-844v-677h-136zM591 1677q0 42 30 72t72 30t72 -30t30 -72t-30 -72t-72 -30t-72 30t-30 72z" />
<glyph unicode="&#x1e23;" horiz-adv-x="1118" d="M94 1740q0 42 30 72t72 30t72 -30t30 -72t-30 -72t-72 -30t-72 30t-30 72zM129 0v1506h132v-630h3q46 102 137 157.5t219 55.5q176 0 280.5 -109t104.5 -290v-690h-132v669q0 142 -76.5 222t-213.5 80q-146 0 -234 -94.5t-88 -248.5v-628h-132z" />
<glyph unicode="&#x1e24;" horiz-adv-x="1387" d="M135 0v1443h136v-642h844v642h137v-1443h-137v677h-844v-677h-136zM591 -249q0 42 30 72t72 30t72 -30t30 -72t-30 -72t-72 -30t-72 30t-30 72z" />
<glyph unicode="&#x1e25;" horiz-adv-x="1118" d="M129 0v1506h132v-630h3q46 102 137 157.5t219 55.5q176 0 280.5 -109t104.5 -290v-690h-132v669q0 142 -76.5 222t-213.5 80q-146 0 -234 -94.5t-88 -248.5v-628h-132zM466 -249q0 42 30 72t72 30t72 -30t30 -72t-30 -72t-72 -30t-72 30t-30 72z" />
<glyph unicode="&#x1e26;" horiz-adv-x="1387" d="M135 0v1443h136v-642h844v642h137v-1443h-137v677h-844v-677h-136zM422 1668q0 38 27.5 65.5t65.5 27.5t65.5 -27.5t27.5 -65.5t-27.5 -65t-65.5 -27t-65.5 27.5t-27.5 64.5zM778 1668q0 38 27.5 65.5t65.5 27.5t65.5 -27.5t27.5 -65.5t-27.5 -65t-65.5 -27t-65.5 27 t-27.5 65z" />
<glyph unicode="&#x1e27;" horiz-adv-x="1118" d="M-75 1731q0 38 27.5 65.5t65.5 27.5t65.5 -27.5t27.5 -65.5t-27.5 -65t-65.5 -27t-65.5 27.5t-27.5 64.5zM129 0v1506h132v-630h3q46 102 137 157.5t219 55.5q176 0 280.5 -109t104.5 -290v-690h-132v669q0 142 -76.5 222t-213.5 80q-146 0 -234 -94.5t-88 -248.5v-628 h-132zM281 1731q0 38 27.5 65.5t65.5 27.5t65.5 -27.5t27.5 -65.5t-27.5 -65t-65.5 -27t-65.5 27t-27.5 65z" />
<glyph unicode="&#x1e28;" horiz-adv-x="1387" d="M53 -370q41 -16 122 -16q63 0 100 24.5t37 65.5q0 82 -155 82h-53v60l62 154h-31v1443h136v-642h844v642h137v-1443h-137v677h-844v-677h-15l-54 -141q101 0 154.5 -39.5t53.5 -112.5q0 -76 -61.5 -124.5t-156.5 -49.5q-84 0 -139 17v80z" />
<glyph unicode="&#x1e29;" horiz-adv-x="1118" d="M46 -370q41 -16 122 -16q63 0 100 24.5t37 65.5q0 82 -155 82h-53v60l62 154h-30v1506h132v-630h3q46 102 137 157.5t219 55.5q176 0 280.5 -109t104.5 -290v-690h-132v669q0 142 -76.5 222t-213.5 80q-146 0 -234 -94.5t-88 -248.5v-628h-12l-54 -141q101 0 154.5 -39.5 t53.5 -112.5q0 -76 -61.5 -124.5t-156.5 -49.5q-84 0 -139 17v80z" />
<glyph unicode="&#x1e2a;" horiz-adv-x="1387" d="M135 0v1443h136v-642h844v642h137v-1443h-137v677h-844v-677h-136zM401 -179h94q0 -80 56 -134.5t142 -54.5t142 54.5t56 134.5h94q0 -121 -81.5 -196.5t-210.5 -75.5t-210.5 75.5t-81.5 196.5z" />
<glyph unicode="&#x1e2b;" horiz-adv-x="1118" d="M129 0v1506h132v-630h3q46 102 137 157.5t219 55.5q176 0 280.5 -109t104.5 -290v-690h-132v669q0 142 -76.5 222t-213.5 80q-146 0 -234 -94.5t-88 -248.5v-628h-132zM276 -179h94q0 -80 56 -134.5t142 -54.5t142 54.5t56 134.5h94q0 -121 -81.5 -196.5t-210.5 -75.5 t-210.5 75.5t-81.5 196.5z" />
<glyph unicode="&#x1e2c;" horiz-adv-x="406" d="M-93 -381q0 109 43.5 171.5t122.5 62.5q46 0 86 -24.5t64 -54t54 -54t57 -24.5q73 0 73 144h91q0 -107 -43.5 -170.5t-120.5 -63.5q-36 0 -67.5 16t-54.5 39t-44 46.5t-44.5 39.5t-47.5 16q-38 0 -58 -38t-20 -106h-91zM135 0v1443h136v-1443h-136z" />
<glyph unicode="&#x1e2d;" horiz-adv-x="390" d="M-101 -381q0 109 43.5 171.5t122.5 62.5q46 0 86 -24.5t64 -54t54 -54t57 -24.5q73 0 73 144h91q0 -107 -43.5 -170.5t-120.5 -63.5q-36 0 -67.5 16t-54.5 39t-44 46.5t-44.5 39.5t-47.5 16q-38 0 -58 -38t-20 -106h-91zM105 1379q0 37 26.5 63.5t63.5 26.5t63 -26.5 t26 -63.5q0 -36 -26 -62.5t-63 -26.5t-63.5 26.5t-26.5 62.5zM129 0v1077h132v-1077h-132z" />
<glyph unicode="&#x1e2e;" horiz-adv-x="406" d="M-51 1664q0 34 24.5 58.5t59.5 24.5q34 0 58.5 -24.5t24.5 -58.5q0 -35 -24.5 -59.5t-58.5 -24.5q-35 0 -59.5 24.5t-24.5 59.5zM135 0v1443h136v-1443h-136zM143 1818l195 203h145l-231 -203h-109zM290 1664q0 34 24.5 58.5t58.5 24.5q35 0 59.5 -24.5t24.5 -58.5 q0 -35 -24.5 -59.5t-59.5 -24.5q-34 0 -58.5 24.5t-24.5 59.5z" />
<glyph unicode="&#x1e2f;" horiz-adv-x="390" d="M-76 1351q0 38 27.5 65.5t65.5 27.5t65.5 -27.5t27.5 -65.5t-27.5 -65t-65.5 -27t-65.5 27.5t-27.5 64.5zM129 0v1077h132v-1077h-132zM132 1565l187 269h148l-217 -269h-118zM280 1351q0 38 27.5 65.5t65.5 27.5t65.5 -27.5t27.5 -65.5t-27.5 -65t-65.5 -27t-65.5 27 t-27.5 65z" />
<glyph unicode="&#x1e30;" horiz-adv-x="1209" d="M135 0v1443h136v-748h8l686 748h173l-593 -638l652 -805h-175l-573 708l-178 -193v-515h-136zM521 1551l252 295h154l-289 -295h-117z" />
<glyph unicode="&#x1e31;" horiz-adv-x="988" d="M129 0v1506h132v-941h1l537 512h164l-486 -465l496 -612h-156l-434 531l-122 -111v-420h-132zM135 1614l252 295h154l-289 -295h-117z" />
<glyph unicode="&#x1e32;" horiz-adv-x="1209" d="M135 0v1443h136v-748h8l686 748h173l-593 -638l652 -805h-175l-573 708l-178 -193v-515h-136zM479 -249q0 42 30 72t72 30t72 -30t30 -72t-30 -72t-72 -30t-72 30t-30 72z" />
<glyph unicode="&#x1e33;" horiz-adv-x="988" d="M129 0v1506h132v-941h1l537 512h164l-486 -465l496 -612h-156l-434 531l-122 -111v-420h-132zM424 -249q0 42 30 72t72 30t72 -30t30 -72t-30 -72t-72 -30t-72 30t-30 72z" />
<glyph unicode="&#x1e34;" horiz-adv-x="1209" d="M135 0v1443h136v-748h8l686 748h173l-593 -638l652 -805h-175l-573 708l-178 -193v-515h-136zM276 -214h610v-85h-610v85z" />
<glyph unicode="&#x1e35;" horiz-adv-x="988" d="M129 0v1506h132v-941h1l537 512h164l-486 -465l496 -612h-156l-434 531l-122 -111v-420h-132zM221 -214h610v-85h-610v85z" />
<glyph unicode="&#x1e36;" horiz-adv-x="1052" d="M135 0v1443h136v-1319h723v-124h-859zM462 -249q0 42 30 72t72 30t72 -30t30 -72t-30 -72t-72 -30t-72 30t-30 72z" />
<glyph unicode="&#x1e37;" horiz-adv-x="390" d="M93 -249q0 42 30 72t72 30t72 -30t30 -72t-30 -72t-72 -30t-72 30t-30 72zM129 0v1506h132v-1506h-132z" />
<glyph unicode="&#x1e38;" horiz-adv-x="1052" d="M-102 1633v85h610v-85h-610zM135 0v1443h136v-1319h723v-124h-859zM462 -249q0 42 30 72t72 30t72 -30t30 -72t-30 -72t-72 -30t-72 30t-30 72z" />
<glyph unicode="&#x1e39;" horiz-adv-x="390" d="M-110 1696v85h610v-85h-610zM93 -249q0 42 30 72t72 30t72 -30t30 -72t-30 -72t-72 -30t-72 30t-30 72zM129 0v1506h132v-1506h-132z" />
<glyph unicode="&#x1e3a;" horiz-adv-x="1052" d="M135 0v1443h136v-1319h723v-124h-859zM259 -214h610v-85h-610v85z" />
<glyph unicode="&#x1e3b;" horiz-adv-x="390" d="M-110 -214h610v-85h-610v85zM129 0v1506h132v-1506h-132z" />
<glyph unicode="&#x1e3c;" horiz-adv-x="1052" d="M135 0v1443h136v-1319h723v-124h-859zM226 -453l283 295h110l283 -295h-131l-206 217h-2l-206 -217h-131z" />
<glyph unicode="&#x1e3d;" horiz-adv-x="390" d="M-143 -453l283 295h110l283 -295h-131l-206 217h-2l-206 -217h-131zM129 0v1506h132v-1506h-132z" />
<glyph unicode="&#x1e3e;" horiz-adv-x="1660" d="M135 0v1443h157l535 -1263h6l534 1263h158v-1443h-128v1184h-6l-502 -1177h-119l-501 1177h-6v-1184h-128zM770 1551l252 295h154l-289 -295h-117z" />
<glyph unicode="&#x1e3f;" horiz-adv-x="1677" d="M119 0v1077h124v-201h4q35 97 118 155t196 58q115 0 197.5 -61t113.5 -165h3q39 102 130.5 164t210.5 62q158 0 253 -97.5t95 -260.5v-731h-133v701q0 126 -66.5 198t-184.5 72q-120 0 -196.5 -83.5t-76.5 -214.5v-673h-132v714q0 115 -69 186t-180 71q-120 0 -197.5 -88 t-77.5 -226v-657h-132zM775 1251l220 301h153l-256 -301h-117z" />
<glyph unicode="&#x1e40;" horiz-adv-x="1660" d="M135 0v1443h157l535 -1263h6l534 1263h158v-1443h-128v1184h-6l-502 -1177h-119l-501 1177h-6v-1184h-128zM728 1677q0 42 30 72t72 30t72 -30t30 -72t-30 -72t-72 -30t-72 30t-30 72z" />
<glyph unicode="&#x1e41;" horiz-adv-x="1677" d="M119 0v1077h124v-201h4q35 97 118 155t196 58q115 0 197.5 -61t113.5 -165h3q39 102 130.5 164t210.5 62q158 0 253 -97.5t95 -260.5v-731h-133v701q0 126 -66.5 198t-184.5 72q-120 0 -196.5 -83.5t-76.5 -214.5v-673h-132v714q0 115 -69 186t-180 71q-120 0 -197.5 -88 t-77.5 -226v-657h-132zM737 1363q0 43 30.5 73.5t73.5 30.5t73.5 -30.5t30.5 -73.5t-30.5 -73.5t-73.5 -30.5t-73.5 30.5t-30.5 73.5z" />
<glyph unicode="&#x1e42;" horiz-adv-x="1660" d="M135 0v1443h157l535 -1263h6l534 1263h158v-1443h-128v1184h-6l-502 -1177h-119l-501 1177h-6v-1184h-128zM728 -249q0 42 30 72t72 30t72 -30t30 -72t-30 -72t-72 -30t-72 30t-30 72z" />
<glyph unicode="&#x1e43;" horiz-adv-x="1677" d="M119 0v1077h124v-201h4q35 97 118 155t196 58q115 0 197.5 -61t113.5 -165h3q39 102 130.5 164t210.5 62q158 0 253 -97.5t95 -260.5v-731h-133v701q0 126 -66.5 198t-184.5 72q-120 0 -196.5 -83.5t-76.5 -214.5v-673h-132v714q0 115 -69 186t-180 71q-120 0 -197.5 -88 t-77.5 -226v-657h-132zM739 -249q0 42 30 72t72 30t72 -30t30 -72t-30 -72t-72 -30t-72 30t-30 72z" />
<glyph unicode="&#x1e44;" horiz-adv-x="1393" d="M135 0v1443h135l846 -1205h7v1205h135v-1443h-132l-849 1206h-7v-1206h-135zM594 1677q0 42 30 72t72 30t72 -30t30 -72t-30 -72t-72 -30t-72 30t-30 72z" />
<glyph unicode="&#x1e45;" horiz-adv-x="1097" d="M119 0v1077h124v-201h4q46 102 136 157.5t219 55.5q177 0 279.5 -106.5t102.5 -289.5v-693h-132v672q0 143 -75 221t-212 78q-143 0 -228.5 -93t-85.5 -245v-633h-132zM449 1363q0 43 30.5 73.5t73.5 30.5t73.5 -30.5t30.5 -73.5t-30.5 -73.5t-73.5 -30.5t-73.5 30.5 t-30.5 73.5z" />
<glyph unicode="&#x1e46;" horiz-adv-x="1393" d="M135 0v1443h135l846 -1205h7v1205h135v-1443h-132l-849 1206h-7v-1206h-135zM594 -249q0 42 30 72t72 30t72 -30t30 -72t-30 -72t-72 -30t-72 30t-30 72z" />
<glyph unicode="&#x1e47;" horiz-adv-x="1097" d="M119 0v1077h124v-201h4q46 102 136 157.5t219 55.5q177 0 279.5 -106.5t102.5 -289.5v-693h-132v672q0 143 -75 221t-212 78q-143 0 -228.5 -93t-85.5 -245v-633h-132zM451 -249q0 42 30 72t72 30t72 -30t30 -72t-30 -72t-72 -30t-72 30t-30 72z" />
<glyph unicode="&#x1e48;" horiz-adv-x="1393" d="M135 0v1443h135l846 -1205h7v1205h135v-1443h-132l-849 1206h-7v-1206h-135zM391 -214h610v-85h-610v85z" />
<glyph unicode="&#x1e49;" horiz-adv-x="1097" d="M119 0v1077h124v-201h4q46 102 136 157.5t219 55.5q177 0 279.5 -106.5t102.5 -289.5v-693h-132v672q0 143 -75 221t-212 78q-143 0 -228.5 -93t-85.5 -245v-633h-132zM248 -214h610v-85h-610v85z" />
<glyph unicode="&#x1e4a;" horiz-adv-x="1393" d="M135 0v1443h135l846 -1205h7v1205h135v-1443h-132l-849 1206h-7v-1206h-135zM358 -453l283 295h110l283 -295h-131l-206 217h-2l-206 -217h-131z" />
<glyph unicode="&#x1e4b;" horiz-adv-x="1097" d="M119 0v1077h124v-201h4q46 102 136 157.5t219 55.5q177 0 279.5 -106.5t102.5 -289.5v-693h-132v672q0 143 -75 221t-212 78q-143 0 -228.5 -93t-85.5 -245v-633h-132zM215 -453l283 295h110l283 -295h-131l-206 217h-2l-206 -217h-131z" />
<glyph unicode="&#x1e4c;" d="M77 721q0 343 177 544t478 201q302 0 479 -201t177 -544t-177 -543.5t-479 -200.5t-478.5 200.5t-176.5 543.5zM217 721q0 -284 139 -450.5t376 -166.5t376.5 167t139.5 450q0 284 -139.5 451t-376.5 167t-376 -167t-139 -451zM442 1557q0 104 43.5 164t121.5 60 q37 0 68.5 -15.5t53.5 -37.5t41.5 -44.5t41.5 -38t44 -15.5q72 0 72 136h91q0 -102 -44 -163.5t-119 -61.5q-35 0 -65.5 15.5t-52 37.5t-41 44.5t-41.5 38t-45 15.5q-38 0 -58 -36t-20 -99h-91zM692 1830l176 191h146l-213 -191h-109z" />
<glyph unicode="&#x1e4d;" horiz-adv-x="1109" d="M65 539q0 251 133.5 400.5t355.5 149.5q223 0 356.5 -149.5t133.5 -400.5t-133.5 -401t-356.5 -150q-222 0 -355.5 149.5t-133.5 401.5zM200 539q0 -201 95 -316.5t259 -115.5q165 0 260 115.5t95 316.5t-95 316.5t-260 115.5q-164 0 -259 -115.5t-95 -316.5zM261 1256 q0 109 43.5 171.5t122.5 62.5q46 0 86 -24.5t64 -54t54 -54t57 -24.5q73 0 73 144h91q0 -107 -43.5 -170.5t-120.5 -63.5q-36 0 -67.5 16t-54.5 39.5t-44 46.5t-44.5 39t-47.5 16q-38 0 -58 -38t-20 -106h-91zM494 1576l159 261h132l-188 -261h-103z" />
<glyph unicode="&#x1e4e;" d="M77 721q0 343 177 544t478 201q302 0 479 -201t177 -544t-177 -543.5t-479 -200.5t-478.5 200.5t-176.5 543.5zM217 721q0 -284 139 -450.5t376 -166.5t376.5 167t139.5 450q0 284 -139.5 451t-376.5 167t-376 -167t-139 -451zM444 1557q0 104 43.5 164t120.5 60 q37 0 69 -15.5t53.5 -37.5t41 -44.5t41.5 -38t44 -15.5q72 0 72 136h91q0 -102 -44 -163.5t-119 -61.5q-35 0 -65.5 15.5t-52 37.5t-40.5 44.5t-41.5 38t-45.5 15.5q-38 0 -57.5 -36t-19.5 -99h-91zM478 1963q0 34 24.5 58.5t59.5 24.5q34 0 58.5 -24.5t24.5 -58.5 t-24.5 -59t-58.5 -25q-35 0 -59.5 24.5t-24.5 59.5zM819 1963q0 34 24.5 58.5t58.5 24.5q35 0 59.5 -24.5t24.5 -58.5q0 -35 -24.5 -59.5t-59.5 -24.5q-34 0 -58.5 25t-24.5 59z" />
<glyph unicode="&#x1e4f;" horiz-adv-x="1109" d="M65 539q0 251 133.5 400.5t355.5 149.5q223 0 356.5 -149.5t133.5 -400.5t-133.5 -401t-356.5 -150q-222 0 -355.5 149.5t-133.5 401.5zM200 539q0 -201 95 -316.5t259 -115.5q165 0 260 115.5t95 316.5t-95 316.5t-260 115.5q-164 0 -259 -115.5t-95 -316.5zM261 1256 q0 109 43.5 171.5t122.5 62.5q46 0 86 -24.5t64 -54t54 -54t57 -24.5q73 0 73 144h91q0 -107 -43.5 -170.5t-120.5 -63.5q-36 0 -67.5 16t-54.5 39.5t-44 46.5t-44.5 39t-47.5 16q-38 0 -58 -38t-20 -106h-91zM296 1664q0 37 26 63t62 26q37 0 63 -26t26 -63q0 -36 -26 -62 t-63 -26q-36 0 -62 26t-26 62zM635 1664q0 37 26 63t63 26t62.5 -26t25.5 -63q0 -36 -25.5 -62t-62.5 -26t-63 26t-26 62z" />
<glyph unicode="&#x1e50;" d="M77 721q0 343 177 544t478 201q302 0 479 -201t177 -544t-177 -543.5t-479 -200.5t-478.5 200.5t-176.5 543.5zM217 721q0 -284 139 -450.5t376 -166.5t376.5 167t139.5 450q0 284 -139.5 451t-376.5 167t-376 -167t-139 -451zM427 1633v85h610v-85h-610zM452 2021h145 l195 -203h-109z" />
<glyph unicode="&#x1e51;" horiz-adv-x="1109" d="M65 539q0 251 133.5 400.5t355.5 149.5q223 0 356.5 -149.5t133.5 -400.5t-133.5 -401t-356.5 -150q-222 0 -355.5 149.5t-133.5 401.5zM200 539q0 -201 95 -316.5t259 -115.5q165 0 260 115.5t95 316.5t-95 316.5t-260 115.5q-164 0 -259 -115.5t-95 -316.5zM243 1315 v85h618v-85h-618zM286 1837h145l190 -274h-117z" />
<glyph unicode="&#x1e52;" d="M77 721q0 343 177 544t478 201q302 0 479 -201t177 -544t-177 -543.5t-479 -200.5t-478.5 200.5t-176.5 543.5zM217 721q0 -284 139 -450.5t376 -166.5t376.5 167t139.5 450q0 284 -139.5 451t-376.5 167t-376 -167t-139 -451zM427 1633v85h610v-85h-610zM672 1818 l195 203h145l-231 -203h-109z" />
<glyph unicode="&#x1e53;" horiz-adv-x="1109" d="M65 539q0 251 133.5 400.5t355.5 149.5q223 0 356.5 -149.5t133.5 -400.5t-133.5 -401t-356.5 -150q-222 0 -355.5 149.5t-133.5 401.5zM200 539q0 -201 95 -316.5t259 -115.5q165 0 260 115.5t95 316.5t-95 316.5t-260 115.5q-164 0 -259 -115.5t-95 -316.5zM243 1315 v85h618v-85h-618zM487 1563l190 274h145l-218 -274h-117z" />
<glyph unicode="&#x1e54;" horiz-adv-x="1171" d="M135 0v1443h512q206 0 334.5 -124t128.5 -325t-129 -325.5t-335 -124.5h-375v-544h-136zM271 666h344q166 0 260.5 87t94.5 241t-94 240.5t-261 86.5h-344v-655zM440 1551l252 295h154l-289 -295h-117z" />
<glyph unicode="&#x1e55;" horiz-adv-x="1144" d="M119 -357v1434h125v-223h3q43 104 145 169.5t228 65.5q204 0 331.5 -152t127.5 -398t-126.5 -398.5t-330.5 -152.5q-127 0 -224.5 63.5t-143.5 170.5h-3v-579h-132zM250 539q0 -192 96.5 -312t250.5 -120q156 0 251.5 118.5t95.5 312.5t-95.5 313.5t-251.5 119.5 q-154 0 -250.5 -120.5t-96.5 -311.5zM533 1251l220 301h153l-256 -301h-117z" />
<glyph unicode="&#x1e56;" horiz-adv-x="1171" d="M135 0v1443h512q206 0 334.5 -124t128.5 -325t-129 -325.5t-335 -124.5h-375v-544h-136zM271 666h344q166 0 260.5 87t94.5 241t-94 240.5t-261 86.5h-344v-655zM398 1677q0 42 30 72t72 30t72 -30t30 -72t-30 -72t-72 -30t-72 30t-30 72z" />
<glyph unicode="&#x1e57;" horiz-adv-x="1144" d="M119 -357v1434h125v-223h3q43 104 145 169.5t228 65.5q204 0 331.5 -152t127.5 -398t-126.5 -398.5t-330.5 -152.5q-127 0 -224.5 63.5t-143.5 170.5h-3v-579h-132zM250 539q0 -192 96.5 -312t250.5 -120q156 0 251.5 118.5t95.5 312.5t-95.5 313.5t-251.5 119.5 q-154 0 -250.5 -120.5t-96.5 -311.5zM495 1363q0 43 30.5 73.5t73.5 30.5t73.5 -30.5t30.5 -73.5t-30.5 -73.5t-73.5 -30.5t-73.5 30.5t-30.5 73.5z" />
<glyph unicode="&#x1e58;" horiz-adv-x="1199" d="M135 0v1443h516q211 0 336.5 -114.5t125.5 -307.5q0 -153 -82 -262t-227 -146l349 -613h-159l-332 591h-22h-369v-591h-136zM271 712h369q157 0 244.5 80t87.5 225q0 143 -89.5 223.5t-247.5 80.5h-364v-609zM416 1677q0 42 30 72t72 30t72 -30t30 -72t-30 -72t-72 -30 t-72 30t-30 72z" />
<glyph unicode="&#x1e59;" horiz-adv-x="634" d="M119 0v1077h124v-191h4q28 96 100 149.5t173 53.5q47 0 84 -11v-131q-34 15 -102 15q-114 0 -182.5 -81.5t-68.5 -212.5v-668h-132zM251 1363q0 43 30.5 73.5t73.5 30.5t73.5 -30.5t30.5 -73.5t-30.5 -73.5t-73.5 -30.5t-73.5 30.5t-30.5 73.5z" />
<glyph unicode="&#x1e5a;" horiz-adv-x="1199" d="M135 0v1443h516q211 0 336.5 -114.5t125.5 -307.5q0 -153 -82 -262t-227 -146l349 -613h-159l-332 591h-22h-369v-591h-136zM271 712h369q157 0 244.5 80t87.5 225q0 143 -89.5 223.5t-247.5 80.5h-364v-609zM416 -249q0 42 30 72t72 30t72 -30t30 -72t-30 -72t-72 -30 t-72 30t-30 72z" />
<glyph unicode="&#x1e5b;" horiz-adv-x="634" d="M83 -249q0 42 30 72t72 30t72 -30t30 -72t-30 -72t-72 -30t-72 30t-30 72zM119 0v1077h124v-191h4q28 96 100 149.5t173 53.5q47 0 84 -11v-131q-34 15 -102 15q-114 0 -182.5 -81.5t-68.5 -212.5v-668h-132z" />
<glyph unicode="&#x1e5c;" horiz-adv-x="1199" d="M135 0v1443h516q211 0 336.5 -114.5t125.5 -307.5q0 -153 -82 -262t-227 -146l349 -613h-159l-332 591h-22h-369v-591h-136zM213 1633v85h610v-85h-610zM271 712h369q157 0 244.5 80t87.5 225q0 143 -89.5 223.5t-247.5 80.5h-364v-609zM416 -249q0 42 30 72t72 30 t72 -30t30 -72t-30 -72t-72 -30t-72 30t-30 72z" />
<glyph unicode="&#x1e5d;" horiz-adv-x="634" d="M44 1315v85h618v-85h-618zM83 -249q0 42 30 72t72 30t72 -30t30 -72t-30 -72t-72 -30t-72 30t-30 72zM119 0v1077h124v-191h4q28 96 100 149.5t173 53.5q47 0 84 -11v-131q-34 15 -102 15q-114 0 -182.5 -81.5t-68.5 -212.5v-668h-132z" />
<glyph unicode="&#x1e5e;" horiz-adv-x="1199" d="M135 0v1443h516q211 0 336.5 -114.5t125.5 -307.5q0 -153 -82 -262t-227 -146l349 -613h-159l-332 591h-22h-369v-591h-136zM213 -214h610v-85h-610v85zM271 712h369q157 0 244.5 80t87.5 225q0 143 -89.5 223.5t-247.5 80.5h-364v-609z" />
<glyph unicode="&#x1e5f;" horiz-adv-x="634" d="M-120 -214h610v-85h-610v85zM119 0v1077h124v-191h4q28 96 100 149.5t173 53.5q47 0 84 -11v-131q-34 15 -102 15q-114 0 -182.5 -81.5t-68.5 -212.5v-668h-132z" />
<glyph unicode="&#x1e60;" horiz-adv-x="1182" d="M65 392h137q11 -130 123 -210.5t281 -80.5q162 0 266.5 79t104.5 201q0 101 -73 164.5t-234 104.5l-179 46q-201 51 -293.5 140t-92.5 231q0 174 140 286.5t354 112.5q210 0 349.5 -111.5t145.5 -283.5h-137q-10 122 -109 196.5t-253 74.5q-151 0 -249.5 -75.5 t-98.5 -194.5q0 -93 71 -151.5t231 -99.5l156 -40q218 -55 315 -145t97 -240q0 -190 -142 -304.5t-381 -114.5q-226 0 -372 114.5t-157 300.5zM497 1677q0 42 30 72t72 30t72 -30t30 -72t-30 -72t-72 -30t-72 30t-30 72z" />
<glyph unicode="&#x1e61;" horiz-adv-x="958" d="M65 303h134q12 -93 88.5 -148.5t197.5 -55.5q122 0 197.5 51.5t75.5 136.5q0 69 -46 109.5t-155 67.5l-182 46q-140 35 -209 103t-69 174q0 133 109.5 217.5t277.5 84.5q163 0 271 -88t116 -227h-127q-10 92 -80.5 147.5t-183.5 55.5q-109 0 -180.5 -51t-71.5 -132 q0 -65 48.5 -106t152.5 -67l165 -40q162 -41 230 -105.5t68 -179.5q0 -136 -116.5 -222t-298.5 -86q-172 0 -286.5 88.5t-125.5 226.5zM380 1363q0 43 30.5 73.5t73.5 30.5t73.5 -30.5t30.5 -73.5t-30.5 -73.5t-73.5 -30.5t-73.5 30.5t-30.5 73.5z" />
<glyph unicode="&#x1e62;" horiz-adv-x="1182" d="M65 392h137q11 -130 123 -210.5t281 -80.5q162 0 266.5 79t104.5 201q0 101 -73 164.5t-234 104.5l-179 46q-201 51 -293.5 140t-92.5 231q0 174 140 286.5t354 112.5q210 0 349.5 -111.5t145.5 -283.5h-137q-10 122 -109 196.5t-253 74.5q-151 0 -249.5 -75.5 t-98.5 -194.5q0 -93 71 -151.5t231 -99.5l156 -40q218 -55 315 -145t97 -240q0 -190 -142 -304.5t-381 -114.5q-226 0 -372 114.5t-157 300.5zM492 -249q0 42 30 72t72 30t72 -30t30 -72t-30 -72t-72 -30t-72 30t-30 72z" />
<glyph unicode="&#x1e63;" horiz-adv-x="958" d="M65 303h134q12 -93 88.5 -148.5t197.5 -55.5q122 0 197.5 51.5t75.5 136.5q0 69 -46 109.5t-155 67.5l-182 46q-140 35 -209 103t-69 174q0 133 109.5 217.5t277.5 84.5q163 0 271 -88t116 -227h-127q-10 92 -80.5 147.5t-183.5 55.5q-109 0 -180.5 -51t-71.5 -132 q0 -65 48.5 -106t152.5 -67l165 -40q162 -41 230 -105.5t68 -179.5q0 -136 -116.5 -222t-298.5 -86q-172 0 -286.5 88.5t-125.5 226.5zM376 -249q0 42 30 72t72 30t72 -30t30 -72t-30 -72t-72 -30t-72 30t-30 72z" />
<glyph unicode="&#x1e64;" horiz-adv-x="1182" d="M65 392h137q11 -130 123 -210.5t281 -80.5q162 0 266.5 79t104.5 201q0 101 -73 164.5t-234 104.5l-179 46q-201 51 -293.5 140t-92.5 231q0 174 140 286.5t354 112.5q210 0 349.5 -111.5t145.5 -283.5h-137q-10 122 -109 196.5t-253 74.5q-151 0 -249.5 -75.5 t-98.5 -194.5q0 -93 71 -151.5t231 -99.5l156 -40q218 -55 315 -145t97 -240q0 -190 -142 -304.5t-381 -114.5q-226 0 -372 114.5t-157 300.5zM338 1711q0 42 30 72t72 30t72 -30t30 -72t-30 -72t-72 -30t-72 30t-30 72zM618 1551l252 295h154l-289 -295h-117z" />
<glyph unicode="&#x1e65;" horiz-adv-x="958" d="M65 303h134q12 -93 88.5 -148.5t197.5 -55.5q122 0 197.5 51.5t75.5 136.5q0 69 -46 109.5t-155 67.5l-182 46q-140 35 -209 103t-69 174q0 133 109.5 217.5t277.5 84.5q163 0 271 -88t116 -227h-127q-10 92 -80.5 147.5t-183.5 55.5q-109 0 -180.5 -51t-71.5 -132 q0 -65 48.5 -106t152.5 -67l165 -40q162 -41 230 -105.5t68 -179.5q0 -136 -116.5 -222t-298.5 -86q-172 0 -286.5 88.5t-125.5 226.5zM157 1391q0 43 30.5 73.5t73.5 30.5t73.5 -30.5t30.5 -73.5t-30.5 -73.5t-73.5 -30.5t-73.5 30.5t-30.5 73.5zM439 1251l220 301h153 l-256 -301h-117z" />
<glyph unicode="&#x1e66;" horiz-adv-x="1182" d="M65 392h137q11 -130 123 -210.5t281 -80.5q162 0 266.5 79t104.5 201q0 101 -73 164.5t-234 104.5l-179 46q-201 51 -293.5 140t-92.5 231q0 174 140 286.5t354 112.5q210 0 349.5 -111.5t145.5 -283.5h-137q-10 122 -109 196.5t-253 74.5q-151 0 -249.5 -75.5 t-98.5 -194.5q0 -93 71 -151.5t231 -99.5l156 -40q218 -55 315 -145t97 -240q0 -190 -142 -304.5t-381 -114.5q-226 0 -372 114.5t-157 300.5zM274 1785h144l176 -145h10l176 145h144l-266 -217h-118zM505 1928q0 39 27.5 66t66.5 27t66.5 -27t27.5 -66t-27.5 -67t-66.5 -28 t-66.5 28t-27.5 67z" />
<glyph unicode="&#x1e67;" horiz-adv-x="958" d="M65 303h134q12 -93 88.5 -148.5t197.5 -55.5q122 0 197.5 51.5t75.5 136.5q0 69 -46 109.5t-155 67.5l-182 46q-140 35 -209 103t-69 174q0 133 109.5 217.5t277.5 84.5q163 0 271 -88t116 -227h-127q-10 92 -80.5 147.5t-183.5 55.5q-109 0 -180.5 -51t-71.5 -132 q0 -65 48.5 -106t152.5 -67l165 -40q162 -41 230 -105.5t68 -179.5q0 -136 -116.5 -222t-298.5 -86q-172 0 -286.5 88.5t-125.5 226.5zM158 1520h125l199 -205h4l199 205h125l-261 -269h-130zM381 1704q0 41 31 71.5t72 30.5t72 -30.5t31 -71.5q0 -42 -30.5 -72.5 t-72.5 -30.5t-72.5 30.5t-30.5 72.5z" />
<glyph unicode="&#x1e68;" horiz-adv-x="1182" d="M65 392h137q11 -130 123 -210.5t281 -80.5q162 0 266.5 79t104.5 201q0 101 -73 164.5t-234 104.5l-179 46q-201 51 -293.5 140t-92.5 231q0 174 140 286.5t354 112.5q210 0 349.5 -111.5t145.5 -283.5h-137q-10 122 -109 196.5t-253 74.5q-151 0 -249.5 -75.5 t-98.5 -194.5q0 -93 71 -151.5t231 -99.5l156 -40q218 -55 315 -145t97 -240q0 -190 -142 -304.5t-381 -114.5q-226 0 -372 114.5t-157 300.5zM492 -249q0 42 30 72t72 30t72 -30t30 -72t-30 -72t-72 -30t-72 30t-30 72zM497 1677q0 42 30 72t72 30t72 -30t30 -72t-30 -72 t-72 -30t-72 30t-30 72z" />
<glyph unicode="&#x1e69;" horiz-adv-x="958" d="M65 303h134q12 -93 88.5 -148.5t197.5 -55.5q122 0 197.5 51.5t75.5 136.5q0 69 -46 109.5t-155 67.5l-182 46q-140 35 -209 103t-69 174q0 133 109.5 217.5t277.5 84.5q163 0 271 -88t116 -227h-127q-10 92 -80.5 147.5t-183.5 55.5q-109 0 -180.5 -51t-71.5 -132 q0 -65 48.5 -106t152.5 -67l165 -40q162 -41 230 -105.5t68 -179.5q0 -136 -116.5 -222t-298.5 -86q-172 0 -286.5 88.5t-125.5 226.5zM376 -249q0 42 30 72t72 30t72 -30t30 -72t-30 -72t-72 -30t-72 30t-30 72zM380 1363q0 43 30.5 73.5t73.5 30.5t73.5 -30.5t30.5 -73.5 t-30.5 -73.5t-73.5 -30.5t-73.5 30.5t-30.5 73.5z" />
<glyph unicode="&#x1e6a;" horiz-adv-x="1179" d="M38 1319v124h1103v-124h-483v-1319h-137v1319h-483zM488 1677q0 42 30 72t72 30t72 -30t30 -72t-30 -72t-72 -30t-72 30t-30 72z" />
<glyph unicode="&#x1e6b;" horiz-adv-x="598" d="M23 966v111h154v258h132v-258h213v-111h-213v-696q0 -84 34.5 -122t109.5 -38q42 0 74 4v-113q-25 -7 -100 -7q-134 0 -192 63t-58 208v701h-154zM139 1611q0 43 30.5 73.5t73.5 30.5t73.5 -30.5t30.5 -73.5t-30.5 -73.5t-73.5 -30.5t-73.5 30.5t-30.5 73.5z" />
<glyph unicode="&#x1e6c;" horiz-adv-x="1179" d="M38 1319v124h1103v-124h-483v-1319h-137v1319h-483zM488 -249q0 42 30 72t72 30t72 -30t30 -72t-30 -72t-72 -30t-72 30t-30 72z" />
<glyph unicode="&#x1e6d;" horiz-adv-x="598" d="M23 966v111h154v258h132v-258h213v-111h-213v-696q0 -84 34.5 -122t109.5 -38q42 0 74 4v-113q-25 -7 -100 -7q-134 0 -192 63t-58 208v701h-154zM260 -249q0 42 30 72t72 30t72 -30t30 -72t-30 -72t-72 -30t-72 30t-30 72z" />
<glyph unicode="&#x1e6e;" horiz-adv-x="1179" d="M38 1319v124h1103v-124h-483v-1319h-137v1319h-483zM285 -214h610v-85h-610v85z" />
<glyph unicode="&#x1e6f;" horiz-adv-x="598" d="M23 966v111h154v258h132v-258h213v-111h-213v-696q0 -84 34.5 -122t109.5 -38q42 0 74 4v-113q-25 -7 -100 -7q-134 0 -192 63t-58 208v701h-154zM57 -214h610v-85h-610v85z" />
<glyph unicode="&#x1e70;" horiz-adv-x="1179" d="M38 1319v124h1103v-124h-483v-1319h-137v1319h-483zM252 -453l283 295h110l283 -295h-131l-206 217h-2l-206 -217h-131z" />
<glyph unicode="&#x1e71;" horiz-adv-x="598" d="M23 966v111h154v258h132v-258h213v-111h-213v-696q0 -84 34.5 -122t109.5 -38q42 0 74 4v-113q-25 -7 -100 -7q-134 0 -192 63t-58 208v701h-154zM24 -453l283 295h110l283 -295h-131l-206 217h-2l-206 -217h-131z" />
<glyph unicode="&#x1e72;" horiz-adv-x="1386" d="M135 504v939h136v-931q0 -184 113 -296t309 -112t309 112t113 296v931h137v-939q0 -236 -151 -381.5t-408 -145.5t-407.5 145.5t-150.5 381.5zM422 -247q0 38 27.5 65.5t65.5 27.5t65.5 -27.5t27.5 -65.5t-27.5 -65t-65.5 -27t-65.5 27.5t-27.5 64.5zM778 -247 q0 38 27.5 65.5t65.5 27.5t65.5 -27.5t27.5 -65.5t-27.5 -65t-65.5 -27t-65.5 27t-27.5 65z" />
<glyph unicode="&#x1e73;" horiz-adv-x="1097" d="M113 383v694h132v-672q0 -144 74 -221t211 -77q142 0 229 92.5t87 244.5v633h133v-1077h-125v202h-3q-45 -100 -138.5 -157t-219.5 -57q-176 0 -278 106.5t-102 288.5zM282 -247q0 38 27.5 65.5t65.5 27.5t65.5 -27.5t27.5 -65.5t-27.5 -65t-65.5 -27t-65.5 27.5 t-27.5 64.5zM638 -247q0 38 27.5 65.5t65.5 27.5t65.5 -27.5t27.5 -65.5t-27.5 -65t-65.5 -27t-65.5 27t-27.5 65z" />
<glyph unicode="&#x1e74;" horiz-adv-x="1386" d="M135 504v939h136v-931q0 -184 113 -296t309 -112t309 112t113 296v931h137v-939q0 -236 -151 -381.5t-408 -145.5t-407.5 145.5t-150.5 381.5zM397 -381q0 109 43.5 171.5t122.5 62.5q46 0 86 -24.5t64 -54t54 -54t57 -24.5q73 0 73 144h91q0 -107 -43.5 -170.5 t-120.5 -63.5q-36 0 -67.5 16t-54.5 39t-44 46.5t-44.5 39.5t-47.5 16q-38 0 -58 -38t-20 -106h-91z" />
<glyph unicode="&#x1e75;" horiz-adv-x="1097" d="M113 383v694h132v-672q0 -144 74 -221t211 -77q142 0 229 92.5t87 244.5v633h133v-1077h-125v202h-3q-45 -100 -138.5 -157t-219.5 -57q-176 0 -278 106.5t-102 288.5zM257 -381q0 109 43.5 171.5t122.5 62.5q46 0 86 -24.5t64 -54t54 -54t57 -24.5q73 0 73 144h91 q0 -107 -43.5 -170.5t-120.5 -63.5q-36 0 -67.5 16t-54.5 39t-44 46.5t-44.5 39.5t-47.5 16q-38 0 -58 -38t-20 -106h-91z" />
<glyph unicode="&#x1e76;" horiz-adv-x="1386" d="M135 504v939h136v-931q0 -184 113 -296t309 -112t309 112t113 296v931h137v-939q0 -236 -151 -381.5t-408 -145.5t-407.5 145.5t-150.5 381.5zM355 -453l283 295h110l283 -295h-131l-206 217h-2l-206 -217h-131z" />
<glyph unicode="&#x1e77;" horiz-adv-x="1097" d="M113 383v694h132v-672q0 -144 74 -221t211 -77q142 0 229 92.5t87 244.5v633h133v-1077h-125v202h-3q-45 -100 -138.5 -157t-219.5 -57q-176 0 -278 106.5t-102 288.5zM215 -453l283 295h110l283 -295h-131l-206 217h-2l-206 -217h-131z" />
<glyph unicode="&#x1e78;" horiz-adv-x="1386" d="M135 504v939h136v-931q0 -184 113 -296t309 -112t309 112t113 296v931h137v-939q0 -236 -151 -381.5t-408 -145.5t-407.5 145.5t-150.5 381.5zM403 1557q0 104 43.5 164t121.5 60q37 0 68.5 -15.5t53.5 -37.5t41.5 -44.5t41.5 -38t44 -15.5q72 0 72 136h91 q0 -102 -44 -163.5t-119 -61.5q-35 0 -65.5 15.5t-52 37.5t-41 44.5t-41.5 38t-45 15.5q-38 0 -58 -36t-20 -99h-91zM653 1830l176 191h146l-213 -191h-109z" />
<glyph unicode="&#x1e79;" horiz-adv-x="1097" d="M113 383v694h132v-672q0 -144 74 -221t211 -77q142 0 229 92.5t87 244.5v633h133v-1077h-125v202h-3q-45 -100 -138.5 -157t-219.5 -57q-176 0 -278 106.5t-102 288.5zM253 1256q0 109 43.5 171.5t122.5 62.5q46 0 86 -24.5t64 -54t54 -54t57 -24.5q73 0 73 144h91 q0 -107 -43.5 -170.5t-120.5 -63.5q-36 0 -67.5 16t-54.5 39.5t-44 46.5t-44.5 39t-47.5 16q-38 0 -58 -38t-20 -106h-91zM486 1576l159 261h132l-188 -261h-103z" />
<glyph unicode="&#x1e7a;" horiz-adv-x="1386" d="M135 504v939h136v-931q0 -184 113 -296t309 -112t309 112t113 296v931h137v-939q0 -236 -151 -381.5t-408 -145.5t-407.5 145.5t-150.5 381.5zM388 1634v85h610v-85h-610zM439 1937q0 35 24.5 59t59.5 24q34 0 58.5 -24.5t24.5 -58.5t-24.5 -59t-58.5 -25 q-35 0 -59.5 24.5t-24.5 59.5zM780 1937q0 34 24.5 58.5t58.5 24.5q35 0 59.5 -24t24.5 -59t-24.5 -59.5t-59.5 -24.5q-34 0 -58.5 25t-24.5 59z" />
<glyph unicode="&#x1e7b;" horiz-adv-x="1097" d="M113 383v694h132v-672q0 -144 74 -221t211 -77q142 0 229 92.5t87 244.5v633h133v-1077h-125v202h-3q-45 -100 -138.5 -157t-219.5 -57q-176 0 -278 106.5t-102 288.5zM235 1315v85h618v-85h-618zM287 1654q0 37 26 63t63 26q38 0 64 -26t26 -63t-26.5 -63t-63.5 -26 t-63 26t-26 63zM626 1654q0 37 26 63t64 26q37 0 63 -26t26 -63t-26 -63t-63 -26t-63.5 26t-26.5 63z" />
<glyph unicode="&#x1e7c;" horiz-adv-x="1262" d="M23 1443h145l460 -1273h6l461 1273h144l-540 -1443h-136zM335 1554q0 109 43.5 171.5t122.5 62.5q46 0 86 -24.5t64 -54t54 -54t57 -24.5q73 0 73 144h91q0 -107 -43.5 -170.5t-120.5 -63.5q-36 0 -67.5 16t-54.5 39.5t-44 46.5t-44.5 39t-47.5 16q-38 0 -58 -38 t-20 -106h-91z" />
<glyph unicode="&#x1e7d;" horiz-adv-x="977" d="M17 1077h139l331 -936h3l332 936h138l-401 -1077h-140zM195 1270q0 109 43.5 171.5t122.5 62.5q46 0 86 -24.5t64 -54t54 -54t57 -24.5q73 0 73 144h91q0 -107 -43.5 -170.5t-120.5 -63.5q-36 0 -67.5 16t-54.5 39.5t-44 46.5t-44.5 39t-47.5 16q-38 0 -58 -38t-20 -106 h-91z" />
<glyph unicode="&#x1e7e;" horiz-adv-x="1262" d="M23 1443h145l460 -1273h6l461 1273h144l-540 -1443h-136zM529 -249q0 42 30 72t72 30t72 -30t30 -72t-30 -72t-72 -30t-72 30t-30 72z" />
<glyph unicode="&#x1e7f;" horiz-adv-x="977" d="M17 1077h139l331 -936h3l332 936h138l-401 -1077h-140zM387 -249q0 42 30 72t72 30t72 -30t30 -72t-30 -72t-72 -30t-72 30t-30 72z" />
<glyph unicode="&#x1e80;" horiz-adv-x="1854" d="M44 1443h142l318 -1233h6l349 1233h136l348 -1233h7l317 1233h143l-398 -1443h-126l-355 1209h-8l-355 -1209h-127zM583 1846h154l252 -295h-117z" />
<glyph unicode="&#x1e81;" horiz-adv-x="1477" d="M21 1077h133l244 -927h3l270 927h134l271 -927h3l244 927h133l-307 -1077h-139l-270 897h-3l-270 -897h-139zM425 1552h153l220 -301h-117z" />
<glyph unicode="&#x1e82;" horiz-adv-x="1854" d="M44 1443h142l318 -1233h6l349 1233h136l348 -1233h7l317 1233h143l-398 -1443h-126l-355 1209h-8l-355 -1209h-127zM867 1551l252 295h154l-289 -295h-117z" />
<glyph unicode="&#x1e83;" horiz-adv-x="1477" d="M21 1077h133l244 -927h3l270 927h134l271 -927h3l244 927h133l-307 -1077h-139l-270 897h-3l-270 -897h-139zM672 1251l220 301h153l-256 -301h-117z" />
<glyph unicode="&#x1e84;" horiz-adv-x="1854" d="M44 1443h142l318 -1233h6l349 1233h136l348 -1233h7l317 1233h143l-398 -1443h-126l-355 1209h-8l-355 -1209h-127zM656 1668q0 38 27.5 65.5t65.5 27.5t65.5 -27.5t27.5 -65.5t-27.5 -65t-65.5 -27t-65.5 27.5t-27.5 64.5zM1012 1668q0 38 27.5 65.5t65.5 27.5 t65.5 -27.5t27.5 -65.5t-27.5 -65t-65.5 -27t-65.5 27t-27.5 65z" />
<glyph unicode="&#x1e85;" horiz-adv-x="1477" d="M21 1077h133l244 -927h3l270 927h134l271 -927h3l244 927h133l-307 -1077h-139l-270 897h-3l-270 -897h-139zM467 1351q0 38 27.5 65.5t65.5 27.5t65.5 -27.5t27.5 -65.5t-27.5 -65t-65.5 -27t-65.5 27.5t-27.5 64.5zM823 1351q0 38 27.5 65.5t65.5 27.5t65.5 -27.5 t27.5 -65.5t-27.5 -65t-65.5 -27t-65.5 27t-27.5 65z" />
<glyph unicode="&#x1e86;" horiz-adv-x="1854" d="M44 1443h142l318 -1233h6l349 1233h136l348 -1233h7l317 1233h143l-398 -1443h-126l-355 1209h-8l-355 -1209h-127zM825 1677q0 42 30 72t72 30t72 -30t30 -72t-30 -72t-72 -30t-72 30t-30 72z" />
<glyph unicode="&#x1e87;" horiz-adv-x="1477" d="M21 1077h133l244 -927h3l270 927h134l271 -927h3l244 927h133l-307 -1077h-139l-270 897h-3l-270 -897h-139zM634 1363q0 43 30.5 73.5t73.5 30.5t73.5 -30.5t30.5 -73.5t-30.5 -73.5t-73.5 -30.5t-73.5 30.5t-30.5 73.5z" />
<glyph unicode="&#x1e88;" horiz-adv-x="1854" d="M44 1443h142l318 -1233h6l349 1233h136l348 -1233h7l317 1233h143l-398 -1443h-126l-355 1209h-8l-355 -1209h-127zM825 -249q0 42 30 72t72 30t72 -30t30 -72t-30 -72t-72 -30t-72 30t-30 72z" />
<glyph unicode="&#x1e89;" horiz-adv-x="1477" d="M21 1077h133l244 -927h3l270 927h134l271 -927h3l244 927h133l-307 -1077h-139l-270 897h-3l-270 -897h-139zM636 -249q0 42 30 72t72 30t72 -30t30 -72t-30 -72t-72 -30t-72 30t-30 72z" />
<glyph unicode="&#x1e8a;" horiz-adv-x="1263" d="M44 0l502 722v5l-498 716h165l421 -613h5l424 613h157l-507 -722v-4l499 -717h-164l-419 610h-5l-425 -610h-155zM530 1677q0 42 30 72t72 30t72 -30t30 -72t-30 -72t-72 -30t-72 30t-30 72z" />
<glyph unicode="&#x1e8b;" horiz-adv-x="950" d="M24 0l380 542l-376 535h150l299 -434h3l296 434h150l-377 -530l374 -547h-150l-297 444h-4l-298 -444h-150zM372 1363q0 43 30.5 73.5t73.5 30.5t73.5 -30.5t30.5 -73.5t-30.5 -73.5t-73.5 -30.5t-73.5 30.5t-30.5 73.5z" />
<glyph unicode="&#x1e8c;" horiz-adv-x="1263" d="M44 0l502 722v5l-498 716h165l421 -613h5l424 613h157l-507 -722v-4l499 -717h-164l-419 610h-5l-425 -610h-155zM361 1668q0 38 27.5 65.5t65.5 27.5t65.5 -27.5t27.5 -65.5t-27.5 -65t-65.5 -27t-65.5 27.5t-27.5 64.5zM717 1668q0 38 27.5 65.5t65.5 27.5t65.5 -27.5 t27.5 -65.5t-27.5 -65t-65.5 -27t-65.5 27t-27.5 65z" />
<glyph unicode="&#x1e8d;" horiz-adv-x="950" d="M24 0l380 542l-376 535h150l299 -434h3l296 434h150l-377 -530l374 -547h-150l-297 444h-4l-298 -444h-150zM205 1351q0 38 27.5 65.5t65.5 27.5t65.5 -27.5t27.5 -65.5t-27.5 -65t-65.5 -27t-65.5 27.5t-27.5 64.5zM561 1351q0 38 27.5 65.5t65.5 27.5t65.5 -27.5 t27.5 -65.5t-27.5 -65t-65.5 -27t-65.5 27t-27.5 65z" />
<glyph unicode="&#x1e8e;" horiz-adv-x="1219" d="M24 1443h156l427 -685h5l427 685h156l-517 -819v-624h-137v624zM507 1677q0 42 30 72t72 30t72 -30t30 -72t-30 -72t-72 -30t-72 30t-30 72z" />
<glyph unicode="&#x1e8f;" horiz-adv-x="980" d="M17 1077h142l330 -943h3l331 943h140l-423 -1136q-70 -189 -141 -255.5t-202 -66.5q-29 0 -66 7v114q28 -7 64 -7q74 0 118.5 41.5t82.5 145.5l26 73zM387 1363q0 43 30.5 73.5t73.5 30.5t73.5 -30.5t30.5 -73.5t-30.5 -73.5t-73.5 -30.5t-73.5 30.5t-30.5 73.5z" />
<glyph unicode="&#x1e90;" horiz-adv-x="1224" d="M87 0v99l866 1214v6h-838v124h1011v-100l-864 -1213v-6h876v-124h-1051zM274 1551l283 295h110l283 -295h-131l-206 217h-2l-206 -217h-131z" />
<glyph unicode="&#x1e91;" horiz-adv-x="963" d="M83 0v100l645 864v2h-645v111h796v-101l-644 -862v-3h646v-111h-798zM160 1251l273 301h97l273 -301h-127l-192 220h-5l-192 -220h-127z" />
<glyph unicode="&#x1e92;" horiz-adv-x="1224" d="M87 0v99l866 1214v6h-838v124h1011v-100l-864 -1213v-6h876v-124h-1051zM510 -249q0 42 30 72t72 30t72 -30t30 -72t-30 -72t-72 -30t-72 30t-30 72z" />
<glyph unicode="&#x1e93;" horiz-adv-x="963" d="M83 0v100l645 864v2h-645v111h796v-101l-644 -862v-3h646v-111h-798zM380 -249q0 42 30 72t72 30t72 -30t30 -72t-30 -72t-72 -30t-72 30t-30 72z" />
<glyph unicode="&#x1e94;" horiz-adv-x="1224" d="M87 0v99l866 1214v6h-838v124h1011v-100l-864 -1213v-6h876v-124h-1051zM307 -214h610v-85h-610v85z" />
<glyph unicode="&#x1e95;" horiz-adv-x="963" d="M83 0v100l645 864v2h-645v111h796v-101l-644 -862v-3h646v-111h-798zM177 -214h610v-85h-610v85z" />
<glyph unicode="&#x1e96;" horiz-adv-x="1118" d="M129 0v1506h132v-630h3q46 102 137 157.5t219 55.5q176 0 280.5 -109t104.5 -290v-690h-132v669q0 142 -76.5 222t-213.5 80q-146 0 -234 -94.5t-88 -248.5v-628h-132zM263 -214h610v-85h-610v85z" />
<glyph unicode="&#x1e97;" horiz-adv-x="598" d="M-28 1599q0 38 27.5 65.5t65.5 27.5t65.5 -27.5t27.5 -65.5t-27.5 -65t-65.5 -27t-65.5 27.5t-27.5 64.5zM23 966v111h154v258h132v-258h213v-111h-213v-696q0 -84 34.5 -122t109.5 -38q42 0 74 4v-113q-25 -7 -100 -7q-134 0 -192 63t-58 208v701h-154zM328 1599 q0 38 27.5 65.5t65.5 27.5t65.5 -27.5t27.5 -65.5t-27.5 -65t-65.5 -27t-65.5 27t-27.5 65z" />
<glyph unicode="&#x1e98;" horiz-adv-x="1477" d="M21 1077h133l244 -927h3l270 927h134l271 -927h3l244 927h133l-307 -1077h-139l-270 897h-3l-270 -897h-139zM551 1394q0 77 55 132.5t132 55.5t132.5 -55.5t55.5 -132.5t-55.5 -132.5t-132.5 -55.5t-132 55.5t-55 132.5zM619 1394q0 -50 35 -85t84 -35q50 0 85 35t35 85 t-35 85t-85 35q-49 0 -84 -35t-35 -85z" />
<glyph unicode="&#x1e99;" horiz-adv-x="980" d="M17 1077h142l330 -943h3l331 943h140l-423 -1136q-70 -189 -141 -255.5t-202 -66.5q-29 0 -66 7v114q28 -7 64 -7q74 0 118.5 41.5t82.5 145.5l26 73zM304 1394q0 77 55 132.5t132 55.5t132.5 -55.5t55.5 -132.5t-55.5 -132.5t-132.5 -55.5t-132 55.5t-55 132.5z M372 1394q0 -50 35 -85t84 -35q50 0 85 35t35 85t-35 85t-85 35q-49 0 -84 -35t-35 -85z" />
<glyph unicode="&#x1ea0;" horiz-adv-x="1262" d="M23 0l540 1443h136l539 -1443h-144l-160 442h-606l-160 -442h-145zM369 560h524l-259 714h-6zM529 -249q0 42 30 72t72 30t72 -30t30 -72t-30 -72t-72 -30t-72 30t-30 72z" />
<glyph unicode="&#x1ea1;" horiz-adv-x="1048" d="M76 300q0 138 101 216.5t295 92.5l331 22v92q0 118 -71.5 183t-201.5 65q-113 0 -187 -54.5t-92 -150.5h-127q8 142 122.5 232.5t284.5 90.5q185 0 294.5 -96t109.5 -259v-734h-126v206h-3q-44 -98 -144.5 -158t-224.5 -60q-161 0 -261 86.5t-100 225.5zM211 299 q0 -87 70 -141t182 -54q145 0 242.5 86.5t97.5 214.5v119l-315 -22q-136 -9 -206.5 -60.5t-70.5 -142.5zM412 -249q0 42 30 72t72 30t72 -30t30 -72t-30 -72t-72 -30t-72 30t-30 72z" />
<glyph unicode="&#x1ea2;" horiz-adv-x="1262" d="M23 0l540 1443h136l539 -1443h-144l-160 442h-606l-160 -442h-145zM369 560h524l-259 714h-6zM479 1763v78q51 24 118 24q80 0 129.5 -40.5t49.5 -108.5q0 -55 -37.5 -101t-100.5 -69l-50 63q40 13 63.5 41t23.5 60t-26.5 53.5t-66.5 21.5q-62 0 -103 -22z" />
<glyph unicode="&#x1ea3;" horiz-adv-x="1048" d="M76 300q0 138 101 216.5t295 92.5l331 22v92q0 118 -71.5 183t-201.5 65q-113 0 -187 -54.5t-92 -150.5h-127q8 142 122.5 232.5t284.5 90.5q185 0 294.5 -96t109.5 -259v-734h-126v206h-3q-44 -98 -144.5 -158t-224.5 -60q-161 0 -261 86.5t-100 225.5zM211 299 q0 -87 70 -141t182 -54q145 0 242.5 86.5t97.5 214.5v119l-315 -22q-136 -9 -206.5 -60.5t-70.5 -142.5zM413 1433v85q56 27 124 27q79 0 127 -44t48 -117q0 -57 -38.5 -105t-102.5 -72l-50 66q88 32 88 106q0 35 -27 58t-68 23q-48 0 -101 -27z" />
<glyph unicode="&#x1ea4;" horiz-adv-x="1262" d="M23 0l540 1443h136l539 -1443h-144l-160 442h-606l-160 -442h-145zM308 1568l266 217h119l265 -217h-144l-175 145h-11l-176 -145h-144zM369 560h524l-259 714h-6zM776 1818l194 203h146l-231 -203h-109z" />
<glyph unicode="&#x1ea5;" horiz-adv-x="1048" d="M76 300q0 138 101 216.5t295 92.5l331 22v92q0 118 -71.5 183t-201.5 65q-113 0 -187 -54.5t-92 -150.5h-127q8 142 122.5 232.5t284.5 90.5q185 0 294.5 -96t109.5 -259v-734h-126v206h-3q-44 -98 -144.5 -158t-224.5 -60q-161 0 -261 86.5t-100 225.5zM202 1251 l261 269h130l261 -269h-125l-199 205h-4l-199 -205h-125zM211 299q0 -87 70 -141t182 -54q145 0 242.5 86.5t97.5 214.5v119l-315 -22q-136 -9 -206.5 -60.5t-70.5 -142.5zM711 1536l197 298h134l-227 -298h-104z" />
<glyph unicode="&#x1ea6;" horiz-adv-x="1262" d="M23 0l540 1443h136l539 -1443h-144l-160 442h-606l-160 -442h-145zM306 1568l266 217h118l266 -217h-144l-176 145h-10l-176 -145h-144zM369 560h524l-259 714h-6zM614 2021h145l195 -203h-109z" />
<glyph unicode="&#x1ea7;" horiz-adv-x="1048" d="M76 300q0 138 101 216.5t295 92.5l331 22v92q0 118 -71.5 183t-201.5 65q-113 0 -187 -54.5t-92 -150.5h-127q8 142 122.5 232.5t284.5 90.5q185 0 294.5 -96t109.5 -259v-734h-126v206h-3q-44 -98 -144.5 -158t-224.5 -60q-161 0 -261 86.5t-100 225.5zM202 1251 l261 269h130l261 -269h-125l-199 205h-4l-199 -205h-125zM211 299q0 -87 70 -141t182 -54q145 0 242.5 86.5t97.5 214.5v119l-315 -22q-136 -9 -206.5 -60.5t-70.5 -142.5zM563 1834h133l198 -298h-104z" />
<glyph unicode="&#x1ea8;" horiz-adv-x="1262" d="M23 0l540 1443h136l539 -1443h-144l-160 442h-606l-160 -442h-145zM307 1568l266 217h119l266 -217h-144l-176 145h-11l-176 -145h-144zM369 560h524l-259 714h-6zM755 1927v71q43 23 102 23q70 0 114 -38t44 -99q0 -49 -28.5 -89t-77.5 -58l-60 51q35 14 55.5 38 t20.5 53t-23 48.5t-59 19.5q-55 0 -88 -20z" />
<glyph unicode="&#x1ea9;" horiz-adv-x="1048" d="M76 300q0 138 101 216.5t295 92.5l331 22v92q0 118 -71.5 183t-201.5 65q-113 0 -187 -54.5t-92 -150.5h-127q8 142 122.5 232.5t284.5 90.5q185 0 294.5 -96t109.5 -259v-734h-126v206h-3q-44 -98 -144.5 -158t-224.5 -60q-161 0 -261 86.5t-100 225.5zM202 1251 l261 269h130l261 -269h-125l-199 205h-4l-199 -205h-125zM211 299q0 -87 70 -141t182 -54q145 0 242.5 86.5t97.5 214.5v119l-315 -22q-136 -9 -206.5 -60.5t-70.5 -142.5zM620 1721v79q42 25 111 25q81 0 129 -41.5t48 -110.5q0 -58 -32.5 -101.5t-91.5 -64.5l-55 57 q40 16 62.5 43.5t22.5 59.5q0 33 -26 54.5t-66 21.5q-56 0 -102 -22z" />
<glyph unicode="&#x1eaa;" horiz-adv-x="1262" d="M23 0l540 1443h136l539 -1443h-144l-160 442h-606l-160 -442h-145zM306 1568l266 204h118l266 -204h-144l-176 133h-10l-176 -133h-144zM350 1846q0 94 45 148.5t124 54.5q38 0 68 -14t49.5 -34.5t36.5 -41t36 -34.5t41 -14q75 0 80 122h87q0 -92 -45 -148t-121 -56 q-37 0 -66 14.5t-47.5 35t-35 41t-37.5 35t-46 14.5q-41 0 -60 -30t-21 -93h-88zM369 560h524l-259 714h-6z" />
<glyph unicode="&#x1eab;" horiz-adv-x="1048" d="M76 300q0 138 101 216.5t295 92.5l331 22v92q0 118 -71.5 183t-201.5 65q-113 0 -187 -54.5t-92 -150.5h-127q8 142 122.5 232.5t284.5 90.5q185 0 294.5 -96t109.5 -259v-734h-126v206h-3q-44 -98 -144.5 -158t-224.5 -60q-161 0 -261 86.5t-100 225.5zM202 1251 l261 269h130l261 -269h-125l-199 205h-4l-199 -205h-125zM211 299q0 -87 70 -141t182 -54q145 0 242.5 86.5t97.5 214.5v119l-315 -22q-136 -9 -206.5 -60.5t-70.5 -142.5zM240 1619q0 104 43.5 164t120.5 60q37 0 69 -15.5t53.5 -37.5t41 -44.5t41.5 -38t44 -15.5 q72 0 72 136h91q0 -102 -44 -163.5t-119 -61.5q-35 0 -65.5 15.5t-52 37.5t-40.5 44.5t-41.5 38t-45.5 15.5q-38 0 -57.5 -35.5t-19.5 -99.5h-91z" />
<glyph unicode="&#x1eac;" horiz-adv-x="1262" d="M23 0l540 1443h136l539 -1443h-144l-160 442h-606l-160 -442h-145zM293 1551l283 295h110l283 -295h-131l-206 217h-2l-206 -217h-131zM369 560h524l-259 714h-6zM529 -249q0 42 30 72t72 30t72 -30t30 -72t-30 -72t-72 -30t-72 30t-30 72z" />
<glyph unicode="&#x1ead;" horiz-adv-x="1048" d="M76 300q0 138 101 216.5t295 92.5l331 22v92q0 118 -71.5 183t-201.5 65q-113 0 -187 -54.5t-92 -150.5h-127q8 142 122.5 232.5t284.5 90.5q185 0 294.5 -96t109.5 -259v-734h-126v206h-3q-44 -98 -144.5 -158t-224.5 -60q-161 0 -261 86.5t-100 225.5zM206 1251 l273 301h97l273 -301h-127l-192 220h-5l-192 -220h-127zM211 299q0 -87 70 -141t182 -54q145 0 242.5 86.5t97.5 214.5v119l-315 -22q-136 -9 -206.5 -60.5t-70.5 -142.5zM412 -249q0 42 30 72t72 30t72 -30t30 -72t-30 -72t-72 -30t-72 30t-30 72z" />
<glyph unicode="&#x1eae;" horiz-adv-x="1262" d="M23 0l540 1443h136l539 -1443h-144l-160 442h-606l-160 -442h-145zM335 1823h101q0 -72 55.5 -120t139.5 -48t139.5 48t55.5 120h101q0 -115 -82 -185t-214 -70t-214 70t-82 185zM369 560h524l-259 714h-6zM534 1818l195 203h145l-231 -203h-109z" />
<glyph unicode="&#x1eaf;" horiz-adv-x="1048" d="M76 300q0 138 101 216.5t295 92.5l331 22v92q0 118 -71.5 183t-201.5 65q-113 0 -187 -54.5t-92 -150.5h-127q8 142 122.5 232.5t284.5 90.5q185 0 294.5 -96t109.5 -259v-734h-126v206h-3q-44 -98 -144.5 -158t-224.5 -60q-161 0 -261 86.5t-100 225.5zM211 299 q0 -87 70 -141t182 -54q145 0 242.5 86.5t97.5 214.5v119l-315 -22q-136 -9 -206.5 -60.5t-70.5 -142.5zM234 1530h93q0 -90 55 -144t146 -54t146 54t55 144h93q0 -128 -80.5 -203.5t-213.5 -75.5t-213.5 75.5t-80.5 203.5zM446 1536l198 298h133l-227 -298h-104z" />
<glyph unicode="&#x1eb0;" horiz-adv-x="1262" d="M23 0l540 1443h136l539 -1443h-144l-160 442h-606l-160 -442h-145zM335 1823h101q0 -72 55.5 -120t139.5 -48t139.5 48t55.5 120h101q0 -115 -82 -185t-214 -70t-214 70t-82 185zM369 560h524l-259 714h-6zM388 2021h145l195 -203h-109z" />
<glyph unicode="&#x1eb1;" horiz-adv-x="1048" d="M76 300q0 138 101 216.5t295 92.5l331 22v92q0 118 -71.5 183t-201.5 65q-113 0 -187 -54.5t-92 -150.5h-127q8 142 122.5 232.5t284.5 90.5q185 0 294.5 -96t109.5 -259v-734h-126v206h-3q-44 -98 -144.5 -158t-224.5 -60q-161 0 -261 86.5t-100 225.5zM211 299 q0 -87 70 -141t182 -54q145 0 242.5 86.5t97.5 214.5v119l-315 -22q-136 -9 -206.5 -60.5t-70.5 -142.5zM234 1530h93q0 -90 55 -144t146 -54t146 54t55 144h93q0 -128 -80.5 -203.5t-213.5 -75.5t-213.5 75.5t-80.5 203.5zM279 1834h133l198 -298h-104z" />
<glyph unicode="&#x1eb2;" horiz-adv-x="1262" d="M23 0l540 1443h136l539 -1443h-144l-160 442h-606l-160 -442h-145zM339 1788h100q5 -60 57.5 -97t134.5 -37q83 0 136.5 37t58.5 97h99q-4 -101 -84.5 -160.5t-209.5 -59.5q-128 0 -207.5 59.5t-84.5 160.5zM369 560h524l-259 714h-6zM488 1976v78q43 26 110 26 q77 0 124.5 -41.5t47.5 -108.5q0 -54 -36 -99.5t-97 -69.5l-47 64q38 13 61 40.5t23 58.5q0 32 -26 53.5t-64 21.5q-52 0 -96 -23z" />
<glyph unicode="&#x1eb3;" horiz-adv-x="1048" d="M76 300q0 138 101 216.5t295 92.5l331 22v92q0 118 -71.5 183t-201.5 65q-113 0 -187 -54.5t-92 -150.5h-127q8 142 122.5 232.5t284.5 90.5q185 0 294.5 -96t109.5 -259v-734h-126v206h-3q-44 -98 -144.5 -158t-224.5 -60q-161 0 -261 86.5t-100 225.5zM211 299 q0 -87 70 -141t182 -54q145 0 242.5 86.5t97.5 214.5v119l-315 -22q-136 -9 -206.5 -60.5t-70.5 -142.5zM234 1530h93q0 -90 55 -144t146 -54t146 54t55 144h93q0 -128 -80.5 -203.5t-213.5 -75.5t-213.5 75.5t-80.5 203.5zM370 1721v79q42 25 110 25q81 0 129.5 -41.5 t48.5 -110.5q0 -58 -32.5 -101.5t-91.5 -64.5l-55 57q39 16 62 43.5t23 59.5q0 33 -26 54.5t-66 21.5q-56 0 -102 -22z" />
<glyph unicode="&#x1eb4;" horiz-adv-x="1262" d="M23 0l540 1443h136l539 -1443h-144l-160 442h-606l-160 -442h-145zM338 1788h100q5 -60 58 -97t135 -37q83 0 135.5 37t57.5 97h100q-4 -101 -84 -160.5t-209 -59.5q-128 0 -208.5 59.5t-84.5 160.5zM338 1846q0 91 49 147t130 56q38 0 69 -14t51 -33.5t37 -39.5 t35.5 -34t38.5 -14q71 0 76 119h100q0 -88 -48.5 -145t-125.5 -57q-37 0 -66.5 14t-48.5 34t-36 40t-37 34t-43 14q-76 0 -81 -121h-100zM369 560h524l-259 714h-6z" />
<glyph unicode="&#x1eb5;" horiz-adv-x="1048" d="M76 300q0 138 101 216.5t295 92.5l331 22v92q0 118 -71.5 183t-201.5 65q-113 0 -187 -54.5t-92 -150.5h-127q8 142 122.5 232.5t284.5 90.5q185 0 294.5 -96t109.5 -259v-734h-126v206h-3q-44 -98 -144.5 -158t-224.5 -60q-161 0 -261 86.5t-100 225.5zM211 299 q0 -87 70 -141t182 -54q145 0 242.5 86.5t97.5 214.5v119l-315 -22q-136 -9 -206.5 -60.5t-70.5 -142.5zM234 1530h93q0 -90 55 -144t146 -54t146 54t55 144h93q0 -128 -80.5 -203.5t-213.5 -75.5t-213.5 75.5t-80.5 203.5zM240 1619q0 104 43.5 164t120.5 60q37 0 69 -15.5 t53.5 -37.5t41 -44.5t41.5 -38t44 -15.5q72 0 72 136h91q0 -102 -44 -163.5t-119 -61.5q-35 0 -65.5 15.5t-52 37.5t-40.5 44.5t-41.5 38t-45.5 15.5q-38 0 -57.5 -35.5t-19.5 -99.5h-91z" />
<glyph unicode="&#x1eb6;" horiz-adv-x="1262" d="M23 0l540 1443h136l539 -1443h-144l-160 442h-606l-160 -442h-145zM339 1823h94q0 -80 56 -134.5t142 -54.5t142 54.5t56 134.5h94q0 -121 -81.5 -196.5t-210.5 -75.5t-210.5 75.5t-81.5 196.5zM369 560h524l-259 714h-6zM529 -249q0 42 30 72t72 30t72 -30t30 -72 t-30 -72t-72 -30t-72 30t-30 72z" />
<glyph unicode="&#x1eb7;" horiz-adv-x="1048" d="M76 300q0 138 101 216.5t295 92.5l331 22v92q0 118 -71.5 183t-201.5 65q-113 0 -187 -54.5t-92 -150.5h-127q8 142 122.5 232.5t284.5 90.5q185 0 294.5 -96t109.5 -259v-734h-126v206h-3q-44 -98 -144.5 -158t-224.5 -60q-161 0 -261 86.5t-100 225.5zM211 299 q0 -87 70 -141t182 -54q145 0 242.5 86.5t97.5 214.5v119l-315 -22q-136 -9 -206.5 -60.5t-70.5 -142.5zM226 1530h97q0 -86 58 -143t146 -57t146 57t58 143h97q0 -129 -83.5 -207.5t-217.5 -78.5t-217.5 78.5t-83.5 207.5zM412 -249q0 42 30 72t72 30t72 -30t30 -72 t-30 -72t-72 -30t-72 30t-30 72z" />
<glyph unicode="&#x1eb8;" horiz-adv-x="1104" d="M135 0v1443h871v-124h-735v-519h698v-122h-698v-554h735v-124h-871zM468 -249q0 42 30 72t72 30t72 -30t30 -72t-30 -72t-72 -30t-72 30t-30 72z" />
<glyph unicode="&#x1eb9;" horiz-adv-x="1075" d="M65 536q0 251 131.5 402t348.5 151q212 0 338.5 -142.5t126.5 -382.5v-58h-808v-7q0 -182 96.5 -288t257.5 -106q119 0 202 55t107 145h131q-24 -139 -146.5 -228t-296.5 -89q-224 0 -356 147.5t-132 400.5zM202 614h670q-2 161 -92.5 259.5t-236.5 98.5 q-145 0 -238.5 -98.5t-102.5 -259.5zM451 -249q0 42 30 72t72 30t72 -30t30 -72t-30 -72t-72 -30t-72 30t-30 72z" />
<glyph unicode="&#x1eba;" horiz-adv-x="1104" d="M135 0v1443h871v-124h-735v-519h698v-122h-698v-554h735v-124h-871zM418 1763v78q51 24 118 24q80 0 129.5 -40.5t49.5 -108.5q0 -55 -37.5 -101t-100.5 -69l-50 63q40 13 63.5 41t23.5 60t-26.5 53.5t-66.5 21.5q-62 0 -103 -22z" />
<glyph unicode="&#x1ebb;" horiz-adv-x="1075" d="M65 536q0 251 131.5 402t348.5 151q212 0 338.5 -142.5t126.5 -382.5v-58h-808v-7q0 -182 96.5 -288t257.5 -106q119 0 202 55t107 145h131q-24 -139 -146.5 -228t-296.5 -89q-224 0 -356 147.5t-132 400.5zM202 614h670q-2 161 -92.5 259.5t-236.5 98.5 q-145 0 -238.5 -98.5t-102.5 -259.5zM430 1433v85q55 27 124 27q79 0 127 -44t48 -117q0 -57 -38.5 -105t-102.5 -72l-50 66q88 32 88 106q0 35 -27 58t-68 23q-48 0 -101 -27z" />
<glyph unicode="&#x1ebc;" horiz-adv-x="1104" d="M135 0v1443h871v-124h-735v-519h698v-122h-698v-554h735v-124h-871zM274 1554q0 109 43.5 171.5t122.5 62.5q46 0 86 -24.5t64 -54t54 -54t57 -24.5q73 0 73 144h91q0 -107 -43.5 -170.5t-120.5 -63.5q-36 0 -67.5 16t-54.5 39.5t-44 46.5t-44.5 39t-47.5 16 q-38 0 -58 -38t-20 -106h-91z" />
<glyph unicode="&#x1ebd;" horiz-adv-x="1075" d="M65 536q0 251 131.5 402t348.5 151q212 0 338.5 -142.5t126.5 -382.5v-58h-808v-7q0 -182 96.5 -288t257.5 -106q119 0 202 55t107 145h131q-24 -139 -146.5 -228t-296.5 -89q-224 0 -356 147.5t-132 400.5zM202 614h670q-2 161 -92.5 259.5t-236.5 98.5 q-145 0 -238.5 -98.5t-102.5 -259.5zM252 1270q0 109 43.5 171.5t122.5 62.5q46 0 86 -24.5t64 -54t54 -54t57 -24.5q73 0 73 144h91q0 -107 -43.5 -170.5t-120.5 -63.5q-36 0 -67.5 16t-54.5 39.5t-44 46.5t-44.5 39t-47.5 16q-38 0 -58 -38t-20 -106h-91z" />
<glyph unicode="&#x1ebe;" horiz-adv-x="1104" d="M135 0v1443h871v-124h-735v-519h698v-122h-698v-554h735v-124h-871zM247 1568l266 217h119l265 -217h-144l-175 145h-11l-176 -145h-144zM715 1818l194 203h146l-231 -203h-109z" />
<glyph unicode="&#x1ebf;" horiz-adv-x="1075" d="M65 536q0 251 131.5 402t348.5 151q212 0 338.5 -142.5t126.5 -382.5v-58h-808v-7q0 -182 96.5 -288t257.5 -106q119 0 202 55t107 145h131q-24 -139 -146.5 -228t-296.5 -89q-224 0 -356 147.5t-132 400.5zM202 614h670q-2 161 -92.5 259.5t-236.5 98.5 q-145 0 -238.5 -98.5t-102.5 -259.5zM219 1251l261 269h130l261 -269h-125l-199 205h-4l-199 -205h-125zM728 1536l197 298h134l-227 -298h-104z" />
<glyph unicode="&#x1ec0;" horiz-adv-x="1104" d="M135 0v1443h871v-124h-735v-519h698v-122h-698v-554h735v-124h-871zM245 1568l266 217h118l266 -217h-144l-176 145h-10l-176 -145h-144zM553 2021h145l195 -203h-109z" />
<glyph unicode="&#x1ec1;" horiz-adv-x="1075" d="M65 536q0 251 131.5 402t348.5 151q212 0 338.5 -142.5t126.5 -382.5v-58h-808v-7q0 -182 96.5 -288t257.5 -106q119 0 202 55t107 145h131q-24 -139 -146.5 -228t-296.5 -89q-224 0 -356 147.5t-132 400.5zM202 614h670q-2 161 -92.5 259.5t-236.5 98.5 q-145 0 -238.5 -98.5t-102.5 -259.5zM219 1251l261 269h130l261 -269h-125l-199 205h-4l-199 -205h-125zM580 1834h133l198 -298h-104z" />
<glyph unicode="&#x1ec2;" horiz-adv-x="1104" d="M135 0v1443h871v-124h-735v-519h698v-122h-698v-554h735v-124h-871zM246 1568l266 217h119l266 -217h-144l-176 145h-11l-176 -145h-144zM694 1927v71q43 23 102 23q70 0 114 -38t44 -99q0 -49 -28.5 -89t-77.5 -58l-60 51q35 14 55.5 38t20.5 53t-23 48.5t-59 19.5 q-55 0 -88 -20z" />
<glyph unicode="&#x1ec3;" horiz-adv-x="1075" d="M65 536q0 251 131.5 402t348.5 151q212 0 338.5 -142.5t126.5 -382.5v-58h-808v-7q0 -182 96.5 -288t257.5 -106q119 0 202 55t107 145h131q-24 -139 -146.5 -228t-296.5 -89q-224 0 -356 147.5t-132 400.5zM202 614h670q-2 161 -92.5 259.5t-236.5 98.5 q-145 0 -238.5 -98.5t-102.5 -259.5zM219 1251l261 269h130l261 -269h-125l-199 205h-4l-199 -205h-125zM637 1721v79q42 25 111 25q81 0 129 -41.5t48 -110.5q0 -58 -32.5 -101.5t-91.5 -64.5l-55 57q40 16 62.5 43.5t22.5 59.5q0 33 -26 54.5t-66 21.5q-56 0 -102 -22z " />
<glyph unicode="&#x1ec4;" horiz-adv-x="1104" d="M135 0v1443h871v-124h-735v-519h698v-122h-698v-554h735v-124h-871zM245 1568l266 204h118l266 -204h-144l-176 133h-10l-176 -133h-144zM289 1846q0 94 45 148.5t124 54.5q38 0 68 -14t49.5 -34.5t36.5 -41t36 -34.5t41 -14q75 0 80 122h87q0 -92 -45 -148t-121 -56 q-37 0 -66 14.5t-47.5 35t-35 41t-37.5 35t-46 14.5q-40 0 -59.5 -30t-21.5 -93h-88z" />
<glyph unicode="&#x1ec5;" horiz-adv-x="1075" d="M65 536q0 251 131.5 402t348.5 151q212 0 338.5 -142.5t126.5 -382.5v-58h-808v-7q0 -182 96.5 -288t257.5 -106q119 0 202 55t107 145h131q-24 -139 -146.5 -228t-296.5 -89q-224 0 -356 147.5t-132 400.5zM202 614h670q-2 161 -92.5 259.5t-236.5 98.5 q-145 0 -238.5 -98.5t-102.5 -259.5zM219 1251l261 269h130l261 -269h-125l-199 205h-4l-199 -205h-125zM257 1619q0 104 43.5 164t120.5 60q37 0 69 -15.5t53.5 -37.5t41 -44.5t41.5 -38t44 -15.5q72 0 72 136h91q0 -102 -44 -163.5t-119 -61.5q-35 0 -65.5 15.5t-52 37.5 t-40.5 44.5t-41.5 38t-45.5 15.5q-38 0 -57.5 -35.5t-19.5 -99.5h-91z" />
<glyph unicode="&#x1ec6;" horiz-adv-x="1104" d="M135 0v1443h871v-124h-735v-519h698v-122h-698v-554h735v-124h-871zM232 1551l283 295h110l283 -295h-131l-206 217h-2l-206 -217h-131zM468 -249q0 42 30 72t72 30t72 -30t30 -72t-30 -72t-72 -30t-72 30t-30 72z" />
<glyph unicode="&#x1ec7;" horiz-adv-x="1075" d="M65 536q0 251 131.5 402t348.5 151q212 0 338.5 -142.5t126.5 -382.5v-58h-808v-7q0 -182 96.5 -288t257.5 -106q119 0 202 55t107 145h131q-24 -139 -146.5 -228t-296.5 -89q-224 0 -356 147.5t-132 400.5zM202 614h670q-2 161 -92.5 259.5t-236.5 98.5 q-145 0 -238.5 -98.5t-102.5 -259.5zM223 1251l273 301h97l273 -301h-127l-192 220h-5l-192 -220h-127zM451 -249q0 42 30 72t72 30t72 -30t30 -72t-30 -72t-72 -30t-72 30t-30 72z" />
<glyph unicode="&#x1ec8;" horiz-adv-x="406" d="M51 1763v78q51 24 118 24q80 0 129.5 -40.5t49.5 -108.5q0 -55 -37.5 -101t-100.5 -69l-50 63q40 13 63.5 41t23.5 60t-26.5 53.5t-66.5 21.5q-62 0 -103 -22zM135 0v1443h136v-1443h-136z" />
<glyph unicode="&#x1ec9;" horiz-adv-x="390" d="M80 1433v85q56 27 124 27q79 0 127 -44t48 -117q0 -57 -38.5 -105t-102.5 -72l-50 66q88 32 88 106q0 35 -27 58t-68 23q-48 0 -101 -27zM129 0v1077h132v-1077h-132z" />
<glyph unicode="&#x1eca;" horiz-adv-x="406" d="M101 -249q0 42 30 72t72 30t72 -30t30 -72t-30 -72t-72 -30t-72 30t-30 72zM135 0v1443h136v-1443h-136z" />
<glyph unicode="&#x1ecb;" horiz-adv-x="390" d="M93 -249q0 42 30 72t72 30t72 -30t30 -72t-30 -72t-72 -30t-72 30t-30 72zM105 1379q0 37 26.5 63.5t63.5 26.5t63 -26.5t26 -63.5q0 -36 -26 -62.5t-63 -26.5t-63.5 26.5t-26.5 62.5zM129 0v1077h132v-1077h-132z" />
<glyph unicode="&#x1ecc;" d="M77 721q0 343 177 544t478 201q302 0 479 -201t177 -544t-177 -543.5t-479 -200.5t-478.5 200.5t-176.5 543.5zM217 721q0 -284 139 -450.5t376 -166.5t376.5 167t139.5 450q0 284 -139.5 451t-376.5 167t-376 -167t-139 -451zM630 -249q0 42 30 72t72 30t72 -30t30 -72 t-30 -72t-72 -30t-72 30t-30 72z" />
<glyph unicode="&#x1ecd;" horiz-adv-x="1109" d="M65 539q0 251 133.5 400.5t355.5 149.5q223 0 356.5 -149.5t133.5 -400.5t-133.5 -401t-356.5 -150q-222 0 -355.5 149.5t-133.5 401.5zM200 539q0 -201 95 -316.5t259 -115.5q165 0 260 115.5t95 316.5t-95 316.5t-260 115.5q-164 0 -259 -115.5t-95 -316.5zM452 -249 q0 42 30 72t72 30t72 -30t30 -72t-30 -72t-72 -30t-72 30t-30 72z" />
<glyph unicode="&#x1ece;" d="M77 721q0 343 177 544t478 201q302 0 479 -201t177 -544t-177 -543.5t-479 -200.5t-478.5 200.5t-176.5 543.5zM217 721q0 -284 139 -450.5t376 -166.5t376.5 167t139.5 450q0 284 -139.5 451t-376.5 167t-376 -167t-139 -451zM580 1763v78q51 24 118 24 q80 0 129.5 -40.5t49.5 -108.5q0 -55 -37.5 -101t-100.5 -69l-50 63q40 13 63.5 41t23.5 60t-26.5 53.5t-66.5 21.5q-62 0 -103 -22z" />
<glyph unicode="&#x1ecf;" horiz-adv-x="1109" d="M65 539q0 251 133.5 400.5t355.5 149.5q223 0 356.5 -149.5t133.5 -400.5t-133.5 -401t-356.5 -150q-222 0 -355.5 149.5t-133.5 401.5zM200 539q0 -201 95 -316.5t259 -115.5q165 0 260 115.5t95 316.5t-95 316.5t-260 115.5q-164 0 -259 -115.5t-95 -316.5zM439 1433 v85q55 27 124 27q79 0 127 -44t48 -117q0 -57 -38.5 -105t-102.5 -72l-50 66q88 32 88 106q0 35 -27 58t-68 23q-48 0 -101 -27z" />
<glyph unicode="&#x1ed0;" d="M77 721q0 343 177 544t478 201q302 0 479 -201t177 -544t-177 -543.5t-479 -200.5t-478.5 200.5t-176.5 543.5zM217 721q0 -284 139 -450.5t376 -166.5t376.5 167t139.5 450q0 284 -139.5 451t-376.5 167t-376 -167t-139 -451zM409 1568l266 217h119l265 -217h-144 l-175 145h-11l-176 -145h-144zM877 1818l194 203h146l-231 -203h-109z" />
<glyph unicode="&#x1ed1;" horiz-adv-x="1109" d="M65 539q0 251 133.5 400.5t355.5 149.5q223 0 356.5 -149.5t133.5 -400.5t-133.5 -401t-356.5 -150q-222 0 -355.5 149.5t-133.5 401.5zM200 539q0 -201 95 -316.5t259 -115.5q165 0 260 115.5t95 316.5t-95 316.5t-260 115.5q-164 0 -259 -115.5t-95 -316.5zM228 1251 l261 269h130l261 -269h-125l-199 205h-4l-199 -205h-125zM737 1536l197 298h134l-227 -298h-104z" />
<glyph unicode="&#x1ed2;" d="M77 721q0 343 177 544t478 201q302 0 479 -201t177 -544t-177 -543.5t-479 -200.5t-478.5 200.5t-176.5 543.5zM217 721q0 -284 139 -450.5t376 -166.5t376.5 167t139.5 450q0 284 -139.5 451t-376.5 167t-376 -167t-139 -451zM407 1568l266 217h118l266 -217h-144 l-176 145h-10l-176 -145h-144zM715 2021h145l195 -203h-109z" />
<glyph unicode="&#x1ed3;" horiz-adv-x="1109" d="M65 539q0 251 133.5 400.5t355.5 149.5q223 0 356.5 -149.5t133.5 -400.5t-133.5 -401t-356.5 -150q-222 0 -355.5 149.5t-133.5 401.5zM200 539q0 -201 95 -316.5t259 -115.5q165 0 260 115.5t95 316.5t-95 316.5t-260 115.5q-164 0 -259 -115.5t-95 -316.5zM228 1251 l261 269h130l261 -269h-125l-199 205h-4l-199 -205h-125zM589 1834h133l198 -298h-104z" />
<glyph unicode="&#x1ed4;" d="M77 721q0 343 177 544t478 201q302 0 479 -201t177 -544t-177 -543.5t-479 -200.5t-478.5 200.5t-176.5 543.5zM217 721q0 -284 139 -450.5t376 -166.5t376.5 167t139.5 450q0 284 -139.5 451t-376.5 167t-376 -167t-139 -451zM408 1568l266 217h119l266 -217h-144 l-176 145h-11l-176 -145h-144zM856 1927v71q43 23 102 23q70 0 114 -38t44 -99q0 -49 -28.5 -89t-77.5 -58l-60 51q35 14 55.5 38t20.5 53t-23 48.5t-59 19.5q-55 0 -88 -20z" />
<glyph unicode="&#x1ed5;" horiz-adv-x="1109" d="M65 539q0 251 133.5 400.5t355.5 149.5q223 0 356.5 -149.5t133.5 -400.5t-133.5 -401t-356.5 -150q-222 0 -355.5 149.5t-133.5 401.5zM200 539q0 -201 95 -316.5t259 -115.5q165 0 260 115.5t95 316.5t-95 316.5t-260 115.5q-164 0 -259 -115.5t-95 -316.5zM228 1251 l261 269h130l261 -269h-125l-199 205h-4l-199 -205h-125zM646 1721v79q42 25 111 25q81 0 129 -41.5t48 -110.5q0 -58 -32.5 -101.5t-91.5 -64.5l-55 57q40 16 62.5 43.5t22.5 59.5q0 33 -26 54.5t-66 21.5q-56 0 -102 -22z" />
<glyph unicode="&#x1ed6;" d="M77 721q0 343 177 544t478 201q302 0 479 -201t177 -544t-177 -543.5t-479 -200.5t-478.5 200.5t-176.5 543.5zM217 721q0 -284 139 -450.5t376 -166.5t376.5 167t139.5 450q0 284 -139.5 451t-376.5 167t-376 -167t-139 -451zM407 1568l266 204h118l266 -204h-144 l-176 133h-10l-176 -133h-144zM451 1846q0 94 45 148.5t124 54.5q38 0 68 -14t49.5 -34.5t36.5 -41t36 -34.5t41 -14q75 0 80 122h87q0 -92 -45 -148t-121 -56q-37 0 -66 14.5t-47.5 35t-35 41t-37.5 35t-46 14.5q-40 0 -59.5 -30t-21.5 -93h-88z" />
<glyph unicode="&#x1ed7;" horiz-adv-x="1109" d="M65 539q0 251 133.5 400.5t355.5 149.5q223 0 356.5 -149.5t133.5 -400.5t-133.5 -401t-356.5 -150q-222 0 -355.5 149.5t-133.5 401.5zM200 539q0 -201 95 -316.5t259 -115.5q165 0 260 115.5t95 316.5t-95 316.5t-260 115.5q-164 0 -259 -115.5t-95 -316.5zM228 1251 l261 269h130l261 -269h-125l-199 205h-4l-199 -205h-125zM266 1619q0 104 43.5 164t120.5 60q37 0 69 -15.5t53.5 -37.5t41 -44.5t41.5 -38t44 -15.5q72 0 72 136h91q0 -102 -44 -163.5t-119 -61.5q-35 0 -65.5 15.5t-52 37.5t-40.5 44.5t-41.5 38t-45.5 15.5 q-38 0 -57.5 -35.5t-19.5 -99.5h-91z" />
<glyph unicode="&#x1ed8;" d="M77 721q0 343 177 544t478 201q302 0 479 -201t177 -544t-177 -543.5t-479 -200.5t-478.5 200.5t-176.5 543.5zM217 721q0 -284 139 -450.5t376 -166.5t376.5 167t139.5 450q0 284 -139.5 451t-376.5 167t-376 -167t-139 -451zM394 1551l283 295h110l283 -295h-131 l-206 217h-2l-206 -217h-131zM630 -249q0 42 30 72t72 30t72 -30t30 -72t-30 -72t-72 -30t-72 30t-30 72z" />
<glyph unicode="&#x1ed9;" horiz-adv-x="1109" d="M65 539q0 251 133.5 400.5t355.5 149.5q223 0 356.5 -149.5t133.5 -400.5t-133.5 -401t-356.5 -150q-222 0 -355.5 149.5t-133.5 401.5zM200 539q0 -201 95 -316.5t259 -115.5q165 0 260 115.5t95 316.5t-95 316.5t-260 115.5q-164 0 -259 -115.5t-95 -316.5zM232 1251 l273 301h97l273 -301h-127l-192 220h-5l-192 -220h-127zM452 -249q0 42 30 72t72 30t72 -30t30 -72t-30 -72t-72 -30t-72 30t-30 72z" />
<glyph unicode="&#x1eda;" d="M77 721q0 343 177 544t478 201q69 0 194.5 -17t209.5 -17q79 0 109.5 23t30.5 84v129h122v-168q0 -81 -52.5 -125.5t-149.5 -44.5h-72v-5q119 -73 191.5 -239.5t72.5 -364.5q0 -343 -177 -543.5t-479 -200.5t-478.5 200.5t-176.5 543.5zM217 721q0 -284 139 -450.5 t376 -166.5t376.5 167t139.5 450q0 285 -139.5 451.5t-376.5 166.5t-376 -167t-139 -451zM672 1551l252 295h154l-289 -295h-117z" />
<glyph unicode="&#x1edb;" horiz-adv-x="1139" d="M65 539q0 251 133 400.5t356 149.5q64 0 147 -11.5t135 -11.5q65 0 90.5 21.5t25.5 76.5v133h122v-172q0 -70 -40.5 -111t-111.5 -41h-64v-4q87 -51 136.5 -165t49.5 -265q0 -251 -133.5 -401t-356.5 -150t-356 150t-133 401zM200 539q0 -201 95 -316.5t259 -115.5 q165 0 260 116t95 316t-95 316t-260 116t-259.5 -115.5t-94.5 -316.5zM488 1251l220 301h153l-256 -301h-117z" />
<glyph unicode="&#x1edc;" d="M77 721q0 343 177 544t478 201q69 0 194.5 -17t209.5 -17q79 0 109.5 23t30.5 84v129h122v-168q0 -81 -52.5 -125.5t-149.5 -44.5h-72v-5q119 -73 191.5 -239.5t72.5 -364.5q0 -343 -177 -543.5t-479 -200.5t-478.5 200.5t-176.5 543.5zM217 721q0 -284 139 -450.5 t376 -166.5t376.5 167t139.5 450q0 285 -139.5 451.5t-376.5 166.5t-376 -167t-139 -451zM388 1846h154l252 -295h-117z" />
<glyph unicode="&#x1edd;" horiz-adv-x="1139" d="M65 539q0 251 133 400.5t356 149.5q64 0 147 -11.5t135 -11.5q65 0 90.5 21.5t25.5 76.5v133h122v-172q0 -70 -40.5 -111t-111.5 -41h-64v-4q87 -51 136.5 -165t49.5 -265q0 -251 -133.5 -401t-356.5 -150t-356 150t-133 401zM200 539q0 -201 95 -316.5t259 -115.5 q165 0 260 116t95 316t-95 316t-260 116t-259.5 -115.5t-94.5 -316.5zM241 1552h153l220 -301h-117z" />
<glyph unicode="&#x1ede;" d="M77 721q0 343 177 544t478 201q69 0 194.5 -17t209.5 -17q79 0 109.5 23t30.5 84v129h122v-168q0 -81 -52.5 -125.5t-149.5 -44.5h-72v-5q119 -73 191.5 -239.5t72.5 -364.5q0 -343 -177 -543.5t-479 -200.5t-478.5 200.5t-176.5 543.5zM217 721q0 -284 139 -450.5 t376 -166.5t376.5 167t139.5 450q0 285 -139.5 451.5t-376.5 166.5t-376 -167t-139 -451zM580 1763v78q51 24 118 24q80 0 129.5 -40.5t49.5 -108.5q0 -55 -37.5 -101t-100.5 -69l-50 63q40 13 63.5 41t23.5 60t-26.5 53.5t-66.5 21.5q-62 0 -103 -22z" />
<glyph unicode="&#x1edf;" horiz-adv-x="1139" d="M65 539q0 251 133 400.5t356 149.5q64 0 147 -11.5t135 -11.5q65 0 90.5 21.5t25.5 76.5v133h122v-172q0 -70 -40.5 -111t-111.5 -41h-64v-4q87 -51 136.5 -165t49.5 -265q0 -251 -133.5 -401t-356.5 -150t-356 150t-133 401zM200 539q0 -201 95 -316.5t259 -115.5 q165 0 260 116t95 316t-95 316t-260 116t-259.5 -115.5t-94.5 -316.5zM439 1433v85q55 27 124 27q79 0 127 -44t48 -117q0 -57 -38.5 -105t-102.5 -72l-50 66q88 32 88 106q0 35 -27 58t-68 23q-48 0 -101 -27z" />
<glyph unicode="&#x1ee0;" d="M77 721q0 343 177 544t478 201q69 0 194.5 -17t209.5 -17q79 0 109.5 23t30.5 84v129h122v-168q0 -81 -52.5 -125.5t-149.5 -44.5h-72v-5q119 -73 191.5 -239.5t72.5 -364.5q0 -343 -177 -543.5t-479 -200.5t-478.5 200.5t-176.5 543.5zM217 721q0 -284 139 -450.5 t376 -166.5t376.5 167t139.5 450q0 285 -139.5 451.5t-376.5 166.5t-376 -167t-139 -451zM436 1554q0 109 43.5 171.5t122.5 62.5q46 0 86 -24.5t64 -54t54 -54t57 -24.5q73 0 73 144h91q0 -107 -43.5 -170.5t-120.5 -63.5q-36 0 -67.5 16t-54.5 39.5t-44 46.5t-44.5 39 t-47.5 16q-38 0 -58 -38t-20 -106h-91z" />
<glyph unicode="&#x1ee1;" horiz-adv-x="1139" d="M65 539q0 251 133 400.5t356 149.5q64 0 147 -11.5t135 -11.5q65 0 90.5 21.5t25.5 76.5v133h122v-172q0 -70 -40.5 -111t-111.5 -41h-64v-4q87 -51 136.5 -165t49.5 -265q0 -251 -133.5 -401t-356.5 -150t-356 150t-133 401zM200 539q0 -201 95 -316.5t259 -115.5 q165 0 260 116t95 316t-95 316t-260 116t-259.5 -115.5t-94.5 -316.5zM261 1270q0 109 43.5 171.5t122.5 62.5q46 0 86 -24.5t64 -54t54 -54t57 -24.5q73 0 73 144h91q0 -107 -43.5 -170.5t-120.5 -63.5q-36 0 -67.5 16t-54.5 39.5t-44 46.5t-44.5 39t-47.5 16 q-38 0 -58 -38t-20 -106h-91z" />
<glyph unicode="&#x1ee2;" d="M77 721q0 343 177 544t478 201q69 0 194.5 -17t209.5 -17q79 0 109.5 23t30.5 84v129h122v-168q0 -81 -52.5 -125.5t-149.5 -44.5h-72v-5q119 -73 191.5 -239.5t72.5 -364.5q0 -343 -177 -543.5t-479 -200.5t-478.5 200.5t-176.5 543.5zM217 721q0 -284 139 -450.5 t376 -166.5t376.5 167t139.5 450q0 285 -139.5 451.5t-376.5 166.5t-376 -167t-139 -451zM630 -249q0 42 30 72t72 30t72 -30t30 -72t-30 -72t-72 -30t-72 30t-30 72z" />
<glyph unicode="&#x1ee3;" horiz-adv-x="1139" d="M65 539q0 251 133 400.5t356 149.5q64 0 147 -11.5t135 -11.5q65 0 90.5 21.5t25.5 76.5v133h122v-172q0 -70 -40.5 -111t-111.5 -41h-64v-4q87 -51 136.5 -165t49.5 -265q0 -251 -133.5 -401t-356.5 -150t-356 150t-133 401zM200 539q0 -201 95 -316.5t259 -115.5 q165 0 260 116t95 316t-95 316t-260 116t-259.5 -115.5t-94.5 -316.5zM452 -249q0 42 30 72t72 30t72 -30t30 -72t-30 -72t-72 -30t-72 30t-30 72z" />
<glyph unicode="&#x1ee4;" horiz-adv-x="1386" d="M135 504v939h136v-931q0 -184 113 -296t309 -112t309 112t113 296v931h137v-939q0 -236 -151 -381.5t-408 -145.5t-407.5 145.5t-150.5 381.5zM591 -249q0 42 30 72t72 30t72 -30t30 -72t-30 -72t-72 -30t-72 30t-30 72z" />
<glyph unicode="&#x1ee5;" horiz-adv-x="1097" d="M113 383v694h132v-672q0 -144 74 -221t211 -77q142 0 229 92.5t87 244.5v633h133v-1077h-125v202h-3q-45 -100 -138.5 -157t-219.5 -57q-176 0 -278 106.5t-102 288.5zM451 -249q0 42 30 72t72 30t72 -30t30 -72t-30 -72t-72 -30t-72 30t-30 72z" />
<glyph unicode="&#x1ee6;" horiz-adv-x="1386" d="M135 504v939h136v-931q0 -184 113 -296t309 -112t309 112t113 296v931h137v-939q0 -236 -151 -381.5t-408 -145.5t-407.5 145.5t-150.5 381.5zM541 1763v78q51 24 118 24q80 0 129.5 -40.5t49.5 -108.5q0 -55 -37.5 -101t-100.5 -69l-50 63q40 13 63.5 41t23.5 60 t-26.5 53.5t-66.5 21.5q-62 0 -103 -22z" />
<glyph unicode="&#x1ee7;" horiz-adv-x="1097" d="M113 383v694h132v-672q0 -144 74 -221t211 -77q142 0 229 92.5t87 244.5v633h133v-1077h-125v202h-3q-45 -100 -138.5 -157t-219.5 -57q-176 0 -278 106.5t-102 288.5zM431 1433v85q55 27 124 27q79 0 127 -44t48 -117q0 -57 -38.5 -105t-102.5 -72l-50 66q88 32 88 106 q0 35 -27 58t-68 23q-48 0 -101 -27z" />
<glyph unicode="&#x1ee8;" horiz-adv-x="1531" d="M135 504v939h136v-931q0 -185 115.5 -296.5t306.5 -111.5q192 0 307 111.5t115 296.5v931h163q101 0 101 94v158h122v-182q0 -80 -50 -125t-139 -45h-60v-839q0 -240 -152.5 -383.5t-406.5 -143.5t-406 143.5t-152 383.5zM633 1551l252 295h154l-289 -295h-117z" />
<glyph unicode="&#x1ee9;" horiz-adv-x="1200" d="M113 383v694h132v-672q0 -144 74.5 -221t210.5 -77q141 0 228.5 92t87.5 245v633h138q101 0 101 94v143h122v-167q0 -80 -50 -125t-139 -45h-39v-977h-125v202h-3q-45 -101 -139 -157.5t-219 -56.5q-175 0 -277.5 106t-102.5 289zM480 1251l220 301h153l-256 -301h-117z " />
<glyph unicode="&#x1eea;" horiz-adv-x="1531" d="M135 504v939h136v-931q0 -185 115.5 -296.5t306.5 -111.5q192 0 307 111.5t115 296.5v931h163q101 0 101 94v158h122v-182q0 -80 -50 -125t-139 -45h-60v-839q0 -240 -152.5 -383.5t-406.5 -143.5t-406 143.5t-152 383.5zM349 1846h154l252 -295h-117z" />
<glyph unicode="&#x1eeb;" horiz-adv-x="1200" d="M113 383v694h132v-672q0 -144 74.5 -221t210.5 -77q141 0 228.5 92t87.5 245v633h138q101 0 101 94v143h122v-167q0 -80 -50 -125t-139 -45h-39v-977h-125v202h-3q-45 -101 -139 -157.5t-219 -56.5q-175 0 -277.5 106t-102.5 289zM233 1552h153l220 -301h-117z" />
<glyph unicode="&#x1eec;" horiz-adv-x="1531" d="M135 504v939h136v-931q0 -185 115.5 -296.5t306.5 -111.5q192 0 307 111.5t115 296.5v931h163q101 0 101 94v158h122v-182q0 -80 -50 -125t-139 -45h-60v-839q0 -240 -152.5 -383.5t-406.5 -143.5t-406 143.5t-152 383.5zM541 1763v78q51 24 118 24q80 0 129.5 -40.5 t49.5 -108.5q0 -55 -37.5 -101t-100.5 -69l-50 63q40 13 63.5 41t23.5 60t-26.5 53.5t-66.5 21.5q-62 0 -103 -22z" />
<glyph unicode="&#x1eed;" horiz-adv-x="1200" d="M113 383v694h132v-672q0 -144 74.5 -221t210.5 -77q141 0 228.5 92t87.5 245v633h138q101 0 101 94v143h122v-167q0 -80 -50 -125t-139 -45h-39v-977h-125v202h-3q-45 -101 -139 -157.5t-219 -56.5q-175 0 -277.5 106t-102.5 289zM431 1433v85q55 27 124 27q79 0 127 -44 t48 -117q0 -57 -38.5 -105t-102.5 -72l-50 66q88 32 88 106q0 35 -27 58t-68 23q-48 0 -101 -27z" />
<glyph unicode="&#x1eee;" horiz-adv-x="1531" d="M135 504v939h136v-931q0 -185 115.5 -296.5t306.5 -111.5q192 0 307 111.5t115 296.5v931h163q101 0 101 94v158h122v-182q0 -80 -50 -125t-139 -45h-60v-839q0 -240 -152.5 -383.5t-406.5 -143.5t-406 143.5t-152 383.5zM397 1554q0 109 43.5 171.5t122.5 62.5 q46 0 86 -24.5t64 -54t54 -54t57 -24.5q73 0 73 144h91q0 -107 -43.5 -170.5t-120.5 -63.5q-36 0 -67.5 16t-54.5 39.5t-44 46.5t-44.5 39t-47.5 16q-38 0 -58 -38t-20 -106h-91z" />
<glyph unicode="&#x1eef;" horiz-adv-x="1200" d="M113 383v694h132v-672q0 -144 74.5 -221t210.5 -77q141 0 228.5 92t87.5 245v633h138q101 0 101 94v143h122v-167q0 -80 -50 -125t-139 -45h-39v-977h-125v202h-3q-45 -101 -139 -157.5t-219 -56.5q-175 0 -277.5 106t-102.5 289zM253 1270q0 109 43.5 171.5t122.5 62.5 q46 0 86 -24.5t64 -54t54 -54t57 -24.5q73 0 73 144h91q0 -107 -43.5 -170.5t-120.5 -63.5q-36 0 -67.5 16t-54.5 39.5t-44 46.5t-44.5 39t-47.5 16q-38 0 -58 -38t-20 -106h-91z" />
<glyph unicode="&#x1ef0;" horiz-adv-x="1531" d="M135 504v939h136v-931q0 -185 115.5 -296.5t306.5 -111.5q192 0 307 111.5t115 296.5v931h163q101 0 101 94v158h122v-182q0 -80 -50 -125t-139 -45h-60v-839q0 -240 -152.5 -383.5t-406.5 -143.5t-406 143.5t-152 383.5zM591 -249q0 42 30 72t72 30t72 -30t30 -72 t-30 -72t-72 -30t-72 30t-30 72z" />
<glyph unicode="&#x1ef1;" horiz-adv-x="1200" d="M113 383v694h132v-672q0 -144 74.5 -221t210.5 -77q141 0 228.5 92t87.5 245v633h138q101 0 101 94v143h122v-167q0 -80 -50 -125t-139 -45h-39v-977h-125v202h-3q-45 -101 -139 -157.5t-219 -56.5q-175 0 -277.5 106t-102.5 289zM451 -249q0 42 30 72t72 30t72 -30 t30 -72t-30 -72t-72 -30t-72 30t-30 72z" />
<glyph unicode="&#x1ef2;" horiz-adv-x="1219" d="M24 1443h156l427 -685h5l427 685h156l-517 -819v-624h-137v624zM265 1846h154l252 -295h-117z" />
<glyph unicode="&#x1ef3;" horiz-adv-x="980" d="M17 1077h142l330 -943h3l331 943h140l-423 -1136q-70 -189 -141 -255.5t-202 -66.5q-29 0 -66 7v114q28 -7 64 -7q74 0 118.5 41.5t82.5 145.5l26 73zM178 1552h153l220 -301h-117z" />
<glyph unicode="&#x1ef4;" horiz-adv-x="1219" d="M24 1443h156l427 -685h5l427 685h156l-517 -819v-624h-137v624zM507 -249q0 42 30 72t72 30t72 -30t30 -72t-30 -72t-72 -30t-72 30t-30 72z" />
<glyph unicode="&#x1ef5;" horiz-adv-x="980" d="M17 1077h142l330 -943h3l331 943h140l-423 -1136q-70 -189 -141 -255.5t-202 -66.5q-29 0 -66 7v114q28 -7 64 -7q74 0 118.5 41.5t82.5 145.5l26 73zM677 -249q0 42 30 72t72 30t72 -30t30 -72t-30 -72t-72 -30t-72 30t-30 72z" />
<glyph unicode="&#x1ef6;" horiz-adv-x="1219" d="M24 1443h156l427 -685h5l427 685h156l-517 -819v-624h-137v624zM457 1763v78q51 24 118 24q80 0 129.5 -40.5t49.5 -108.5q0 -55 -37.5 -101t-100.5 -69l-50 63q40 13 63.5 41t23.5 60t-26.5 53.5t-66.5 21.5q-62 0 -103 -22z" />
<glyph unicode="&#x1ef7;" horiz-adv-x="980" d="M17 1077h142l330 -943h3l331 943h140l-423 -1136q-70 -189 -141 -255.5t-202 -66.5q-29 0 -66 7v114q28 -7 64 -7q74 0 118.5 41.5t82.5 145.5l26 73zM376 1433v85q56 27 124 27q79 0 127 -44t48 -117q0 -57 -38.5 -105t-102.5 -72l-50 66q88 32 88 106q0 35 -27 58 t-68 23q-48 0 -101 -27z" />
<glyph unicode="&#x1ef8;" horiz-adv-x="1219" d="M24 1443h156l427 -685h5l427 685h156l-517 -819v-624h-137v624zM313 1554q0 109 43.5 171.5t122.5 62.5q46 0 86 -24.5t64 -54t54 -54t57 -24.5q73 0 73 144h91q0 -107 -43.5 -170.5t-120.5 -63.5q-36 0 -67.5 16t-54.5 39.5t-44 46.5t-44.5 39t-47.5 16q-38 0 -58 -38 t-20 -106h-91z" />
<glyph unicode="&#x1ef9;" horiz-adv-x="980" d="M17 1077h142l330 -943h3l331 943h140l-423 -1136q-70 -189 -141 -255.5t-202 -66.5q-29 0 -66 7v114q28 -7 64 -7q74 0 118.5 41.5t82.5 145.5l26 73zM197 1270q0 109 43.5 171.5t122.5 62.5q46 0 86 -24.5t64 -54t54 -54t57 -24.5q73 0 73 144h91q0 -107 -43.5 -170.5 t-120.5 -63.5q-36 0 -67.5 16t-54.5 39.5t-44 46.5t-44.5 39t-47.5 16q-38 0 -58 -38t-20 -106h-91z" />
<glyph unicode="&#x2000;" horiz-adv-x="1045" />
<glyph unicode="&#x2001;" horiz-adv-x="2091" />
<glyph unicode="&#x2002;" horiz-adv-x="1045" />
<glyph unicode="&#x2003;" horiz-adv-x="2091" />
<glyph unicode="&#x2004;" horiz-adv-x="697" />
<glyph unicode="&#x2005;" horiz-adv-x="522" />
<glyph unicode="&#x2006;" horiz-adv-x="348" />
<glyph unicode="&#x2007;" horiz-adv-x="348" />
<glyph unicode="&#x2008;" horiz-adv-x="261" />
<glyph unicode="&#x2009;" horiz-adv-x="418" />
<glyph unicode="&#x200a;" horiz-adv-x="116" />
<glyph unicode="&#x2010;" horiz-adv-x="874" d="M109 510v124h656v-124h-656z" />
<glyph unicode="&#x2011;" horiz-adv-x="874" d="M109 510v124h656v-124h-656z" />
<glyph unicode="&#x2012;" horiz-adv-x="874" d="M109 510v124h656v-124h-656z" />
<glyph unicode="&#x2013;" horiz-adv-x="1024" d="M0 524v123h1024v-123h-1024z" />
<glyph unicode="&#x2014;" horiz-adv-x="2048" d="M0 524v123h2048v-123h-2048z" />
<glyph unicode="&#x2018;" horiz-adv-x="480" d="M109 955l143 488h119l-129 -488h-133z" />
<glyph unicode="&#x2019;" horiz-adv-x="480" d="M135 955l128 488h134l-143 -488h-119z" />
<glyph unicode="&#x201a;" horiz-adv-x="487" d="M90 -376l128 488h133l-142 -488h-119z" />
<glyph unicode="&#x201c;" horiz-adv-x="810" d="M109 955l136 488h120l-123 -488h-133zM445 955l136 488h120l-123 -488h-133z" />
<glyph unicode="&#x201d;" horiz-adv-x="810" d="M135 955l122 488h133l-136 -488h-119zM471 955l122 488h133l-136 -488h-119z" />
<glyph unicode="&#x201e;" horiz-adv-x="816" d="M90 -376l122 488h133l-136 -488h-119zM426 -376l122 488h133l-136 -488h-119z" />
<glyph unicode="&#x2026;" horiz-adv-x="1490" d="M160 85q0 40 27.5 67.5t67.5 27.5q41 0 68 -27t27 -68q0 -40 -27.5 -67.5t-67.5 -27.5t-67.5 27.5t-27.5 67.5zM652 85q0 41 27 68t68 27q40 0 67.5 -27.5t27.5 -67.5t-27.5 -67.5t-67.5 -27.5t-67.5 27.5t-27.5 67.5zM1141 85q0 40 27.5 67.5t67.5 27.5t67.5 -27 t27.5 -68q0 -40 -27.5 -67.5t-67.5 -27.5t-67.5 27.5t-27.5 67.5z" />
<glyph unicode="&#x202f;" horiz-adv-x="418" />
<glyph unicode="&#x2039;" horiz-adv-x="801" d="M143 563v6l358 414h157l-357 -411v-12l357 -411h-157z" />
<glyph unicode="&#x203a;" horiz-adv-x="801" d="M143 149l357 411v12l-357 411h157l358 -414v-6l-358 -414h-157z" />
<glyph unicode="&#x205f;" horiz-adv-x="522" />
<glyph unicode="&#x20ac;" horiz-adv-x="1219" d="M50 515v106h214q-5 53 -5 100t5 100h-214v105h230q37 174 139.5 298t243 183t308.5 59q116 0 180 -19v-124q-68 16 -180 16q-202 0 -348.5 -107t-197.5 -306h560v-105h-580q-5 -53 -5 -100t5 -100h580v-106h-560q51 -199 198 -305.5t348 -106.5q125 0 180 16v-124 q-61 -18 -180 -18q-125 0 -236.5 34.5t-203 100.5t-157 169t-94.5 234h-230z" />
<glyph unicode="&#x2122;" horiz-adv-x="1502" d="M20 1352v91h569v-91h-233v-626h-103v626h-233zM684 726v717h124l235 -544h3l236 544h123v-717h-98v538h-3l-229 -521h-60l-229 521h-3v-538h-99z" />
<glyph unicode="&#x25fc;" horiz-adv-x="1075" d="M0 0v1075h1075v-1075h-1075z" />
</font>
</defs>
</svg>
