<?xml version="1.0" standalone="no"?>
<!DOCTYPE svg PUBLIC "-//W3C//DTD SVG 1.1//EN" "http://www.w3.org/Graphics/SVG/1.1/DTD/svg11.dtd" >
<svg xmlns="http://www.w3.org/2000/svg" xmlns:xlink="http://www.w3.org/1999/xlink" version="1.1">
<metadata></metadata>
<defs>
<font id="sf_ui_displaythin" horiz-adv-x="1420" >
<font-face units-per-em="2048" ascent="1638" descent="-410" />
<missing-glyph horiz-adv-x="406" />
<glyph horiz-adv-x="0" />
<glyph unicode="&#xd;" horiz-adv-x="0" />
<glyph unicode=" "  horiz-adv-x="406" />
<glyph unicode="&#x09;" horiz-adv-x="406" />
<glyph unicode="&#xa0;" horiz-adv-x="406" />
<glyph unicode="!" horiz-adv-x="510" d="M184 61q0 29 21 49.5t50 20.5q30 0 50.5 -20.5t20.5 -49.5q0 -30 -20.5 -50.5t-50.5 -20.5q-29 0 -50 20.5t-21 50.5zM214 1443h82l-3 -1017h-76z" />
<glyph unicode="&#x22;" horiz-adv-x="564" d="M107 984v459h74v-459h-74zM384 984v459h73v-459h-73z" />
<glyph unicode="#" horiz-adv-x="1224" d="M40 443l12 67h250l85 430h-235l13 67h235l92 441h69l-90 -441h382l92 441h69l-91 -441h271l-14 -67h-271l-86 -430h258l-14 -67h-258l-92 -443h-70l92 443h-383l-92 -443h-69l92 443h-247zM370 509h384l85 431h-382z" />
<glyph unicode="$" horiz-adv-x="1192" d="M86 385h77q8 -133 122 -227t278 -102v656l-22 6q-226 55 -322.5 139.5t-96.5 227.5q0 158 123 263t318 114v135h64v-135q185 -9 311 -113.5t131 -252.5h-77q-5 116 -110.5 201.5t-254.5 94.5v-617l24 -6q243 -58 344.5 -146.5t101.5 -245.5q0 -165 -130.5 -273.5 t-339.5 -119.5v-151h-64v151q-203 8 -338 121.5t-139 279.5zM199 1089q0 -116 83 -184.5t281 -115.5v603q-157 -6 -260.5 -92t-103.5 -211zM627 55q170 6 281.5 96.5t111.5 221.5q0 128 -89 202t-304 123v-643z" />
<glyph unicode="%" d="M50 1109q0 157 68 251t185 94q118 0 185.5 -93.5t67.5 -251.5t-67.5 -252t-185.5 -94q-117 0 -185 94t-68 252zM124 1109q0 -131 47.5 -208.5t131.5 -77.5t132 77.5t48 208.5t-47.5 208t-132.5 77q-84 0 -131.5 -77.5t-47.5 -207.5zM126 0l1075 1443h85l-1075 -1443h-85z M864 334q0 157 68 251t185 94q118 0 185.5 -93.5t67.5 -251.5t-67.5 -252t-185.5 -94q-117 0 -185 94t-68 252zM938 334q0 -131 47.5 -208.5t131.5 -77.5t132 77.5t48 208.5t-47.5 208t-132.5 77q-84 0 -131.5 -77.5t-47.5 -207.5z" />
<glyph unicode="&#x26;" horiz-adv-x="1374" d="M74 366q0 229 276 378q5 2 54 28l48 26q-123 126 -170 204.5t-47 158.5q0 127 99 214.5t244 87.5t241 -85t96 -215q0 -105 -82 -196.5t-268 -185.5l451 -476q58 90 91 201.5t33 219.5v79h75v-77q0 -122 -39.5 -249.5t-106.5 -224.5l246 -254h-101l-192 199 q-94 -103 -225.5 -161.5t-267.5 -58.5q-201 0 -328 108.5t-127 278.5zM153 368q0 -138 106 -229t275 -91q116 0 238 56t198 144l-471 499q-2 -1 -52.5 -28t-51.5 -28q-242 -133 -242 -323zM311 1158q0 -68 43.5 -136.5t165.5 -192.5q166 81 242.5 162.5t76.5 169.5 q0 100 -75.5 168t-185.5 68q-109 0 -188 -70.5t-79 -168.5z" />
<glyph unicode="'" horiz-adv-x="287" d="M107 984v459h74v-459h-74z" />
<glyph unicode="(" horiz-adv-x="570" d="M153 598q0 494 272 845h74q-119 -156 -193 -375.5t-74 -469.5t72.5 -468t193.5 -387h-76q-124 159 -196.5 377t-72.5 478z" />
<glyph unicode=")" horiz-adv-x="570" d="M71 1443h74q271 -350 271 -845q0 -260 -72 -478t-196 -377h-76q121 170 193.5 388t72.5 467q0 250 -74 469.5t-193 375.5z" />
<glyph unicode="*" horiz-adv-x="953" d="M145 947l279 156l-279 156l30 56l275 -168l-6 322h66l-7 -322l275 168l31 -56l-279 -155l279 -156l-31 -56l-275 166l7 -320h-66l6 321l-275 -167z" />
<glyph unicode="+" horiz-adv-x="1192" d="M106 539v73h453v490h74v-490h453v-73h-453v-504h-74v504h-453z" />
<glyph unicode="," horiz-adv-x="496" d="M155 -222l65 402h83l-86 -402h-62z" />
<glyph unicode="-" horiz-adv-x="868" d="M106 539v73h656v-73h-656z" />
<glyph unicode="." horiz-adv-x="496" d="M178 60q0 29 20.5 49.5t49.5 20.5t49.5 -20.5t20.5 -49.5t-20.5 -49.5t-49.5 -20.5t-49.5 20.5t-20.5 49.5z" />
<glyph unicode="/" horiz-adv-x="518" d="M0 -331l446 1774h72l-448 -1774h-70z" />
<glyph unicode="0" horiz-adv-x="1194" d="M86 722q0 341 137.5 541.5t374.5 200.5q236 0 373 -200t137 -542q0 -343 -137 -543t-373 -200q-237 0 -374.5 200t-137.5 543zM166 722q0 -310 116 -491t316 -181t315.5 181t115.5 491q0 308 -116 489.5t-315 181.5q-200 0 -316 -181.5t-116 -489.5z" />
<glyph unicode="1" horiz-adv-x="804" d="M88 1105v88q37 23 190 123t206 132h78v-1448h-78v1359h-2q-19 -12 -62 -40.5t-130 -85.5t-202 -128z" />
<glyph unicode="2" horiz-adv-x="1142" d="M124 1054q4 178 129 294t314 116q184 0 309.5 -113t125.5 -279q0 -115 -64.5 -223.5t-243.5 -295.5l-451 -477v-4h813v-72h-927v60l513 544q166 175 223.5 269.5t57.5 195.5q0 137 -103 230.5t-255 93.5q-154 0 -257 -96t-107 -243h-77z" />
<glyph unicode="3" horiz-adv-x="1146" d="M87 363h77q5 -134 120.5 -223.5t285.5 -89.5q175 0 290.5 96.5t115.5 244.5q0 151 -114 237t-315 86h-163v70h161q163 0 266 86t103 222q0 130 -100.5 215.5t-257.5 85.5q-147 0 -248.5 -84.5t-110.5 -213.5h-77q9 161 132 265t307 104q186 0 310 -104t124 -261 q0 -134 -82 -226.5t-224 -118.5v-4q168 -11 268.5 -107.5t100.5 -249.5q0 -179 -138.5 -296.5t-347.5 -117.5q-206 0 -342.5 109.5t-140.5 274.5z" />
<glyph unicode="4" horiz-adv-x="1181" d="M70 361v73q297 460 707 1013l114 1v-1015h229v-72h-229v-361h-78v361h-743zM157 433h656v935h-2q-357 -475 -654 -933v-2z" />
<glyph unicode="5" horiz-adv-x="1171" d="M124 353h79q17 -131 128.5 -217t264.5 -86q179 0 297.5 116.5t118.5 292.5q0 175 -116.5 292.5t-289.5 117.5q-120 0 -220 -56.5t-159 -156.5h-80l86 787h765v-72h-697l-68 -617h3q59 86 160.5 136t218.5 50q204 0 340 -137t136 -343q0 -208 -140.5 -344.5t-355.5 -136.5 q-123 0 -227 48t-168.5 133.5t-75.5 192.5z" />
<glyph unicode="6" horiz-adv-x="1179" d="M90 684q0 360 143.5 570t389.5 210q175 0 298.5 -98t148.5 -258h-80q-23 125 -126 205t-242 80q-219 0 -339.5 -205.5t-114.5 -570.5h4q38 144 164 235.5t287 91.5q205 0 342 -136t137 -339q0 -210 -138.5 -350t-347.5 -140q-124 0 -225.5 53t-168.5 151 q-132 176 -132 501zM200 482q0 -182 120 -306.5t295 -124.5q172 0 289.5 120t117.5 296q0 173 -117 289.5t-290 116.5q-111 0 -207 -53t-152 -143t-56 -195z" />
<glyph unicode="7" horiz-adv-x="1085" d="M82 1371v72h920v-76l-685 -1367h-86l690 1368v3h-839z" />
<glyph unicode="8" horiz-adv-x="1189" d="M93 394q0 138 93.5 240.5t243.5 130.5v3q-130 29 -207 116.5t-77 206.5q0 163 125.5 268t322.5 105t322.5 -105t125.5 -268q0 -116 -77.5 -204t-204.5 -119v-3q149 -28 242.5 -130.5t93.5 -240.5q0 -183 -139 -299t-363 -116q-223 0 -362 116.5t-139 298.5zM173 397 q0 -151 116 -249t305 -98t305.5 98t116.5 249q0 145 -116.5 237t-305.5 92q-188 0 -304.5 -92.5t-116.5 -236.5zM224 1087q0 -126 104.5 -207t265.5 -81q162 0 265.5 81t103.5 207q0 133 -101.5 219.5t-267.5 86.5q-165 0 -267.5 -87t-102.5 -219z" />
<glyph unicode="9" horiz-adv-x="1179" d="M77 969q0 213 138 354t348 141q125 0 226 -53.5t168 -152.5q132 -178 132 -499q0 -360 -142 -570t-390 -210q-179 0 -301 98.5t-147 257.5h80q23 -125 123 -205t245 -80q211 0 330 186t125 513q1 26 -1 77h-1h-1q-36 -140 -164 -233.5t-289 -93.5q-207 0 -343 134.5 t-136 335.5zM156 970q0 -168 116 -284t292 -116q170 0 292.5 116.5t122.5 274.5q0 181 -119.5 306t-295.5 125q-174 0 -291 -121.5t-117 -300.5z" />
<glyph unicode=":" horiz-adv-x="496" d="M178 60q0 29 20.5 49.5t49.5 20.5t49.5 -20.5t20.5 -49.5t-20.5 -49.5t-49.5 -20.5t-49.5 20.5t-20.5 49.5zM178 830q0 29 20.5 49.5t49.5 20.5t49.5 -20.5t20.5 -49.5t-20.5 -49.5t-49.5 -20.5t-49.5 20.5t-20.5 49.5z" />
<glyph unicode=";" horiz-adv-x="496" d="M140 -222l65 402h84l-86 -402h-63zM178 830q0 29 20.5 49.5t49.5 20.5t49.5 -20.5t20.5 -49.5t-20.5 -49.5t-49.5 -20.5t-49.5 20.5t-20.5 49.5z" />
<glyph unicode="&#x3c;" horiz-adv-x="1192" d="M189 507v67l815 564v-92l-730 -501v-6l730 -494v-92z" />
<glyph unicode="=" horiz-adv-x="1192" d="M112 353v70h969v-70h-969zM112 728v70h969v-70h-969z" />
<glyph unicode="&#x3e;" horiz-adv-x="1192" d="M189 46l730 494v6l-730 500v92l815 -564v-66l-815 -555v93z" />
<glyph unicode="?" horiz-adv-x="931" d="M60 1096q10 158 119.5 261t277.5 103q169 0 280 -101t111 -253q0 -102 -50 -180t-163 -157q-102 -70 -138.5 -126.5t-36.5 -144.5v-90h-77v98q-1 98 41.5 165t152.5 145q103 73 146.5 139.5t43.5 147.5q0 125 -89 205.5t-223 80.5q-130 0 -218 -80.5t-101 -212.5h-76z M354 61q0 29 20.5 49.5t49.5 20.5q30 0 50.5 -20.5t20.5 -49.5q0 -30 -20.5 -50.5t-50.5 -20.5q-29 0 -49.5 20.5t-20.5 50.5z" />
<glyph unicode="@" horiz-adv-x="1741" d="M72 607q0 178 61.5 331.5t169.5 262t260 170t329 61.5q173 0 321.5 -55.5t253 -153.5t163.5 -238.5t59 -305.5q0 -238 -85 -373t-236 -135q-94 0 -157 54.5t-76 149.5h-5q-36 -98 -105.5 -148.5t-166.5 -50.5q-154 0 -248.5 115.5t-94.5 302.5q0 186 95 302.5t248 116.5 q95 0 168 -50.5t101 -135.5h5v165h71v-552q0 -95 45.5 -150t127.5 -55q115 0 180 117t65 328q0 201 -92.5 358t-259.5 244t-381 87q-213 0 -384 -98t-267.5 -272.5t-96.5 -392.5q0 -172 56 -317t155 -245t238.5 -155.5t303.5 -55.5q213 0 327 38v-64q-109 -37 -328 -37 q-178 0 -330 60t-260 168.5t-169 265t-61 343.5zM590 592q0 -155 76 -252t198 -97q121 0 194 98t73 261q0 160 -71.5 252.5t-194.5 92.5q-121 0 -198 -99.5t-77 -255.5z" />
<glyph unicode="A" horiz-adv-x="1221" d="M21 0l550 1443h80l549 -1443h-85l-180 481h-649l-179 -481h-86zM312 552h598l-297 788h-5z" />
<glyph unicode="B" horiz-adv-x="1165" d="M128 0v1443h486q188 0 304.5 -97t116.5 -254q0 -129 -77.5 -221t-206.5 -117v-6q158 -17 259 -114t101 -249q0 -178 -130 -281.5t-356 -103.5h-497zM207 72h410q194 0 304 84.5t110 230.5q0 150 -115 235t-320 85h-389v-635zM207 778h376q170 0 271 83t101 225 q0 130 -96 207.5t-257 77.5h-395v-593z" />
<glyph unicode="C" horiz-adv-x="1326" d="M67 730q0 337 172 535.5t463 198.5q220 0 382 -138.5t185 -344.5h-79q-23 174 -162.5 291.5t-325.5 117.5q-254 0 -404 -178t-150 -482q0 -310 150.5 -493.5t403.5 -183.5q192 0 328.5 105.5t159.5 277.5h79q-25 -205 -181.5 -331t-385.5 -126q-290 0 -462.5 203.5 t-172.5 547.5z" />
<glyph unicode="D" horiz-adv-x="1332" d="M128 0v1443h449q328 0 508 -189t180 -532q0 -344 -180 -533t-508 -189h-449zM208 73h365q295 0 453.5 168.5t158.5 479.5q0 313 -159 481t-453 168h-365v-1297z" />
<glyph unicode="E" horiz-adv-x="1068" d="M128 0v1443h841v-73h-762v-594h726v-72h-726v-631h762v-73h-841z" />
<glyph unicode="F" horiz-adv-x="1033" d="M128 0v1443h830v-73h-751v-603h691v-72h-691v-695h-79z" />
<glyph unicode="G" horiz-adv-x="1358" d="M67 730q0 331 173.5 532.5t458.5 201.5q217 0 374.5 -120t198.5 -317h-81q-43 166 -176.5 264.5t-315.5 98.5q-250 0 -400.5 -180t-150.5 -479q0 -304 152 -491t399 -187q232 0 367.5 136.5t135.5 369.5v83h-503v72h582v-143q0 -276 -155.5 -434t-426.5 -158 q-186 0 -330 94t-223 264.5t-79 392.5z" />
<glyph unicode="H" horiz-adv-x="1327" d="M128 0v1443h79v-666h913v666h79v-1443h-79v705h-913v-705h-79z" />
<glyph unicode="I" horiz-adv-x="335" d="M128 0v1443h79v-1443h-79z" />
<glyph unicode="J" horiz-adv-x="951" d="M41 320h78q7 -119 92 -194.5t214 -75.5q150 0 234.5 89t84.5 250v1054h80v-1058q0 -189 -106.5 -299t-291.5 -110q-165 0 -273 96.5t-112 247.5z" />
<glyph unicode="K" horiz-adv-x="1142" d="M128 0v1443h79v-806h6l750 806h101l-594 -636l660 -807h-101l-615 751l-207 -223v-528h-79z" />
<glyph unicode="L" horiz-adv-x="1024" d="M128 0v1443h79v-1370h757v-73h-836z" />
<glyph unicode="M" horiz-adv-x="1604" d="M128 0v1443h88l583 -1340h6l581 1340h90v-1443h-76v1279h-4l-556 -1276h-76l-556 1276h-4v-1279h-76z" />
<glyph unicode="N" horiz-adv-x="1341" d="M128 0v1443h82l919 -1299h6v1299h79v-1443h-75l-927 1307h-6v-1307h-78z" />
<glyph unicode="O" d="M67 722q0 340 174 541t469 201t469 -201t174 -541q0 -342 -173.5 -542.5t-469.5 -200.5t-469.5 200.5t-173.5 542.5zM148 722q0 -307 152.5 -488t409.5 -181t409.5 181t152.5 488q0 306 -152.5 487t-409.5 181q-258 0 -410 -181t-152 -487z" />
<glyph unicode="P" horiz-adv-x="1116" d="M128 0v1443h469q211 0 337.5 -117.5t126.5 -313.5q0 -195 -127 -312.5t-337 -117.5h-390v-582h-79zM207 654h377q183 0 289.5 96t106.5 262q0 167 -106.5 263t-289.5 96h-377v-717z" />
<glyph unicode="Q" d="M67 722q0 340 174 541t469 201t469 -201t174 -541q0 -221 -76.5 -388t-217.5 -258l185 -253h-91l-159 217q-128 -61 -284 -61q-296 0 -469.5 200.5t-173.5 542.5zM148 722q0 -306 152.5 -487.5t409.5 -181.5q132 0 238 50l-196 269h91l170 -233q125 82 191.5 232 t66.5 351q0 306 -152 487t-409 181t-409.5 -181t-152.5 -487z" />
<glyph unicode="R" horiz-adv-x="1150" d="M128 0v1443h471q214 0 338.5 -110.5t124.5 -301.5q0 -156 -88.5 -262.5t-245.5 -137.5l371 -631h-93l-361 619q-19 -3 -51 -3h-387v-616h-79zM207 688h387q181 0 284 91t103 250q0 161 -103.5 251.5t-285.5 90.5h-385v-683z" />
<glyph unicode="S" horiz-adv-x="1137" d="M57 385h79q9 -147 134 -240t313 -93q183 0 299.5 92.5t116.5 234.5q0 113 -81 183t-263 116l-171 42q-201 51 -294.5 136.5t-93.5 220.5q0 167 137 277t336 110q203 0 340 -106t144 -266h-79q-8 130 -122.5 214.5t-284.5 84.5q-165 0 -277.5 -88.5t-112.5 -223.5 q0 -107 81 -174t257 -111l161 -41q211 -52 307.5 -138.5t96.5 -229.5q0 -180 -139 -293t-364 -113q-222 0 -366.5 113t-153.5 293z" />
<glyph unicode="T" horiz-adv-x="1138" d="M21 1370v73h1096v-73h-508v-1370h-80v1370h-508z" />
<glyph unicode="U" horiz-adv-x="1334" d="M128 501v942h79v-939q0 -207 124 -329t336 -122t336 122t124 329v939h79v-942q0 -237 -145.5 -379.5t-393.5 -142.5t-393.5 142.5t-145.5 379.5z" />
<glyph unicode="V" horiz-adv-x="1223" d="M21 1443h85l503 -1338h5l503 1338h84l-550 -1443h-80z" />
<glyph unicode="W" horiz-adv-x="1803" d="M42 1443h82l356 -1306h5l379 1306h74l380 -1306h5l355 1306h83l-403 -1443h-70l-384 1295h-5l-384 -1295h-70z" />
<glyph unicode="X" horiz-adv-x="1215" d="M42 0l516 722v2l-514 719h95l469 -658h2l471 658h92l-518 -721v-2l515 -720h-95l-468 656h-2l-471 -656h-92z" />
<glyph unicode="Y" horiz-adv-x="1172" d="M22 1443h93l469 -733h5l469 733h92l-524 -814v-629h-79v629z" />
<glyph unicode="Z" horiz-adv-x="1173" d="M71 0v62l925 1303v5h-896v73h997v-62l-923 -1303v-5h928v-73h-1031z" />
<glyph unicode="[" horiz-adv-x="580" d="M162 -236v1679h370v-65h-294v-1549h308v-65h-384z" />
<glyph unicode="\" horiz-adv-x="518" d="M0 1443h72l446 -1774h-70z" />
<glyph unicode="]" horiz-adv-x="580" d="M35 -171h308v1549h-294v65h370v-1679h-384v65z" />
<glyph unicode="^" horiz-adv-x="782" d="M60 802l294 603h75l293 -603h-80l-248 519h-6l-248 -519h-80z" />
<glyph unicode="_" horiz-adv-x="807" d="M-63 -142h933v-63h-933v63z" />
<glyph unicode="`" horiz-adv-x="758" d="M230 1556h93l230 -303h-74z" />
<glyph unicode="a" horiz-adv-x="1030" d="M86 290q0 138 97.5 216t287.5 92l369 27v96q0 141 -81.5 220t-226.5 79q-137 0 -224 -67t-106 -189h-75q14 149 125 238t281 89q177 0 280.5 -98t103.5 -267v-726h-75v232h-2q-40 -110 -150 -178t-247 -68q-158 0 -257.5 84.5t-99.5 219.5zM164 290q0 -103 81.5 -169 t207.5 -66q161 0 274 100.5t113 243.5v161l-359 -27q-155 -11 -236 -73t-81 -170z" />
<glyph unicode="b" horiz-adv-x="1129" d="M129 0v1506h78v-713h3q40 136 148.5 217t252.5 81q201 0 327 -153t126 -399t-126 -399.5t-327 -153.5q-144 0 -253 81.5t-151 220.5h-3v-288h-75zM207 538q0 -212 109.5 -347t282.5 -135t279.5 133.5t106.5 349.5q0 215 -106.5 348t-278.5 133q-173 0 -283 -135 t-110 -347z" />
<glyph unicode="c" horiz-adv-x="1028" d="M65 538q0 253 129 403t345 150q170 0 287.5 -96t142.5 -242h-77q-24 118 -119.5 192.5t-233.5 74.5q-181 0 -288.5 -130.5t-107.5 -351.5t107.5 -351.5t289.5 -130.5q137 0 232 71t119 188h78q-25 -147 -142 -238t-287 -91q-217 0 -346 149t-129 403z" />
<glyph unicode="d" horiz-adv-x="1136" d="M65 538q0 246 128.5 399.5t330.5 153.5q146 0 256 -84.5t147 -213.5h2v713h78v-1506h-73v290h-3q-38 -134 -148.5 -219t-257.5 -85q-203 0 -331.5 153.5t-128.5 398.5zM144 539q0 -215 108.5 -349t281.5 -134q174 0 285 135t111 347q0 213 -111 347.5t-285 134.5 q-173 0 -281.5 -133t-108.5 -348z" />
<glyph unicode="e" horiz-adv-x="1062" d="M65 537q0 250 129.5 402t342.5 152q208 0 334 -142.5t126 -377.5v-45h-853v-4q0 -218 109 -342t293 -124q144 0 239.5 68t119.5 177h79q-27 -139 -145.5 -227t-293.5 -88q-221 0 -350.5 146.5t-129.5 404.5zM145 592h773q-1 191 -106.5 310t-275.5 119q-168 0 -275 -118 t-116 -311z" />
<glyph unicode="f" horiz-adv-x="536" d="M21 1009v68h150v153q0 250 238 250q49 0 79 -9v-68q-33 9 -75 9q-80 0 -122 -44t-42 -143v-148h231v-68h-231v-1009h-78v1009h-150z" />
<glyph unicode="g" horiz-adv-x="1119" d="M65 539q0 247 126.5 399.5t329.5 152.5q145 0 254.5 -85t148.5 -217h3v288h73v-1070q0 -172 -125 -270t-330 -98q-170 0 -283 68t-135 180h81q21 -80 113 -129.5t229 -49.5q167 0 269.5 79t102.5 215v285h-2q-37 -130 -146 -214.5t-254 -84.5q-203 0 -329 152.5 t-126 398.5zM144 539q0 -214 106.5 -347t278.5 -133q174 0 283.5 134t109.5 346q0 213 -109.5 347t-283.5 134q-172 0 -278.5 -133t-106.5 -348z" />
<glyph unicode="h" horiz-adv-x="1088" d="M129 0v1506h78v-666h3q38 115 137.5 183t234.5 68q177 0 285 -108.5t108 -288.5v-694h-77v685q0 155 -90 245t-242 90q-159 0 -259 -106t-100 -275v-639h-78z" />
<glyph unicode="i" horiz-adv-x="336" d="M106 1402q0 26 18 44t44 18t44.5 -18t18.5 -44q0 -25 -18.5 -43t-44.5 -18t-44 18t-18 43zM129 0v1077h78v-1077h-78z" />
<glyph unicode="j" horiz-adv-x="336" d="M-101 -294h27q107 0 155 47.5t48 154.5v1169h78v-1165q0 -145 -68 -210t-210 -65h-30v69zM106 1402q0 26 18 44t44 18t44.5 -18t18.5 -44q0 -25 -18.5 -43t-44.5 -18t-44 18t-18 43z" />
<glyph unicode="k" horiz-adv-x="938" d="M129 0v1506h78v-982h1l609 553h102l-507 -464l511 -613h-95l-474 565l-147 -132v-433h-78z" />
<glyph unicode="l" horiz-adv-x="336" d="M129 0v1506h78v-1506h-78z" />
<glyph unicode="m" horiz-adv-x="1645" d="M119 0v1077h73v-237h3q31 112 116 181.5t208 69.5q124 0 211 -72.5t113 -183.5h2q30 109 122.5 182.5t219.5 73.5q156 0 250.5 -100t94.5 -267v-724h-78v707q0 146 -75.5 229.5t-208.5 83.5q-136 0 -221 -98t-85 -255v-667h-77v710q0 139 -79 224.5t-203 85.5 q-137 0 -222.5 -104t-85.5 -275v-641h-78z" />
<glyph unicode="n" horiz-adv-x="1074" d="M119 0v1077h73v-237h3q38 115 137 183t235 68q178 0 286 -107.5t108 -288.5v-695h-78v686q0 155 -90.5 244.5t-242.5 89.5q-158 0 -255.5 -105.5t-97.5 -273.5v-641h-78z" />
<glyph unicode="o" horiz-adv-x="1089" d="M65 538q0 253 131.5 403t347.5 150q217 0 348.5 -150t131.5 -403q0 -252 -132 -402t-348 -150t-347.5 150t-131.5 402zM143 538q0 -222 109.5 -352t291.5 -130t291.5 130.5t109.5 351.5q0 222 -109 352t-292 130t-292 -130t-109 -352z" />
<glyph unicode="p" horiz-adv-x="1119" d="M119 -353v1430h73v-288h3q37 131 147.5 216.5t255.5 85.5q203 0 329.5 -153.5t126.5 -399.5t-126 -399t-329 -153q-146 0 -254.5 84t-144.5 214h-3v-637h-78zM197 538q0 -213 109.5 -347.5t282.5 -134.5q172 0 279 133.5t107 348.5t-107 348.5t-279 133.5 q-173 0 -282.5 -134t-109.5 -348z" />
<glyph unicode="q" horiz-adv-x="1126" d="M65 538q0 246 128 399.5t331 153.5q147 0 258 -84.5t149 -217.5h3v288h73v-1430h-78v637h-2q-37 -130 -147.5 -214t-256.5 -84q-202 0 -330 153t-128 399zM144 538q0 -215 108 -348.5t280 -133.5q174 0 285.5 134.5t111.5 347.5t-111.5 347.5t-285.5 134.5 q-172 0 -280 -133.5t-108 -348.5z" />
<glyph unicode="r" horiz-adv-x="614" d="M119 0v1077h73v-213h3q32 110 106.5 168.5t182.5 58.5q55 0 100 -18v-78q-44 22 -112 22q-125 0 -200 -97t-75 -251v-669h-78z" />
<glyph unicode="s" horiz-adv-x="923" d="M59 304h78q11 -108 102.5 -179.5t227.5 -71.5q137 0 228 63t91 164q0 84 -57 134.5t-189 81.5l-173 42q-139 33 -206 96.5t-67 166.5q0 127 106.5 208.5t263.5 81.5q162 0 265.5 -88.5t116.5 -235.5h-76q-12 115 -93.5 185.5t-213.5 70.5q-122 0 -207.5 -61.5 t-85.5 -157.5q0 -78 54.5 -124t171.5 -74l167 -41q161 -39 230.5 -104t69.5 -176q0 -133 -112 -216t-286 -83q-171 0 -284 91t-122 227z" />
<glyph unicode="t" horiz-adv-x="551" d="M21 1009v68h158v277h77v-277h217v-68h-217v-762q0 -96 37 -138t119 -42q67 0 75 2v-69q-12 -2 -85 -2q-118 0 -170.5 57.5t-52.5 189.5v764h-158z" />
<glyph unicode="u" horiz-adv-x="1074" d="M113 378v699h78v-687q0 -157 88 -245.5t238 -88.5q156 0 258 104t102 273v644h78v-1077h-73v235h-3q-36 -110 -140.5 -179.5t-237.5 -69.5q-175 0 -281.5 106t-106.5 286z" />
<glyph unicode="v" horiz-adv-x="918" d="M7 1077h83l368 -998h2l369 998h82l-406 -1077h-92z" />
<glyph unicode="w" horiz-adv-x="1430" d="M8 1077h82l277 -990h3l301 990h88l301 -990h3l277 990h82l-314 -1077h-91l-301 976h-2l-301 -976h-91z" />
<glyph unicode="x" horiz-adv-x="897" d="M10 0l395 546l-394 531h92l345 -471h3l344 471h92l-394 -529l392 -548h-90l-346 485h-2l-347 -485h-90z" />
<glyph unicode="y" horiz-adv-x="919" d="M7 1077h83l369 -1001h2l369 1001h82l-423 -1126q-72 -192 -133.5 -256t-175.5 -64q-32 0 -54 9v69q24 -8 57 -8q72 0 116 43.5t87 155.5l33 85z" />
<glyph unicode="z" horiz-adv-x="928" d="M66 0v65l704 942v2h-704v68h795v-66l-705 -941v-2h706v-68h-796z" />
<glyph unicode="{" horiz-adv-x="694" d="M103 569v113q96 0 135 50t39 175v284q0 168 79 241t261 73h50v-66h-65q-130 0 -190 -57.5t-60 -180.5v-335q0 -110 -40.5 -165.5t-127.5 -63.5v-22q87 -8 127.5 -63.5t40.5 -165.5v-395q0 -237 250 -237h65v-67h-50q-180 0 -260 75.5t-80 247.5v336q0 124 -38.5 173.5 t-135.5 49.5z" />
<glyph unicode="|" horiz-adv-x="355" d="M143 -330v1773h69v-1773h-69z" />
<glyph unicode="}" horiz-adv-x="694" d="M26 -246h65q251 0 251 237v395q0 110 40.5 165.5t127.5 63.5v22q-87 8 -127.5 63.5t-40.5 165.5v335q0 123 -60.5 180.5t-190.5 57.5h-65v66h51q182 0 261 -73t79 -241v-284q0 -125 39 -175t136 -50v-113q-97 0 -136 -49.5t-39 -173.5v-336q0 -172 -80 -247.5t-260 -75.5 h-51v67z" />
<glyph unicode="~" horiz-adv-x="1192" d="M136 559q-1 133 64.5 213t174.5 80q56 0 106 -26.5t127 -97.5q65 -60 110.5 -85t88.5 -25q73 0 122.5 64.5t53.5 164.5h74q0 -130 -71 -216.5t-179 -86.5q-64 0 -114.5 25.5t-129.5 98.5q-68 64 -108 87.5t-81 23.5q-73 0 -117.5 -59.5t-47.5 -160.5h-73z" />
<glyph unicode="&#xa2;" horiz-adv-x="1192" d="M108 699q0 241 131.5 390t339.5 162v199h77v-198q165 -10 286.5 -104t142.5 -238h-79q-24 124 -133.5 198.5t-255.5 74.5q-187 0 -309 -132t-122 -352q0 -221 121.5 -353.5t309.5 -132.5q148 0 257 70.5t131 194.5h78q-21 -142 -141.5 -233t-285.5 -100v-213h-77v213 q-209 14 -340 162.5t-131 391.5z" />
<glyph unicode="&#xa3;" horiz-adv-x="1192" d="M66 0v71q76 19 137.5 49t111.5 73t78 103t28 132q0 100 -57 254h-264v67h239q-26 68 -40 110.5t-27 106.5t-13 121q0 177 122 282t339 105q102 0 188.5 -17.5t131.5 -41.5v-74q-45 25 -130.5 43t-185.5 18q-184 0 -284.5 -86t-100.5 -230q0 -56 13.5 -120t27.5 -105 t41 -112h469v-67h-444q53 -150 53 -253q0 -73 -25.5 -135t-69 -104t-89 -70t-97.5 -46v-4h913v-70h-1065z" />
<glyph unicode="&#xa5;" horiz-adv-x="1192" d="M32 1443h93l470 -711h4l469 711h92l-490 -741h306v-65h-339v-208h339v-66h-339v-363h-80v363h-341v66h341v208h-341v65h308z" />
<glyph unicode="&#xa8;" horiz-adv-x="758" d="M159 1323q0 27 20 46.5t48 19.5q27 0 47 -19.5t20 -46.5q0 -28 -20 -47.5t-47 -19.5q-28 0 -48 19.5t-20 47.5zM464 1323q0 27 20 46.5t47 19.5q28 0 48 -19.5t20 -46.5q0 -28 -20 -47.5t-48 -19.5q-27 0 -47 19.5t-20 47.5z" />
<glyph unicode="&#xa9;" horiz-adv-x="1732" d="M96 626q0 217 102 394t278.5 277t389.5 100q214 0 390.5 -100t278 -277t101.5 -394q0 -216 -101.5 -393t-278 -277.5t-390.5 -100.5q-213 0 -389.5 100.5t-278.5 277.5t-102 393zM164 626q0 -148 55 -279.5t148.5 -224t223.5 -146.5t275 -54q146 0 276 54t223.5 146.5 t148 223.5t54.5 280q0 199 -92.5 360.5t-253.5 252.5t-356 91q-145 0 -275 -53.5t-224 -146t-148.5 -224t-54.5 -280.5zM471 632q0 196 109.5 311.5t283.5 115.5q141 0 237 -76.5t117 -187.5h-68q-24 89 -99 145.5t-187 56.5q-143 0 -233.5 -98t-90.5 -267q0 -170 90 -270 t234 -100q116 0 190 52.5t94 139.5h69q-22 -115 -115 -184.5t-237 -69.5q-174 0 -284 117t-110 315z" />
<glyph unicode="&#xab;" horiz-adv-x="1185" d="M153 565v5l370 409h95l-366 -408v-8l366 -408h-95zM567 565v5l370 409h95l-366 -408v-8l366 -408h-95z" />
<glyph unicode="&#xad;" horiz-adv-x="868" d="M106 539v73h656v-73h-656z" />
<glyph unicode="&#xae;" horiz-adv-x="1095" d="M121 1075q0 178 124 301t303 123t302.5 -123t123.5 -301q0 -177 -124 -300.5t-302 -123.5t-302.5 123.5t-124.5 300.5zM180 1075q0 -154 107 -260.5t261 -106.5t260.5 106.5t106.5 260.5q0 155 -106.5 261.5t-260.5 106.5t-261 -106.5t-107 -261.5zM388 864v449h177 q66 0 106.5 -38t40.5 -99q0 -106 -106 -131l128 -181h-61l-123 176h-111v-176h-51zM439 1083h112q106 0 106 93q0 42 -28 66t-78 24h-112v-183z" />
<glyph unicode="&#xb4;" horiz-adv-x="758" d="M205 1253l230 303h93l-249 -303h-74z" />
<glyph unicode="&#xb8;" horiz-adv-x="758" d="M197 -391q43 -17 122 -17q68 0 113.5 32t45.5 81q0 50 -41 76t-119 26h-52v43l67 157l60 -7l-58 -141q96 0 151.5 -41t55.5 -111q0 -75 -60.5 -122.5t-156.5 -47.5q-72 -2 -128 16v56z" />
<glyph unicode="&#xbb;" horiz-adv-x="1185" d="M153 155l365 408v8l-365 408h95l370 -409v-5l-370 -410h-95zM567 155l365 408v8l-365 408h94l371 -409v-5l-371 -410h-94z" />
<glyph unicode="&#xc2;" horiz-adv-x="1221" d="M21 0l550 1443h80l549 -1443h-85l-180 481h-649l-179 -481h-86zM306 1553l271 290h68l271 -290h-83l-221 238h-2l-221 -238h-83zM312 552h598l-297 788h-5z" />
<glyph unicode="&#xc7;" horiz-adv-x="1326" d="M67 730q0 337 172 535.5t463 198.5q220 0 382 -138.5t185 -344.5h-79q-23 174 -162.5 291.5t-325.5 117.5q-254 0 -404 -178t-150 -482q0 -310 150.5 -493.5t403.5 -183.5q192 0 328.5 105.5t159.5 277.5h79q-24 -199 -172.5 -324t-368.5 -133l-50 -120q96 0 151.5 -41 t55.5 -111q0 -75 -60.5 -122.5t-156.5 -47.5q-72 -2 -128 16v56q43 -17 122 -17q68 0 113.5 32t45.5 81q0 50 -41 76t-119 26h-52v43l55 130q-274 14 -435.5 216t-161.5 534z" />
<glyph unicode="&#xce;" horiz-adv-x="335" d="M-138 1553l271 290h68l271 -290h-83l-221 238h-2l-221 -238h-83zM128 0v1443h79v-1443h-79z" />
<glyph unicode="&#xd6;" d="M67 722q0 340 174 541t469 201t469 -201t174 -541q0 -342 -173.5 -542.5t-469.5 -200.5t-469.5 200.5t-173.5 542.5zM148 722q0 -307 152.5 -488t409.5 -181t409.5 181t152.5 488q0 306 -152.5 487t-409.5 181q-258 0 -410 -181t-152 -487zM490 1630q0 27 20 46.5 t48 19.5q27 0 47 -19.5t20 -46.5q0 -28 -20 -47.5t-47 -19.5q-28 0 -48 19.5t-20 47.5zM795 1630q0 27 20 46.5t47 19.5q28 0 48 -19.5t20 -46.5q0 -28 -20 -47.5t-48 -19.5q-27 0 -47 19.5t-20 47.5z" />
<glyph unicode="&#xdb;" horiz-adv-x="1332" d="M128 501v942h79v-939q0 -207 124 -329t336 -122t336 122t124 329v939h79v-942q0 -237 -145.5 -379.5t-393.5 -142.5t-393.5 142.5t-145.5 379.5zM361 1553l271 290h68l271 -290h-83l-221 238h-2l-221 -238h-83z" />
<glyph unicode="&#xdc;" horiz-adv-x="1332" d="M128 501v942h79v-939q0 -207 124 -329t336 -122t336 122t124 329v939h79v-942q0 -237 -145.5 -379.5t-393.5 -142.5t-393.5 142.5t-145.5 379.5zM446 1630q0 27 20 46.5t48 19.5q27 0 47 -19.5t20 -46.5q0 -28 -20 -47.5t-47 -19.5q-28 0 -48 19.5t-20 47.5zM751 1630 q0 27 20 46.5t47 19.5q28 0 48 -19.5t20 -46.5q0 -28 -20 -47.5t-48 -19.5q-27 0 -47 19.5t-20 47.5z" />
<glyph unicode="&#xe2;" horiz-adv-x="1030" d="M86 290q0 138 97.5 216t287.5 92l369 27v96q0 141 -81.5 220t-226.5 79q-137 0 -224 -67t-106 -189h-75q14 149 125 238t281 89q177 0 280.5 -98t103.5 -267v-726h-75v232h-2q-40 -110 -150 -178t-247 -68q-158 0 -257.5 84.5t-99.5 219.5zM164 290q0 -103 81.5 -169 t207.5 -66q161 0 274 100.5t113 243.5v161l-359 -27q-155 -11 -236 -73t-81 -170zM233 1253l268 303h62l268 -303h-80l-217 249h-3l-217 -249h-81z" />
<glyph unicode="&#xe7;" horiz-adv-x="1028" d="M65 538q0 253 129 403t345 150q170 0 287.5 -96t142.5 -242h-77q-24 118 -119.5 192.5t-233.5 74.5q-181 0 -288.5 -130.5t-107.5 -351.5t107.5 -351.5t289.5 -130.5q137 0 232 71t119 188h78q-24 -141 -132.5 -231t-267.5 -97l-53 -128q96 0 151.5 -41t55.5 -111 q0 -75 -60.5 -122.5t-156.5 -47.5q-72 -2 -128 16v56q43 -17 122 -17q68 0 113.5 32t45.5 81q0 50 -41 76t-119 26h-52v43l58 137q-202 12 -321 160t-119 391z" />
<glyph unicode="&#xee;" horiz-adv-x="336" d="M-131 1253l268 303h62l268 -303h-80l-217 249h-3l-217 -249h-81zM129 0v1077h78v-1077h-78z" />
<glyph unicode="&#xf6;" horiz-adv-x="1089" d="M65 538q0 253 131.5 403t347.5 150q217 0 348.5 -150t131.5 -403q0 -252 -132 -402t-348 -150t-347.5 150t-131.5 402zM143 538q0 -222 109.5 -352t291.5 -130t291.5 130.5t109.5 351.5q0 222 -109 352t-292 130t-292 -130t-109 -352zM324 1322q0 27 20 46.5t48 19.5 q27 0 47 -19.5t20 -46.5q0 -28 -20 -47.5t-47 -19.5q-28 0 -48 19.5t-20 47.5zM629 1322q0 27 20 46.5t47 19.5q28 0 48 -19.5t20 -46.5q0 -28 -20 -47.5t-48 -19.5q-27 0 -47 19.5t-20 47.5z" />
<glyph unicode="&#xfb;" horiz-adv-x="1074" d="M113 378v699h78v-687q0 -157 88 -245.5t238 -88.5q156 0 258 104t102 273v644h78v-1077h-73v235h-3q-36 -110 -140.5 -179.5t-237.5 -69.5q-175 0 -281.5 106t-106.5 286zM235 1252l268 303h62l268 -303h-80l-217 249h-3l-217 -249h-81z" />
<glyph unicode="&#xfc;" horiz-adv-x="1074" d="M113 378v699h78v-687q0 -157 88 -245.5t238 -88.5q156 0 258 104t102 273v644h78v-1077h-73v235h-3q-36 -110 -140.5 -179.5t-237.5 -69.5q-175 0 -281.5 106t-106.5 286zM314 1322q0 27 20 46.5t48 19.5q27 0 47 -19.5t20 -46.5q0 -28 -20 -47.5t-47 -19.5 q-28 0 -48 19.5t-20 47.5zM619 1322q0 27 20 46.5t47 19.5q28 0 48 -19.5t20 -46.5q0 -28 -20 -47.5t-48 -19.5q-27 0 -47 19.5t-20 47.5z" />
<glyph unicode="&#x100;" horiz-adv-x="1221" d="M21 0l550 1443h80l549 -1443h-85l-180 481h-649l-179 -481h-86zM312 552h598l-297 788h-5zM321 1622v57h580v-57h-580z" />
<glyph unicode="&#x101;" horiz-adv-x="1030" d="M86 290q0 138 97.5 216t287.5 92l369 27v96q0 141 -81.5 220t-226.5 79q-137 0 -224 -67t-106 -189h-75q14 149 125 238t281 89q177 0 280.5 -98t103.5 -267v-726h-75v232h-2q-40 -110 -150 -178t-247 -68q-158 0 -257.5 84.5t-99.5 219.5zM164 290q0 -103 81.5 -169 t207.5 -66q161 0 274 100.5t113 243.5v161l-359 -27q-155 -11 -236 -73t-81 -170zM229 1308v58h596v-58h-596z" />
<glyph unicode="&#x102;" horiz-adv-x="1221" d="M21 0l550 1443h80l549 -1443h-85l-180 481h-649l-179 -481h-86zM312 552h598l-297 788h-5zM342 1789h61q0 -77 58 -128.5t150 -51.5t150 51.5t58 128.5h61q0 -107 -75.5 -171.5t-193.5 -64.5t-193.5 64.5t-75.5 171.5z" />
<glyph unicode="&#x103;" horiz-adv-x="1030" d="M86 290q0 138 97.5 216t287.5 92l369 27v96q0 141 -81.5 220t-226.5 79q-137 0 -224 -67t-106 -189h-75q14 149 125 238t281 89q177 0 280.5 -98t103.5 -267v-726h-75v232h-2q-40 -110 -150 -178t-247 -68q-158 0 -257.5 84.5t-99.5 219.5zM164 290q0 -103 81.5 -169 t207.5 -66q161 0 274 100.5t113 243.5v161l-359 -27q-155 -11 -236 -73t-81 -170zM260 1503h62q0 -88 58 -142t152 -54t152 54t58 142h62q0 -117 -75.5 -185t-196.5 -68t-196.5 68t-75.5 185z" />
<glyph unicode="&#x104;" horiz-adv-x="1221" d="M21 0l550 1443h80l549 -1443l-6 -2q-105 -35 -162 -88t-57 -116q0 -53 39 -87t100 -34q46 0 69 7v-64q-33 -11 -80 -11q-89 0 -146.5 50t-57.5 128q0 71 54 131.5t156 100.5l-174 466h-649l-179 -481h-86zM312 552h598l-297 788h-5z" />
<glyph unicode="&#x105;" horiz-adv-x="1030" d="M86 290q0 138 97.5 216t287.5 92l369 27v96q0 141 -81.5 220t-226.5 79q-137 0 -224 -67t-106 -189h-75q14 149 125 238t281 89q177 0 280.5 -98t103.5 -267v-726l-8 -4q-201 -85 -201 -202q0 -53 38.5 -87t99.5 -34q48 0 69 7v-64q-33 -11 -79 -11q-89 0 -147 50 t-58 127q0 73 55 133.5t156 100.5v216h-2q-40 -110 -150 -178t-247 -68q-158 0 -257.5 84.5t-99.5 219.5zM164 290q0 -103 81.5 -169t207.5 -66q161 0 274 100.5t113 243.5v161l-359 -27q-155 -11 -236 -73t-81 -170z" />
<glyph unicode="&#x106;" horiz-adv-x="1326" d="M67 730q0 337 172 535.5t463 198.5q220 0 382 -138.5t185 -344.5h-79q-23 174 -162.5 291.5t-325.5 117.5q-254 0 -404 -178t-150 -482q0 -310 150.5 -493.5t403.5 -183.5q192 0 328.5 105.5t159.5 277.5h79q-25 -205 -181.5 -331t-385.5 -126q-290 0 -462.5 203.5 t-172.5 547.5zM656 1554l279 290h96l-297 -290h-78z" />
<glyph unicode="&#x107;" horiz-adv-x="1028" d="M65 538q0 253 129 403t345 150q170 0 287.5 -96t142.5 -242h-77q-24 118 -119.5 192.5t-233.5 74.5q-181 0 -288.5 -130.5t-107.5 -351.5t107.5 -351.5t289.5 -130.5q137 0 232 71t119 188h78q-25 -147 -142 -238t-287 -91q-217 0 -346 149t-129 403zM485 1253l230 303 h93l-249 -303h-74z" />
<glyph unicode="&#x108;" horiz-adv-x="1326" d="M67 730q0 337 172 535.5t463 198.5q220 0 382 -138.5t185 -344.5h-79q-23 174 -162.5 291.5t-325.5 117.5q-254 0 -404 -178t-150 -482q0 -310 150.5 -493.5t403.5 -183.5q192 0 328.5 105.5t159.5 277.5h79q-25 -205 -181.5 -331t-385.5 -126q-290 0 -462.5 203.5 t-172.5 547.5zM397 1554l271 290h68l271 -290h-83l-221 238h-2l-221 -238h-83z" />
<glyph unicode="&#x109;" horiz-adv-x="1028" d="M65 538q0 253 129 403t345 150q170 0 287.5 -96t142.5 -242h-77q-24 118 -119.5 192.5t-233.5 74.5q-181 0 -288.5 -130.5t-107.5 -351.5t107.5 -351.5t289.5 -130.5q137 0 232 71t119 188h78q-25 -147 -142 -238t-287 -91q-217 0 -346 149t-129 403zM240 1253l268 303 h62l268 -303h-80l-217 249h-3l-217 -249h-81z" />
<glyph unicode="&#x10a;" horiz-adv-x="1326" d="M67 730q0 337 172 535.5t463 198.5q220 0 382 -138.5t185 -344.5h-79q-23 174 -162.5 291.5t-325.5 117.5q-254 0 -404 -178t-150 -482q0 -310 150.5 -493.5t403.5 -183.5q192 0 328.5 105.5t159.5 277.5h79q-25 -205 -181.5 -331t-385.5 -126q-290 0 -462.5 203.5 t-172.5 547.5zM625 1640q0 31 22.5 53.5t54.5 22.5t54.5 -22.5t22.5 -53.5t-22.5 -53.5t-54.5 -22.5t-54.5 22.5t-22.5 53.5z" />
<glyph unicode="&#x10b;" horiz-adv-x="1028" d="M65 538q0 253 129 403t345 150q170 0 287.5 -96t142.5 -242h-77q-24 118 -119.5 192.5t-233.5 74.5q-181 0 -288.5 -130.5t-107.5 -351.5t107.5 -351.5t289.5 -130.5q137 0 232 71t119 188h78q-25 -147 -142 -238t-287 -91q-217 0 -346 149t-129 403zM461 1333 q0 31 23 54t55 23t55 -23t23 -54t-23 -54t-55 -23t-55 23t-23 54z" />
<glyph unicode="&#x10c;" horiz-adv-x="1326" d="M67 730q0 337 172 535.5t463 198.5q220 0 382 -138.5t185 -344.5h-79q-23 174 -162.5 291.5t-325.5 117.5q-254 0 -404 -178t-150 -482q0 -310 150.5 -493.5t403.5 -183.5q192 0 328.5 105.5t159.5 277.5h79q-25 -205 -181.5 -331t-385.5 -126q-290 0 -462.5 203.5 t-172.5 547.5zM397 1844h83l221 -239h2l221 239h83l-271 -290h-68z" />
<glyph unicode="&#x10d;" horiz-adv-x="1028" d="M65 538q0 253 129 403t345 150q170 0 287.5 -96t142.5 -242h-77q-24 118 -119.5 192.5t-233.5 74.5q-181 0 -288.5 -130.5t-107.5 -351.5t107.5 -351.5t289.5 -130.5q137 0 232 71t119 188h78q-25 -147 -142 -238t-287 -91q-217 0 -346 149t-129 403zM240 1556h81 l217 -249h3l217 249h80l-268 -303h-62z" />
<glyph unicode="&#x10e;" horiz-adv-x="1332" d="M128 0v1443h449q328 0 508 -189t180 -532q0 -344 -180 -533t-508 -189h-449zM208 73h365q295 0 453.5 168.5t158.5 479.5q0 313 -159 481t-453 168h-365v-1297zM247 1843h83l221 -239h2l221 239h83l-271 -290h-68z" />
<glyph unicode="&#x10f;" horiz-adv-x="1231" d="M65 538q0 246 128.5 399.5t330.5 153.5q146 0 256 -84.5t147 -213.5h2v713h78v-1506h-73v290h-3q-38 -134 -148.5 -219t-257.5 -85q-203 0 -331.5 153.5t-128.5 398.5zM144 539q0 -215 108.5 -349t281.5 -134q174 0 285 135t111 347q0 213 -111 347.5t-285 134.5 q-173 0 -281.5 -133t-108.5 -348zM1193 1098v385h68l-15 -385h-53z" />
<glyph unicode="&#x110;" horiz-adv-x="1350" d="M23 705v73h123v665h449q328 0 508 -189t180 -532q0 -344 -180 -533t-508 -189h-449v705h-123zM226 73h365q295 0 453.5 168.5t158.5 479.5q0 313 -159 481t-453 168h-365v-592h358v-73h-358v-632z" />
<glyph unicode="&#x111;" horiz-adv-x="1158" d="M65 538q0 246 128.5 399.5t330.5 153.5q146 0 256 -84.5t147 -213.5h2v485h-278v62h278v166h78v-166h138v-62h-138v-1278h-73v290h-3q-38 -134 -148.5 -219t-257.5 -85q-203 0 -331.5 153.5t-128.5 398.5zM144 539q0 -215 108.5 -349t281.5 -134q174 0 285 135t111 347 q0 213 -111 347.5t-285 134.5q-173 0 -281.5 -133t-108.5 -348z" />
<glyph unicode="&#x112;" horiz-adv-x="1068" d="M128 0v1443h841v-73h-762v-594h726v-72h-726v-631h762v-73h-841zM258 1622v57h580v-57h-580z" />
<glyph unicode="&#x113;" horiz-adv-x="1062" d="M65 537q0 250 129.5 402t342.5 152q208 0 334 -142.5t126 -377.5v-45h-853v-4q0 -218 109 -342t293 -124q144 0 239.5 68t119.5 177h79q-27 -139 -145.5 -227t-293.5 -88q-221 0 -350.5 146.5t-129.5 404.5zM145 592h773q-1 191 -106.5 310t-275.5 119q-168 0 -275 -118 t-116 -311zM234 1308v58h596v-58h-596z" />
<glyph unicode="&#x114;" horiz-adv-x="1068" d="M128 0v1443h841v-73h-762v-594h726v-72h-726v-631h762v-73h-841zM279 1789h61q0 -77 58 -128.5t150 -51.5t150 51.5t58 128.5h61q0 -107 -75.5 -171.5t-193.5 -64.5t-193.5 64.5t-75.5 171.5z" />
<glyph unicode="&#x115;" horiz-adv-x="1062" d="M65 537q0 250 129.5 402t342.5 152q208 0 334 -142.5t126 -377.5v-45h-853v-4q0 -218 109 -342t293 -124q144 0 239.5 68t119.5 177h79q-27 -139 -145.5 -227t-293.5 -88q-221 0 -350.5 146.5t-129.5 404.5zM145 592h773q-1 191 -106.5 310t-275.5 119q-168 0 -275 -118 t-116 -311zM265 1503h62q0 -88 58 -142t152 -54t152 54t58 142h62q0 -117 -75.5 -185t-196.5 -68t-196.5 68t-75.5 185z" />
<glyph unicode="&#x116;" horiz-adv-x="1068" d="M128 0v1443h841v-73h-762v-594h726v-72h-726v-631h762v-73h-841zM471 1639q0 31 22.5 53.5t54.5 22.5t54.5 -22.5t22.5 -53.5t-22.5 -53.5t-54.5 -22.5t-54.5 22.5t-22.5 53.5z" />
<glyph unicode="&#x117;" horiz-adv-x="1062" d="M65 537q0 250 129.5 402t342.5 152q208 0 334 -142.5t126 -377.5v-45h-853v-4q0 -218 109 -342t293 -124q144 0 239.5 68t119.5 177h79q-27 -139 -145.5 -227t-293.5 -88q-221 0 -350.5 146.5t-129.5 404.5zM145 592h773q-1 191 -106.5 310t-275.5 119q-168 0 -275 -118 t-116 -311zM459 1333q0 31 23 54t55 23t55 -23t23 -54t-23 -54t-55 -23t-55 23t-23 54z" />
<glyph unicode="&#x118;" horiz-adv-x="1068" d="M128 0v1443h841v-73h-762v-594h726v-72h-726v-631h762v-68l-20 -7q-100 -33 -159.5 -87t-59.5 -117q0 -53 39 -87t100 -34q47 0 68 7v-64q-33 -11 -79 -11q-89 0 -146.5 50t-57.5 128q0 65 46 121.5t125 91.5v4h-697z" />
<glyph unicode="&#x119;" horiz-adv-x="1062" d="M65 537q0 250 129.5 402t342.5 152q208 0 334 -142.5t126 -377.5v-45h-853v-4q0 -218 109 -342t293 -124q144 0 239.5 68t119.5 177h79q-15 -78 -65 -146.5t-128 -118.5q-101 -63 -147 -121t-46 -121q0 -53 39 -87t100 -34q46 0 69 7v-64q-37 -11 -80 -11 q-89 0 -146.5 50t-57.5 127q0 125 145 221v4q-51 -21 -122 -21q-221 0 -350.5 146.5t-129.5 404.5zM145 592h773q-1 191 -106.5 310t-275.5 119q-168 0 -275 -118t-116 -311z" />
<glyph unicode="&#x11a;" horiz-adv-x="1068" d="M128 0v1443h841v-73h-762v-594h726v-72h-726v-631h762v-73h-841zM243 1843h83l221 -239h2l221 239h83l-271 -290h-68z" />
<glyph unicode="&#x11b;" horiz-adv-x="1062" d="M65 537q0 250 129.5 402t342.5 152q208 0 334 -142.5t126 -377.5v-45h-853v-4q0 -218 109 -342t293 -124q144 0 239.5 68t119.5 177h79q-27 -139 -145.5 -227t-293.5 -88q-221 0 -350.5 146.5t-129.5 404.5zM145 592h773q-1 191 -106.5 310t-275.5 119q-168 0 -275 -118 t-116 -311zM238 1556h81l217 -249h3l217 249h80l-268 -303h-62z" />
<glyph unicode="&#x11c;" horiz-adv-x="1358" d="M67 730q0 331 173.5 532.5t458.5 201.5q217 0 374.5 -120t198.5 -317h-81q-43 166 -176.5 264.5t-315.5 98.5q-250 0 -400.5 -180t-150.5 -479q0 -304 152 -491t399 -187q232 0 367.5 136.5t135.5 369.5v83h-503v72h582v-143q0 -276 -155.5 -434t-426.5 -158 q-186 0 -330 94t-223 264.5t-79 392.5zM394 1553l271 290h68l271 -290h-83l-221 238h-2l-221 -238h-83z" />
<glyph unicode="&#x11d;" horiz-adv-x="1119" d="M65 539q0 247 126.5 399.5t329.5 152.5q145 0 254.5 -85t148.5 -217h3v288h73v-1070q0 -172 -125 -270t-330 -98q-170 0 -283 68t-135 180h81q21 -80 113 -129.5t229 -49.5q167 0 269.5 79t102.5 215v285h-2q-37 -130 -146 -214.5t-254 -84.5q-203 0 -329 152.5 t-126 398.5zM144 539q0 -214 106.5 -347t278.5 -133q174 0 283.5 134t109.5 346q0 213 -109.5 347t-283.5 134q-172 0 -278.5 -133t-106.5 -348zM259 1253l268 303h62l268 -303h-80l-217 249h-3l-217 -249h-81z" />
<glyph unicode="&#x11e;" horiz-adv-x="1358" d="M67 730q0 331 173.5 532.5t458.5 201.5q217 0 374.5 -120t198.5 -317h-81q-43 166 -176.5 264.5t-315.5 98.5q-250 0 -400.5 -180t-150.5 -479q0 -304 152 -491t399 -187q232 0 367.5 136.5t135.5 369.5v83h-503v72h582v-143q0 -276 -155.5 -434t-426.5 -158 q-186 0 -330 94t-223 264.5t-79 392.5zM430 1789h61q0 -77 58 -128.5t150 -51.5t150 51.5t58 128.5h61q0 -107 -75.5 -171.5t-193.5 -64.5t-193.5 64.5t-75.5 171.5z" />
<glyph unicode="&#x11f;" horiz-adv-x="1119" d="M65 539q0 247 126.5 399.5t329.5 152.5q145 0 254.5 -85t148.5 -217h3v288h73v-1070q0 -172 -125 -270t-330 -98q-170 0 -283 68t-135 180h81q21 -80 113 -129.5t229 -49.5q167 0 269.5 79t102.5 215v285h-2q-37 -130 -146 -214.5t-254 -84.5q-203 0 -329 152.5 t-126 398.5zM144 539q0 -214 106.5 -347t278.5 -133q174 0 283.5 134t109.5 346q0 213 -109.5 347t-283.5 134q-172 0 -278.5 -133t-106.5 -348zM286 1503h62q0 -88 58 -142t152 -54t152 54t58 142h62q0 -117 -75.5 -185t-196.5 -68t-196.5 68t-75.5 185z" />
<glyph unicode="&#x120;" horiz-adv-x="1358" d="M67 730q0 331 173.5 532.5t458.5 201.5q217 0 374.5 -120t198.5 -317h-81q-43 166 -176.5 264.5t-315.5 98.5q-250 0 -400.5 -180t-150.5 -479q0 -304 152 -491t399 -187q232 0 367.5 136.5t135.5 369.5v83h-503v72h582v-143q0 -276 -155.5 -434t-426.5 -158 q-186 0 -330 94t-223 264.5t-79 392.5zM622 1639q0 31 22.5 53.5t54.5 22.5t54.5 -22.5t22.5 -53.5t-22.5 -53.5t-54.5 -22.5t-54.5 22.5t-22.5 53.5z" />
<glyph unicode="&#x121;" horiz-adv-x="1119" d="M65 539q0 247 126.5 399.5t329.5 152.5q145 0 254.5 -85t148.5 -217h3v288h73v-1070q0 -172 -125 -270t-330 -98q-170 0 -283 68t-135 180h81q21 -80 113 -129.5t229 -49.5q167 0 269.5 79t102.5 215v285h-2q-37 -130 -146 -214.5t-254 -84.5q-203 0 -329 152.5 t-126 398.5zM144 539q0 -214 106.5 -347t278.5 -133q174 0 283.5 134t109.5 346q0 213 -109.5 347t-283.5 134q-172 0 -278.5 -133t-106.5 -348zM480 1333q0 31 23 54t55 23t55 -23t23 -54t-23 -54t-55 -23t-55 23t-23 54z" />
<glyph unicode="&#x122;" horiz-adv-x="1358" d="M67 730q0 331 173.5 532.5t458.5 201.5q217 0 374.5 -120t198.5 -317h-81q-43 166 -176.5 264.5t-315.5 98.5q-250 0 -400.5 -180t-150.5 -479q0 -304 152 -491t399 -187q232 0 367.5 136.5t135.5 369.5v83h-503v72h582v-143q0 -276 -155.5 -434t-426.5 -158 q-186 0 -330 94t-223 264.5t-79 392.5zM579 -493l99 344h78l-114 -344h-63z" />
<glyph unicode="&#x123;" horiz-adv-x="1119" d="M65 539q0 247 126.5 399.5t329.5 152.5q145 0 254.5 -85t148.5 -217h3v288h73v-1070q0 -172 -125 -270t-330 -98q-170 0 -283 68t-135 180h81q21 -80 113 -129.5t229 -49.5q167 0 269.5 79t102.5 215v285h-2q-37 -130 -146 -214.5t-254 -84.5q-203 0 -329 152.5 t-126 398.5zM144 539q0 -214 106.5 -347t278.5 -133q174 0 283.5 134t109.5 346q0 213 -109.5 347t-283.5 134q-172 0 -278.5 -133t-106.5 -348zM425 -849l99 344h78l-114 -344h-63z" />
<glyph unicode="&#x124;" horiz-adv-x="1327" d="M128 0v1443h79v-666h913v666h79v-1443h-79v705h-913v-705h-79zM358 1553l271 290h68l271 -290h-83l-221 238h-2l-221 -238h-83z" />
<glyph unicode="&#x125;" horiz-adv-x="1088" d="M-137 1616l271 290h68l271 -290h-83l-221 238h-2l-221 -238h-83zM129 0v1506h78v-666h3q38 115 137.5 183t234.5 68q177 0 285 -108.5t108 -288.5v-694h-77v685q0 155 -90 245t-242 90q-159 0 -259 -106t-100 -275v-639h-78z" />
<glyph unicode="&#x126;" horiz-adv-x="1360" d="M18 1122v67h127v254h79v-254h913v254h79v-254h126v-67h-126v-1122h-79v705h-913v-705h-79v1122h-127zM224 777h913v345h-913v-345z" />
<glyph unicode="&#x127;" horiz-adv-x="1105" d="M13 1278v62h133v166h78v-166h283v-62h-283v-438h2q39 115 138.5 183t234.5 68q177 0 285 -108.5t108 -288.5v-694h-78v685q0 155 -90 245t-242 90q-159 0 -258.5 -106t-99.5 -275v-639h-78v1278h-133z" />
<glyph unicode="&#x128;" horiz-adv-x="335" d="M-117 1560q0 98 38.5 155t111.5 57q36 0 68.5 -17t56 -41t45.5 -48t47.5 -41t51.5 -17q89 0 89 154h61q0 -97 -39 -155t-111 -58q-36 0 -67.5 17t-55 41t-45.5 48t-47.5 41t-52.5 17q-91 0 -91 -153h-60zM128 0v1443h79v-1443h-79z" />
<glyph unicode="&#x129;" horiz-adv-x="336" d="M-116 1266q0 98 38.5 155t111.5 57q36 0 68.5 -17t56 -41t45.5 -48t47.5 -41t51.5 -17q89 0 89 154h61q0 -97 -39 -155t-111 -58q-36 0 -67.5 17t-55 41t-45.5 48t-47.5 41t-52.5 17q-91 0 -91 -153h-60zM129 0v1077h78v-1077h-78z" />
<glyph unicode="&#x12a;" horiz-adv-x="335" d="M-123 1622v57h580v-57h-580zM128 0v1443h79v-1443h-79z" />
<glyph unicode="&#x12b;" horiz-adv-x="336" d="M-135 1308v58h596v-58h-596zM129 0v1077h78v-1077h-78z" />
<glyph unicode="&#x12c;" horiz-adv-x="335" d="M-102 1789h61q0 -77 58 -128.5t150 -51.5t150 51.5t58 128.5h61q0 -107 -75.5 -171.5t-193.5 -64.5t-193.5 64.5t-75.5 171.5zM128 0v1443h79v-1443h-79z" />
<glyph unicode="&#x12d;" horiz-adv-x="336" d="M-104 1503h62q0 -88 58 -142t152 -54t152 54t58 142h62q0 -117 -75.5 -185t-196.5 -68t-196.5 68t-75.5 185zM129 0v1077h78v-1077h-78z" />
<glyph unicode="&#x12e;" horiz-adv-x="335" d="M-35 -218q0 70 43 131t120 100v1430h79v-1443l-6 -3q-160 -83 -160 -203q0 -53 39 -87t100 -34q46 0 69 7v-64q-37 -11 -80 -11q-89 0 -146.5 50t-57.5 127z" />
<glyph unicode="&#x12f;" horiz-adv-x="336" d="M-35 -218q0 70 43.5 131.5t120.5 100.5v1063h78v-1077l-6 -3q-160 -83 -160 -203q0 -53 39 -87t100 -34q46 0 69 7v-64q-37 -11 -80 -11q-89 0 -146.5 50t-57.5 127zM106 1402q0 26 18 44t44 18t44.5 -18t18.5 -44q0 -25 -18.5 -43t-44.5 -18t-44 18t-18 43z" />
<glyph unicode="&#x130;" horiz-adv-x="335" d="M90 1639q0 31 22.5 53.5t54.5 22.5t54.5 -22.5t22.5 -53.5t-22.5 -53.5t-54.5 -22.5t-54.5 22.5t-22.5 53.5zM128 0v1443h79v-1443h-79z" />
<glyph unicode="&#x131;" horiz-adv-x="336" d="M129 0v1077h78v-1077h-78z" />
<glyph unicode="&#x132;" horiz-adv-x="1286" d="M128 0v1443h79v-1443h-79zM376 320h78q7 -119 92 -194.5t214 -75.5q150 0 234.5 89t84.5 250v1054h80v-1058q0 -189 -106.5 -299t-291.5 -110q-165 0 -273 96.5t-112 247.5z" />
<glyph unicode="&#x133;" horiz-adv-x="673" d="M106 1402q0 26 18 44t44 18t44.5 -18t18.5 -44q0 -25 -18.5 -43t-44.5 -18t-44 18t-18 43zM129 0v1077h78v-1077h-78zM235 -294h27q107 0 155 47.5t48 154.5v1169h78v-1165q0 -145 -68 -210t-210 -65h-30v69zM442 1402q0 26 18 44t44 18t44.5 -18t18.5 -44 q0 -25 -18.5 -43t-44.5 -18t-44 18t-18 43z" />
<glyph unicode="&#x134;" horiz-adv-x="951" d="M41 320h78q7 -119 92 -194.5t214 -75.5q150 0 234.5 89t84.5 250v1054h80v-1058q0 -189 -106.5 -299t-291.5 -110q-165 0 -273 96.5t-112 247.5zM479 1553l271 290h68l271 -290h-83l-221 238h-2l-221 -238h-83z" />
<glyph unicode="&#x135;" horiz-adv-x="336" d="M-131 1253l268 303h62l268 -303h-80l-217 249h-3l-217 -249h-81zM-101 -294h27q108 0 155.5 47.5t47.5 154.5v1169h78v-1165q0 -142 -67 -208.5t-211 -66.5h-30v69z" />
<glyph unicode="&#x136;" horiz-adv-x="1142" d="M128 0v1443h79v-806h6l750 806h101l-594 -636l660 -807h-101l-615 751l-207 -223v-528h-79zM424 -493l99 344h78l-114 -344h-63z" />
<glyph unicode="&#x137;" horiz-adv-x="938" d="M129 0v1506h78v-982h1l609 553h102l-507 -464l511 -613h-95l-474 565l-147 -132v-433h-78zM367 -493l99 344h78l-114 -344h-63z" />
<glyph unicode="&#x139;" horiz-adv-x="1024" d="M121 1553l279 290h96l-297 -290h-78zM128 0v1443h79v-1370h757v-73h-836z" />
<glyph unicode="&#x13a;" horiz-adv-x="336" d="M122 1616l279 290h96l-297 -290h-78zM129 0v1506h78v-1506h-78z" />
<glyph unicode="&#x13b;" horiz-adv-x="1024" d="M128 0v1443h79v-1370h757v-73h-836zM426 -493l99 344h78l-114 -344h-63z" />
<glyph unicode="&#x13c;" horiz-adv-x="336" d="M48 -493l99 344h78l-114 -344h-63zM129 0v1506h78v-1506h-78z" />
<glyph unicode="&#x13d;" horiz-adv-x="1024" d="M128 0v1443h79v-1370h757v-73h-836zM449 1058v385h76l-20 -385h-56z" />
<glyph unicode="&#x13e;" horiz-adv-x="410" d="M129 0v1506h78v-1506h-78zM372 1121v385h68l-15 -385h-53z" />
<glyph unicode="&#x141;" horiz-adv-x="1044" d="M22 648v69l127 67v659h79v-617l390 206v-68l-390 -207v-684h757v-73h-836v715z" />
<glyph unicode="&#x142;" horiz-adv-x="344" d="M14 668v71l119 69v698h78v-654l119 69v-72l-119 -68v-781h-78v736z" />
<glyph unicode="&#x143;" horiz-adv-x="1341" d="M128 0v1443h82l919 -1299h6v1299h79v-1443h-75l-927 1307h-6v-1307h-78zM625 1553l279 290h96l-297 -290h-78z" />
<glyph unicode="&#x144;" horiz-adv-x="1074" d="M119 0v1077h73v-237h3q38 115 137 183t235 68q178 0 286 -107.5t108 -288.5v-695h-78v686q0 155 -90.5 244.5t-242.5 89.5q-158 0 -255.5 -105.5t-97.5 -273.5v-641h-78zM489 1253l230 303h93l-249 -303h-74z" />
<glyph unicode="&#x145;" horiz-adv-x="1341" d="M128 0v1443h82l919 -1299h6v1299h79v-1443h-75l-927 1307h-6v-1307h-78zM551 -493l99 344h78l-114 -344h-63z" />
<glyph unicode="&#x146;" horiz-adv-x="1074" d="M119 0v1077h73v-237h3q38 115 137 183t235 68q178 0 286 -107.5t108 -288.5v-695h-78v686q0 155 -90.5 244.5t-242.5 89.5q-158 0 -255.5 -105.5t-97.5 -273.5v-641h-78zM411 -493l99 344h78l-114 -344h-63z" />
<glyph unicode="&#x147;" horiz-adv-x="1341" d="M128 0v1443h82l919 -1299h6v1299h79v-1443h-75l-927 1307h-6v-1307h-78zM366 1843h83l221 -239h2l221 239h83l-271 -290h-68z" />
<glyph unicode="&#x148;" horiz-adv-x="1074" d="M119 0v1077h73v-237h3q38 115 137 183t235 68q178 0 286 -107.5t108 -288.5v-695h-78v686q0 155 -90.5 244.5t-242.5 89.5q-158 0 -255.5 -105.5t-97.5 -273.5v-641h-78zM244 1556h81l217 -249h3l217 249h80l-268 -303h-62z" />
<glyph unicode="&#x14c;" d="M67 722q0 340 174 541t469 201t469 -201t174 -541q0 -342 -173.5 -542.5t-469.5 -200.5t-469.5 200.5t-173.5 542.5zM148 722q0 -307 152.5 -488t409.5 -181t409.5 181t152.5 488q0 306 -152.5 487t-409.5 181q-258 0 -410 -181t-152 -487zM420 1622v57h580v-57h-580z " />
<glyph unicode="&#x14d;" horiz-adv-x="1089" d="M65 538q0 253 131.5 403t347.5 150q217 0 348.5 -150t131.5 -403q0 -252 -132 -402t-348 -150t-347.5 150t-131.5 402zM143 538q0 -222 109.5 -352t291.5 -130t291.5 130.5t109.5 351.5q0 222 -109 352t-292 130t-292 -130t-109 -352zM241 1307v58h596v-58h-596z" />
<glyph unicode="&#x14e;" d="M67 722q0 340 174 541t469 201t469 -201t174 -541q0 -342 -173.5 -542.5t-469.5 -200.5t-469.5 200.5t-173.5 542.5zM148 722q0 -307 152.5 -488t409.5 -181t409.5 181t152.5 488q0 306 -152.5 487t-409.5 181q-258 0 -410 -181t-152 -487zM441 1789h61q0 -77 58 -128.5 t150 -51.5t150 51.5t58 128.5h61q0 -107 -75.5 -171.5t-193.5 -64.5t-193.5 64.5t-75.5 171.5z" />
<glyph unicode="&#x14f;" horiz-adv-x="1089" d="M65 538q0 253 131.5 403t347.5 150q217 0 348.5 -150t131.5 -403q0 -252 -132 -402t-348 -150t-347.5 150t-131.5 402zM143 538q0 -222 109.5 -352t291.5 -130t291.5 130.5t109.5 351.5q0 222 -109 352t-292 130t-292 -130t-109 -352zM272 1502h62q0 -88 58 -142t152 -54 t152 54t58 142h62q0 -117 -75.5 -185t-196.5 -68t-196.5 68t-75.5 185z" />
<glyph unicode="&#x150;" d="M67 722q0 340 174 541t469 201t469 -201t174 -541q0 -342 -173.5 -542.5t-469.5 -200.5t-469.5 200.5t-173.5 542.5zM148 722q0 -307 152.5 -488t409.5 -181t409.5 181t152.5 488q0 306 -152.5 487t-409.5 181q-258 0 -410 -181t-152 -487zM546 1553l280 290h93 l-298 -290h-75zM813 1553l280 290h92l-297 -290h-75z" />
<glyph unicode="&#x151;" horiz-adv-x="1089" d="M65 538q0 253 131.5 403t347.5 150q217 0 348.5 -150t131.5 -403q0 -252 -132 -402t-348 -150t-347.5 150t-131.5 402zM143 538q0 -222 109.5 -352t291.5 -130t291.5 130.5t109.5 351.5q0 222 -109 352t-292 130t-292 -130t-109 -352zM386 1252l226 303h92l-247 -303h-71 zM630 1252l226 303h92l-247 -303h-71z" />
<glyph unicode="&#x152;" horiz-adv-x="2178" d="M67 722q0 343 174.5 542.5t474.5 199.5q205 0 353 -101.5t216 -289.5v370h815v-73h-735v-594h698v-72h-698v-631h735v-73h-815v372q-67 -188 -215.5 -290.5t-353.5 -102.5q-300 0 -474.5 200t-174.5 543zM148 722q0 -306 154 -487.5t414 -181.5t414 181t154 488 q0 305 -154 486.5t-414 181.5t-414 -181t-154 -487z" />
<glyph unicode="&#x153;" horiz-adv-x="1943" d="M65 535q0 254 130.5 404t348.5 150q167 0 284.5 -95t152.5 -252h5q32 154 150.5 251.5t281.5 97.5q208 0 334 -142.5t126 -377.5v-46h-853v-4q0 -210 109.5 -337.5t293.5 -127.5q143 0 237.5 68t120.5 177h78q-27 -140 -145 -227.5t-293 -87.5q-167 0 -287.5 96.5 t-152.5 249.5h-5q-34 -159 -151.5 -254t-285.5 -95q-218 0 -348.5 149.5t-130.5 402.5zM143 535q0 -221 109.5 -351t291.5 -130t291.5 130t109.5 351q0 222 -109.5 352.5t-291.5 130.5t-291.5 -130.5t-109.5 -352.5zM1025 591h773q-1 191 -106.5 310.5t-274.5 119.5 q-167 0 -275 -118.5t-117 -311.5z" />
<glyph unicode="&#x154;" horiz-adv-x="1150" d="M128 0v1443h471q214 0 338.5 -110.5t124.5 -301.5q0 -156 -88.5 -262.5t-245.5 -137.5l371 -631h-93l-361 619q-19 -3 -51 -3h-387v-616h-79zM207 688h387q181 0 284 91t103 250q0 161 -103.5 251.5t-285.5 90.5h-385v-683zM449 1553l279 290h96l-297 -290h-78z" />
<glyph unicode="&#x155;" horiz-adv-x="614" d="M119 0v1077h73v-213h3q32 110 106.5 168.5t182.5 58.5q55 0 100 -18v-78q-44 22 -112 22q-125 0 -200 -97t-75 -251v-669h-78zM288 1253l230 303h93l-249 -303h-74z" />
<glyph unicode="&#x156;" horiz-adv-x="1150" d="M128 0v1443h471q214 0 338.5 -110.5t124.5 -301.5q0 -156 -88.5 -262.5t-245.5 -137.5l371 -631h-93l-361 619q-19 -3 -51 -3h-387v-616h-79zM207 688h387q181 0 284 91t103 250q0 161 -103.5 251.5t-285.5 90.5h-385v-683zM375 -493l99 344h78l-114 -344h-63z" />
<glyph unicode="&#x157;" horiz-adv-x="614" d="M38 -493l99 344h78l-114 -344h-63zM119 0v1077h73v-213h3q32 110 106.5 168.5t182.5 58.5q55 0 100 -18v-78q-44 22 -112 22q-125 0 -200 -97t-75 -251v-669h-78z" />
<glyph unicode="&#x158;" horiz-adv-x="1150" d="M128 0v1443h471q214 0 338.5 -110.5t124.5 -301.5q0 -156 -88.5 -262.5t-245.5 -137.5l371 -631h-93l-361 619q-19 -3 -51 -3h-387v-616h-79zM190 1843h83l221 -239h2l221 239h83l-271 -290h-68zM207 688h387q181 0 284 91t103 250q0 161 -103.5 251.5t-285.5 90.5h-385 v-683z" />
<glyph unicode="&#x159;" horiz-adv-x="614" d="M43 1556h81l217 -249h3l217 249h80l-268 -303h-62zM119 0v1077h73v-213h3q32 110 106.5 168.5t182.5 58.5q55 0 100 -18v-78q-44 22 -112 22q-125 0 -200 -97t-75 -251v-669h-78z" />
<glyph unicode="&#x15a;" horiz-adv-x="1137" d="M57 385h79q9 -147 134 -240t313 -93q183 0 299.5 92.5t116.5 234.5q0 113 -81 183t-263 116l-171 42q-201 51 -294.5 136.5t-93.5 220.5q0 167 137 277t336 110q203 0 340 -106t144 -266h-79q-8 130 -122.5 214.5t-284.5 84.5q-165 0 -277.5 -88.5t-112.5 -223.5 q0 -107 81 -174t257 -111l161 -41q211 -52 307.5 -138.5t96.5 -229.5q0 -180 -139 -293t-364 -113q-222 0 -366.5 113t-153.5 293zM523 1553l279 290h96l-297 -290h-78z" />
<glyph unicode="&#x15b;" horiz-adv-x="923" d="M59 304h78q11 -108 102.5 -179.5t227.5 -71.5q137 0 228 63t91 164q0 84 -57 134.5t-189 81.5l-173 42q-139 33 -206 96.5t-67 166.5q0 127 106.5 208.5t263.5 81.5q162 0 265.5 -88.5t116.5 -235.5h-76q-12 115 -93.5 185.5t-213.5 70.5q-122 0 -207.5 -61.5 t-85.5 -157.5q0 -78 54.5 -124t171.5 -74l167 -41q161 -39 230.5 -104t69.5 -176q0 -133 -112 -216t-286 -83q-171 0 -284 91t-122 227zM410 1253l230 303h93l-249 -303h-74z" />
<glyph unicode="&#x15c;" horiz-adv-x="1137" d="M57 385h79q9 -147 134 -240t313 -93q183 0 299.5 92.5t116.5 234.5q0 113 -81 183t-263 116l-171 42q-201 51 -294.5 136.5t-93.5 220.5q0 167 137 277t336 110q203 0 340 -106t144 -266h-79q-8 130 -122.5 214.5t-284.5 84.5q-165 0 -277.5 -88.5t-112.5 -223.5 q0 -107 81 -174t257 -111l161 -41q211 -52 307.5 -138.5t96.5 -229.5q0 -180 -139 -293t-364 -113q-222 0 -366.5 113t-153.5 293zM264 1553l271 290h68l271 -290h-83l-221 238h-2l-221 -238h-83z" />
<glyph unicode="&#x15d;" horiz-adv-x="923" d="M59 304h78q11 -108 102.5 -179.5t227.5 -71.5q137 0 228 63t91 164q0 84 -57 134.5t-189 81.5l-173 42q-139 33 -206 96.5t-67 166.5q0 127 106.5 208.5t263.5 81.5q162 0 265.5 -88.5t116.5 -235.5h-76q-12 115 -93.5 185.5t-213.5 70.5q-122 0 -207.5 -61.5 t-85.5 -157.5q0 -78 54.5 -124t171.5 -74l167 -41q161 -39 230.5 -104t69.5 -176q0 -133 -112 -216t-286 -83q-171 0 -284 91t-122 227zM165 1253l268 303h62l268 -303h-80l-217 249h-3l-217 -249h-81z" />
<glyph unicode="&#x15e;" horiz-adv-x="1137" d="M57 385h79q9 -147 134 -240t313 -93q183 0 299.5 92.5t116.5 234.5q0 113 -81 183t-263 116l-171 42q-201 51 -294.5 136.5t-93.5 220.5q0 167 137 277t336 110q203 0 340 -106t144 -266h-79q-8 130 -122.5 214.5t-284.5 84.5q-165 0 -277.5 -88.5t-112.5 -223.5 q0 -107 81 -174t257 -111l161 -41q211 -52 307.5 -138.5t96.5 -229.5q0 -175 -130.5 -287t-345.5 -119l-50 -120q96 0 151.5 -41t55.5 -111q0 -75 -60.5 -122.5t-156.5 -47.5q-72 -2 -128 16v56q43 -17 122 -17q68 0 113.5 32t45.5 81q0 50 -41 76t-119 26h-52v43l55 130 q-207 10 -341 121.5t-142 283.5z" />
<glyph unicode="&#x15f;" horiz-adv-x="923" d="M59 304h78q11 -108 102.5 -179.5t227.5 -71.5q137 0 228 63t91 164q0 84 -57 134.5t-189 81.5l-173 42q-139 33 -206 96.5t-67 166.5q0 127 106.5 208.5t263.5 81.5q162 0 265.5 -88.5t116.5 -235.5h-76q-12 115 -93.5 185.5t-213.5 70.5q-122 0 -207.5 -61.5 t-85.5 -157.5q0 -78 54.5 -124t171.5 -74l167 -41q161 -39 230.5 -104t69.5 -176q0 -127 -103 -209t-267 -89l-52 -128q96 0 151.5 -41t55.5 -111q0 -75 -60.5 -122.5t-156.5 -47.5q-72 -2 -128 16v56q43 -17 122 -17q68 0 113.5 32t45.5 81q0 50 -41 76t-119 26h-52v43 l58 137q-158 10 -260.5 99t-110.5 218z" />
<glyph unicode="&#x160;" horiz-adv-x="1137" d="M57 385h79q9 -147 134 -240t313 -93q183 0 299.5 92.5t116.5 234.5q0 113 -81 183t-263 116l-171 42q-201 51 -294.5 136.5t-93.5 220.5q0 167 137 277t336 110q203 0 340 -106t144 -266h-79q-8 130 -122.5 214.5t-284.5 84.5q-165 0 -277.5 -88.5t-112.5 -223.5 q0 -107 81 -174t257 -111l161 -41q211 -52 307.5 -138.5t96.5 -229.5q0 -180 -139 -293t-364 -113q-222 0 -366.5 113t-153.5 293zM264 1843h83l221 -239h2l221 239h83l-271 -290h-68z" />
<glyph unicode="&#x161;" horiz-adv-x="923" d="M59 304h78q11 -108 102.5 -179.5t227.5 -71.5q137 0 228 63t91 164q0 84 -57 134.5t-189 81.5l-173 42q-139 33 -206 96.5t-67 166.5q0 127 106.5 208.5t263.5 81.5q162 0 265.5 -88.5t116.5 -235.5h-76q-12 115 -93.5 185.5t-213.5 70.5q-122 0 -207.5 -61.5 t-85.5 -157.5q0 -78 54.5 -124t171.5 -74l167 -41q161 -39 230.5 -104t69.5 -176q0 -133 -112 -216t-286 -83q-171 0 -284 91t-122 227zM165 1556h81l217 -249h3l217 249h80l-268 -303h-62z" />
<glyph unicode="&#x162;" horiz-adv-x="1138" d="M21 1370v73h1096v-73h-508v-1370h-6l-58 -141q96 0 151.5 -41t55.5 -111q0 -75 -60.5 -122.5t-156.5 -47.5q-72 -2 -128 16v56q43 -17 122 -17q68 0 113.5 32t45.5 81q0 50 -41 76t-119 26h-52v43l64 150h-11v1370h-508z" />
<glyph unicode="&#x163;" horiz-adv-x="551" d="M21 1009v68h158v277h77v-277h217v-68h-217v-762q0 -96 37 -138t119 -42q67 0 75 2v-69q-12 -2 -85 -2h-14l-57 -139q96 0 151.5 -41t55.5 -111q0 -75 -60.5 -122.5t-156.5 -47.5q-72 -2 -128 16v56q43 -17 122 -17q68 0 113.5 32t45.5 81q0 50 -41 76t-119 26h-52v43 l66 155q-78 16 -113.5 73t-35.5 167v764h-158z" />
<glyph unicode="&#x164;" horiz-adv-x="1138" d="M21 1370v73h1096v-73h-508v-1370h-80v1370h-508zM264 1843h83l221 -239h2l221 239h83l-271 -290h-68z" />
<glyph unicode="&#x165;" horiz-adv-x="656" d="M21 1009v68h158v277h77v-277h217v-68h-217v-762q0 -96 37 -138t119 -42q67 0 75 2v-69q-12 -2 -85 -2q-118 0 -170.5 57.5t-52.5 189.5v764h-158zM399 1234v385h68l-15 -385h-53z" />
<glyph unicode="&#x166;" horiz-adv-x="1149" d="M21 1370v73h1096v-73h-508v-588h307v-67h-307v-715h-80v715h-295v67h295v588h-508z" />
<glyph unicode="&#x167;" horiz-adv-x="552" d="M21 598v68h158v343h-158v68h158v277h77v-277h217v-68h-217v-343h224v-68h-224v-351q0 -96 37 -138t119 -42q67 0 75 2v-69q-12 -2 -85 -2q-118 0 -170.5 57.5t-52.5 189.5v353h-158z" />
<glyph unicode="&#x168;" horiz-adv-x="1332" d="M128 501v942h79v-939q0 -207 124 -329t336 -122t336 122t124 329v939h79v-942q0 -237 -145.5 -379.5t-393.5 -142.5t-393.5 142.5t-145.5 379.5zM382 1560q0 98 38.5 155t111.5 57q36 0 68.5 -17t56 -41t45.5 -48t47 -41t52 -17q89 0 89 154h61q0 -97 -39 -155t-111 -58 q-36 0 -67.5 17t-55 41t-45.5 48t-47.5 41t-52.5 17q-91 0 -91 -153h-60z" />
<glyph unicode="&#x169;" horiz-adv-x="1074" d="M113 378v699h78v-687q0 -157 88 -245.5t238 -88.5q156 0 258 104t102 273v644h78v-1077h-73v235h-3q-36 -110 -140.5 -179.5t-237.5 -69.5q-175 0 -281.5 106t-106.5 286zM250 1265q0 98 38.5 155t111.5 57q36 0 68.5 -17t56 -41t45.5 -48t47 -41t52 -17q89 0 89 154h61 q0 -97 -39 -155t-111 -58q-36 0 -67.5 17t-55 41t-45.5 48t-47.5 41t-52.5 17q-91 0 -91 -153h-60z" />
<glyph unicode="&#x16a;" horiz-adv-x="1332" d="M128 501v942h79v-939q0 -207 124 -329t336 -122t336 122t124 329v939h79v-942q0 -237 -145.5 -379.5t-393.5 -142.5t-393.5 142.5t-145.5 379.5zM376 1622v57h580v-57h-580z" />
<glyph unicode="&#x16b;" horiz-adv-x="1074" d="M113 378v699h78v-687q0 -157 88 -245.5t238 -88.5q156 0 258 104t102 273v644h78v-1077h-73v235h-3q-36 -110 -140.5 -179.5t-237.5 -69.5q-175 0 -281.5 106t-106.5 286zM231 1307v58h596v-58h-596z" />
<glyph unicode="&#x16c;" horiz-adv-x="1332" d="M128 501v942h79v-939q0 -207 124 -329t336 -122t336 122t124 329v939h79v-942q0 -237 -145.5 -379.5t-393.5 -142.5t-393.5 142.5t-145.5 379.5zM397 1789h61q0 -77 58 -128.5t150 -51.5t150 51.5t58 128.5h61q0 -107 -75.5 -171.5t-193.5 -64.5t-193.5 64.5t-75.5 171.5 z" />
<glyph unicode="&#x16d;" horiz-adv-x="1074" d="M113 378v699h78v-687q0 -157 88 -245.5t238 -88.5q156 0 258 104t102 273v644h78v-1077h-73v235h-3q-36 -110 -140.5 -179.5t-237.5 -69.5q-175 0 -281.5 106t-106.5 286zM262 1502h62q0 -88 58 -142t152 -54t152 54t58 142h62q0 -117 -75.5 -185t-196.5 -68t-196.5 68 t-75.5 185z" />
<glyph unicode="&#x16e;" horiz-adv-x="1332" d="M128 501v942h79v-939q0 -207 124 -329t336 -122t336 122t124 329v939h79v-942q0 -237 -145.5 -379.5t-393.5 -142.5t-393.5 142.5t-145.5 379.5zM494 1679q0 71 50.5 122t121.5 51t121.5 -51t50.5 -122t-50.5 -122t-121.5 -51t-121.5 51t-50.5 122zM542 1679 q0 -52 36 -88t88 -36t88 36t36 88t-36 88.5t-88 36.5t-88 -36.5t-36 -88.5z" />
<glyph unicode="&#x16f;" horiz-adv-x="1074" d="M113 378v699h78v-687q0 -157 88 -245.5t238 -88.5q156 0 258 104t102 273v644h78v-1077h-73v235h-3q-36 -110 -140.5 -179.5t-237.5 -69.5q-175 0 -281.5 106t-106.5 286zM362 1406q0 71 50.5 122t121.5 51t121.5 -51t50.5 -122t-50.5 -122t-121.5 -51t-121.5 51 t-50.5 122zM410 1406q0 -52 36 -88.5t88 -36.5t88 36.5t36 88.5t-36 88.5t-88 36.5t-88 -36.5t-36 -88.5z" />
<glyph unicode="&#x170;" horiz-adv-x="1332" d="M128 501v942h79v-939q0 -207 124 -329t336 -122t336 122t124 329v939h79v-942q0 -237 -145.5 -379.5t-393.5 -142.5t-393.5 142.5t-145.5 379.5zM502 1553l280 290h93l-298 -290h-75zM769 1553l280 290h92l-297 -290h-75z" />
<glyph unicode="&#x171;" horiz-adv-x="1074" d="M113 378v699h78v-687q0 -157 88 -245.5t238 -88.5q156 0 258 104t102 273v644h78v-1077h-73v235h-3q-36 -110 -140.5 -179.5t-237.5 -69.5q-175 0 -281.5 106t-106.5 286zM376 1252l226 303h92l-247 -303h-71zM620 1252l226 303h92l-247 -303h-71z" />
<glyph unicode="&#x172;" horiz-adv-x="1334" d="M128 501v942h79v-939q0 -208 124.5 -329.5t335.5 -121.5t335.5 121.5t124.5 329.5v939h79v-942q0 -291 -236 -456q-102 -68 -151 -128.5t-49 -122.5q0 -53 39 -87t100 -34q47 0 68 7v-64q-35 -11 -79 -11q-89 0 -146.5 50t-57.5 127q0 127 148 226v4q-80 -33 -175 -33 q-247 0 -393 141.5t-146 380.5z" />
<glyph unicode="&#x173;" horiz-adv-x="1074" d="M113 378v699h78v-687q0 -157 88 -245.5t238 -88.5q156 0 258 104t102 273v644h78v-1077l-9 -4q-201 -85 -201 -202q0 -53 38.5 -87t99.5 -34q48 0 69 7v-64q-33 -11 -79 -11q-89 0 -146.5 50t-57.5 127q0 74 55.5 134.5t157.5 100.5v218h-3q-36 -110 -140.5 -179.5 t-237.5 -69.5q-175 0 -281.5 106t-106.5 286z" />
<glyph unicode="&#x174;" horiz-adv-x="1803" d="M42 1443h82l356 -1306h5l379 1306h74l380 -1306h5l355 1306h83l-403 -1443h-70l-384 1295h-5l-384 -1295h-70zM596 1553l271 290h68l271 -290h-83l-221 238h-2l-221 -238h-83z" />
<glyph unicode="&#x175;" horiz-adv-x="1430" d="M8 1077h82l277 -990h3l301 990h88l301 -990h3l277 990h82l-314 -1077h-91l-301 976h-2l-301 -976h-91zM416 1253l268 303h62l268 -303h-80l-217 249h-3l-217 -249h-81z" />
<glyph unicode="&#x176;" horiz-adv-x="1172" d="M22 1443h93l469 -733h5l469 733h92l-524 -814v-629h-79v629zM281 1553l271 290h68l271 -290h-83l-221 238h-2l-221 -238h-83z" />
<glyph unicode="&#x177;" horiz-adv-x="919" d="M7 1077h83l369 -1001h2l369 1001h82l-423 -1126q-72 -192 -133.5 -256t-175.5 -64q-32 0 -54 9v69q24 -8 57 -8q72 0 116 43.5t87 155.5l33 85zM161 1252l268 303h62l268 -303h-80l-217 249h-3l-217 -249h-81z" />
<glyph unicode="&#x178;" horiz-adv-x="1172" d="M22 1443h93l469 -733h5l469 733h92l-524 -814v-629h-79v629zM366 1630q0 27 20 46.5t48 19.5q27 0 47 -19.5t20 -46.5q0 -28 -20 -47.5t-47 -19.5q-28 0 -48 19.5t-20 47.5zM671 1630q0 27 20 46.5t47 19.5q28 0 48 -19.5t20 -46.5q0 -28 -20 -47.5t-48 -19.5 q-27 0 -47 19.5t-20 47.5z" />
<glyph unicode="&#x179;" horiz-adv-x="1173" d="M71 0v62l925 1303v5h-896v73h997v-62l-923 -1303v-5h928v-73h-1031zM541 1553l279 290h96l-297 -290h-78z" />
<glyph unicode="&#x17a;" horiz-adv-x="928" d="M66 0v65l704 942v2h-704v68h795v-66l-705 -941v-2h706v-68h-796zM410 1252l230 303h93l-249 -303h-74z" />
<glyph unicode="&#x17b;" horiz-adv-x="1173" d="M71 0v62l925 1303v5h-896v73h997v-62l-923 -1303v-5h928v-73h-1031zM510 1639q0 31 22.5 53.5t54.5 22.5t54.5 -22.5t22.5 -53.5t-22.5 -53.5t-54.5 -22.5t-54.5 22.5t-22.5 53.5z" />
<glyph unicode="&#x17c;" horiz-adv-x="928" d="M66 0v65l704 942v2h-704v68h795v-66l-705 -941v-2h706v-68h-796zM386 1332q0 31 23 54t55 23t55 -23t23 -54t-23 -54t-55 -23t-55 23t-23 54z" />
<glyph unicode="&#x17d;" horiz-adv-x="1173" d="M71 0v62l925 1303v5h-896v73h997v-62l-923 -1303v-5h928v-73h-1031zM282 1843h83l221 -239h2l221 239h83l-271 -290h-68z" />
<glyph unicode="&#x17e;" horiz-adv-x="928" d="M66 0v65l704 942v2h-704v68h795v-66l-705 -941v-2h706v-68h-796zM165 1555h81l217 -249h3l217 249h80l-268 -303h-62z" />
<glyph unicode="&#x192;" horiz-adv-x="1192" d="M43 17v76q29 -18 77.5 -30t91.5 -12q121 0 187 68t92 217l70 420h-396v68h408l49 296q30 176 117 260t238 84q47 0 96.5 -10t75.5 -25v-74q-60 38 -166 38q-122 0 -190.5 -67t-92.5 -213l-48 -289h416v-68h-427l-72 -429q-30 -178 -115.5 -262.5t-236.5 -84.5 q-45 0 -95.5 10.5t-78.5 26.5z" />
<glyph unicode="&#x1a0;" d="M67 722q0 340 174 541t469 201q62 0 176.5 -12.5t210.5 -12.5q104 0 142.5 26.5t38.5 97.5v116h73v-136q0 -88 -54 -128t-174 -40h-89v-5q150 -79 234.5 -251t84.5 -397q0 -342 -173.5 -542.5t-469.5 -200.5t-469.5 200.5t-173.5 542.5zM148 722q0 -307 152.5 -488 t409.5 -181t409.5 181t152.5 488t-152.5 487.5t-409.5 180.5q-258 0 -410 -181t-152 -487z" />
<glyph unicode="&#x1a1;" horiz-adv-x="1101" d="M65 538q0 251 130.5 402t348.5 151q61 0 151.5 -10t140.5 -10q71 0 99 23t28 81v127h73v-148q0 -144 -163 -144h-74v-4q104 -50 164.5 -175t60.5 -293q0 -251 -131 -401.5t-349 -150.5q-217 0 -348 150.5t-131 401.5zM143 538q0 -221 108.5 -351.5t292.5 -130.5 t292.5 130.5t108.5 351.5q0 220 -109 351t-292 131q-184 0 -292.5 -130.5t-108.5 -351.5z" />
<glyph unicode="&#x1af;" horiz-adv-x="1474" d="M128 501v942h79v-939q0 -204 126 -327.5t334 -123.5t334 123.5t126 327.5v939h137q114 0 114 102v157h74v-173q0 -71 -45 -110t-127 -39h-74v-879q0 -239 -146.5 -380.5t-392.5 -141.5q-247 0 -393 141.5t-146 380.5z" />
<glyph unicode="&#x1b0;" horiz-adv-x="1189" d="M113 378v699h78v-687q0 -158 88 -246t238 -88q156 0 258 103.5t102 273.5v644h127q114 0 114 101v131h74v-146q0 -71 -45 -110.5t-127 -39.5h-65v-1013h-73v235h-3q-36 -110 -140.5 -179.5t-237.5 -69.5q-175 0 -281.5 106t-106.5 286z" />
<glyph unicode="&#x1c4;" horiz-adv-x="2505" d="M128 0v1443h449q328 0 508 -189t180 -532q0 -344 -180 -533t-508 -189h-449zM208 73h365q295 0 453.5 168.5t158.5 479.5q0 313 -159 481t-453 168h-365v-1297zM1403 0v62l925 1303v5h-896v73h997v-62l-923 -1303v-5h928v-73h-1031zM1614 1843h83l221 -239h2l221 239h83 l-271 -290h-68z" />
<glyph unicode="&#x1c5;" horiz-adv-x="2260" d="M128 0v1443h449q328 0 508 -189t180 -532q0 -344 -180 -533t-508 -189h-449zM208 73h365q295 0 453.5 168.5t158.5 479.5q0 313 -159 481t-453 168h-365v-1297zM1398 0v65l704 942v2h-704v68h795v-66l-705 -941v-2h706v-68h-796zM1497 1555h81l217 -249h3l217 249h80 l-268 -303h-62z" />
<glyph unicode="&#x1c6;" horiz-adv-x="2064" d="M65 538q0 246 128.5 399.5t330.5 153.5q146 0 256 -84.5t147 -213.5h2v713h78v-1506h-73v290h-3q-38 -134 -148.5 -219t-257.5 -85q-203 0 -331.5 153.5t-128.5 398.5zM144 539q0 -215 108.5 -349t281.5 -134q174 0 285 135t111 347q0 213 -111 347.5t-285 134.5 q-173 0 -281.5 -133t-108.5 -348zM1202 0v65l704 942v2h-704v68h795v-66l-705 -941v-2h706v-68h-796zM1301 1555h81l217 -249h3l217 249h80l-268 -303h-62z" />
<glyph unicode="&#x1c7;" horiz-adv-x="1968" d="M128 0v1443h79v-1370h757v-73h-836zM1058 320h78q7 -119 92 -194.5t214 -75.5q150 0 234.5 89t84.5 250v1054h80v-1058q0 -189 -106.5 -299t-291.5 -110q-165 0 -273 96.5t-112 247.5z" />
<glyph unicode="&#x1c8;" horiz-adv-x="1354" d="M128 0v1443h79v-1370h757v-73h-836zM916 -294h27q107 0 155 47.5t48 154.5v1169h78v-1165q0 -145 -68 -210t-210 -65h-30v69zM1123 1402q0 26 18 44t44 18t44.5 -18t18.5 -44q0 -25 -18.5 -43t-44.5 -18t-44 18t-18 43z" />
<glyph unicode="&#x1c9;" horiz-adv-x="673" d="M129 0v1506h78v-1506h-78zM235 -294h27q107 0 155 47.5t48 154.5v1169h78v-1165q0 -145 -68 -210t-210 -65h-30v69zM442 1402q0 26 18 44t44 18t44.5 -18t18.5 -44q0 -25 -18.5 -43t-44.5 -18t-44 18t-18 43z" />
<glyph unicode="&#x1ca;" horiz-adv-x="2293" d="M128 0v1443h82l919 -1299h6v1299h79v-1443h-75l-927 1307h-6v-1307h-78zM1382 320h78q7 -119 92 -194.5t214 -75.5q150 0 234.5 89t84.5 250v1054h80v-1058q0 -189 -106.5 -299t-291.5 -110q-165 0 -273 96.5t-112 247.5z" />
<glyph unicode="&#x1cb;" horiz-adv-x="1678" d="M128 0v1443h82l919 -1299h6v1299h79v-1443h-75l-927 1307h-6v-1307h-78zM1240 -294h27q107 0 155 47.5t48 154.5v1169h78v-1165q0 -145 -68 -210t-210 -65h-30v69zM1447 1402q0 26 18 44t44 18t44.5 -18t18.5 -44q0 -25 -18.5 -43t-44.5 -18t-44 18t-18 43z" />
<glyph unicode="&#x1cc;" horiz-adv-x="1410" d="M119 0v1077h73v-237h3q38 115 137 183t235 68q178 0 286 -107.5t108 -288.5v-695h-78v686q0 155 -90.5 244.5t-242.5 89.5q-158 0 -255.5 -105.5t-97.5 -273.5v-641h-78zM973 -294h27q107 0 155 47.5t48 154.5v1169h78v-1165q0 -145 -68 -210t-210 -65h-30v69zM1180 1402 q0 26 18 44t44 18t44.5 -18t18.5 -44q0 -25 -18.5 -43t-44.5 -18t-44 18t-18 43z" />
<glyph unicode="&#x1cd;" horiz-adv-x="1221" d="M21 0l550 1443h80l549 -1443h-85l-180 481h-649l-179 -481h-86zM306 1843h83l221 -239h2l221 239h83l-271 -290h-68zM312 552h598l-297 788h-5z" />
<glyph unicode="&#x1ce;" horiz-adv-x="1030" d="M86 290q0 138 97.5 216t287.5 92l369 27v96q0 141 -81.5 220t-226.5 79q-137 0 -224 -67t-106 -189h-75q14 149 125 238t281 89q177 0 280.5 -98t103.5 -267v-726h-75v232h-2q-40 -110 -150 -178t-247 -68q-158 0 -257.5 84.5t-99.5 219.5zM164 290q0 -103 81.5 -169 t207.5 -66q161 0 274 100.5t113 243.5v161l-359 -27q-155 -11 -236 -73t-81 -170zM233 1556h81l217 -249h3l217 249h80l-268 -303h-62z" />
<glyph unicode="&#x1cf;" horiz-adv-x="335" d="M-138 1843h83l221 -239h2l221 239h83l-271 -290h-68zM128 0v1443h79v-1443h-79z" />
<glyph unicode="&#x1d0;" horiz-adv-x="336" d="M-131 1556h81l217 -249h3l217 249h80l-268 -303h-62zM129 0v1077h78v-1077h-78z" />
<glyph unicode="&#x1d1;" d="M67 722q0 340 174 541t469 201t469 -201t174 -541q0 -342 -173.5 -542.5t-469.5 -200.5t-469.5 200.5t-173.5 542.5zM148 722q0 -307 152.5 -488t409.5 -181t409.5 181t152.5 488q0 306 -152.5 487t-409.5 181q-258 0 -410 -181t-152 -487zM405 1843h83l221 -239h2 l221 239h83l-271 -290h-68z" />
<glyph unicode="&#x1d2;" horiz-adv-x="1089" d="M65 538q0 253 131.5 403t347.5 150q217 0 348.5 -150t131.5 -403q0 -252 -132 -402t-348 -150t-347.5 150t-131.5 402zM143 538q0 -222 109.5 -352t291.5 -130t291.5 130.5t109.5 351.5q0 222 -109 352t-292 130t-292 -130t-109 -352zM245 1555h81l217 -249h3l217 249h80 l-268 -303h-62z" />
<glyph unicode="&#x1d3;" horiz-adv-x="1332" d="M128 501v942h79v-939q0 -207 124 -329t336 -122t336 122t124 329v939h79v-942q0 -237 -145.5 -379.5t-393.5 -142.5t-393.5 142.5t-145.5 379.5zM361 1843h83l221 -239h2l221 239h83l-271 -290h-68z" />
<glyph unicode="&#x1d4;" horiz-adv-x="1074" d="M113 378v699h78v-687q0 -157 88 -245.5t238 -88.5q156 0 258 104t102 273v644h78v-1077h-73v235h-3q-36 -110 -140.5 -179.5t-237.5 -69.5q-175 0 -281.5 106t-106.5 286zM235 1555h81l217 -249h3l217 249h80l-268 -303h-62z" />
<glyph unicode="&#x1d5;" horiz-adv-x="1332" d="M128 501v942h79v-939q0 -207 124 -329t336 -122t336 122t124 329v939h79v-942q0 -237 -145.5 -379.5t-393.5 -142.5t-393.5 142.5t-145.5 379.5zM376 1862v57h580v-57h-580zM453 1628q0 26 19 44.5t45 18.5q25 0 44 -18.5t19 -44.5t-18.5 -44.5t-44.5 -18.5t-45 18.5 t-19 44.5zM752 1628q0 26 19 44.5t44 18.5q26 0 45 -18.5t19 -44.5t-19 -44.5t-45 -18.5t-44.5 18.5t-18.5 44.5z" />
<glyph unicode="&#x1d6;" horiz-adv-x="1074" d="M113 378v699h78v-687q0 -157 88 -245.5t238 -88.5q156 0 258 104t102 273v644h78v-1077h-73v235h-3q-36 -110 -140.5 -179.5t-237.5 -69.5q-175 0 -281.5 106t-106.5 286zM231 1600v58h596v-58h-596zM316 1320q0 27 19.5 46t46.5 19t46.5 -19t19.5 -46t-19.5 -46 t-46.5 -19t-46.5 19t-19.5 46zM620 1320q0 27 19.5 46t46.5 19q28 0 47 -19t19 -46t-19 -46t-47 -19q-27 0 -46.5 19t-19.5 46z" />
<glyph unicode="&#x1d7;" horiz-adv-x="1332" d="M128 501v942h79v-939q0 -207 124 -329t336 -122t336 122t124 329v939h79v-942q0 -237 -145.5 -379.5t-393.5 -142.5t-393.5 142.5t-145.5 379.5zM453 1628q0 26 19 44.5t45 18.5q25 0 44 -18.5t19 -44.5t-18.5 -44.5t-44.5 -18.5t-45 18.5t-19 44.5zM617 1776l207 203h91 l-224 -203h-74zM752 1628q0 26 19 44.5t44 18.5q26 0 45 -18.5t19 -44.5t-19 -44.5t-45 -18.5t-44.5 18.5t-18.5 44.5z" />
<glyph unicode="&#x1d8;" horiz-adv-x="1074" d="M113 378v699h78v-687q0 -157 88 -245.5t238 -88.5q156 0 258 104t102 273v644h78v-1077h-73v235h-3q-36 -110 -140.5 -179.5t-237.5 -69.5q-175 0 -281.5 106t-106.5 286zM314 1322q0 27 20 46.5t48 19.5q27 0 47 -19.5t20 -46.5q0 -28 -20 -47.5t-47 -19.5 q-28 0 -48 19.5t-20 47.5zM487 1529l222 284h93l-240 -284h-75zM619 1322q0 27 20 46.5t47 19.5q28 0 48 -19.5t20 -46.5q0 -28 -20 -47.5t-48 -19.5q-27 0 -47 19.5t-20 47.5z" />
<glyph unicode="&#x1d9;" horiz-adv-x="1332" d="M128 501v942h79v-939q0 -207 124 -329t336 -122t336 122t124 329v939h79v-942q0 -237 -145.5 -379.5t-393.5 -142.5t-393.5 142.5t-145.5 379.5zM365 1979h93l205 -157h6l205 157h93l-266 -203h-70zM453 1628q0 26 19 44.5t45 18.5q25 0 44 -18.5t19 -44.5t-18.5 -44.5 t-44.5 -18.5t-45 18.5t-19 44.5zM752 1628q0 26 19 44.5t44 18.5q26 0 45 -18.5t19 -44.5t-19 -44.5t-45 -18.5t-44.5 18.5t-18.5 44.5z" />
<glyph unicode="&#x1da;" horiz-adv-x="1074" d="M113 378v699h78v-687q0 -157 88 -245.5t238 -88.5q156 0 258 104t102 273v644h78v-1077h-73v235h-3q-36 -110 -140.5 -179.5t-237.5 -69.5q-175 0 -281.5 106t-106.5 286zM233 1813h80l219 -237h4l219 237h80l-264 -284h-74zM314 1322q0 27 20 46.5t48 19.5 q27 0 47 -19.5t20 -46.5q0 -28 -20 -47.5t-47 -19.5q-28 0 -48 19.5t-20 47.5zM619 1322q0 27 20 46.5t47 19.5q28 0 48 -19.5t20 -46.5q0 -28 -20 -47.5t-48 -19.5q-27 0 -47 19.5t-20 47.5z" />
<glyph unicode="&#x1db;" horiz-adv-x="1332" d="M128 501v942h79v-939q0 -207 124 -329t336 -122t336 122t124 329v939h79v-942q0 -237 -145.5 -379.5t-393.5 -142.5t-393.5 142.5t-145.5 379.5zM417 1979h91l207 -203h-74zM453 1628q0 26 19 44.5t45 18.5q25 0 44 -18.5t19 -44.5t-18.5 -44.5t-44.5 -18.5t-45 18.5 t-19 44.5zM752 1628q0 26 19 44.5t44 18.5q26 0 45 -18.5t19 -44.5t-19 -44.5t-45 -18.5t-44.5 18.5t-18.5 44.5z" />
<glyph unicode="&#x1dc;" horiz-adv-x="1074" d="M113 378v699h78v-687q0 -157 88 -245.5t238 -88.5q156 0 258 104t102 273v644h78v-1077h-73v235h-3q-36 -110 -140.5 -179.5t-237.5 -69.5q-175 0 -281.5 106t-106.5 286zM266 1813h93l222 -284h-75zM314 1322q0 27 20 46.5t48 19.5q27 0 47 -19.5t20 -46.5 q0 -28 -20 -47.5t-47 -19.5q-28 0 -48 19.5t-20 47.5zM619 1322q0 27 20 46.5t47 19.5q28 0 48 -19.5t20 -46.5q0 -28 -20 -47.5t-48 -19.5q-27 0 -47 19.5t-20 47.5z" />
<glyph unicode="&#x1de;" horiz-adv-x="1221" d="M21 0l550 1443h80l549 -1443h-85l-180 481h-649l-179 -481h-86zM312 552h598l-297 788h-5zM321 1862v57h580v-57h-580zM398 1628q0 26 19 44.5t45 18.5t44.5 -18.5t18.5 -44.5t-18.5 -44.5t-44.5 -18.5t-45 18.5t-19 44.5zM697 1628q0 26 18.5 44.5t44.5 18.5t45 -18.5 t19 -44.5t-19 -44.5t-45 -18.5t-44.5 18.5t-18.5 44.5z" />
<glyph unicode="&#x1df;" horiz-adv-x="1030" d="M86 290q0 138 97.5 216t287.5 92l369 27v96q0 141 -81.5 220t-226.5 79q-137 0 -224 -67t-106 -189h-75q14 149 125 238t281 89q177 0 280.5 -98t103.5 -267v-726h-75v232h-2q-40 -110 -150 -178t-247 -68q-158 0 -257.5 84.5t-99.5 219.5zM164 290q0 -103 81.5 -169 t207.5 -66q161 0 274 100.5t113 243.5v161l-359 -27q-155 -11 -236 -73t-81 -170zM229 1601v58h596v-58h-596zM314 1321q0 27 19.5 46t46.5 19t46.5 -19t19.5 -46t-19.5 -46t-46.5 -19t-46.5 19t-19.5 46zM618 1321q0 27 19.5 46t46.5 19q28 0 47 -19t19 -46t-19 -46 t-47 -19q-27 0 -46.5 19t-19.5 46z" />
<glyph unicode="&#x1e0;" horiz-adv-x="1221" d="M21 0l550 1443h80l549 -1443h-85l-180 481h-649l-179 -481h-86zM312 552h598l-297 788h-5zM321 1862v57h580v-57h-580zM535 1635q0 31 22.5 53t53.5 22t53.5 -22t22.5 -53t-22.5 -53t-53.5 -22t-53.5 22t-22.5 53z" />
<glyph unicode="&#x1e1;" horiz-adv-x="1030" d="M86 290q0 138 97.5 216t287.5 92l369 27v96q0 141 -81.5 220t-226.5 79q-137 0 -224 -67t-106 -189h-75q14 149 125 238t281 89q177 0 280.5 -98t103.5 -267v-726h-75v232h-2q-40 -110 -150 -178t-247 -68q-158 0 -257.5 84.5t-99.5 219.5zM164 290q0 -103 81.5 -169 t207.5 -66q161 0 274 100.5t113 243.5v161l-359 -27q-155 -11 -236 -73t-81 -170zM229 1601v58h596v-58h-596zM455 1333q0 31 23 53.5t54 22.5t54 -22.5t23 -53.5t-22.5 -54t-54.5 -23t-54.5 23t-22.5 54z" />
<glyph unicode="&#x1e2;" horiz-adv-x="1908" d="M46 0l722 1443h1021v-73h-712v-597h676v-72h-676v-628h712v-73h-790v422h-659l-210 -422h-84zM374 492h625v881h-184zM1041 1622v57h580v-57h-580z" />
<glyph unicode="&#x1e3;" horiz-adv-x="1830" d="M86 286q0 132 97 207t284 86l373 24v127q0 136 -84 213t-229 77q-138 0 -226 -68t-104 -188h-76q15 148 125.5 237.5t279.5 89.5q153 0 254.5 -76.5t115.5 -210.5h6q47 130 155 208.5t259 78.5q206 0 327.5 -139.5t121.5 -373.5v-46h-848v-9q0 -212 109.5 -339.5 t292.5 -127.5q140 0 233 67.5t118 177.5h79q-28 -140 -144 -227.5t-287 -87.5q-155 0 -266 78t-160 225h-6q-44 -141 -160.5 -222t-272.5 -81q-165 0 -266 83t-101 217zM164 287q0 -102 80.5 -167t209.5 -65q161 0 273.5 101.5t112.5 246.5v134l-362 -23q-154 -10 -234 -68 t-80 -159zM621 1308v58h596v-58h-596zM918 598h768q-1 191 -103 307t-271 116q-170 0 -277.5 -116.5t-116.5 -306.5z" />
<glyph unicode="&#x1e6;" horiz-adv-x="1358" d="M67 730q0 331 173.5 532.5t458.5 201.5q217 0 374.5 -120t198.5 -317h-81q-43 166 -176.5 264.5t-315.5 98.5q-250 0 -400.5 -180t-150.5 -479q0 -304 152 -491t399 -187q232 0 367.5 136.5t135.5 369.5v83h-503v72h582v-143q0 -276 -155.5 -434t-426.5 -158 q-186 0 -330 94t-223 264.5t-79 392.5zM394 1843h83l221 -239h2l221 239h83l-271 -290h-68z" />
<glyph unicode="&#x1e7;" horiz-adv-x="1119" d="M65 539q0 247 126.5 399.5t329.5 152.5q145 0 254.5 -85t148.5 -217h3v288h73v-1070q0 -172 -125 -270t-330 -98q-170 0 -283 68t-135 180h81q21 -80 113 -129.5t229 -49.5q167 0 269.5 79t102.5 215v285h-2q-37 -130 -146 -214.5t-254 -84.5q-203 0 -329 152.5 t-126 398.5zM144 539q0 -214 106.5 -347t278.5 -133q174 0 283.5 134t109.5 346q0 213 -109.5 347t-283.5 134q-172 0 -278.5 -133t-106.5 -348zM259 1556h81l217 -249h3l217 249h80l-268 -303h-62z" />
<glyph unicode="&#x1e8;" horiz-adv-x="1142" d="M128 0v1443h79v-806h6l750 806h101l-594 -636l660 -807h-101l-615 751l-207 -223v-528h-79zM239 1843h83l221 -239h2l221 239h83l-271 -290h-68z" />
<glyph unicode="&#x1e9;" horiz-adv-x="938" d="M-137 1906h83l221 -239h2l221 239h83l-271 -290h-68zM129 0v1506h78v-982h1l609 553h102l-507 -464l511 -613h-95l-474 565l-147 -132v-433h-78z" />
<glyph unicode="&#x1ea;" d="M67 722q0 340 174 541t469 201t469 -201t174 -541q0 -450 -318 -670q-114 -76 -162 -134.5t-48 -123.5q0 -53 38.5 -87t99.5 -34q48 0 69 7v-64q-35 -11 -79 -11q-89 0 -147 50t-58 127q0 127 149 226v4q-81 -33 -187 -33q-296 0 -469.5 200.5t-173.5 542.5zM148 722 q0 -307 152.5 -488t409.5 -181t409.5 181t152.5 488q0 306 -152.5 487t-409.5 181q-258 0 -410 -181t-152 -487z" />
<glyph unicode="&#x1eb;" horiz-adv-x="1089" d="M65 538q0 253 131.5 403t347.5 150q217 0 348.5 -150t131.5 -403q0 -169 -64 -297.5t-178 -202.5q-192 -119 -192 -244q0 -53 39 -87t100 -34q46 0 69 7v-64q-37 -11 -80 -11q-89 0 -146.5 50t-57.5 127q0 124 142 221v4q-20 -8 -56.5 -14.5t-55.5 -6.5 q-216 0 -347.5 150t-131.5 402zM143 538q0 -222 109.5 -352t291.5 -130t291.5 130.5t109.5 351.5q0 222 -109 352t-292 130t-292 -130t-109 -352z" />
<glyph unicode="&#x1ec;" d="M67 722q0 340 174 541t469 201t469 -201t174 -541q0 -450 -318 -670q-114 -76 -162 -134.5t-48 -123.5q0 -53 38.5 -87t99.5 -34q48 0 69 7v-64q-35 -11 -79 -11q-89 0 -147 50t-58 127q0 127 149 226v4q-81 -33 -187 -33q-296 0 -469.5 200.5t-173.5 542.5zM148 722 q0 -307 152.5 -488t409.5 -181t409.5 181t152.5 488q0 306 -152.5 487t-409.5 181q-258 0 -410 -181t-152 -487zM420 1622v57h580v-57h-580z" />
<glyph unicode="&#x1ed;" horiz-adv-x="1089" d="M65 538q0 253 131.5 403t347.5 150q217 0 348.5 -150t131.5 -403q0 -169 -64 -297.5t-178 -202.5q-192 -119 -192 -244q0 -53 39 -87t100 -34q46 0 69 7v-64q-37 -11 -80 -11q-89 0 -146.5 50t-57.5 127q0 124 142 221v4q-20 -8 -56.5 -14.5t-55.5 -6.5 q-216 0 -347.5 150t-131.5 402zM143 538q0 -222 109.5 -352t291.5 -130t291.5 130.5t109.5 351.5q0 222 -109 352t-292 130t-292 -130t-109 -352zM241 1307v58h596v-58h-596z" />
<glyph unicode="&#x1f1;" horiz-adv-x="2505" d="M128 0v1443h449q328 0 508 -189t180 -532q0 -344 -180 -533t-508 -189h-449zM208 73h365q295 0 453.5 168.5t158.5 479.5q0 313 -159 481t-453 168h-365v-1297zM1403 0v62l925 1303v5h-896v73h997v-62l-923 -1303v-5h928v-73h-1031z" />
<glyph unicode="&#x1f2;" horiz-adv-x="2260" d="M128 0v1443h449q328 0 508 -189t180 -532q0 -344 -180 -533t-508 -189h-449zM208 73h365q295 0 453.5 168.5t158.5 479.5q0 313 -159 481t-453 168h-365v-1297zM1398 0v65l704 942v2h-704v68h795v-66l-705 -941v-2h706v-68h-796z" />
<glyph unicode="&#x1f3;" horiz-adv-x="2064" d="M65 538q0 246 128.5 399.5t330.5 153.5q146 0 256 -84.5t147 -213.5h2v713h78v-1506h-73v290h-3q-38 -134 -148.5 -219t-257.5 -85q-203 0 -331.5 153.5t-128.5 398.5zM144 539q0 -215 108.5 -349t281.5 -134q174 0 285 135t111 347q0 213 -111 347.5t-285 134.5 q-173 0 -281.5 -133t-108.5 -348zM1202 0v65l704 942v2h-704v68h795v-66l-705 -941v-2h706v-68h-796z" />
<glyph unicode="&#x1f4;" horiz-adv-x="1358" d="M67 730q0 331 173.5 532.5t458.5 201.5q217 0 374.5 -120t198.5 -317h-81q-43 166 -176.5 264.5t-315.5 98.5q-250 0 -400.5 -180t-150.5 -479q0 -304 152 -491t399 -187q232 0 367.5 136.5t135.5 369.5v83h-503v72h582v-143q0 -276 -155.5 -434t-426.5 -158 q-186 0 -330 94t-223 264.5t-79 392.5zM653 1553l279 290h96l-297 -290h-78z" />
<glyph unicode="&#x1f5;" horiz-adv-x="1119" d="M65 539q0 247 126.5 399.5t329.5 152.5q145 0 254.5 -85t148.5 -217h3v288h73v-1070q0 -172 -125 -270t-330 -98q-170 0 -283 68t-135 180h81q21 -80 113 -129.5t229 -49.5q167 0 269.5 79t102.5 215v285h-2q-37 -130 -146 -214.5t-254 -84.5q-203 0 -329 152.5 t-126 398.5zM144 539q0 -214 106.5 -347t278.5 -133q174 0 283.5 134t109.5 346q0 213 -109.5 347t-283.5 134q-172 0 -278.5 -133t-106.5 -348zM504 1253l230 303h93l-249 -303h-74z" />
<glyph unicode="&#x1f8;" horiz-adv-x="1341" d="M128 0v1443h82l919 -1299h6v1299h79v-1443h-75l-927 1307h-6v-1307h-78zM343 1843h95l280 -290h-78z" />
<glyph unicode="&#x1f9;" horiz-adv-x="1074" d="M119 0v1077h73v-237h3q38 115 137 183t235 68q178 0 286 -107.5t108 -288.5v-695h-78v686q0 155 -90.5 244.5t-242.5 89.5q-158 0 -255.5 -105.5t-97.5 -273.5v-641h-78zM271 1556h93l230 -303h-74z" />
<glyph unicode="&#x1fa;" horiz-adv-x="1221" d="M21 0l550 1443h80l549 -1443h-85l-180 481h-649l-179 -481h-86zM312 552h598l-297 788h-5zM439 1671q0 71 50.5 122t121.5 51t121.5 -51t50.5 -122t-50.5 -122t-121.5 -51t-121.5 51t-50.5 122zM487 1671q0 -53 36 -89t88 -36t88 36t36 89q0 52 -36 88.5t-88 36.5 t-88 -36.5t-36 -88.5zM573 1917l146 169h88l-167 -169h-67z" />
<glyph unicode="&#x1fb;" horiz-adv-x="1030" d="M86 290q0 138 97.5 216t287.5 92l369 27v96q0 141 -81.5 220t-226.5 79q-137 0 -224 -67t-106 -189h-75q14 149 125 238t281 89q177 0 280.5 -98t103.5 -267v-726h-75v232h-2q-40 -110 -150 -178t-247 -68q-158 0 -257.5 84.5t-99.5 219.5zM164 290q0 -103 81.5 -169 t207.5 -66q161 0 274 100.5t113 243.5v161l-359 -27q-155 -11 -236 -73t-81 -170zM360 1393q0 71 50.5 122t121.5 51t121.5 -51t50.5 -122t-50.5 -122t-121.5 -51t-121.5 51t-50.5 122zM408 1393q0 -52 36 -88.5t88 -36.5t88 36.5t36 88.5t-36 88.5t-88 36.5t-88 -36.5 t-36 -88.5zM492 1649l146 172h82l-161 -172h-67z" />
<glyph unicode="&#x1fc;" horiz-adv-x="1908" d="M46 0l722 1443h1021v-73h-712v-597h676v-72h-676v-628h712v-73h-790v422h-659l-210 -422h-84zM374 492h625v881h-184zM1285 1553l279 290h96l-297 -290h-78z" />
<glyph unicode="&#x1fd;" horiz-adv-x="1830" d="M86 286q0 132 97 207t284 86l373 24v127q0 136 -84 213t-229 77q-138 0 -226 -68t-104 -188h-76q15 148 125.5 237.5t279.5 89.5q153 0 254.5 -76.5t115.5 -210.5h6q47 130 155 208.5t259 78.5q206 0 327.5 -139.5t121.5 -373.5v-46h-848v-9q0 -212 109.5 -339.5 t292.5 -127.5q140 0 233 67.5t118 177.5h79q-28 -140 -144 -227.5t-287 -87.5q-155 0 -266 78t-160 225h-6q-44 -141 -160.5 -222t-272.5 -81q-165 0 -266 83t-101 217zM164 287q0 -102 80.5 -167t209.5 -65q161 0 273.5 101.5t112.5 246.5v134l-362 -23q-154 -10 -234 -68 t-80 -159zM870 1253l230 303h93l-249 -303h-74zM918 598h768q-1 191 -103 307t-271 116q-170 0 -277.5 -116.5t-116.5 -306.5z" />
<glyph unicode="&#x1fe;" d="M67 722q0 340 174 541t469 201q265 0 434 -164l144 184l50 -35l-151 -195q166 -200 166 -532q0 -342 -173.5 -542.5t-469.5 -200.5q-243 0 -407 139l-157 -202l-51 37l162 208q-190 201 -190 561zM148 722q0 -316 160 -496l787 1010q-149 154 -385 154q-258 0 -410 -181 t-152 -487zM352 181q143 -128 358 -128q257 0 409.5 181t152.5 488q0 287 -136 467zM706 1553l279 290h96l-297 -290h-78z" />
<glyph unicode="&#x1ff;" horiz-adv-x="1089" d="M65 538q0 253 131.5 403t347.5 150q176 0 300 -102l102 143l51 -33l-109 -153q136 -152 136 -408q0 -252 -132 -402t-348 -150q-161 0 -277 85l-110 -154l-53 35l114 160q-153 151 -153 426zM143 538q0 -231 120 -364l537 753q-104 93 -256 93q-183 0 -292 -130 t-109 -352zM309 131q98 -75 235 -75q182 0 291.5 130.5t109.5 351.5q0 214 -102 344zM490 1253l230 303h93l-249 -303h-74z" />
<glyph unicode="&#x200;" horiz-adv-x="1221" d="M21 0l550 1443h80l549 -1443h-85l-180 481h-649l-179 -481h-86zM136 1843h92l280 -290h-75zM312 552h598l-297 788h-5zM402 1843h93l280 -290h-75z" />
<glyph unicode="&#x201;" horiz-adv-x="1030" d="M86 290q0 138 97.5 216t287.5 92l369 27v96q0 141 -81.5 220t-226.5 79q-137 0 -224 -67t-106 -189h-75q14 149 125 238t281 89q177 0 280.5 -98t103.5 -267v-726h-75v232h-2q-40 -110 -150 -178t-247 -68q-158 0 -257.5 84.5t-99.5 219.5zM128 1556h92l227 -303h-72z M164 290q0 -103 81.5 -169t207.5 -66q161 0 274 100.5t113 243.5v161l-359 -27q-155 -11 -236 -73t-81 -170zM372 1556h92l227 -303h-72z" />
<glyph unicode="&#x202;" horiz-adv-x="1221" d="M21 0l550 1443h80l549 -1443h-85l-180 481h-649l-179 -481h-86zM312 552h598l-297 788h-5zM342 1553q0 106 75.5 171t193.5 65t193.5 -65t75.5 -171h-61q0 77 -58 128t-150 51t-150 -51t-58 -128h-61z" />
<glyph unicode="&#x203;" horiz-adv-x="1030" d="M86 290q0 138 97.5 216t287.5 92l369 27v96q0 141 -81.5 220t-226.5 79q-137 0 -224 -67t-106 -189h-75q14 149 125 238t281 89q177 0 280.5 -98t103.5 -267v-726h-75v232h-2q-40 -110 -150 -178t-247 -68q-158 0 -257.5 84.5t-99.5 219.5zM164 290q0 -103 81.5 -169 t207.5 -66q161 0 274 100.5t113 243.5v161l-359 -27q-155 -11 -236 -73t-81 -170zM260 1253q0 117 75.5 185t196.5 68t196.5 -68t75.5 -185h-62q0 88 -58 142t-152 54t-152 -54t-58 -142h-62z" />
<glyph unicode="&#x204;" horiz-adv-x="1068" d="M73 1843h92l280 -290h-75zM128 0v1443h841v-73h-762v-594h726v-72h-726v-631h762v-73h-841zM339 1843h93l280 -290h-75z" />
<glyph unicode="&#x205;" horiz-adv-x="1062" d="M65 537q0 250 129.5 402t342.5 152q208 0 334 -142.5t126 -377.5v-45h-853v-4q0 -218 109 -342t293 -124q144 0 239.5 68t119.5 177h79q-27 -139 -145.5 -227t-293.5 -88q-221 0 -350.5 146.5t-129.5 404.5zM133 1556h92l227 -303h-72zM145 592h773q-1 191 -106.5 310 t-275.5 119q-168 0 -275 -118t-116 -311zM377 1556h92l227 -303h-72z" />
<glyph unicode="&#x206;" horiz-adv-x="1068" d="M128 0v1443h841v-73h-762v-594h726v-72h-726v-631h762v-73h-841zM279 1553q0 106 75.5 171t193.5 65t193.5 -65t75.5 -171h-61q0 77 -58 128t-150 51t-150 -51t-58 -128h-61z" />
<glyph unicode="&#x207;" horiz-adv-x="1062" d="M65 537q0 250 129.5 402t342.5 152q208 0 334 -142.5t126 -377.5v-45h-853v-4q0 -218 109 -342t293 -124q144 0 239.5 68t119.5 177h79q-27 -139 -145.5 -227t-293.5 -88q-221 0 -350.5 146.5t-129.5 404.5zM145 592h773q-1 191 -106.5 310t-275.5 119q-168 0 -275 -118 t-116 -311zM265 1253q0 117 75.5 185t196.5 68t196.5 -68t75.5 -185h-62q0 88 -58 142t-152 54t-152 -54t-58 -142h-62z" />
<glyph unicode="&#x208;" horiz-adv-x="335" d="M-308 1843h92l280 -290h-75zM-42 1843h93l280 -290h-75zM128 0v1443h79v-1443h-79z" />
<glyph unicode="&#x209;" horiz-adv-x="336" d="M-236 1556h92l227 -303h-72zM8 1556h92l227 -303h-72zM129 0v1077h78v-1077h-78z" />
<glyph unicode="&#x20a;" horiz-adv-x="335" d="M-102 1553q0 106 75.5 171t193.5 65t193.5 -65t75.5 -171h-61q0 77 -58 128t-150 51t-150 -51t-58 -128h-61zM128 0v1443h79v-1443h-79z" />
<glyph unicode="&#x20b;" horiz-adv-x="336" d="M-104 1253q0 117 75.5 185t196.5 68t196.5 -68t75.5 -185h-62q0 88 -58 142t-152 54t-152 -54t-58 -142h-62zM129 0v1077h78v-1077h-78z" />
<glyph unicode="&#x20c;" d="M67 722q0 340 174 541t469 201t469 -201t174 -541q0 -342 -173.5 -542.5t-469.5 -200.5t-469.5 200.5t-173.5 542.5zM148 722q0 -307 152.5 -488t409.5 -181t409.5 181t152.5 488q0 306 -152.5 487t-409.5 181q-258 0 -410 -181t-152 -487zM235 1843h92l280 -290h-75z M501 1843h93l280 -290h-75z" />
<glyph unicode="&#x20d;" horiz-adv-x="1089" d="M65 538q0 253 131.5 403t347.5 150q217 0 348.5 -150t131.5 -403q0 -252 -132 -402t-348 -150t-347.5 150t-131.5 402zM140 1555h92l227 -303h-72zM143 538q0 -222 109.5 -352t291.5 -130t291.5 130.5t109.5 351.5q0 222 -109 352t-292 130t-292 -130t-109 -352z M384 1555h92l227 -303h-72z" />
<glyph unicode="&#x20e;" d="M67 722q0 340 174 541t469 201t469 -201t174 -541q0 -342 -173.5 -542.5t-469.5 -200.5t-469.5 200.5t-173.5 542.5zM148 722q0 -307 152.5 -488t409.5 -181t409.5 181t152.5 488q0 306 -152.5 487t-409.5 181q-258 0 -410 -181t-152 -487zM441 1553q0 106 75.5 171 t193.5 65t193.5 -65t75.5 -171h-61q0 77 -58 128t-150 51t-150 -51t-58 -128h-61z" />
<glyph unicode="&#x20f;" horiz-adv-x="1089" d="M65 538q0 253 131.5 403t347.5 150q217 0 348.5 -150t131.5 -403q0 -252 -132 -402t-348 -150t-347.5 150t-131.5 402zM143 538q0 -222 109.5 -352t291.5 -130t291.5 130.5t109.5 351.5q0 222 -109 352t-292 130t-292 -130t-109 -352zM272 1252q0 117 75.5 185t196.5 68 t196.5 -68t75.5 -185h-62q0 88 -58 142t-152 54t-152 -54t-58 -142h-62z" />
<glyph unicode="&#x210;" horiz-adv-x="1150" d="M20 1843h92l280 -290h-75zM128 0v1443h471q214 0 338.5 -110.5t124.5 -301.5q0 -156 -88.5 -262.5t-245.5 -137.5l371 -631h-93l-361 619q-19 -3 -51 -3h-387v-616h-79zM207 688h387q181 0 284 91t103 250q0 161 -103.5 251.5t-285.5 90.5h-385v-683zM286 1843h93 l280 -290h-75z" />
<glyph unicode="&#x211;" horiz-adv-x="614" d="M-62 1556h92l227 -303h-72zM119 0v1077h73v-213h3q32 110 106.5 168.5t182.5 58.5q55 0 100 -18v-78q-44 22 -112 22q-125 0 -200 -97t-75 -251v-669h-78zM182 1556h92l227 -303h-72z" />
<glyph unicode="&#x212;" horiz-adv-x="1150" d="M128 0v1443h471q214 0 338.5 -110.5t124.5 -301.5q0 -156 -88.5 -262.5t-245.5 -137.5l371 -631h-93l-361 619q-19 -3 -51 -3h-387v-616h-79zM207 688h387q181 0 284 91t103 250q0 161 -103.5 251.5t-285.5 90.5h-385v-683zM226 1553q0 106 75.5 171t193.5 65t193.5 -65 t75.5 -171h-61q0 77 -58 128t-150 51t-150 -51t-58 -128h-61z" />
<glyph unicode="&#x213;" horiz-adv-x="614" d="M70 1253q0 117 75.5 185t196.5 68t196.5 -68t75.5 -185h-62q0 88 -58 142t-152 54t-152 -54t-58 -142h-62zM119 0v1077h73v-213h3q32 110 106.5 168.5t182.5 58.5q55 0 100 -18v-78q-44 22 -112 22q-125 0 -200 -97t-75 -251v-669h-78z" />
<glyph unicode="&#x214;" horiz-adv-x="1332" d="M128 501v942h79v-939q0 -207 124 -329t336 -122t336 122t124 329v939h79v-942q0 -237 -145.5 -379.5t-393.5 -142.5t-393.5 142.5t-145.5 379.5zM191 1843h92l280 -290h-75zM457 1843h93l280 -290h-75z" />
<glyph unicode="&#x215;" horiz-adv-x="1074" d="M113 378v699h78v-687q0 -157 88 -245.5t238 -88.5q156 0 258 104t102 273v644h78v-1077h-73v235h-3q-36 -110 -140.5 -179.5t-237.5 -69.5q-175 0 -281.5 106t-106.5 286zM130 1555h92l227 -303h-72zM374 1555h92l227 -303h-72z" />
<glyph unicode="&#x216;" horiz-adv-x="1332" d="M128 501v942h79v-939q0 -207 124 -329t336 -122t336 122t124 329v939h79v-942q0 -237 -145.5 -379.5t-393.5 -142.5t-393.5 142.5t-145.5 379.5zM397 1553q0 106 75.5 171t193.5 65t193.5 -65t75.5 -171h-61q0 77 -58 128t-150 51t-150 -51t-58 -128h-61z" />
<glyph unicode="&#x217;" horiz-adv-x="1074" d="M113 378v699h78v-687q0 -157 88 -245.5t238 -88.5q156 0 258 104t102 273v644h78v-1077h-73v235h-3q-36 -110 -140.5 -179.5t-237.5 -69.5q-175 0 -281.5 106t-106.5 286zM262 1252q0 117 75.5 185t196.5 68t196.5 -68t75.5 -185h-62q0 88 -58 142t-152 54t-152 -54 t-58 -142h-62z" />
<glyph unicode="&#x218;" horiz-adv-x="1137" d="M57 385h79q9 -147 134 -240t313 -93q183 0 299.5 92.5t116.5 234.5q0 113 -81 183t-263 116l-171 42q-201 51 -294.5 136.5t-93.5 220.5q0 167 137 277t336 110q203 0 340 -106t144 -266h-79q-8 130 -122.5 214.5t-284.5 84.5q-165 0 -277.5 -88.5t-112.5 -223.5 q0 -107 81 -174t257 -111l161 -41q211 -52 307.5 -138.5t96.5 -229.5q0 -180 -139 -293t-364 -113q-222 0 -366.5 113t-153.5 293zM458 -493l99 344h78l-114 -344h-63z" />
<glyph unicode="&#x219;" horiz-adv-x="923" d="M59 304h78q11 -108 102.5 -179.5t227.5 -71.5q137 0 228 63t91 164q0 84 -57 134.5t-189 81.5l-173 42q-139 33 -206 96.5t-67 166.5q0 127 106.5 208.5t263.5 81.5q162 0 265.5 -88.5t116.5 -235.5h-76q-12 115 -93.5 185.5t-213.5 70.5q-122 0 -207.5 -61.5 t-85.5 -157.5q0 -78 54.5 -124t171.5 -74l167 -41q161 -39 230.5 -104t69.5 -176q0 -133 -112 -216t-286 -83q-171 0 -284 91t-122 227zM345 -493l99 344h78l-114 -344h-63z" />
<glyph unicode="&#x21a;" horiz-adv-x="1138" d="M21 1370v73h1096v-73h-508v-1370h-80v1370h-508zM449 -493l99 344h78l-114 -344h-63z" />
<glyph unicode="&#x21b;" horiz-adv-x="551" d="M21 1009v68h158v277h77v-277h217v-68h-217v-762q0 -96 37 -138t119 -42q67 0 75 2v-69q-12 -2 -85 -2q-118 0 -170.5 57.5t-52.5 189.5v764h-158zM235 -493l99 344h78l-114 -344h-63z" />
<glyph unicode="&#x21e;" horiz-adv-x="1327" d="M128 0v1443h79v-666h913v666h79v-1443h-79v705h-913v-705h-79zM358 1843h83l221 -239h2l221 239h83l-271 -290h-68z" />
<glyph unicode="&#x21f;" horiz-adv-x="1088" d="M-137 1906h83l221 -239h2l221 239h83l-271 -290h-68zM129 0v1506h78v-666h3q38 115 137.5 183t234.5 68q177 0 285 -108.5t108 -288.5v-694h-77v685q0 155 -90 245t-242 90q-159 0 -259 -106t-100 -275v-639h-78z" />
<glyph unicode="&#x226;" horiz-adv-x="1221" d="M21 0l550 1443h80l549 -1443h-85l-180 481h-649l-179 -481h-86zM312 552h598l-297 788h-5zM534 1639q0 31 22.5 53.5t54.5 22.5t54.5 -22.5t22.5 -53.5t-22.5 -53.5t-54.5 -22.5t-54.5 22.5t-22.5 53.5z" />
<glyph unicode="&#x227;" horiz-adv-x="1030" d="M86 290q0 138 97.5 216t287.5 92l369 27v96q0 141 -81.5 220t-226.5 79q-137 0 -224 -67t-106 -189h-75q14 149 125 238t281 89q177 0 280.5 -98t103.5 -267v-726h-75v232h-2q-40 -110 -150 -178t-247 -68q-158 0 -257.5 84.5t-99.5 219.5zM164 290q0 -103 81.5 -169 t207.5 -66q161 0 274 100.5t113 243.5v161l-359 -27q-155 -11 -236 -73t-81 -170zM454 1333q0 31 23 54t55 23t55 -23t23 -54t-23 -54t-55 -23t-55 23t-23 54z" />
<glyph unicode="&#x228;" horiz-adv-x="1068" d="M128 0v1443h841v-73h-762v-594h726v-72h-726v-631h762v-73h-387l-58 -141q96 0 151.5 -41t55.5 -111q0 -75 -60.5 -122.5t-156.5 -47.5q-72 -2 -128 16v56q43 -17 122 -17q68 0 113.5 32t45.5 81q0 50 -41 76t-119 26h-52v43l64 150h-391z" />
<glyph unicode="&#x229;" horiz-adv-x="1062" d="M65 537q0 250 129.5 402t342.5 152q208 0 334 -142.5t126 -377.5v-45h-853v-4q0 -218 109 -342t293 -124q144 0 239.5 68t119.5 177h79q-26 -134 -136 -220.5t-274 -93.5l-53 -128q96 0 151.5 -41t55.5 -111q0 -75 -60.5 -122.5t-156.5 -47.5q-72 -2 -128 16v56 q43 -17 122 -17q68 0 113.5 32t45.5 81q0 50 -41 76t-119 26h-52v43l58 137q-206 12 -325.5 157.5t-119.5 392.5zM145 592h773q-1 191 -106.5 310t-275.5 119q-168 0 -275 -118t-116 -311z" />
<glyph unicode="&#x22a;" d="M67 722q0 340 174 541t469 201t469 -201t174 -541q0 -342 -173.5 -542.5t-469.5 -200.5t-469.5 200.5t-173.5 542.5zM148 722q0 -307 152.5 -488t409.5 -181t409.5 181t152.5 488q0 306 -152.5 487t-409.5 181q-258 0 -410 -181t-152 -487zM420 1862v57h580v-57h-580z M497 1628q0 26 19 44.5t45 18.5q25 0 44 -18.5t19 -44.5t-18.5 -44.5t-44.5 -18.5t-45 18.5t-19 44.5zM796 1628q0 26 19 44.5t44 18.5q26 0 45 -18.5t19 -44.5t-19 -44.5t-45 -18.5t-44.5 18.5t-18.5 44.5z" />
<glyph unicode="&#x22b;" horiz-adv-x="1089" d="M65 538q0 253 131.5 403t347.5 150q217 0 348.5 -150t131.5 -403q0 -252 -132 -402t-348 -150t-347.5 150t-131.5 402zM143 538q0 -222 109.5 -352t291.5 -130t291.5 130.5t109.5 351.5q0 222 -109 352t-292 130t-292 -130t-109 -352zM241 1600v58h596v-58h-596z M326 1320q0 27 19.5 46t46.5 19t46.5 -19t19.5 -46t-19.5 -46t-46.5 -19t-46.5 19t-19.5 46zM630 1320q0 27 19.5 46t46.5 19q28 0 47 -19t19 -46t-19 -46t-47 -19q-27 0 -46.5 19t-19.5 46z" />
<glyph unicode="&#x22c;" d="M67 722q0 340 174 541t469 201t469 -201t174 -541q0 -342 -173.5 -542.5t-469.5 -200.5t-469.5 200.5t-173.5 542.5zM148 722q0 -307 152.5 -488t409.5 -181t409.5 181t152.5 488q0 306 -152.5 487t-409.5 181q-258 0 -410 -181t-152 -487zM420 1862v57h580v-57h-580z M442 1566q0 87 38.5 139t108.5 52q35 0 64 -15.5t49.5 -37.5t39 -44t41 -37.5t47.5 -15.5q85 0 85 132h61q0 -86 -39 -138.5t-107 -52.5q-34 0 -63 15.5t-49 37.5t-38.5 44t-41.5 37.5t-48 15.5q-44 0 -66 -35.5t-22 -96.5h-60z" />
<glyph unicode="&#x22d;" horiz-adv-x="1089" d="M65 538q0 253 131.5 403t347.5 150q217 0 348.5 -150t131.5 -403q0 -252 -132 -402t-348 -150t-347.5 150t-131.5 402zM143 538q0 -222 109.5 -352t291.5 -130t291.5 130.5t109.5 351.5q0 222 -109 352t-292 130t-292 -130t-109 -352zM246 1600v58h596v-58h-596z M266 1247q0 98 38.5 155t111.5 57q36 0 68.5 -17t56 -41t45.5 -48t47 -41t52 -17q89 0 89 154h61q0 -97 -39 -155t-111 -58q-36 0 -67.5 17t-55 41t-45.5 48t-47.5 41t-52.5 17q-91 0 -91 -153h-60z" />
<glyph unicode="&#x22e;" d="M67 722q0 340 174 541t469 201t469 -201t174 -541q0 -342 -173.5 -542.5t-469.5 -200.5t-469.5 200.5t-173.5 542.5zM148 722q0 -307 152.5 -488t409.5 -181t409.5 181t152.5 488q0 306 -152.5 487t-409.5 181q-258 0 -410 -181t-152 -487zM633 1639q0 31 22.5 53.5 t54.5 22.5t54.5 -22.5t22.5 -53.5t-22.5 -53.5t-54.5 -22.5t-54.5 22.5t-22.5 53.5z" />
<glyph unicode="&#x22f;" horiz-adv-x="1089" d="M65 538q0 253 131.5 403t347.5 150q217 0 348.5 -150t131.5 -403q0 -252 -132 -402t-348 -150t-347.5 150t-131.5 402zM143 538q0 -222 109.5 -352t291.5 -130t291.5 130.5t109.5 351.5q0 222 -109 352t-292 130t-292 -130t-109 -352zM466 1332q0 31 23 54t55 23t55 -23 t23 -54t-23 -54t-55 -23t-55 23t-23 54z" />
<glyph unicode="&#x230;" d="M67 722q0 340 174 541t469 201t469 -201t174 -541q0 -342 -173.5 -542.5t-469.5 -200.5t-469.5 200.5t-173.5 542.5zM148 722q0 -307 152.5 -488t409.5 -181t409.5 181t152.5 488q0 306 -152.5 487t-409.5 181q-258 0 -410 -181t-152 -487zM420 1862v57h580v-57h-580z M634 1635q0 31 22.5 53t53.5 22t53.5 -22t22.5 -53t-22.5 -53t-53.5 -22t-53.5 22t-22.5 53z" />
<glyph unicode="&#x2c6;" horiz-adv-x="758" d="M80 1253l268 303h62l268 -303h-80l-217 249h-3l-217 -249h-81z" />
<glyph unicode="&#x2da;" horiz-adv-x="770" d="M213 1408q0 71 50.5 122t121.5 51t121.5 -51t50.5 -122t-50.5 -122t-121.5 -51t-121.5 51t-50.5 122zM261 1408q0 -52 36 -88.5t88 -36.5t88 36.5t36 88.5t-36 88.5t-88 36.5t-88 -36.5t-36 -88.5z" />
<glyph unicode="&#x2dc;" horiz-adv-x="758" d="M95 1266q0 98 38.5 155t111.5 57q36 0 68.5 -17t56 -41t45.5 -48t47.5 -41t51.5 -17q89 0 89 154h61q0 -97 -39 -155t-111 -58q-36 0 -67.5 17t-55 41t-45.5 48t-47.5 41t-52.5 17q-91 0 -91 -153h-60z" />
<glyph unicode="&#x1e00;" horiz-adv-x="1221" d="M21 0l550 1443h80l549 -1443h-85l-180 481h-649l-179 -481h-86zM312 552h598l-297 788h-5zM439 -319q0 71 50.5 122t121.5 51t121.5 -51t50.5 -122t-50.5 -122t-121.5 -51t-121.5 51t-50.5 122zM487 -319q0 -52 36 -88.5t88 -36.5t88 36.5t36 88.5t-36 88.5t-88 36.5 t-88 -36.5t-36 -88.5z" />
<glyph unicode="&#x1e01;" horiz-adv-x="1030" d="M86 290q0 138 97.5 216t287.5 92l369 27v96q0 141 -81.5 220t-226.5 79q-137 0 -224 -67t-106 -189h-75q14 149 125 238t281 89q177 0 280.5 -98t103.5 -267v-726h-75v232h-2q-40 -110 -150 -178t-247 -68q-158 0 -257.5 84.5t-99.5 219.5zM164 290q0 -103 81.5 -169 t207.5 -66q161 0 274 100.5t113 243.5v161l-359 -27q-155 -11 -236 -73t-81 -170zM346 -319q0 71 50.5 122t121.5 51t121.5 -51t50.5 -122t-50.5 -122t-121.5 -51t-121.5 51t-50.5 122zM394 -319q0 -52 36 -88.5t88 -36.5t88 36.5t36 88.5t-36 88.5t-88 36.5t-88 -36.5 t-36 -88.5z" />
<glyph unicode="&#x1e02;" horiz-adv-x="1165" d="M128 0v1443h486q188 0 304.5 -97t116.5 -254q0 -129 -77.5 -221t-206.5 -117v-6q158 -17 259 -114t101 -249q0 -178 -130 -281.5t-356 -103.5h-497zM207 72h410q194 0 304 84.5t110 230.5q0 150 -115 235t-320 85h-389v-635zM207 778h376q170 0 271 83t101 225 q0 130 -96 207.5t-257 77.5h-395v-593zM439 1639q0 31 22.5 53.5t54.5 22.5t54.5 -22.5t22.5 -53.5t-22.5 -53.5t-54.5 -22.5t-54.5 22.5t-22.5 53.5z" />
<glyph unicode="&#x1e03;" horiz-adv-x="1129" d="M91 1702q0 31 22.5 53.5t54.5 22.5t54.5 -22.5t22.5 -53.5t-22.5 -53.5t-54.5 -22.5t-54.5 22.5t-22.5 53.5zM129 0v1506h78v-713h3q40 136 148.5 217t252.5 81q201 0 327 -153t126 -399t-126 -399.5t-327 -153.5q-144 0 -253 81.5t-151 220.5h-3v-288h-75zM207 538 q0 -212 109.5 -347t282.5 -135t279.5 133.5t106.5 349.5q0 215 -106.5 348t-278.5 133q-173 0 -283 -135t-110 -347z" />
<glyph unicode="&#x1e04;" horiz-adv-x="1165" d="M128 0v1443h486q188 0 304.5 -97t116.5 -254q0 -129 -77.5 -221t-206.5 -117v-6q158 -17 259 -114t101 -249q0 -178 -130 -281.5t-356 -103.5h-497zM207 72h410q194 0 304 84.5t110 230.5q0 150 -115 235t-320 85h-389v-635zM207 778h376q170 0 271 83t101 225 q0 130 -96 207.5t-257 77.5h-395v-593zM439 -219q0 31 22.5 53.5t54.5 22.5t54.5 -22.5t22.5 -53.5t-22.5 -53.5t-54.5 -22.5t-54.5 22.5t-22.5 53.5z" />
<glyph unicode="&#x1e05;" horiz-adv-x="1129" d="M129 0v1506h78v-713h3q40 136 148.5 217t252.5 81q201 0 327 -153t126 -399t-126 -399.5t-327 -153.5q-144 0 -253 81.5t-151 220.5h-3v-288h-75zM207 538q0 -212 109.5 -347t282.5 -135t279.5 133.5t106.5 349.5q0 215 -106.5 348t-278.5 133q-173 0 -283 -135 t-110 -347zM523 -219q0 31 22.5 53.5t54.5 22.5t54.5 -22.5t22.5 -53.5t-22.5 -53.5t-54.5 -22.5t-54.5 22.5t-22.5 53.5z" />
<glyph unicode="&#x1e06;" horiz-adv-x="1165" d="M128 0v1443h486q188 0 304.5 -97t116.5 -254q0 -129 -77.5 -221t-206.5 -117v-6q158 -17 259 -114t101 -249q0 -178 -130 -281.5t-356 -103.5h-497zM207 72h410q194 0 304 84.5t110 230.5q0 150 -115 235t-320 85h-389v-635zM207 778h376q170 0 271 83t101 225 q0 130 -96 207.5t-257 77.5h-395v-593zM226 -205h580v-57h-580v57z" />
<glyph unicode="&#x1e07;" horiz-adv-x="1129" d="M129 0v1506h78v-713h3q40 136 148.5 217t252.5 81q201 0 327 -153t126 -399t-126 -399.5t-327 -153.5q-144 0 -253 81.5t-151 220.5h-3v-288h-75zM207 538q0 -212 109.5 -347t282.5 -135t279.5 133.5t106.5 349.5q0 215 -106.5 348t-278.5 133q-173 0 -283 -135 t-110 -347zM310 -205h580v-57h-580v57z" />
<glyph unicode="&#x1e08;" horiz-adv-x="1326" d="M67 730q0 337 172 535.5t463 198.5q220 0 382 -138.5t185 -344.5h-79q-23 174 -162.5 291.5t-325.5 117.5q-254 0 -404 -178t-150 -482q0 -310 150.5 -493.5t403.5 -183.5q192 0 328.5 105.5t159.5 277.5h79q-24 -199 -172.5 -324t-368.5 -133l-50 -120q96 0 151.5 -41 t55.5 -111q0 -75 -60.5 -122.5t-156.5 -47.5q-72 -2 -128 16v56q43 -17 122 -17q68 0 113.5 32t45.5 81q0 50 -41 76t-119 26h-52v43l55 130q-274 14 -435.5 216t-161.5 534zM656 1554l279 290h96l-297 -290h-78z" />
<glyph unicode="&#x1e09;" horiz-adv-x="1028" d="M65 538q0 253 129 403t345 150q170 0 287.5 -96t142.5 -242h-77q-24 118 -119.5 192.5t-233.5 74.5q-181 0 -288.5 -130.5t-107.5 -351.5t107.5 -351.5t289.5 -130.5q137 0 232 71t119 188h78q-24 -141 -132.5 -231t-267.5 -97l-53 -128q96 0 151.5 -41t55.5 -111 q0 -75 -60.5 -122.5t-156.5 -47.5q-72 -2 -128 16v56q43 -17 122 -17q68 0 113.5 32t45.5 81q0 50 -41 76t-119 26h-52v43l58 137q-202 12 -321 160t-119 391zM485 1253l230 303h93l-249 -303h-74z" />
<glyph unicode="&#x1e0a;" horiz-adv-x="1332" d="M128 0v1443h449q328 0 508 -189t180 -532q0 -344 -180 -533t-508 -189h-449zM208 73h365q295 0 453.5 168.5t158.5 479.5q0 313 -159 481t-453 168h-365v-1297zM475 1639q0 31 22.5 53.5t54.5 22.5t54.5 -22.5t22.5 -53.5t-22.5 -53.5t-54.5 -22.5t-54.5 22.5t-22.5 53.5 z" />
<glyph unicode="&#x1e0b;" horiz-adv-x="1136" d="M65 538q0 246 128.5 399.5t330.5 153.5q146 0 256 -84.5t147 -213.5h2v713h78v-1506h-73v290h-3q-38 -134 -148.5 -219t-257.5 -85q-203 0 -331.5 153.5t-128.5 398.5zM144 539q0 -215 108.5 -349t281.5 -134q174 0 285 135t111 347q0 213 -111 347.5t-285 134.5 q-173 0 -281.5 -133t-108.5 -348zM891 1702q0 31 22.5 53.5t54.5 22.5t54.5 -22.5t22.5 -53.5t-22.5 -53.5t-54.5 -22.5t-54.5 22.5t-22.5 53.5z" />
<glyph unicode="&#x1e0c;" horiz-adv-x="1332" d="M128 0v1443h449q328 0 508 -189t180 -532q0 -344 -180 -533t-508 -189h-449zM208 73h365q295 0 453.5 168.5t158.5 479.5q0 313 -159 481t-453 168h-365v-1297zM475 -219q0 31 22.5 53.5t54.5 22.5t54.5 -22.5t22.5 -53.5t-22.5 -53.5t-54.5 -22.5t-54.5 22.5t-22.5 53.5 z" />
<glyph unicode="&#x1e0d;" horiz-adv-x="1136" d="M65 538q0 246 128.5 399.5t330.5 153.5q146 0 256 -84.5t147 -213.5h2v713h78v-1506h-73v290h-3q-38 -134 -148.5 -219t-257.5 -85q-203 0 -331.5 153.5t-128.5 398.5zM144 539q0 -215 108.5 -349t281.5 -134q174 0 285 135t111 347q0 213 -111 347.5t-285 134.5 q-173 0 -281.5 -133t-108.5 -348zM469 -219q0 31 22.5 53.5t54.5 22.5t54.5 -22.5t22.5 -53.5t-22.5 -53.5t-54.5 -22.5t-54.5 22.5t-22.5 53.5z" />
<glyph unicode="&#x1e0e;" horiz-adv-x="1332" d="M128 0v1443h449q328 0 508 -189t180 -532q0 -344 -180 -533t-508 -189h-449zM208 73h365q295 0 453.5 168.5t158.5 479.5q0 313 -159 481t-453 168h-365v-1297zM262 -205h580v-57h-580v57z" />
<glyph unicode="&#x1e0f;" horiz-adv-x="1136" d="M65 538q0 246 128.5 399.5t330.5 153.5q146 0 256 -84.5t147 -213.5h2v713h78v-1506h-73v290h-3q-38 -134 -148.5 -219t-257.5 -85q-203 0 -331.5 153.5t-128.5 398.5zM144 539q0 -215 108.5 -349t281.5 -134q174 0 285 135t111 347q0 213 -111 347.5t-285 134.5 q-173 0 -281.5 -133t-108.5 -348zM256 -205h580v-57h-580v57z" />
<glyph unicode="&#x1e10;" horiz-adv-x="1332" d="M128 0v1443h449q328 0 508 -189t180 -532q0 -344 -180 -533t-508 -189h-449zM208 73h365q295 0 453.5 168.5t158.5 479.5q0 313 -159 481t-453 168h-365v-1297zM432 -493l99 344h78l-114 -344h-63z" />
<glyph unicode="&#x1e11;" horiz-adv-x="1136" d="M65 538q0 246 128.5 399.5t330.5 153.5q146 0 256 -84.5t147 -213.5h2v713h78v-1506h-73v290h-3q-38 -134 -148.5 -219t-257.5 -85q-203 0 -331.5 153.5t-128.5 398.5zM144 539q0 -215 108.5 -349t281.5 -134q174 0 285 135t111 347q0 213 -111 347.5t-285 134.5 q-173 0 -281.5 -133t-108.5 -348zM426 -493l99 344h78l-114 -344h-63z" />
<glyph unicode="&#x1e12;" horiz-adv-x="1332" d="M128 0v1443h449q328 0 508 -189t180 -532q0 -344 -180 -533t-508 -189h-449zM208 73h365q295 0 453.5 168.5t158.5 479.5q0 313 -159 481t-453 168h-365v-1297zM247 -437l271 290h68l271 -290h-83l-221 238h-2l-221 -238h-83z" />
<glyph unicode="&#x1e13;" horiz-adv-x="1136" d="M65 538q0 246 128.5 399.5t330.5 153.5q146 0 256 -84.5t147 -213.5h2v713h78v-1506h-73v290h-3q-38 -134 -148.5 -219t-257.5 -85q-203 0 -331.5 153.5t-128.5 398.5zM144 539q0 -215 108.5 -349t281.5 -134q174 0 285 135t111 347q0 213 -111 347.5t-285 134.5 q-173 0 -281.5 -133t-108.5 -348zM241 -437l271 290h68l271 -290h-83l-221 238h-2l-221 -238h-83z" />
<glyph unicode="&#x1e14;" horiz-adv-x="1068" d="M128 0v1443h841v-73h-762v-594h726v-72h-726v-631h762v-73h-841zM258 1622v57h580v-57h-580zM299 1979h91l207 -203h-74z" />
<glyph unicode="&#x1e15;" horiz-adv-x="1062" d="M65 537q0 250 129.5 402t342.5 152q208 0 334 -142.5t126 -377.5v-45h-853v-4q0 -218 109 -342t293 -124q144 0 239.5 68t119.5 177h79q-27 -139 -145.5 -227t-293.5 -88q-221 0 -350.5 146.5t-129.5 404.5zM145 592h773q-1 191 -106.5 310t-275.5 119q-168 0 -275 -118 t-116 -311zM234 1308v58h596v-58h-596zM276 1821h89l229 -295h-74z" />
<glyph unicode="&#x1e16;" horiz-adv-x="1068" d="M128 0v1443h841v-73h-762v-594h726v-72h-726v-631h762v-73h-841zM258 1622v57h580v-57h-580zM499 1776l207 203h91l-224 -203h-74z" />
<glyph unicode="&#x1e17;" horiz-adv-x="1062" d="M65 537q0 250 129.5 402t342.5 152q208 0 334 -142.5t126 -377.5v-45h-853v-4q0 -218 109 -342t293 -124q144 0 239.5 68t119.5 177h79q-27 -139 -145.5 -227t-293.5 -88q-221 0 -350.5 146.5t-129.5 404.5zM145 592h773q-1 191 -106.5 310t-275.5 119q-168 0 -275 -118 t-116 -311zM234 1308v58h596v-58h-596zM480 1526l229 295h89l-244 -295h-74z" />
<glyph unicode="&#x1e18;" horiz-adv-x="1068" d="M128 0v1443h841v-73h-762v-594h726v-72h-726v-631h762v-73h-841zM243 -437l271 290h68l271 -290h-83l-221 238h-2l-221 -238h-83z" />
<glyph unicode="&#x1e19;" horiz-adv-x="1062" d="M65 537q0 250 129.5 402t342.5 152q208 0 334 -142.5t126 -377.5v-45h-853v-4q0 -218 109 -342t293 -124q144 0 239.5 68t119.5 177h79q-27 -139 -145.5 -227t-293.5 -88q-221 0 -350.5 146.5t-129.5 404.5zM145 592h773q-1 191 -106.5 310t-275.5 119q-168 0 -275 -118 t-116 -311zM240 -437l271 290h68l271 -290h-83l-221 238h-2l-221 -238h-83z" />
<glyph unicode="&#x1e1a;" horiz-adv-x="1068" d="M128 0v1443h841v-73h-762v-594h726v-72h-726v-631h762v-73h-841zM264 -355q0 98 38.5 155t111.5 57q36 0 68.5 -17t56 -41t45.5 -48t47.5 -41t51.5 -17q89 0 89 154h61q0 -97 -39 -155t-111 -58q-36 0 -67.5 17t-55 41t-45.5 48t-47.5 41t-52.5 17q-91 0 -91 -153h-60z " />
<glyph unicode="&#x1e1b;" horiz-adv-x="1062" d="M65 537q0 250 129.5 402t342.5 152q208 0 334 -142.5t126 -377.5v-45h-853v-4q0 -218 109 -342t293 -124q144 0 239.5 68t119.5 177h79q-27 -139 -145.5 -227t-293.5 -88q-221 0 -350.5 146.5t-129.5 404.5zM145 592h773q-1 191 -106.5 310t-275.5 119q-168 0 -275 -118 t-116 -311zM261 -355q0 98 38.5 155t111.5 57q36 0 68.5 -17t56 -41t45.5 -48t47.5 -41t51.5 -17q89 0 89 154h61q0 -97 -39 -155t-111 -58q-36 0 -67.5 17t-55 41t-45.5 48t-47.5 41t-52.5 17q-91 0 -91 -153h-60z" />
<glyph unicode="&#x1e1c;" horiz-adv-x="1068" d="M128 0v1443h841v-73h-762v-594h726v-72h-726v-631h762v-73h-387l-58 -141q96 0 151.5 -41t55.5 -111q0 -75 -60.5 -122.5t-156.5 -47.5q-72 -2 -128 16v56q43 -17 122 -17q68 0 113.5 32t45.5 81q0 50 -41 76t-119 26h-52v43l64 150h-391zM279 1789h61q0 -77 58 -128.5 t150 -51.5t150 51.5t58 128.5h61q0 -107 -75.5 -171.5t-193.5 -64.5t-193.5 64.5t-75.5 171.5z" />
<glyph unicode="&#x1e1d;" horiz-adv-x="1062" d="M65 537q0 250 129.5 402t342.5 152q208 0 334 -142.5t126 -377.5v-45h-853v-4q0 -218 109 -342t293 -124q144 0 239.5 68t119.5 177h79q-26 -134 -136 -220.5t-274 -93.5l-53 -128q96 0 151.5 -41t55.5 -111q0 -75 -60.5 -122.5t-156.5 -47.5q-72 -2 -128 16v56 q43 -17 122 -17q68 0 113.5 32t45.5 81q0 50 -41 76t-119 26h-52v43l58 137q-206 12 -325.5 157.5t-119.5 392.5zM145 592h773q-1 191 -106.5 310t-275.5 119q-168 0 -275 -118t-116 -311zM265 1503h62q0 -88 58 -142t152 -54t152 54t58 142h62q0 -117 -75.5 -185 t-196.5 -68t-196.5 68t-75.5 185z" />
<glyph unicode="&#x1e1e;" horiz-adv-x="1033" d="M128 0v1443h830v-73h-751v-603h691v-72h-691v-695h-79zM466 1639q0 31 22.5 53.5t54.5 22.5t54.5 -22.5t22.5 -53.5t-22.5 -53.5t-54.5 -22.5t-54.5 22.5t-22.5 53.5z" />
<glyph unicode="&#x1e1f;" horiz-adv-x="536" d="M21 1009v68h150v153q0 250 238 250q49 0 79 -9v-68q-33 9 -75 9q-80 0 -122 -44t-42 -143v-148h231v-68h-231v-1009h-78v1009h-150zM242 1665q0 31 22.5 53.5t54.5 22.5t54.5 -22.5t22.5 -53.5t-22.5 -53.5t-54.5 -22.5t-54.5 22.5t-22.5 53.5z" />
<glyph unicode="&#x1e20;" horiz-adv-x="1358" d="M67 730q0 331 173.5 532.5t458.5 201.5q217 0 374.5 -120t198.5 -317h-81q-43 166 -176.5 264.5t-315.5 98.5q-250 0 -400.5 -180t-150.5 -479q0 -304 152 -491t399 -187q232 0 367.5 136.5t135.5 369.5v83h-503v72h582v-143q0 -276 -155.5 -434t-426.5 -158 q-186 0 -330 94t-223 264.5t-79 392.5zM409 1622v57h580v-57h-580z" />
<glyph unicode="&#x1e21;" horiz-adv-x="1119" d="M65 539q0 247 126.5 399.5t329.5 152.5q145 0 254.5 -85t148.5 -217h3v288h73v-1070q0 -172 -125 -270t-330 -98q-170 0 -283 68t-135 180h81q21 -80 113 -129.5t229 -49.5q167 0 269.5 79t102.5 215v285h-2q-37 -130 -146 -214.5t-254 -84.5q-203 0 -329 152.5 t-126 398.5zM144 539q0 -214 106.5 -347t278.5 -133q174 0 283.5 134t109.5 346q0 213 -109.5 347t-283.5 134q-172 0 -278.5 -133t-106.5 -348zM255 1308v58h596v-58h-596z" />
<glyph unicode="&#x1e22;" horiz-adv-x="1327" d="M128 0v1443h79v-666h913v666h79v-1443h-79v705h-913v-705h-79zM586 1639q0 31 22.5 53.5t54.5 22.5t54.5 -22.5t22.5 -53.5t-22.5 -53.5t-54.5 -22.5t-54.5 22.5t-22.5 53.5z" />
<glyph unicode="&#x1e23;" horiz-adv-x="1088" d="M91 1702q0 31 22.5 53.5t54.5 22.5t54.5 -22.5t22.5 -53.5t-22.5 -53.5t-54.5 -22.5t-54.5 22.5t-22.5 53.5zM129 0v1506h78v-666h3q38 115 137.5 183t234.5 68q177 0 285 -108.5t108 -288.5v-694h-77v685q0 155 -90 245t-242 90q-159 0 -259 -106t-100 -275v-639h-78z " />
<glyph unicode="&#x1e24;" horiz-adv-x="1327" d="M128 0v1443h79v-666h913v666h79v-1443h-79v705h-913v-705h-79zM586 -219q0 31 22.5 53.5t54.5 22.5t54.5 -22.5t22.5 -53.5t-22.5 -53.5t-54.5 -22.5t-54.5 22.5t-22.5 53.5z" />
<glyph unicode="&#x1e25;" horiz-adv-x="1088" d="M129 0v1506h78v-666h3q38 115 137.5 183t234.5 68q177 0 285 -108.5t108 -288.5v-694h-77v685q0 155 -90 245t-242 90q-159 0 -259 -106t-100 -275v-639h-78zM474 -219q0 31 22.5 53.5t54.5 22.5t54.5 -22.5t22.5 -53.5t-22.5 -53.5t-54.5 -22.5t-54.5 22.5t-22.5 53.5z " />
<glyph unicode="&#x1e26;" horiz-adv-x="1327" d="M128 0v1443h79v-666h913v666h79v-1443h-79v705h-913v-705h-79zM443 1630q0 27 20 46.5t48 19.5q27 0 47 -19.5t20 -46.5q0 -28 -20 -47.5t-47 -19.5q-28 0 -48 19.5t-20 47.5zM748 1630q0 27 20 46.5t47 19.5q28 0 48 -19.5t20 -46.5q0 -28 -20 -47.5t-48 -19.5 q-27 0 -47 19.5t-20 47.5z" />
<glyph unicode="&#x1e27;" horiz-adv-x="1088" d="M-52 1693q0 27 20 46.5t48 19.5q27 0 47 -19.5t20 -46.5q0 -28 -20 -47.5t-47 -19.5q-28 0 -48 19.5t-20 47.5zM129 0v1506h78v-666h3q38 115 137.5 183t234.5 68q177 0 285 -108.5t108 -288.5v-694h-77v685q0 155 -90 245t-242 90q-159 0 -259 -106t-100 -275v-639h-78z M253 1693q0 27 20 46.5t47 19.5q28 0 48 -19.5t20 -46.5q0 -28 -20 -47.5t-48 -19.5q-27 0 -47 19.5t-20 47.5z" />
<glyph unicode="&#x1e28;" horiz-adv-x="1327" d="M5 -391q43 -17 122 -17q68 0 113.5 32t45.5 81q0 50 -41 76t-119 26h-52v43l64 150h-10v1443h79v-666h913v666h79v-1443h-79v705h-913v-705h-6l-58 -141q96 0 151.5 -41t55.5 -111q0 -75 -60.5 -122.5t-156.5 -47.5q-72 -2 -128 16v56z" />
<glyph unicode="&#x1e29;" horiz-adv-x="1088" d="M6 -391q43 -17 122 -17q68 0 113.5 32t45.5 81q0 50 -41 76t-119 26h-52v43l64 150h-10v1506h78v-666h3q38 115 137.5 183t234.5 68q177 0 285 -108.5t108 -288.5v-694h-77v685q0 155 -90 245t-242 90q-159 0 -259 -106t-100 -275v-639h-5l-58 -141q96 0 151.5 -41 t55.5 -111q0 -75 -60.5 -122.5t-156.5 -47.5q-72 -2 -128 16v56z" />
<glyph unicode="&#x1e2a;" horiz-adv-x="1327" d="M128 0v1443h79v-666h913v666h79v-1443h-79v705h-913v-705h-79zM394 -155h61q0 -77 58 -128.5t150 -51.5t150 51.5t58 128.5h61q0 -107 -75.5 -171.5t-193.5 -64.5t-193.5 64.5t-75.5 171.5z" />
<glyph unicode="&#x1e2b;" horiz-adv-x="1088" d="M129 0v1506h78v-666h3q38 115 137.5 183t234.5 68q177 0 285 -108.5t108 -288.5v-694h-77v685q0 155 -90 245t-242 90q-159 0 -259 -106t-100 -275v-639h-78zM282 -155h61q0 -77 58 -128.5t150 -51.5t150 51.5t58 128.5h61q0 -107 -75.5 -171.5t-193.5 -64.5t-193.5 64.5 t-75.5 171.5z" />
<glyph unicode="&#x1e2c;" horiz-adv-x="335" d="M-117 -355q0 98 38.5 155t111.5 57q36 0 68.5 -17t56 -41t45.5 -48t47.5 -41t51.5 -17q89 0 89 154h61q0 -97 -39 -155t-111 -58q-36 0 -67.5 17t-55 41t-45.5 48t-47.5 41t-52.5 17q-91 0 -91 -153h-60zM128 0v1443h79v-1443h-79z" />
<glyph unicode="&#x1e2d;" horiz-adv-x="336" d="M-116 -355q0 98 38.5 155t111.5 57q36 0 68.5 -17t56 -41t45.5 -48t47.5 -41t51.5 -17q89 0 89 154h61q0 -97 -39 -155t-111 -58q-36 0 -67.5 17t-55 41t-45.5 48t-47.5 41t-52.5 17q-91 0 -91 -153h-60zM106 1402q0 26 18 44t44 18t44.5 -18t18.5 -44q0 -25 -18.5 -43 t-44.5 -18t-44 18t-18 43zM129 0v1077h78v-1077h-78z" />
<glyph unicode="&#x1e2e;" horiz-adv-x="335" d="M-46 1628q0 26 19 44.5t45 18.5t44.5 -18.5t18.5 -44.5t-18.5 -44.5t-44.5 -18.5t-45 18.5t-19 44.5zM118 1776l207 203h91l-224 -203h-74zM128 0v1443h79v-1443h-79zM253 1628q0 26 18.5 44.5t44.5 18.5t45 -18.5t19 -44.5t-19 -44.5t-45 -18.5t-44.5 18.5t-18.5 44.5z " />
<glyph unicode="&#x1e2f;" horiz-adv-x="336" d="M-52 1323q0 27 20 46.5t48 19.5q27 0 47 -19.5t20 -46.5q0 -28 -20 -47.5t-47 -19.5q-28 0 -48 19.5t-20 47.5zM121 1530l222 284h93l-240 -284h-75zM129 0v1077h78v-1077h-78zM253 1323q0 27 20 46.5t47 19.5q28 0 48 -19.5t20 -46.5q0 -28 -20 -47.5t-48 -19.5 q-27 0 -47 19.5t-20 47.5z" />
<glyph unicode="&#x1e30;" horiz-adv-x="1142" d="M128 0v1443h79v-806h6l750 806h101l-594 -636l660 -807h-101l-615 751l-207 -223v-528h-79zM498 1553l279 290h96l-297 -290h-78z" />
<glyph unicode="&#x1e31;" horiz-adv-x="938" d="M122 1616l279 290h96l-297 -290h-78zM129 0v1506h78v-982h1l609 553h102l-507 -464l511 -613h-95l-474 565l-147 -132v-433h-78z" />
<glyph unicode="&#x1e32;" horiz-adv-x="1142" d="M128 0v1443h79v-806h6l750 806h101l-594 -636l660 -807h-101l-615 751l-207 -223v-528h-79zM467 -219q0 31 22.5 53.5t54.5 22.5t54.5 -22.5t22.5 -53.5t-22.5 -53.5t-54.5 -22.5t-54.5 22.5t-22.5 53.5z" />
<glyph unicode="&#x1e33;" horiz-adv-x="938" d="M129 0v1506h78v-982h1l609 553h102l-507 -464l511 -613h-95l-474 565l-147 -132v-433h-78zM410 -219q0 31 22.5 53.5t54.5 22.5t54.5 -22.5t22.5 -53.5t-22.5 -53.5t-54.5 -22.5t-54.5 22.5t-22.5 53.5z" />
<glyph unicode="&#x1e34;" horiz-adv-x="1142" d="M128 0v1443h79v-806h6l750 806h101l-594 -636l660 -807h-101l-615 751l-207 -223v-528h-79zM254 -205h580v-57h-580v57z" />
<glyph unicode="&#x1e35;" horiz-adv-x="938" d="M129 0v1506h78v-982h1l609 553h102l-507 -464l511 -613h-95l-474 565l-147 -132v-433h-78zM197 -205h580v-57h-580v57z" />
<glyph unicode="&#x1e36;" horiz-adv-x="1024" d="M128 0v1443h79v-1370h757v-73h-836zM469 -219q0 31 22.5 53.5t54.5 22.5t54.5 -22.5t22.5 -53.5t-22.5 -53.5t-54.5 -22.5t-54.5 22.5t-22.5 53.5z" />
<glyph unicode="&#x1e37;" horiz-adv-x="336" d="M91 -219q0 31 22.5 53.5t54.5 22.5t54.5 -22.5t22.5 -53.5t-22.5 -53.5t-54.5 -22.5t-54.5 22.5t-22.5 53.5zM129 0v1506h78v-1506h-78z" />
<glyph unicode="&#x1e38;" horiz-adv-x="1024" d="M-123 1622v57h580v-57h-580zM128 0v1443h79v-1370h757v-73h-836zM469 -219q0 31 22.5 53.5t54.5 22.5t54.5 -22.5t22.5 -53.5t-22.5 -53.5t-54.5 -22.5t-54.5 22.5t-22.5 53.5z" />
<glyph unicode="&#x1e39;" horiz-adv-x="336" d="M-122 1685v57h580v-57h-580zM91 -219q0 31 22.5 53.5t54.5 22.5t54.5 -22.5t22.5 -53.5t-22.5 -53.5t-54.5 -22.5t-54.5 22.5t-22.5 53.5zM129 0v1506h78v-1506h-78z" />
<glyph unicode="&#x1e3a;" horiz-adv-x="1024" d="M128 0v1443h79v-1370h757v-73h-836zM256 -205h580v-57h-580v57z" />
<glyph unicode="&#x1e3b;" horiz-adv-x="336" d="M-122 -205h580v-57h-580v57zM129 0v1506h78v-1506h-78z" />
<glyph unicode="&#x1e3c;" horiz-adv-x="1024" d="M128 0v1443h79v-1370h757v-73h-836zM241 -437l271 290h68l271 -290h-83l-221 238h-2l-221 -238h-83z" />
<glyph unicode="&#x1e3d;" horiz-adv-x="336" d="M-137 -437l271 290h68l271 -290h-83l-221 238h-2l-221 -238h-83zM129 0v1506h78v-1506h-78z" />
<glyph unicode="&#x1e3e;" horiz-adv-x="1604" d="M128 0v1443h88l583 -1340h6l581 1340h90v-1443h-76v1279h-4l-556 -1276h-76l-556 1276h-4v-1279h-76zM757 1553l279 290h96l-297 -290h-78z" />
<glyph unicode="&#x1e3f;" horiz-adv-x="1645" d="M119 0v1077h73v-237h3q31 112 116 181.5t208 69.5q124 0 211 -72.5t113 -183.5h2q30 109 122.5 182.5t219.5 73.5q156 0 250.5 -100t94.5 -267v-724h-78v707q0 146 -75.5 229.5t-208.5 83.5q-136 0 -221 -98t-85 -255v-667h-77v710q0 139 -79 224.5t-203 85.5 q-137 0 -222.5 -104t-85.5 -275v-641h-78zM772 1253l230 303h93l-249 -303h-74z" />
<glyph unicode="&#x1e40;" horiz-adv-x="1604" d="M128 0v1443h88l583 -1340h6l581 1340h90v-1443h-76v1279h-4l-556 -1276h-76l-556 1276h-4v-1279h-76zM726 1639q0 31 22.5 53.5t54.5 22.5t54.5 -22.5t22.5 -53.5t-22.5 -53.5t-54.5 -22.5t-54.5 22.5t-22.5 53.5z" />
<glyph unicode="&#x1e41;" horiz-adv-x="1645" d="M119 0v1077h73v-237h3q31 112 116 181.5t208 69.5q124 0 211 -72.5t113 -183.5h2q30 109 122.5 182.5t219.5 73.5q156 0 250.5 -100t94.5 -267v-724h-78v707q0 146 -75.5 229.5t-208.5 83.5q-136 0 -221 -98t-85 -255v-667h-77v710q0 139 -79 224.5t-203 85.5 q-137 0 -222.5 -104t-85.5 -275v-641h-78zM748 1333q0 31 23 54t55 23t55 -23t23 -54t-23 -54t-55 -23t-55 23t-23 54z" />
<glyph unicode="&#x1e42;" horiz-adv-x="1604" d="M128 0v1443h88l583 -1340h6l581 1340h90v-1443h-76v1279h-4l-556 -1276h-76l-556 1276h-4v-1279h-76zM726 -219q0 31 22.5 53.5t54.5 22.5t54.5 -22.5t22.5 -53.5t-22.5 -53.5t-54.5 -22.5t-54.5 22.5t-22.5 53.5z" />
<glyph unicode="&#x1e43;" horiz-adv-x="1645" d="M119 0v1077h73v-237h3q31 112 116 181.5t208 69.5q124 0 211 -72.5t113 -183.5h2q30 109 122.5 182.5t219.5 73.5q156 0 250.5 -100t94.5 -267v-724h-78v707q0 146 -75.5 229.5t-208.5 83.5q-136 0 -221 -98t-85 -255v-667h-77v710q0 139 -79 224.5t-203 85.5 q-137 0 -222.5 -104t-85.5 -275v-641h-78zM749 -219q0 31 22.5 53.5t54.5 22.5t54.5 -22.5t22.5 -53.5t-22.5 -53.5t-54.5 -22.5t-54.5 22.5t-22.5 53.5z" />
<glyph unicode="&#x1e44;" horiz-adv-x="1341" d="M128 0v1443h82l919 -1299h6v1299h79v-1443h-75l-927 1307h-6v-1307h-78zM594 1639q0 31 22.5 53.5t54.5 22.5t54.5 -22.5t22.5 -53.5t-22.5 -53.5t-54.5 -22.5t-54.5 22.5t-22.5 53.5z" />
<glyph unicode="&#x1e45;" horiz-adv-x="1074" d="M119 0v1077h73v-237h3q38 115 137 183t235 68q178 0 286 -107.5t108 -288.5v-695h-78v686q0 155 -90.5 244.5t-242.5 89.5q-158 0 -255.5 -105.5t-97.5 -273.5v-641h-78zM465 1333q0 31 23 54t55 23t55 -23t23 -54t-23 -54t-55 -23t-55 23t-23 54z" />
<glyph unicode="&#x1e46;" horiz-adv-x="1341" d="M128 0v1443h82l919 -1299h6v1299h79v-1443h-75l-927 1307h-6v-1307h-78zM594 -219q0 31 22.5 53.5t54.5 22.5t54.5 -22.5t22.5 -53.5t-22.5 -53.5t-54.5 -22.5t-54.5 22.5t-22.5 53.5z" />
<glyph unicode="&#x1e47;" horiz-adv-x="1074" d="M119 0v1077h73v-237h3q38 115 137 183t235 68q178 0 286 -107.5t108 -288.5v-695h-78v686q0 155 -90.5 244.5t-242.5 89.5q-158 0 -255.5 -105.5t-97.5 -273.5v-641h-78zM454 -219q0 31 22.5 53.5t54.5 22.5t54.5 -22.5t22.5 -53.5t-22.5 -53.5t-54.5 -22.5t-54.5 22.5 t-22.5 53.5z" />
<glyph unicode="&#x1e48;" horiz-adv-x="1341" d="M128 0v1443h82l919 -1299h6v1299h79v-1443h-75l-927 1307h-6v-1307h-78zM381 -205h580v-57h-580v57z" />
<glyph unicode="&#x1e49;" horiz-adv-x="1074" d="M119 0v1077h73v-237h3q38 115 137 183t235 68q178 0 286 -107.5t108 -288.5v-695h-78v686q0 155 -90.5 244.5t-242.5 89.5q-158 0 -255.5 -105.5t-97.5 -273.5v-641h-78zM241 -205h580v-57h-580v57z" />
<glyph unicode="&#x1e4a;" horiz-adv-x="1341" d="M128 0v1443h82l919 -1299h6v1299h79v-1443h-75l-927 1307h-6v-1307h-78zM366 -437l271 290h68l271 -290h-83l-221 238h-2l-221 -238h-83z" />
<glyph unicode="&#x1e4b;" horiz-adv-x="1074" d="M119 0v1077h73v-237h3q38 115 137 183t235 68q178 0 286 -107.5t108 -288.5v-695h-78v686q0 155 -90.5 244.5t-242.5 89.5q-158 0 -255.5 -105.5t-97.5 -273.5v-641h-78zM226 -437l271 290h68l271 -290h-83l-221 238h-2l-221 -238h-83z" />
<glyph unicode="&#x1e4c;" d="M67 722q0 340 174 541t469 201t469 -201t174 -541q0 -342 -173.5 -542.5t-469.5 -200.5t-469.5 200.5t-173.5 542.5zM148 722q0 -307 152.5 -488t409.5 -181t409.5 181t152.5 488q0 306 -152.5 487t-409.5 181q-258 0 -410 -181t-152 -487zM442 1566q0 87 38.5 139 t108.5 52q35 0 64.5 -15.5t49.5 -37.5t38.5 -44t41 -37.5t47.5 -15.5q43 0 64.5 35.5t21.5 96.5h61q0 -86 -39 -138.5t-108 -52.5q-34 0 -63 15.5t-49 37.5t-38.5 44t-41 37.5t-47.5 15.5q-44 0 -66 -35.5t-22 -96.5h-61zM704 1805l165 174h91l-183 -174h-73z" />
<glyph unicode="&#x1e4d;" horiz-adv-x="1089" d="M65 538q0 253 131.5 403t347.5 150q217 0 348.5 -150t131.5 -403q0 -252 -132 -402t-348 -150t-347.5 150t-131.5 402zM143 538q0 -222 109.5 -352t291.5 -130t291.5 130.5t109.5 351.5q0 222 -109 352t-292 130t-292 -130t-109 -352zM261 1247q0 98 38.5 155t111.5 57 q36 0 68.5 -17t56 -41t45.5 -48t47.5 -41t51.5 -17q89 0 89 154h61q0 -97 -39 -155t-111 -58q-36 0 -67.5 17t-55 41t-45.5 48t-47.5 41t-52.5 17q-91 0 -91 -153h-60zM490 1554l157 266h83l-172 -266h-68z" />
<glyph unicode="&#x1e4e;" d="M67 722q0 340 174 541t469 201t469 -201t174 -541q0 -342 -173.5 -542.5t-469.5 -200.5t-469.5 200.5t-173.5 542.5zM148 722q0 -307 152.5 -488t409.5 -181t409.5 181t152.5 488q0 306 -152.5 487t-409.5 181q-258 0 -410 -181t-152 -487zM443 1566q0 87 38.5 139 t108.5 52q35 0 64 -15.5t49.5 -37.5t39 -44t41 -37.5t47.5 -15.5q43 0 64.5 35.5t21.5 96.5h60q0 -86 -39 -138.5t-107 -52.5q-34 0 -63 15.5t-49 37.5t-38.5 44t-41.5 37.5t-48 15.5q-44 0 -66 -35.5t-22 -96.5h-60zM497 1919q0 26 19 44.5t45 18.5t44.5 -18.5t18.5 -44.5 t-18.5 -44.5t-44.5 -18.5t-45 18.5t-19 44.5zM796 1919q0 26 18.5 44.5t44.5 18.5t45 -18.5t19 -44.5t-19 -44.5t-45 -18.5t-44.5 18.5t-18.5 44.5z" />
<glyph unicode="&#x1e4f;" horiz-adv-x="1089" d="M65 538q0 253 131.5 403t347.5 150q217 0 348.5 -150t131.5 -403q0 -252 -132 -402t-348 -150t-347.5 150t-131.5 402zM143 538q0 -222 109.5 -352t291.5 -130t291.5 130.5t109.5 351.5q0 222 -109 352t-292 130t-292 -130t-109 -352zM261 1247q0 98 38.5 155t111.5 57 q36 0 68.5 -17t56 -41t45.5 -48t47.5 -41t51.5 -17q89 0 89 154h61q0 -97 -39 -155t-111 -58q-36 0 -67.5 17t-55 41t-45.5 48t-47.5 41t-52.5 17q-91 0 -91 -153h-60zM329 1619q0 26 19.5 45t46.5 19t46.5 -19t19.5 -45q0 -27 -19.5 -46t-46.5 -19t-46.5 19t-19.5 46z M627 1619q0 26 19.5 45t46.5 19t46.5 -19t19.5 -45q0 -27 -19.5 -46t-46.5 -19t-46.5 19t-19.5 46z" />
<glyph unicode="&#x1e50;" d="M67 722q0 340 174 541t469 201t469 -201t174 -541q0 -342 -173.5 -542.5t-469.5 -200.5t-469.5 200.5t-173.5 542.5zM148 722q0 -307 152.5 -488t409.5 -181t409.5 181t152.5 488q0 306 -152.5 487t-409.5 181q-258 0 -410 -181t-152 -487zM420 1622v57h580v-57h-580z M461 1979h91l207 -203h-74z" />
<glyph unicode="&#x1e51;" horiz-adv-x="1089" d="M65 538q0 253 131.5 403t347.5 150q217 0 348.5 -150t131.5 -403q0 -252 -132 -402t-348 -150t-347.5 150t-131.5 402zM143 538q0 -222 109.5 -352t291.5 -130t291.5 130.5t109.5 351.5q0 222 -109 352t-292 130t-292 -130t-109 -352zM241 1307v58h596v-58h-596z M283 1820h89l229 -295h-74z" />
<glyph unicode="&#x1e52;" d="M67 722q0 340 174 541t469 201t469 -201t174 -541q0 -342 -173.5 -542.5t-469.5 -200.5t-469.5 200.5t-173.5 542.5zM148 722q0 -307 152.5 -488t409.5 -181t409.5 181t152.5 488q0 306 -152.5 487t-409.5 181q-258 0 -410 -181t-152 -487zM420 1622v57h580v-57h-580z M661 1776l207 203h91l-224 -203h-74z" />
<glyph unicode="&#x1e53;" horiz-adv-x="1089" d="M65 538q0 253 131.5 403t347.5 150q217 0 348.5 -150t131.5 -403q0 -252 -132 -402t-348 -150t-347.5 150t-131.5 402zM143 538q0 -222 109.5 -352t291.5 -130t291.5 130.5t109.5 351.5q0 222 -109 352t-292 130t-292 -130t-109 -352zM241 1307v58h596v-58h-596z M487 1525l229 295h89l-244 -295h-74z" />
<glyph unicode="&#x1e54;" horiz-adv-x="1116" d="M128 0v1443h469q211 0 337.5 -117.5t126.5 -313.5q0 -195 -127 -312.5t-337 -117.5h-390v-582h-79zM207 654h377q183 0 289.5 96t106.5 262q0 167 -106.5 263t-289.5 96h-377v-717zM447 1553l279 290h96l-297 -290h-78z" />
<glyph unicode="&#x1e55;" horiz-adv-x="1119" d="M119 -353v1430h73v-288h3q37 131 147.5 216.5t255.5 85.5q203 0 329.5 -153.5t126.5 -399.5t-126 -399t-329 -153q-146 0 -254.5 84t-144.5 214h-3v-637h-78zM197 538q0 -213 109.5 -347.5t282.5 -134.5q172 0 279 133.5t107 348.5t-107 348.5t-279 133.5 q-173 0 -282.5 -134t-109.5 -348zM534 1253l230 303h93l-249 -303h-74z" />
<glyph unicode="&#x1e56;" horiz-adv-x="1116" d="M128 0v1443h469q211 0 337.5 -117.5t126.5 -313.5q0 -195 -127 -312.5t-337 -117.5h-390v-582h-79zM207 654h377q183 0 289.5 96t106.5 262q0 167 -106.5 263t-289.5 96h-377v-717zM416 1639q0 31 22.5 53.5t54.5 22.5t54.5 -22.5t22.5 -53.5t-22.5 -53.5t-54.5 -22.5 t-54.5 22.5t-22.5 53.5z" />
<glyph unicode="&#x1e57;" horiz-adv-x="1119" d="M119 -353v1430h73v-288h3q37 131 147.5 216.5t255.5 85.5q203 0 329.5 -153.5t126.5 -399.5t-126 -399t-329 -153q-146 0 -254.5 84t-144.5 214h-3v-637h-78zM197 538q0 -213 109.5 -347.5t282.5 -134.5q172 0 279 133.5t107 348.5t-107 348.5t-279 133.5 q-173 0 -282.5 -134t-109.5 -348zM510 1333q0 31 23 54t55 23t55 -23t23 -54t-23 -54t-55 -23t-55 23t-23 54z" />
<glyph unicode="&#x1e58;" horiz-adv-x="1150" d="M128 0v1443h471q214 0 338.5 -110.5t124.5 -301.5q0 -156 -88.5 -262.5t-245.5 -137.5l371 -631h-93l-361 619q-19 -3 -51 -3h-387v-616h-79zM207 688h387q181 0 284 91t103 250q0 161 -103.5 251.5t-285.5 90.5h-385v-683zM418 1639q0 31 22.5 53.5t54.5 22.5 t54.5 -22.5t22.5 -53.5t-22.5 -53.5t-54.5 -22.5t-54.5 22.5t-22.5 53.5z" />
<glyph unicode="&#x1e59;" horiz-adv-x="614" d="M119 0v1077h73v-213h3q32 110 106.5 168.5t182.5 58.5q55 0 100 -18v-78q-44 22 -112 22q-125 0 -200 -97t-75 -251v-669h-78zM264 1333q0 31 23 54t55 23t55 -23t23 -54t-23 -54t-55 -23t-55 23t-23 54z" />
<glyph unicode="&#x1e5a;" horiz-adv-x="1150" d="M128 0v1443h471q214 0 338.5 -110.5t124.5 -301.5q0 -156 -88.5 -262.5t-245.5 -137.5l371 -631h-93l-361 619q-19 -3 -51 -3h-387v-616h-79zM207 688h387q181 0 284 91t103 250q0 161 -103.5 251.5t-285.5 90.5h-385v-683zM418 -219q0 31 22.5 53.5t54.5 22.5 t54.5 -22.5t22.5 -53.5t-22.5 -53.5t-54.5 -22.5t-54.5 22.5t-22.5 53.5z" />
<glyph unicode="&#x1e5b;" horiz-adv-x="614" d="M81 -219q0 31 22.5 53.5t54.5 22.5t54.5 -22.5t22.5 -53.5t-22.5 -53.5t-54.5 -22.5t-54.5 22.5t-22.5 53.5zM119 0v1077h73v-213h3q32 110 106.5 168.5t182.5 58.5q55 0 100 -18v-78q-44 22 -112 22q-125 0 -200 -97t-75 -251v-669h-78z" />
<glyph unicode="&#x1e5c;" horiz-adv-x="1150" d="M128 0v1443h471q214 0 338.5 -110.5t124.5 -301.5q0 -156 -88.5 -262.5t-245.5 -137.5l371 -631h-93l-361 619q-19 -3 -51 -3h-387v-616h-79zM205 1622v57h580v-57h-580zM207 688h387q181 0 284 91t103 250q0 161 -103.5 251.5t-285.5 90.5h-385v-683zM418 -219 q0 31 22.5 53.5t54.5 22.5t54.5 -22.5t22.5 -53.5t-22.5 -53.5t-54.5 -22.5t-54.5 22.5t-22.5 53.5z" />
<glyph unicode="&#x1e5d;" horiz-adv-x="614" d="M39 1308v58h596v-58h-596zM81 -219q0 31 22.5 53.5t54.5 22.5t54.5 -22.5t22.5 -53.5t-22.5 -53.5t-54.5 -22.5t-54.5 22.5t-22.5 53.5zM119 0v1077h73v-213h3q32 110 106.5 168.5t182.5 58.5q55 0 100 -18v-78q-44 22 -112 22q-125 0 -200 -97t-75 -251v-669h-78z" />
<glyph unicode="&#x1e5e;" horiz-adv-x="1150" d="M128 0v1443h471q214 0 338.5 -110.5t124.5 -301.5q0 -156 -88.5 -262.5t-245.5 -137.5l371 -631h-93l-361 619q-19 -3 -51 -3h-387v-616h-79zM205 -205h580v-57h-580v57zM207 688h387q181 0 284 91t103 250q0 161 -103.5 251.5t-285.5 90.5h-385v-683z" />
<glyph unicode="&#x1e5f;" horiz-adv-x="614" d="M-132 -205h580v-57h-580v57zM119 0v1077h73v-213h3q32 110 106.5 168.5t182.5 58.5q55 0 100 -18v-78q-44 22 -112 22q-125 0 -200 -97t-75 -251v-669h-78z" />
<glyph unicode="&#x1e60;" horiz-adv-x="1137" d="M57 385h79q9 -147 134 -240t313 -93q183 0 299.5 92.5t116.5 234.5q0 113 -81 183t-263 116l-171 42q-201 51 -294.5 136.5t-93.5 220.5q0 167 137 277t336 110q203 0 340 -106t144 -266h-79q-8 130 -122.5 214.5t-284.5 84.5q-165 0 -277.5 -88.5t-112.5 -223.5 q0 -107 81 -174t257 -111l161 -41q211 -52 307.5 -138.5t96.5 -229.5q0 -180 -139 -293t-364 -113q-222 0 -366.5 113t-153.5 293zM492 1639q0 31 22.5 53.5t54.5 22.5t54.5 -22.5t22.5 -53.5t-22.5 -53.5t-54.5 -22.5t-54.5 22.5t-22.5 53.5z" />
<glyph unicode="&#x1e61;" horiz-adv-x="923" d="M59 304h78q11 -108 102.5 -179.5t227.5 -71.5q137 0 228 63t91 164q0 84 -57 134.5t-189 81.5l-173 42q-139 33 -206 96.5t-67 166.5q0 127 106.5 208.5t263.5 81.5q162 0 265.5 -88.5t116.5 -235.5h-76q-12 115 -93.5 185.5t-213.5 70.5q-122 0 -207.5 -61.5 t-85.5 -157.5q0 -78 54.5 -124t171.5 -74l167 -41q161 -39 230.5 -104t69.5 -176q0 -133 -112 -216t-286 -83q-171 0 -284 91t-122 227zM386 1333q0 31 23 54t55 23t55 -23t23 -54t-23 -54t-55 -23t-55 23t-23 54z" />
<glyph unicode="&#x1e62;" horiz-adv-x="1137" d="M57 385h79q9 -147 134 -240t313 -93q183 0 299.5 92.5t116.5 234.5q0 113 -81 183t-263 116l-171 42q-201 51 -294.5 136.5t-93.5 220.5q0 167 137 277t336 110q203 0 340 -106t144 -266h-79q-8 130 -122.5 214.5t-284.5 84.5q-165 0 -277.5 -88.5t-112.5 -223.5 q0 -107 81 -174t257 -111l161 -41q211 -52 307.5 -138.5t96.5 -229.5q0 -180 -139 -293t-364 -113q-222 0 -366.5 113t-153.5 293zM501 -219q0 31 22.5 53.5t54.5 22.5t54.5 -22.5t22.5 -53.5t-22.5 -53.5t-54.5 -22.5t-54.5 22.5t-22.5 53.5z" />
<glyph unicode="&#x1e63;" horiz-adv-x="923" d="M59 304h78q11 -108 102.5 -179.5t227.5 -71.5q137 0 228 63t91 164q0 84 -57 134.5t-189 81.5l-173 42q-139 33 -206 96.5t-67 166.5q0 127 106.5 208.5t263.5 81.5q162 0 265.5 -88.5t116.5 -235.5h-76q-12 115 -93.5 185.5t-213.5 70.5q-122 0 -207.5 -61.5 t-85.5 -157.5q0 -78 54.5 -124t171.5 -74l167 -41q161 -39 230.5 -104t69.5 -176q0 -133 -112 -216t-286 -83q-171 0 -284 91t-122 227zM388 -219q0 31 22.5 53.5t54.5 22.5t54.5 -22.5t22.5 -53.5t-22.5 -53.5t-54.5 -22.5t-54.5 22.5t-22.5 53.5z" />
<glyph unicode="&#x1e64;" horiz-adv-x="1137" d="M57 385h79q9 -147 134 -240t313 -93q183 0 299.5 92.5t116.5 234.5q0 113 -81 183t-263 116l-171 42q-201 51 -294.5 136.5t-93.5 220.5q0 167 137 277t336 110q203 0 340 -106t144 -266h-79q-8 130 -122.5 214.5t-284.5 84.5q-165 0 -277.5 -88.5t-112.5 -223.5 q0 -107 81 -174t257 -111l161 -41q211 -52 307.5 -138.5t96.5 -229.5q0 -180 -139 -293t-364 -113q-222 0 -366.5 113t-153.5 293zM357 1698q0 31 22.5 53.5t54.5 22.5t54.5 -22.5t22.5 -53.5t-22.5 -53.5t-54.5 -22.5t-54.5 22.5t-22.5 53.5zM571 1553l279 290h96 l-297 -290h-78z" />
<glyph unicode="&#x1e65;" horiz-adv-x="923" d="M59 304h78q11 -108 102.5 -179.5t227.5 -71.5q137 0 228 63t91 164q0 84 -57 134.5t-189 81.5l-173 42q-139 33 -206 96.5t-67 166.5q0 127 106.5 208.5t263.5 81.5q162 0 265.5 -88.5t116.5 -235.5h-76q-12 115 -93.5 185.5t-213.5 70.5q-122 0 -207.5 -61.5 t-85.5 -157.5q0 -78 54.5 -124t171.5 -74l167 -41q161 -39 230.5 -104t69.5 -176q0 -133 -112 -216t-286 -83q-171 0 -284 91t-122 227zM201 1398q0 31 23 54t55 23t55 -23t23 -54t-23 -54t-55 -23t-55 23t-23 54zM418 1253l230 303h93l-249 -303h-74z" />
<glyph unicode="&#x1e66;" horiz-adv-x="1137" d="M57 385h79q9 -147 134 -240t313 -93q183 0 299.5 92.5t116.5 234.5q0 113 -81 183t-263 116l-171 42q-201 51 -294.5 136.5t-93.5 220.5q0 167 137 277t336 110q203 0 340 -106t144 -266h-79q-8 130 -122.5 214.5t-284.5 84.5q-165 0 -277.5 -88.5t-112.5 -223.5 q0 -107 81 -174t257 -111l161 -41q211 -52 307.5 -138.5t96.5 -229.5q0 -180 -139 -293t-364 -113q-222 0 -366.5 113t-153.5 293zM268 1768h93l205 -161h6l205 161h93l-266 -208h-70zM495 1906q0 30 22 51.5t52 21.5t52 -21.5t22 -51.5t-22 -51.5t-52 -21.5t-52 21.5 t-22 51.5z" />
<glyph unicode="&#x1e67;" horiz-adv-x="923" d="M59 304h78q11 -108 102.5 -179.5t227.5 -71.5q137 0 228 63t91 164q0 84 -57 134.5t-189 81.5l-173 42q-139 33 -206 96.5t-67 166.5q0 127 106.5 208.5t263.5 81.5q162 0 265.5 -88.5t116.5 -235.5h-76q-12 115 -93.5 185.5t-213.5 70.5q-122 0 -207.5 -61.5 t-85.5 -157.5q0 -78 54.5 -124t171.5 -74l167 -41q161 -39 230.5 -104t69.5 -176q0 -133 -112 -216t-286 -83q-171 0 -284 91t-122 227zM163 1537h80l219 -237h4l219 237h80l-264 -284h-74zM387 1690q0 32 22.5 54.5t54.5 22.5t54.5 -22.5t22.5 -54.5q0 -31 -22.5 -53.5 t-54.5 -22.5t-54.5 22.5t-22.5 53.5z" />
<glyph unicode="&#x1e68;" horiz-adv-x="1137" d="M57 385h79q9 -147 134 -240t313 -93q183 0 299.5 92.5t116.5 234.5q0 113 -81 183t-263 116l-171 42q-201 51 -294.5 136.5t-93.5 220.5q0 167 137 277t336 110q203 0 340 -106t144 -266h-79q-8 130 -122.5 214.5t-284.5 84.5q-165 0 -277.5 -88.5t-112.5 -223.5 q0 -107 81 -174t257 -111l161 -41q211 -52 307.5 -138.5t96.5 -229.5q0 -180 -139 -293t-364 -113q-222 0 -366.5 113t-153.5 293zM492 1639q0 31 22.5 53.5t54.5 22.5t54.5 -22.5t22.5 -53.5t-22.5 -53.5t-54.5 -22.5t-54.5 22.5t-22.5 53.5zM501 -219q0 31 22.5 53.5 t54.5 22.5t54.5 -22.5t22.5 -53.5t-22.5 -53.5t-54.5 -22.5t-54.5 22.5t-22.5 53.5z" />
<glyph unicode="&#x1e69;" horiz-adv-x="923" d="M59 304h78q11 -108 102.5 -179.5t227.5 -71.5q137 0 228 63t91 164q0 84 -57 134.5t-189 81.5l-173 42q-139 33 -206 96.5t-67 166.5q0 127 106.5 208.5t263.5 81.5q162 0 265.5 -88.5t116.5 -235.5h-76q-12 115 -93.5 185.5t-213.5 70.5q-122 0 -207.5 -61.5 t-85.5 -157.5q0 -78 54.5 -124t171.5 -74l167 -41q161 -39 230.5 -104t69.5 -176q0 -133 -112 -216t-286 -83q-171 0 -284 91t-122 227zM386 1333q0 31 23 54t55 23t55 -23t23 -54t-23 -54t-55 -23t-55 23t-23 54zM388 -219q0 31 22.5 53.5t54.5 22.5t54.5 -22.5t22.5 -53.5 t-22.5 -53.5t-54.5 -22.5t-54.5 22.5t-22.5 53.5z" />
<glyph unicode="&#x1e6a;" horiz-adv-x="1138" d="M21 1370v73h1096v-73h-508v-1370h-80v1370h-508zM492 1639q0 31 22.5 53.5t54.5 22.5t54.5 -22.5t22.5 -53.5t-22.5 -53.5t-54.5 -22.5t-54.5 22.5t-22.5 53.5z" />
<glyph unicode="&#x1e6b;" horiz-adv-x="551" d="M21 1009v68h158v277h77v-277h217v-68h-217v-762q0 -96 37 -138t119 -42q67 0 75 2v-69q-12 -2 -85 -2q-118 0 -170.5 57.5t-52.5 189.5v764h-158zM139 1606q0 31 23 54t55 23t55 -23t23 -54t-23 -54t-55 -23t-55 23t-23 54z" />
<glyph unicode="&#x1e6c;" horiz-adv-x="1138" d="M21 1370v73h1096v-73h-508v-1370h-80v1370h-508zM492 -219q0 31 22.5 53.5t54.5 22.5t54.5 -22.5t22.5 -53.5t-22.5 -53.5t-54.5 -22.5t-54.5 22.5t-22.5 53.5z" />
<glyph unicode="&#x1e6d;" horiz-adv-x="551" d="M21 1009v68h158v277h77v-277h217v-68h-217v-762q0 -96 37 -138t119 -42q67 0 75 2v-69q-12 -2 -85 -2q-118 0 -170.5 57.5t-52.5 189.5v764h-158zM278 -219q0 31 22.5 53.5t54.5 22.5t54.5 -22.5t22.5 -53.5t-22.5 -53.5t-54.5 -22.5t-54.5 22.5t-22.5 53.5z" />
<glyph unicode="&#x1e6e;" horiz-adv-x="1138" d="M21 1370v73h1096v-73h-508v-1370h-80v1370h-508zM279 -205h580v-57h-580v57z" />
<glyph unicode="&#x1e6f;" horiz-adv-x="551" d="M21 1009v68h158v277h77v-277h217v-68h-217v-762q0 -96 37 -138t119 -42q67 0 75 2v-69q-12 -2 -85 -2q-118 0 -170.5 57.5t-52.5 189.5v764h-158zM65 -205h580v-57h-580v57z" />
<glyph unicode="&#x1e70;" horiz-adv-x="1138" d="M21 1370v73h1096v-73h-508v-1370h-80v1370h-508zM264 -437l271 290h68l271 -290h-83l-221 238h-2l-221 -238h-83z" />
<glyph unicode="&#x1e71;" horiz-adv-x="551" d="M21 1009v68h158v277h77v-277h217v-68h-217v-762q0 -96 37 -138t119 -42q67 0 75 2v-69q-12 -2 -85 -2q-118 0 -170.5 57.5t-52.5 189.5v764h-158zM50 -437l271 290h68l271 -290h-83l-221 238h-2l-221 -238h-83z" />
<glyph unicode="&#x1e72;" horiz-adv-x="1332" d="M128 501v942h79v-939q0 -207 124 -329t336 -122t336 122t124 329v939h79v-942q0 -237 -145.5 -379.5t-393.5 -142.5t-393.5 142.5t-145.5 379.5zM446 -212q0 27 20 46.5t48 19.5q27 0 47 -19.5t20 -46.5q0 -28 -20 -47.5t-47 -19.5q-28 0 -48 19.5t-20 47.5zM751 -212 q0 27 20 46.5t47 19.5q28 0 48 -19.5t20 -46.5q0 -28 -20 -47.5t-48 -19.5q-27 0 -47 19.5t-20 47.5z" />
<glyph unicode="&#x1e73;" horiz-adv-x="1074" d="M113 378v699h78v-687q0 -157 88 -245.5t238 -88.5q156 0 258 104t102 273v644h78v-1077h-73v235h-3q-36 -110 -140.5 -179.5t-237.5 -69.5q-175 0 -281.5 106t-106.5 286zM330 -212q0 27 20 46.5t48 19.5q27 0 47 -19.5t20 -46.5q0 -28 -20 -47.5t-47 -19.5 q-28 0 -48 19.5t-20 47.5zM635 -212q0 27 20 46.5t47 19.5q28 0 48 -19.5t20 -46.5q0 -28 -20 -47.5t-48 -19.5q-27 0 -47 19.5t-20 47.5z" />
<glyph unicode="&#x1e74;" horiz-adv-x="1332" d="M128 501v942h79v-939q0 -207 124 -329t336 -122t336 122t124 329v939h79v-942q0 -237 -145.5 -379.5t-393.5 -142.5t-393.5 142.5t-145.5 379.5zM382 -355q0 98 38.5 155t111.5 57q36 0 68.5 -17t56 -41t45.5 -48t47 -41t52 -17q89 0 89 154h61q0 -97 -39 -155t-111 -58 q-36 0 -67.5 17t-55 41t-45.5 48t-47.5 41t-52.5 17q-91 0 -91 -153h-60z" />
<glyph unicode="&#x1e75;" horiz-adv-x="1074" d="M113 378v699h78v-687q0 -157 88 -245.5t238 -88.5q156 0 258 104t102 273v644h78v-1077h-73v235h-3q-36 -110 -140.5 -179.5t-237.5 -69.5q-175 0 -281.5 106t-106.5 286zM266 -355q0 98 38.5 155t111.5 57q36 0 68.5 -17t56 -41t45.5 -48t47 -41t52 -17q89 0 89 154h61 q0 -97 -39 -155t-111 -58q-36 0 -67.5 17t-55 41t-45.5 48t-47.5 41t-52.5 17q-91 0 -91 -153h-60z" />
<glyph unicode="&#x1e76;" horiz-adv-x="1332" d="M128 501v942h79v-939q0 -207 124 -329t336 -122t336 122t124 329v939h79v-942q0 -237 -145.5 -379.5t-393.5 -142.5t-393.5 142.5t-145.5 379.5zM361 -437l271 290h68l271 -290h-83l-221 238h-2l-221 -238h-83z" />
<glyph unicode="&#x1e77;" horiz-adv-x="1074" d="M113 378v699h78v-687q0 -157 88 -245.5t238 -88.5q156 0 258 104t102 273v644h78v-1077h-73v235h-3q-36 -110 -140.5 -179.5t-237.5 -69.5q-175 0 -281.5 106t-106.5 286zM245 -437l271 290h68l271 -290h-83l-221 238h-2l-221 -238h-83z" />
<glyph unicode="&#x1e78;" horiz-adv-x="1332" d="M128 501v942h79v-939q0 -207 124 -329t336 -122t336 122t124 329v939h79v-942q0 -237 -145.5 -379.5t-393.5 -142.5t-393.5 142.5t-145.5 379.5zM398 1566q0 87 38.5 139t108.5 52q35 0 64.5 -15.5t49.5 -37.5t38.5 -44t41 -37.5t47.5 -15.5q43 0 64.5 35.5t21.5 96.5h61 q0 -86 -39 -138.5t-108 -52.5q-34 0 -63 15.5t-49 37.5t-38.5 44t-41 37.5t-47.5 15.5q-44 0 -66 -35.5t-22 -96.5h-61zM660 1805l165 174h91l-183 -174h-73z" />
<glyph unicode="&#x1e79;" horiz-adv-x="1074" d="M113 378v699h78v-687q0 -157 88 -245.5t238 -88.5q156 0 258 104t102 273v644h78v-1077h-73v235h-3q-36 -110 -140.5 -179.5t-237.5 -69.5q-175 0 -281.5 106t-106.5 286zM251 1247q0 98 38.5 155t111.5 57q36 0 68.5 -17t56 -41t45.5 -48t47.5 -41t51.5 -17q89 0 89 154 h61q0 -97 -39 -155t-111 -58q-36 0 -67.5 17t-55 41t-45.5 48t-47.5 41t-52.5 17q-91 0 -91 -153h-60zM480 1554l157 266h83l-172 -266h-68z" />
<glyph unicode="&#x1e7a;" horiz-adv-x="1332" d="M128 501v942h79v-939q0 -207 124 -329t336 -122t336 122t124 329v939h79v-942q0 -237 -145.5 -379.5t-393.5 -142.5t-393.5 142.5t-145.5 379.5zM376 1623v57h580v-57h-580zM453 1885q0 26 19 44.5t45 18.5q25 0 44 -19t19 -44q0 -26 -18.5 -44.5t-44.5 -18.5t-45 18.5 t-19 44.5zM752 1885q0 25 19 44t44 19q26 0 45 -18.5t19 -44.5t-19 -44.5t-45 -18.5t-44.5 18.5t-18.5 44.5z" />
<glyph unicode="&#x1e7b;" horiz-adv-x="1074" d="M113 378v699h78v-687q0 -157 88 -245.5t238 -88.5q156 0 258 104t102 273v644h78v-1077h-73v235h-3q-36 -110 -140.5 -179.5t-237.5 -69.5q-175 0 -281.5 106t-106.5 286zM231 1307v58h596v-58h-596zM319 1594q0 28 19.5 47t46.5 19t46.5 -19t19.5 -47q0 -27 -19.5 -46 t-46.5 -19t-46.5 19t-19.5 46zM617 1594q0 28 19.5 47t46.5 19t46.5 -19t19.5 -47q0 -27 -19.5 -46t-46.5 -19t-46.5 19t-19.5 46z" />
<glyph unicode="&#x1e7c;" horiz-adv-x="1223" d="M21 1443h85l503 -1338h5l503 1338h84l-550 -1443h-80zM327 1560q0 98 38.5 155t111.5 57q36 0 68.5 -17t56 -41t45.5 -48t47.5 -41t51.5 -17q89 0 89 154h61q0 -97 -39 -155t-111 -58q-36 0 -67.5 17t-55 41t-45.5 48t-47.5 41t-52.5 17q-91 0 -91 -153h-60z" />
<glyph unicode="&#x1e7d;" horiz-adv-x="918" d="M7 1077h83l368 -998h2l369 998h82l-406 -1077h-92zM175 1266q0 98 38.5 155t111.5 57q36 0 68.5 -17t56 -41t45.5 -48t47.5 -41t51.5 -17q89 0 89 154h61q0 -97 -39 -155t-111 -58q-36 0 -67.5 17t-55 41t-45.5 48t-47.5 41t-52.5 17q-91 0 -91 -153h-60z" />
<glyph unicode="&#x1e7e;" horiz-adv-x="1223" d="M21 1443h85l503 -1338h5l503 1338h84l-550 -1443h-80zM534 -219q0 31 22.5 53.5t54.5 22.5t54.5 -22.5t22.5 -53.5t-22.5 -53.5t-54.5 -22.5t-54.5 22.5t-22.5 53.5z" />
<glyph unicode="&#x1e7f;" horiz-adv-x="918" d="M7 1077h83l368 -998h2l369 998h82l-406 -1077h-92zM382 -219q0 31 22.5 53.5t54.5 22.5t54.5 -22.5t22.5 -53.5t-22.5 -53.5t-54.5 -22.5t-54.5 22.5t-22.5 53.5z" />
<glyph unicode="&#x1e80;" horiz-adv-x="1803" d="M42 1443h82l356 -1306h5l379 1306h74l380 -1306h5l355 1306h83l-403 -1443h-70l-384 1295h-5l-384 -1295h-70zM573 1843h95l280 -290h-78z" />
<glyph unicode="&#x1e81;" horiz-adv-x="1430" d="M8 1077h82l277 -990h3l301 990h88l301 -990h3l277 990h82l-314 -1077h-91l-301 976h-2l-301 -976h-91zM443 1556h93l230 -303h-74z" />
<glyph unicode="&#x1e82;" horiz-adv-x="1803" d="M42 1443h82l356 -1306h5l379 1306h74l380 -1306h5l355 1306h83l-403 -1443h-70l-384 1295h-5l-384 -1295h-70zM855 1553l279 290h96l-297 -290h-78z" />
<glyph unicode="&#x1e83;" horiz-adv-x="1430" d="M8 1077h82l277 -990h3l301 990h88l301 -990h3l277 990h82l-314 -1077h-91l-301 976h-2l-301 -976h-91zM661 1253l230 303h93l-249 -303h-74z" />
<glyph unicode="&#x1e84;" horiz-adv-x="1803" d="M42 1443h82l356 -1306h5l379 1306h74l380 -1306h5l355 1306h83l-403 -1443h-70l-384 1295h-5l-384 -1295h-70zM681 1630q0 27 20 46.5t48 19.5q27 0 47 -19.5t20 -46.5q0 -28 -20 -47.5t-47 -19.5q-28 0 -48 19.5t-20 47.5zM986 1630q0 27 20 46.5t47 19.5q28 0 48 -19.5 t20 -46.5q0 -28 -20 -47.5t-48 -19.5q-27 0 -47 19.5t-20 47.5z" />
<glyph unicode="&#x1e85;" horiz-adv-x="1430" d="M8 1077h82l277 -990h3l301 990h88l301 -990h3l277 990h82l-314 -1077h-91l-301 976h-2l-301 -976h-91zM495 1323q0 27 20 46.5t48 19.5q27 0 47 -19.5t20 -46.5q0 -28 -20 -47.5t-47 -19.5q-28 0 -48 19.5t-20 47.5zM800 1323q0 27 20 46.5t47 19.5q28 0 48 -19.5 t20 -46.5q0 -28 -20 -47.5t-48 -19.5q-27 0 -47 19.5t-20 47.5z" />
<glyph unicode="&#x1e86;" horiz-adv-x="1803" d="M42 1443h82l356 -1306h5l379 1306h74l380 -1306h5l355 1306h83l-403 -1443h-70l-384 1295h-5l-384 -1295h-70zM824 1639q0 31 22.5 53.5t54.5 22.5t54.5 -22.5t22.5 -53.5t-22.5 -53.5t-54.5 -22.5t-54.5 22.5t-22.5 53.5z" />
<glyph unicode="&#x1e87;" horiz-adv-x="1430" d="M8 1077h82l277 -990h3l301 990h88l301 -990h3l277 990h82l-314 -1077h-91l-301 976h-2l-301 -976h-91zM637 1333q0 31 23 54t55 23t55 -23t23 -54t-23 -54t-55 -23t-55 23t-23 54z" />
<glyph unicode="&#x1e88;" horiz-adv-x="1803" d="M42 1443h82l356 -1306h5l379 1306h74l380 -1306h5l355 1306h83l-403 -1443h-70l-384 1295h-5l-384 -1295h-70zM824 -219q0 31 22.5 53.5t54.5 22.5t54.5 -22.5t22.5 -53.5t-22.5 -53.5t-54.5 -22.5t-54.5 22.5t-22.5 53.5z" />
<glyph unicode="&#x1e89;" horiz-adv-x="1430" d="M8 1077h82l277 -990h3l301 990h88l301 -990h3l277 990h82l-314 -1077h-91l-301 976h-2l-301 -976h-91zM638 -219q0 31 22.5 53.5t54.5 22.5t54.5 -22.5t22.5 -53.5t-22.5 -53.5t-54.5 -22.5t-54.5 22.5t-22.5 53.5z" />
<glyph unicode="&#x1e8a;" horiz-adv-x="1215" d="M42 0l516 722v2l-514 719h95l469 -658h2l471 658h92l-518 -721v-2l515 -720h-95l-468 656h-2l-471 -656h-92zM531 1639q0 31 22.5 53.5t54.5 22.5t54.5 -22.5t22.5 -53.5t-22.5 -53.5t-54.5 -22.5t-54.5 22.5t-22.5 53.5z" />
<glyph unicode="&#x1e8b;" horiz-adv-x="897" d="M10 0l395 546l-394 531h92l345 -471h3l344 471h92l-394 -529l392 -548h-90l-346 485h-2l-347 -485h-90zM370 1333q0 31 23 54t55 23t55 -23t23 -54t-23 -54t-55 -23t-55 23t-23 54z" />
<glyph unicode="&#x1e8c;" horiz-adv-x="1215" d="M42 0l516 722v2l-514 719h95l469 -658h2l471 658h92l-518 -721v-2l515 -720h-95l-468 656h-2l-471 -656h-92zM388 1630q0 27 20 46.5t48 19.5q27 0 47 -19.5t20 -46.5q0 -28 -20 -47.5t-47 -19.5q-28 0 -48 19.5t-20 47.5zM693 1630q0 27 20 46.5t47 19.5q28 0 48 -19.5 t20 -46.5q0 -28 -20 -47.5t-48 -19.5q-27 0 -47 19.5t-20 47.5z" />
<glyph unicode="&#x1e8d;" horiz-adv-x="897" d="M10 0l395 546l-394 531h92l345 -471h3l344 471h92l-394 -529l392 -548h-90l-346 485h-2l-347 -485h-90zM228 1323q0 27 20 46.5t48 19.5q27 0 47 -19.5t20 -46.5q0 -28 -20 -47.5t-47 -19.5q-28 0 -48 19.5t-20 47.5zM533 1323q0 27 20 46.5t47 19.5q28 0 48 -19.5 t20 -46.5q0 -28 -20 -47.5t-48 -19.5q-27 0 -47 19.5t-20 47.5z" />
<glyph unicode="&#x1e8e;" horiz-adv-x="1172" d="M22 1443h93l469 -733h5l469 733h92l-524 -814v-629h-79v629zM509 1639q0 31 22.5 53.5t54.5 22.5t54.5 -22.5t22.5 -53.5t-22.5 -53.5t-54.5 -22.5t-54.5 22.5t-22.5 53.5z" />
<glyph unicode="&#x1e8f;" horiz-adv-x="919" d="M7 1077h83l369 -1001h2l369 1001h82l-423 -1126q-72 -192 -133.5 -256t-175.5 -64q-32 0 -54 9v69q24 -8 57 -8q72 0 116 43.5t87 155.5l33 85zM382 1332q0 31 23 54t55 23t55 -23t23 -54t-23 -54t-55 -23t-55 23t-23 54z" />
<glyph unicode="&#x1e90;" horiz-adv-x="1173" d="M71 0v62l925 1303v5h-896v73h997v-62l-923 -1303v-5h928v-73h-1031zM282 1553l271 290h68l271 -290h-83l-221 238h-2l-221 -238h-83z" />
<glyph unicode="&#x1e91;" horiz-adv-x="928" d="M66 0v65l704 942v2h-704v68h795v-66l-705 -941v-2h706v-68h-796zM165 1252l268 303h62l268 -303h-80l-217 249h-3l-217 -249h-81z" />
<glyph unicode="&#x1e92;" horiz-adv-x="1173" d="M71 0v62l925 1303v5h-896v73h997v-62l-923 -1303v-5h928v-73h-1031zM510 -219q0 31 22.5 53.5t54.5 22.5t54.5 -22.5t22.5 -53.5t-22.5 -53.5t-54.5 -22.5t-54.5 22.5t-22.5 53.5z" />
<glyph unicode="&#x1e93;" horiz-adv-x="928" d="M66 0v65l704 942v2h-704v68h795v-66l-705 -941v-2h706v-68h-796zM387 -219q0 31 22.5 53.5t54.5 22.5t54.5 -22.5t22.5 -53.5t-22.5 -53.5t-54.5 -22.5t-54.5 22.5t-22.5 53.5z" />
<glyph unicode="&#x1e94;" horiz-adv-x="1173" d="M71 0v62l925 1303v5h-896v73h997v-62l-923 -1303v-5h928v-73h-1031zM297 -205h580v-57h-580v57z" />
<glyph unicode="&#x1e95;" horiz-adv-x="928" d="M66 0v65l704 942v2h-704v68h795v-66l-705 -941v-2h706v-68h-796zM174 -205h580v-57h-580v57z" />
<glyph unicode="&#x1e96;" horiz-adv-x="1088" d="M129 0v1506h78v-666h3q38 115 137.5 183t234.5 68q177 0 285 -108.5t108 -288.5v-694h-77v685q0 155 -90 245t-242 90q-159 0 -259 -106t-100 -275v-639h-78zM261 -205h580v-57h-580v57z" />
<glyph unicode="&#x1e97;" horiz-adv-x="551" d="M-3 1596q0 27 20 46.5t48 19.5q27 0 47 -19.5t20 -46.5q0 -28 -20 -47.5t-47 -19.5q-28 0 -48 19.5t-20 47.5zM21 1009v68h158v277h77v-277h217v-68h-217v-762q0 -96 37 -138t119 -42q67 0 75 2v-69q-12 -2 -85 -2q-118 0 -170.5 57.5t-52.5 189.5v764h-158zM302 1596 q0 27 20 46.5t47 19.5q28 0 48 -19.5t20 -46.5q0 -28 -20 -47.5t-48 -19.5q-27 0 -47 19.5t-20 47.5z" />
<glyph unicode="&#x1e98;" horiz-adv-x="1430" d="M8 1077h82l277 -990h3l301 990h88l301 -990h3l277 990h82l-314 -1077h-91l-301 976h-2l-301 -976h-91zM543 1407q0 71 50.5 122t121.5 51t121.5 -51t50.5 -122t-50.5 -122t-121.5 -51t-121.5 51t-50.5 122zM591 1407q0 -52 36 -88.5t88 -36.5t88 36.5t36 88.5t-36 88.5 t-88 36.5t-88 -36.5t-36 -88.5z" />
<glyph unicode="&#x1e99;" horiz-adv-x="919" d="M7 1077h83l369 -1001h2l369 1001h82l-423 -1126q-72 -192 -133.5 -256t-175.5 -64q-32 0 -54 9v69q24 -8 57 -8q72 0 116 43.5t87 155.5l33 85zM288 1406q0 71 50.5 122t121.5 51t121.5 -51t50.5 -122t-50.5 -122t-121.5 -51t-121.5 51t-50.5 122zM336 1406 q0 -52 36 -88.5t88 -36.5t88 36.5t36 88.5t-36 88.5t-88 36.5t-88 -36.5t-36 -88.5z" />
<glyph unicode="&#x1ea0;" horiz-adv-x="1221" d="M21 0l550 1443h80l549 -1443h-85l-180 481h-649l-179 -481h-86zM312 552h598l-297 788h-5zM534 -219q0 31 22.5 53.5t54.5 22.5t54.5 -22.5t22.5 -53.5t-22.5 -53.5t-54.5 -22.5t-54.5 22.5t-22.5 53.5z" />
<glyph unicode="&#x1ea1;" horiz-adv-x="1030" d="M86 290q0 138 97.5 216t287.5 92l369 27v96q0 141 -81.5 220t-226.5 79q-137 0 -224 -67t-106 -189h-75q14 149 125 238t281 89q177 0 280.5 -98t103.5 -267v-726h-75v232h-2q-40 -110 -150 -178t-247 -68q-158 0 -257.5 84.5t-99.5 219.5zM164 290q0 -103 81.5 -169 t207.5 -66q161 0 274 100.5t113 243.5v161l-359 -27q-155 -11 -236 -73t-81 -170zM441 -219q0 31 22.5 53.5t54.5 22.5t54.5 -22.5t22.5 -53.5t-22.5 -53.5t-54.5 -22.5t-54.5 22.5t-22.5 53.5z" />
<glyph unicode="&#x1ea2;" horiz-adv-x="1221" d="M21 0l550 1443h80l549 -1443h-85l-180 481h-649l-179 -481h-86zM312 552h598l-297 788h-5zM469 1750v54q48 27 115 27q71 0 115 -37.5t44 -98.5q0 -48 -30 -87.5t-83 -62.5l-34 42q37 16 59.5 44.5t22.5 60.5q0 37 -28.5 60.5t-74.5 23.5q-63 0 -106 -26z" />
<glyph unicode="&#x1ea3;" horiz-adv-x="1030" d="M86 290q0 138 97.5 216t287.5 92l369 27v96q0 141 -81.5 220t-226.5 79q-137 0 -224 -67t-106 -189h-75q14 149 125 238t281 89q177 0 280.5 -98t103.5 -267v-726h-75v232h-2q-40 -110 -150 -178t-247 -68q-158 0 -257.5 84.5t-99.5 219.5zM164 290q0 -103 81.5 -169 t207.5 -66q161 0 274 100.5t113 243.5v161l-359 -27q-155 -11 -236 -73t-81 -170zM417 1438v58q48 28 112 28q70 0 113 -39t43 -101q0 -49 -31.5 -91t-81.5 -63l-35 44q83 34 83 106q0 39 -28.5 63t-74.5 24q-56 0 -100 -29z" />
<glyph unicode="&#x1ea4;" horiz-adv-x="1221" d="M21 0l550 1443h80l549 -1443h-85l-180 481h-649l-179 -481h-86zM311 1560l266 208h70l266 -208h-93l-205 160h-6l-205 -160h-93zM312 552h598l-297 788h-5zM777 1776l207 203h91l-224 -203h-74z" />
<glyph unicode="&#x1ea5;" horiz-adv-x="1030" d="M86 290q0 138 97.5 216t287.5 92l369 27v96q0 141 -81.5 220t-226.5 79q-137 0 -224 -67t-106 -189h-75q14 149 125 238t281 89q177 0 280.5 -98t103.5 -267v-726h-75v232h-2q-40 -110 -150 -178t-247 -68q-158 0 -257.5 84.5t-99.5 219.5zM164 290q0 -103 81.5 -169 t207.5 -66q161 0 274 100.5t113 243.5v161l-359 -27q-155 -11 -236 -73t-81 -170zM231 1253l264 284h74l264 -284h-80l-219 237h-4l-219 -237h-80zM732 1518l226 296h87l-244 -296h-69z" />
<glyph unicode="&#x1ea6;" horiz-adv-x="1221" d="M21 0l550 1443h80l549 -1443h-85l-180 481h-649l-179 -481h-86zM310 1560l266 208h70l266 -208h-93l-205 160h-6l-205 -160h-93zM312 552h598l-297 788h-5zM652 1979h91l207 -203h-74z" />
<glyph unicode="&#x1ea7;" horiz-adv-x="1030" d="M86 290q0 138 97.5 216t287.5 92l369 27v96q0 141 -81.5 220t-226.5 79q-137 0 -224 -67t-106 -189h-75q14 149 125 238t281 89q177 0 280.5 -98t103.5 -267v-726h-75v232h-2q-40 -110 -150 -178t-247 -68q-158 0 -257.5 84.5t-99.5 219.5zM164 290q0 -103 81.5 -169 t207.5 -66q161 0 274 100.5t113 243.5v161l-359 -27q-155 -11 -236 -73t-81 -170zM231 1253l264 284h74l264 -284h-80l-219 237h-4l-219 -237h-80zM591 1814h88l226 -296h-70z" />
<glyph unicode="&#x1ea8;" horiz-adv-x="1221" d="M21 0l550 1443h80l549 -1443h-85l-180 481h-649l-179 -481h-86zM311 1560l265 208h71l265 -208h-93l-204 160h-6l-205 -160h-93zM312 552h598l-297 788h-5zM734 1903v50q37 26 99 26q64 0 104 -35t40 -90q0 -43 -25.5 -78.5t-70.5 -55.5l-39 38q74 33 74 93 q0 33 -25.5 54t-65.5 21q-57 0 -91 -23z" />
<glyph unicode="&#x1ea9;" horiz-adv-x="1030" d="M86 290q0 138 97.5 216t287.5 92l369 27v96q0 141 -81.5 220t-226.5 79q-137 0 -224 -67t-106 -189h-75q14 149 125 238t281 89q177 0 280.5 -98t103.5 -267v-726h-75v232h-2q-40 -110 -150 -178t-247 -68q-158 0 -257.5 84.5t-99.5 219.5zM164 290q0 -103 81.5 -169 t207.5 -66q161 0 274 100.5t113 243.5v161l-359 -27q-155 -11 -236 -73t-81 -170zM231 1253l264 284h74l264 -284h-80l-219 237h-4l-219 -237h-80zM631 1710v55q44 27 112 27q71 0 114 -37.5t43 -99.5q0 -49 -27.5 -88t-78.5 -61l-37 40q38 17 59.5 45t21.5 60 q0 38 -28 61.5t-73 23.5q-64 0 -106 -26z" />
<glyph unicode="&#x1eaa;" horiz-adv-x="1221" d="M21 0l550 1443h80l549 -1443h-85l-180 481h-649l-179 -481h-86zM310 1560l266 202h70l266 -202h-93l-205 155h-6l-205 -155h-93zM312 552h598l-297 788h-5zM347 1843q0 82 39 132t109 50q35 0 64 -15t48.5 -36.5t37 -42.5t38.5 -36t46 -15q87 0 89 127h59 q0 -82 -39 -132.5t-108 -50.5q-35 0 -63.5 15t-47 36t-36 42.5t-39.5 36.5t-48 15q-88 0 -90 -126h-59z" />
<glyph unicode="&#x1eab;" horiz-adv-x="1030" d="M86 290q0 138 97.5 216t287.5 92l369 27v96q0 141 -81.5 220t-226.5 79q-137 0 -224 -67t-106 -189h-75q14 149 125 238t281 89q177 0 280.5 -98t103.5 -267v-726h-75v232h-2q-40 -110 -150 -178t-247 -68q-158 0 -257.5 84.5t-99.5 219.5zM164 290q0 -103 81.5 -169 t207.5 -66q161 0 274 100.5t113 243.5v161l-359 -27q-155 -11 -236 -73t-81 -170zM231 1253l264 284h74l264 -284h-80l-219 237h-4l-219 -237h-80zM265 1627q0 87 38.5 139t108.5 52q35 0 64 -15.5t49.5 -37.5t39 -44t41 -37.5t47.5 -15.5q43 0 64.5 35.5t21.5 96.5h60 q0 -86 -39 -138.5t-107 -52.5q-34 0 -63 15.5t-49 37.5t-38.5 44t-41.5 37.5t-48 15.5q-44 0 -66 -35.5t-22 -96.5h-60z" />
<glyph unicode="&#x1eac;" horiz-adv-x="1221" d="M21 0l550 1443h80l549 -1443h-85l-180 481h-649l-179 -481h-86zM306 1553l271 290h68l271 -290h-83l-221 238h-2l-221 -238h-83zM312 552h598l-297 788h-5zM534 -219q0 31 22.5 53.5t54.5 22.5t54.5 -22.5t22.5 -53.5t-22.5 -53.5t-54.5 -22.5t-54.5 22.5t-22.5 53.5z " />
<glyph unicode="&#x1ead;" horiz-adv-x="1030" d="M86 290q0 138 97.5 216t287.5 92l369 27v96q0 141 -81.5 220t-226.5 79q-137 0 -224 -67t-106 -189h-75q14 149 125 238t281 89q177 0 280.5 -98t103.5 -267v-726h-75v232h-2q-40 -110 -150 -178t-247 -68q-158 0 -257.5 84.5t-99.5 219.5zM164 290q0 -103 81.5 -169 t207.5 -66q161 0 274 100.5t113 243.5v161l-359 -27q-155 -11 -236 -73t-81 -170zM233 1253l268 303h62l268 -303h-80l-217 249h-3l-217 -249h-81zM441 -219q0 31 22.5 53.5t54.5 22.5t54.5 -22.5t22.5 -53.5t-22.5 -53.5t-54.5 -22.5t-54.5 22.5t-22.5 53.5z" />
<glyph unicode="&#x1eae;" horiz-adv-x="1221" d="M21 0l550 1443h80l549 -1443h-85l-180 481h-649l-179 -481h-86zM312 552h598l-297 788h-5zM340 1789h65q0 -74 57.5 -123t148.5 -49t148.5 49t57.5 123h65q0 -104 -75.5 -166.5t-195.5 -62.5t-195.5 62.5t-75.5 166.5zM542 1776l207 203h92l-225 -203h-74z" />
<glyph unicode="&#x1eaf;" horiz-adv-x="1030" d="M86 290q0 138 97.5 216t287.5 92l369 27v96q0 141 -81.5 220t-226.5 79q-137 0 -224 -67t-106 -189h-75q14 149 125 238t281 89q177 0 280.5 -98t103.5 -267v-726h-75v232h-2q-40 -110 -150 -178t-247 -68q-158 0 -257.5 84.5t-99.5 219.5zM164 290q0 -103 81.5 -169 t207.5 -66q161 0 274 100.5t113 243.5v161l-359 -27q-155 -11 -236 -73t-81 -170zM262 1503h61q0 -89 57 -142t152 -53t152 53t57 142h61q0 -117 -74.5 -183.5t-195.5 -66.5t-195.5 66.5t-74.5 183.5zM474 1518l226 296h88l-245 -296h-69z" />
<glyph unicode="&#x1eb0;" horiz-adv-x="1221" d="M21 0l550 1443h80l549 -1443h-85l-180 481h-649l-179 -481h-86zM312 552h598l-297 788h-5zM340 1789h65q0 -74 57.5 -123t148.5 -49t148.5 49t57.5 123h65q0 -104 -75.5 -166.5t-195.5 -62.5t-195.5 62.5t-75.5 166.5zM381 1979h92l207 -203h-74z" />
<glyph unicode="&#x1eb1;" horiz-adv-x="1030" d="M86 290q0 138 97.5 216t287.5 92l369 27v96q0 141 -81.5 220t-226.5 79q-137 0 -224 -67t-106 -189h-75q14 149 125 238t281 89q177 0 280.5 -98t103.5 -267v-726h-75v232h-2q-40 -110 -150 -178t-247 -68q-158 0 -257.5 84.5t-99.5 219.5zM164 290q0 -103 81.5 -169 t207.5 -66q161 0 274 100.5t113 243.5v161l-359 -27q-155 -11 -236 -73t-81 -170zM262 1503h61q0 -89 57 -142t152 -53t152 53t57 142h61q0 -117 -74.5 -183.5t-195.5 -66.5t-195.5 66.5t-74.5 183.5zM276 1814h88l226 -296h-69z" />
<glyph unicode="&#x1eb2;" horiz-adv-x="1221" d="M21 0l550 1443h80l549 -1443h-85l-180 481h-649l-179 -481h-86zM312 552h598l-297 788h-5zM342 1774h64q2 -69 58.5 -113t146.5 -44t147 44.5t59 112.5h64q-2 -98 -77 -156t-193 -58t-192.5 58t-76.5 156zM484 1940v54q35 27 101 27q67 0 108.5 -36.5t41.5 -94.5 q0 -45 -28.5 -83.5t-77.5 -60.5l-34 43q36 16 56.5 42t20.5 56q0 34 -26.5 56t-67.5 22q-54 0 -94 -25z" />
<glyph unicode="&#x1eb3;" horiz-adv-x="1030" d="M86 290q0 138 97.5 216t287.5 92l369 27v96q0 141 -81.5 220t-226.5 79q-137 0 -224 -67t-106 -189h-75q14 149 125 238t281 89q177 0 280.5 -98t103.5 -267v-726h-75v232h-2q-40 -110 -150 -178t-247 -68q-158 0 -257.5 84.5t-99.5 219.5zM164 290q0 -103 81.5 -169 t207.5 -66q161 0 274 100.5t113 243.5v161l-359 -27q-155 -11 -236 -73t-81 -170zM262 1503h61q0 -89 57 -142t152 -53t152 53t57 142h61q0 -117 -74.5 -183.5t-195.5 -66.5t-195.5 66.5t-74.5 183.5zM376 1710v55q44 27 112 27q71 0 114 -37.5t43 -99.5q0 -49 -27.5 -88 t-78.5 -61l-37 40q38 17 59.5 45t21.5 60q0 38 -28 61.5t-73 23.5q-64 0 -106 -26z" />
<glyph unicode="&#x1eb4;" horiz-adv-x="1221" d="M21 0l550 1443h80l549 -1443h-85l-180 481h-649l-179 -481h-86zM312 552h598l-297 788h-5zM342 1774h63q2 -68 59 -112.5t147 -44.5t147 44.5t59 112.5h63q-1 -98 -76 -156t-193 -58t-193 58t-76 156zM342 1843q0 81 41 131.5t112 50.5q35 0 64.5 -15t48.5 -36t36.5 -42 t39 -36t45.5 -15q42 0 63.5 33.5t23.5 92.5h64q0 -80 -40.5 -131t-110.5 -51q-35 0 -63.5 15t-47.5 36t-36.5 42t-39.5 36t-47 15q-43 0 -65.5 -34t-23.5 -92h-64z" />
<glyph unicode="&#x1eb5;" horiz-adv-x="1030" d="M86 290q0 138 97.5 216t287.5 92l369 27v96q0 141 -81.5 220t-226.5 79q-137 0 -224 -67t-106 -189h-75q14 149 125 238t281 89q177 0 280.5 -98t103.5 -267v-726h-75v232h-2q-40 -110 -150 -178t-247 -68q-158 0 -257.5 84.5t-99.5 219.5zM164 290q0 -103 81.5 -169 t207.5 -66q161 0 274 100.5t113 243.5v161l-359 -27q-155 -11 -236 -73t-81 -170zM262 1503h61q0 -89 57 -142t152 -53t152 53t57 142h61q0 -117 -74.5 -183.5t-195.5 -66.5t-195.5 66.5t-74.5 183.5zM265 1627q0 87 38.5 139t108.5 52q35 0 64 -15.5t49.5 -37.5t39 -44 t41 -37.5t47.5 -15.5q43 0 64.5 35.5t21.5 96.5h60q0 -86 -39 -138.5t-107 -52.5q-34 0 -63 15.5t-49 37.5t-38.5 44t-41.5 37.5t-48 15.5q-44 0 -66 -35.5t-22 -96.5h-60z" />
<glyph unicode="&#x1eb6;" horiz-adv-x="1221" d="M21 0l550 1443h80l549 -1443h-85l-180 481h-649l-179 -481h-86zM312 552h598l-297 788h-5zM342 1789h61q0 -77 58 -128.5t150 -51.5t150 51.5t58 128.5h61q0 -107 -75.5 -171.5t-193.5 -64.5t-193.5 64.5t-75.5 171.5zM534 -219q0 31 22.5 53.5t54.5 22.5t54.5 -22.5 t22.5 -53.5t-22.5 -53.5t-54.5 -22.5t-54.5 22.5t-22.5 53.5z" />
<glyph unicode="&#x1eb7;" horiz-adv-x="1030" d="M86 290q0 138 97.5 216t287.5 92l369 27v96q0 141 -81.5 220t-226.5 79q-137 0 -224 -67t-106 -189h-75q14 149 125 238t281 89q177 0 280.5 -98t103.5 -267v-726h-75v232h-2q-40 -110 -150 -178t-247 -68q-158 0 -257.5 84.5t-99.5 219.5zM164 290q0 -103 81.5 -169 t207.5 -66q161 0 274 100.5t113 243.5v161l-359 -27q-155 -11 -236 -73t-81 -170zM260 1503h62q0 -88 58 -142t152 -54t152 54t58 142h62q0 -117 -75.5 -185t-196.5 -68t-196.5 68t-75.5 185zM441 -219q0 31 22.5 53.5t54.5 22.5t54.5 -22.5t22.5 -53.5t-22.5 -53.5 t-54.5 -22.5t-54.5 22.5t-22.5 53.5z" />
<glyph unicode="&#x1eb8;" horiz-adv-x="1068" d="M128 0v1443h841v-73h-762v-594h726v-72h-726v-631h762v-73h-841zM471 -219q0 31 22.5 53.5t54.5 22.5t54.5 -22.5t22.5 -53.5t-22.5 -53.5t-54.5 -22.5t-54.5 22.5t-22.5 53.5z" />
<glyph unicode="&#x1eb9;" horiz-adv-x="1062" d="M65 537q0 250 129.5 402t342.5 152q208 0 334 -142.5t126 -377.5v-45h-853v-4q0 -218 109 -342t293 -124q144 0 239.5 68t119.5 177h79q-27 -139 -145.5 -227t-293.5 -88q-221 0 -350.5 146.5t-129.5 404.5zM145 592h773q-1 191 -106.5 310t-275.5 119q-168 0 -275 -118 t-116 -311zM468 -219q0 31 22.5 53.5t54.5 22.5t54.5 -22.5t22.5 -53.5t-22.5 -53.5t-54.5 -22.5t-54.5 22.5t-22.5 53.5z" />
<glyph unicode="&#x1eba;" horiz-adv-x="1068" d="M128 0v1443h841v-73h-762v-594h726v-72h-726v-631h762v-73h-841zM406 1750v54q48 27 115 27q71 0 115 -37.5t44 -98.5q0 -48 -30 -87.5t-83 -62.5l-34 42q37 16 59.5 44.5t22.5 60.5q0 37 -28.5 60.5t-74.5 23.5q-63 0 -106 -26z" />
<glyph unicode="&#x1ebb;" horiz-adv-x="1062" d="M65 537q0 250 129.5 402t342.5 152q208 0 334 -142.5t126 -377.5v-45h-853v-4q0 -218 109 -342t293 -124q144 0 239.5 68t119.5 177h79q-27 -139 -145.5 -227t-293.5 -88q-221 0 -350.5 146.5t-129.5 404.5zM145 592h773q-1 191 -106.5 310t-275.5 119q-168 0 -275 -118 t-116 -311zM422 1438v58q48 28 112 28q70 0 113 -39t43 -101q0 -49 -31.5 -91t-81.5 -63l-35 44q83 34 83 106q0 39 -28.5 63t-74.5 24q-56 0 -100 -29z" />
<glyph unicode="&#x1ebc;" horiz-adv-x="1068" d="M128 0v1443h841v-73h-762v-594h726v-72h-726v-631h762v-73h-841zM264 1560q0 98 38.5 155t111.5 57q36 0 68.5 -17t56 -41t45.5 -48t47.5 -41t51.5 -17q89 0 89 154h61q0 -97 -39 -155t-111 -58q-36 0 -67.5 17t-55 41t-45.5 48t-47.5 41t-52.5 17q-91 0 -91 -153h-60z " />
<glyph unicode="&#x1ebd;" horiz-adv-x="1062" d="M65 537q0 250 129.5 402t342.5 152q208 0 334 -142.5t126 -377.5v-45h-853v-4q0 -218 109 -342t293 -124q144 0 239.5 68t119.5 177h79q-27 -139 -145.5 -227t-293.5 -88q-221 0 -350.5 146.5t-129.5 404.5zM145 592h773q-1 191 -106.5 310t-275.5 119q-168 0 -275 -118 t-116 -311zM254 1266q0 98 38.5 155t111.5 57q36 0 68.5 -17t56 -41t45.5 -48t47.5 -41t51.5 -17q89 0 89 154h61q0 -97 -39 -155t-111 -58q-36 0 -67.5 17t-55 41t-45.5 48t-47.5 41t-52.5 17q-91 0 -91 -153h-60z" />
<glyph unicode="&#x1ebe;" horiz-adv-x="1068" d="M128 0v1443h841v-73h-762v-594h726v-72h-726v-631h762v-73h-841zM248 1560l266 208h70l266 -208h-93l-205 160h-6l-205 -160h-93zM714 1776l207 203h91l-224 -203h-74z" />
<glyph unicode="&#x1ebf;" horiz-adv-x="1062" d="M65 537q0 250 129.5 402t342.5 152q208 0 334 -142.5t126 -377.5v-45h-853v-4q0 -218 109 -342t293 -124q144 0 239.5 68t119.5 177h79q-27 -139 -145.5 -227t-293.5 -88q-221 0 -350.5 146.5t-129.5 404.5zM145 592h773q-1 191 -106.5 310t-275.5 119q-168 0 -275 -118 t-116 -311zM236 1253l264 284h74l264 -284h-80l-219 237h-4l-219 -237h-80zM737 1518l226 296h87l-244 -296h-69z" />
<glyph unicode="&#x1ec0;" horiz-adv-x="1068" d="M128 0v1443h841v-73h-762v-594h726v-72h-726v-631h762v-73h-841zM247 1560l266 208h70l266 -208h-93l-205 160h-6l-205 -160h-93zM589 1979h91l207 -203h-74z" />
<glyph unicode="&#x1ec1;" horiz-adv-x="1062" d="M65 537q0 250 129.5 402t342.5 152q208 0 334 -142.5t126 -377.5v-45h-853v-4q0 -218 109 -342t293 -124q144 0 239.5 68t119.5 177h79q-27 -139 -145.5 -227t-293.5 -88q-221 0 -350.5 146.5t-129.5 404.5zM145 592h773q-1 191 -106.5 310t-275.5 119q-168 0 -275 -118 t-116 -311zM236 1253l264 284h74l264 -284h-80l-219 237h-4l-219 -237h-80zM596 1814h88l226 -296h-70z" />
<glyph unicode="&#x1ec2;" horiz-adv-x="1068" d="M128 0v1443h841v-73h-762v-594h726v-72h-726v-631h762v-73h-841zM248 1560l265 208h71l265 -208h-93l-204 160h-6l-205 -160h-93zM671 1903v50q37 26 99 26q64 0 104 -35t40 -90q0 -43 -25.5 -78.5t-70.5 -55.5l-39 38q74 33 74 93q0 33 -25.5 54t-65.5 21q-57 0 -91 -23 z" />
<glyph unicode="&#x1ec3;" horiz-adv-x="1062" d="M65 537q0 250 129.5 402t342.5 152q208 0 334 -142.5t126 -377.5v-45h-853v-4q0 -218 109 -342t293 -124q144 0 239.5 68t119.5 177h79q-27 -139 -145.5 -227t-293.5 -88q-221 0 -350.5 146.5t-129.5 404.5zM145 592h773q-1 191 -106.5 310t-275.5 119q-168 0 -275 -118 t-116 -311zM236 1253l264 284h74l264 -284h-80l-219 237h-4l-219 -237h-80zM636 1710v55q44 27 112 27q71 0 114 -37.5t43 -99.5q0 -49 -27.5 -88t-78.5 -61l-37 40q38 17 59.5 45t21.5 60q0 38 -28 61.5t-73 23.5q-64 0 -106 -26z" />
<glyph unicode="&#x1ec4;" horiz-adv-x="1068" d="M128 0v1443h841v-73h-762v-594h726v-72h-726v-631h762v-73h-841zM247 1560l266 202h70l266 -202h-93l-205 155h-6l-205 -155h-93zM284 1843q0 82 39 132t109 50q35 0 64 -15t48.5 -36.5t37 -42.5t38.5 -36t46 -15q87 0 89 127h59q0 -82 -39 -132.5t-108 -50.5 q-35 0 -63.5 15t-47 36t-36 42.5t-39.5 36.5t-48 15q-88 0 -90 -126h-59z" />
<glyph unicode="&#x1ec5;" horiz-adv-x="1062" d="M65 537q0 250 129.5 402t342.5 152q208 0 334 -142.5t126 -377.5v-45h-853v-4q0 -218 109 -342t293 -124q144 0 239.5 68t119.5 177h79q-27 -139 -145.5 -227t-293.5 -88q-221 0 -350.5 146.5t-129.5 404.5zM145 592h773q-1 191 -106.5 310t-275.5 119q-168 0 -275 -118 t-116 -311zM236 1253l264 284h74l264 -284h-80l-219 237h-4l-219 -237h-80zM270 1627q0 87 38.5 139t108.5 52q35 0 64 -15.5t49.5 -37.5t39 -44t41 -37.5t47.5 -15.5q43 0 64.5 35.5t21.5 96.5h60q0 -86 -39 -138.5t-107 -52.5q-34 0 -63 15.5t-49 37.5t-38.5 44 t-41.5 37.5t-48 15.5q-44 0 -66 -35.5t-22 -96.5h-60z" />
<glyph unicode="&#x1ec6;" horiz-adv-x="1068" d="M128 0v1443h841v-73h-762v-594h726v-72h-726v-631h762v-73h-841zM243 1553l271 290h68l271 -290h-83l-221 238h-2l-221 -238h-83zM471 -219q0 31 22.5 53.5t54.5 22.5t54.5 -22.5t22.5 -53.5t-22.5 -53.5t-54.5 -22.5t-54.5 22.5t-22.5 53.5z" />
<glyph unicode="&#x1ec7;" horiz-adv-x="1062" d="M65 537q0 250 129.5 402t342.5 152q208 0 334 -142.5t126 -377.5v-45h-853v-4q0 -218 109 -342t293 -124q144 0 239.5 68t119.5 177h79q-27 -139 -145.5 -227t-293.5 -88q-221 0 -350.5 146.5t-129.5 404.5zM145 592h773q-1 191 -106.5 310t-275.5 119q-168 0 -275 -118 t-116 -311zM238 1253l268 303h62l268 -303h-80l-217 249h-3l-217 -249h-81zM468 -219q0 31 22.5 53.5t54.5 22.5t54.5 -22.5t22.5 -53.5t-22.5 -53.5t-54.5 -22.5t-54.5 22.5t-22.5 53.5z" />
<glyph unicode="&#x1ec8;" horiz-adv-x="335" d="M25 1750v54q48 27 115 27q71 0 115 -37.5t44 -98.5q0 -48 -30 -87.5t-83 -62.5l-34 42q37 16 59.5 44.5t22.5 60.5q0 37 -28.5 60.5t-74.5 23.5q-63 0 -106 -26zM128 0v1443h79v-1443h-79z" />
<glyph unicode="&#x1ec9;" horiz-adv-x="336" d="M53 1438v58q48 28 112 28q70 0 113 -39t43 -101q0 -49 -31.5 -91t-81.5 -63l-35 44q83 34 83 106q0 39 -28.5 63t-74.5 24q-56 0 -100 -29zM129 0v1077h78v-1077h-78z" />
<glyph unicode="&#x1eca;" horiz-adv-x="335" d="M90 -219q0 31 22.5 53.5t54.5 22.5t54.5 -22.5t22.5 -53.5t-22.5 -53.5t-54.5 -22.5t-54.5 22.5t-22.5 53.5zM128 0v1443h79v-1443h-79z" />
<glyph unicode="&#x1ecb;" horiz-adv-x="336" d="M91 -219q0 31 22.5 53.5t54.5 22.5t54.5 -22.5t22.5 -53.5t-22.5 -53.5t-54.5 -22.5t-54.5 22.5t-22.5 53.5zM106 1402q0 26 18 44t44 18t44.5 -18t18.5 -44q0 -25 -18.5 -43t-44.5 -18t-44 18t-18 43zM129 0v1077h78v-1077h-78z" />
<glyph unicode="&#x1ecc;" d="M67 722q0 340 174 541t469 201t469 -201t174 -541q0 -342 -173.5 -542.5t-469.5 -200.5t-469.5 200.5t-173.5 542.5zM148 722q0 -307 152.5 -488t409.5 -181t409.5 181t152.5 488q0 306 -152.5 487t-409.5 181q-258 0 -410 -181t-152 -487zM633 -219q0 31 22.5 53.5 t54.5 22.5t54.5 -22.5t22.5 -53.5t-22.5 -53.5t-54.5 -22.5t-54.5 22.5t-22.5 53.5z" />
<glyph unicode="&#x1ecd;" horiz-adv-x="1089" d="M65 538q0 253 131.5 403t347.5 150q217 0 348.5 -150t131.5 -403q0 -252 -132 -402t-348 -150t-347.5 150t-131.5 402zM143 538q0 -222 109.5 -352t291.5 -130t291.5 130.5t109.5 351.5q0 222 -109 352t-292 130t-292 -130t-109 -352zM467 -219q0 31 22.5 53.5t54.5 22.5 t54.5 -22.5t22.5 -53.5t-22.5 -53.5t-54.5 -22.5t-54.5 22.5t-22.5 53.5z" />
<glyph unicode="&#x1ece;" d="M67 722q0 340 174 541t469 201t469 -201t174 -541q0 -342 -173.5 -542.5t-469.5 -200.5t-469.5 200.5t-173.5 542.5zM148 722q0 -307 152.5 -488t409.5 -181t409.5 181t152.5 488q0 306 -152.5 487t-409.5 181q-258 0 -410 -181t-152 -487zM568 1750v54q48 27 115 27 q71 0 115 -37.5t44 -98.5q0 -48 -30 -87.5t-83 -62.5l-34 42q37 16 59.5 44.5t22.5 60.5q0 37 -28.5 60.5t-74.5 23.5q-63 0 -106 -26z" />
<glyph unicode="&#x1ecf;" horiz-adv-x="1089" d="M65 538q0 253 131.5 403t347.5 150q217 0 348.5 -150t131.5 -403q0 -252 -132 -402t-348 -150t-347.5 150t-131.5 402zM143 538q0 -222 109.5 -352t291.5 -130t291.5 130.5t109.5 351.5q0 222 -109 352t-292 130t-292 -130t-109 -352zM429 1437v58q48 28 112 28 q70 0 113 -39t43 -101q0 -49 -31.5 -91t-81.5 -63l-35 44q83 34 83 106q0 39 -28.5 63t-74.5 24q-56 0 -100 -29z" />
<glyph unicode="&#x1ed0;" d="M67 722q0 340 174 541t469 201t469 -201t174 -541q0 -342 -173.5 -542.5t-469.5 -200.5t-469.5 200.5t-173.5 542.5zM148 722q0 -307 152.5 -488t409.5 -181t409.5 181t152.5 488q0 306 -152.5 487t-409.5 181q-258 0 -410 -181t-152 -487zM410 1560l266 208h70l266 -208 h-93l-205 160h-6l-205 -160h-93zM876 1776l207 203h91l-224 -203h-74z" />
<glyph unicode="&#x1ed1;" horiz-adv-x="1089" d="M65 538q0 253 131.5 403t347.5 150q217 0 348.5 -150t131.5 -403q0 -252 -132 -402t-348 -150t-347.5 150t-131.5 402zM143 538q0 -222 109.5 -352t291.5 -130t291.5 130.5t109.5 351.5q0 222 -109 352t-292 130t-292 -130t-109 -352zM243 1252l264 284h74l264 -284h-80 l-219 237h-4l-219 -237h-80zM744 1517l226 296h87l-244 -296h-69z" />
<glyph unicode="&#x1ed2;" d="M67 722q0 340 174 541t469 201t469 -201t174 -541q0 -342 -173.5 -542.5t-469.5 -200.5t-469.5 200.5t-173.5 542.5zM148 722q0 -307 152.5 -488t409.5 -181t409.5 181t152.5 488q0 306 -152.5 487t-409.5 181q-258 0 -410 -181t-152 -487zM409 1560l266 208h70l266 -208 h-93l-205 160h-6l-205 -160h-93zM751 1979h91l207 -203h-74z" />
<glyph unicode="&#x1ed3;" horiz-adv-x="1089" d="M65 538q0 253 131.5 403t347.5 150q217 0 348.5 -150t131.5 -403q0 -252 -132 -402t-348 -150t-347.5 150t-131.5 402zM143 538q0 -222 109.5 -352t291.5 -130t291.5 130.5t109.5 351.5q0 222 -109 352t-292 130t-292 -130t-109 -352zM243 1252l264 284h74l264 -284h-80 l-219 237h-4l-219 -237h-80zM603 1813h88l226 -296h-70z" />
<glyph unicode="&#x1ed4;" d="M67 722q0 340 174 541t469 201t469 -201t174 -541q0 -342 -173.5 -542.5t-469.5 -200.5t-469.5 200.5t-173.5 542.5zM148 722q0 -307 152.5 -488t409.5 -181t409.5 181t152.5 488q0 306 -152.5 487t-409.5 181q-258 0 -410 -181t-152 -487zM410 1560l265 208h71l265 -208 h-93l-204 160h-6l-205 -160h-93zM833 1903v50q37 26 99 26q64 0 104 -35t40 -90q0 -43 -25.5 -78.5t-70.5 -55.5l-39 38q74 33 74 93q0 33 -25.5 54t-65.5 21q-57 0 -91 -23z" />
<glyph unicode="&#x1ed5;" horiz-adv-x="1089" d="M65 538q0 253 131.5 403t347.5 150q217 0 348.5 -150t131.5 -403q0 -252 -132 -402t-348 -150t-347.5 150t-131.5 402zM143 538q0 -222 109.5 -352t291.5 -130t291.5 130.5t109.5 351.5q0 222 -109 352t-292 130t-292 -130t-109 -352zM243 1252l264 284h74l264 -284h-80 l-219 237h-4l-219 -237h-80zM643 1709v55q44 27 112 27q71 0 114 -37.5t43 -99.5q0 -49 -27.5 -88t-78.5 -61l-37 40q38 17 59.5 45t21.5 60q0 38 -28 61.5t-73 23.5q-64 0 -106 -26z" />
<glyph unicode="&#x1ed6;" d="M67 722q0 340 174 541t469 201t469 -201t174 -541q0 -342 -173.5 -542.5t-469.5 -200.5t-469.5 200.5t-173.5 542.5zM148 722q0 -307 152.5 -488t409.5 -181t409.5 181t152.5 488q0 306 -152.5 487t-409.5 181q-258 0 -410 -181t-152 -487zM409 1560l266 202h70l266 -202 h-93l-205 155h-6l-205 -155h-93zM446 1843q0 82 39 132t109 50q35 0 64 -15t48.5 -36.5t37 -42.5t38.5 -36t46 -15q87 0 89 127h59q0 -82 -39 -132.5t-108 -50.5q-35 0 -63.5 15t-47 36t-36 42.5t-39.5 36.5t-48 15q-88 0 -90 -126h-59z" />
<glyph unicode="&#x1ed7;" horiz-adv-x="1089" d="M65 538q0 253 131.5 403t347.5 150q217 0 348.5 -150t131.5 -403q0 -252 -132 -402t-348 -150t-347.5 150t-131.5 402zM143 538q0 -222 109.5 -352t291.5 -130t291.5 130.5t109.5 351.5q0 222 -109 352t-292 130t-292 -130t-109 -352zM243 1252l264 284h74l264 -284h-80 l-219 237h-4l-219 -237h-80zM277 1626q0 87 38.5 139t108.5 52q35 0 64 -15.5t49.5 -37.5t39 -44t41 -37.5t47.5 -15.5q43 0 64.5 35.5t21.5 96.5h60q0 -86 -39 -138.5t-107 -52.5q-34 0 -63 15.5t-49 37.5t-38.5 44t-41.5 37.5t-48 15.5q-44 0 -66 -35.5t-22 -96.5h-60z " />
<glyph unicode="&#x1ed8;" d="M67 722q0 340 174 541t469 201t469 -201t174 -541q0 -342 -173.5 -542.5t-469.5 -200.5t-469.5 200.5t-173.5 542.5zM148 722q0 -307 152.5 -488t409.5 -181t409.5 181t152.5 488q0 306 -152.5 487t-409.5 181q-258 0 -410 -181t-152 -487zM405 1553l271 290h68l271 -290 h-83l-221 238h-2l-221 -238h-83zM633 -219q0 31 22.5 53.5t54.5 22.5t54.5 -22.5t22.5 -53.5t-22.5 -53.5t-54.5 -22.5t-54.5 22.5t-22.5 53.5z" />
<glyph unicode="&#x1ed9;" horiz-adv-x="1089" d="M65 538q0 253 131.5 403t347.5 150q217 0 348.5 -150t131.5 -403q0 -252 -132 -402t-348 -150t-347.5 150t-131.5 402zM143 538q0 -222 109.5 -352t291.5 -130t291.5 130.5t109.5 351.5q0 222 -109 352t-292 130t-292 -130t-109 -352zM245 1252l268 303h62l268 -303h-80 l-217 249h-3l-217 -249h-81zM467 -219q0 31 22.5 53.5t54.5 22.5t54.5 -22.5t22.5 -53.5t-22.5 -53.5t-54.5 -22.5t-54.5 22.5t-22.5 53.5z" />
<glyph unicode="&#x1eda;" d="M67 722q0 340 174 541t469 201q62 0 176.5 -12.5t210.5 -12.5q104 0 142.5 26.5t38.5 97.5v116h73v-136q0 -88 -54 -128t-174 -40h-89v-5q150 -79 234.5 -251t84.5 -397q0 -342 -173.5 -542.5t-469.5 -200.5t-469.5 200.5t-173.5 542.5zM148 722q0 -307 152.5 -488 t409.5 -181t409.5 181t152.5 488t-152.5 487.5t-409.5 180.5q-258 0 -410 -181t-152 -487zM664 1553l279 290h96l-297 -290h-78z" />
<glyph unicode="&#x1edb;" horiz-adv-x="1101" d="M65 538q0 251 130.5 402t348.5 151q61 0 151.5 -10t140.5 -10q71 0 99 23t28 81v127h73v-148q0 -144 -163 -144h-74v-4q104 -50 164.5 -175t60.5 -293q0 -251 -131 -401.5t-349 -150.5q-217 0 -348 150.5t-131 401.5zM143 538q0 -221 108.5 -351.5t292.5 -130.5 t292.5 130.5t108.5 351.5q0 220 -109 351t-292 131q-184 0 -292.5 -130.5t-108.5 -351.5zM490 1252l230 303h93l-249 -303h-74z" />
<glyph unicode="&#x1edc;" d="M67 722q0 340 174 541t469 201q62 0 176.5 -12.5t210.5 -12.5q104 0 142.5 26.5t38.5 97.5v116h73v-136q0 -88 -54 -128t-174 -40h-89v-5q150 -79 234.5 -251t84.5 -397q0 -342 -173.5 -542.5t-469.5 -200.5t-469.5 200.5t-173.5 542.5zM148 722q0 -307 152.5 -488 t409.5 -181t409.5 181t152.5 488t-152.5 487.5t-409.5 180.5q-258 0 -410 -181t-152 -487zM382 1843h95l280 -290h-78z" />
<glyph unicode="&#x1edd;" horiz-adv-x="1101" d="M65 538q0 251 130.5 402t348.5 151q61 0 151.5 -10t140.5 -10q71 0 99 23t28 81v127h73v-148q0 -144 -163 -144h-74v-4q104 -50 164.5 -175t60.5 -293q0 -251 -131 -401.5t-349 -150.5q-217 0 -348 150.5t-131 401.5zM143 538q0 -221 108.5 -351.5t292.5 -130.5 t292.5 130.5t108.5 351.5q0 220 -109 351t-292 131q-184 0 -292.5 -130.5t-108.5 -351.5zM272 1555h93l230 -303h-74z" />
<glyph unicode="&#x1ede;" d="M67 722q0 340 174 541t469 201q62 0 176.5 -12.5t210.5 -12.5q104 0 142.5 26.5t38.5 97.5v116h73v-136q0 -88 -54 -128t-174 -40h-89v-5q150 -79 234.5 -251t84.5 -397q0 -342 -173.5 -542.5t-469.5 -200.5t-469.5 200.5t-173.5 542.5zM148 722q0 -307 152.5 -488 t409.5 -181t409.5 181t152.5 488t-152.5 487.5t-409.5 180.5q-258 0 -410 -181t-152 -487zM568 1750v54q48 27 115 27q71 0 115 -37.5t44 -98.5q0 -48 -30 -87.5t-83 -62.5l-34 42q37 16 59.5 44.5t22.5 60.5q0 37 -28.5 60.5t-74.5 23.5q-63 0 -106 -26z" />
<glyph unicode="&#x1edf;" horiz-adv-x="1101" d="M65 538q0 251 130.5 402t348.5 151q61 0 151.5 -10t140.5 -10q71 0 99 23t28 81v127h73v-148q0 -144 -163 -144h-74v-4q104 -50 164.5 -175t60.5 -293q0 -251 -131 -401.5t-349 -150.5q-217 0 -348 150.5t-131 401.5zM143 538q0 -221 108.5 -351.5t292.5 -130.5 t292.5 130.5t108.5 351.5q0 220 -109 351t-292 131q-184 0 -292.5 -130.5t-108.5 -351.5zM429 1437v58q48 28 112 28q70 0 113 -39t43 -101q0 -49 -31.5 -91t-81.5 -63l-35 44q83 34 83 106q0 39 -28.5 63t-74.5 24q-56 0 -100 -29z" />
<glyph unicode="&#x1ee0;" d="M67 722q0 340 174 541t469 201q62 0 176.5 -12.5t210.5 -12.5q104 0 142.5 26.5t38.5 97.5v116h73v-136q0 -88 -54 -128t-174 -40h-89v-5q150 -79 234.5 -251t84.5 -397q0 -342 -173.5 -542.5t-469.5 -200.5t-469.5 200.5t-173.5 542.5zM148 722q0 -307 152.5 -488 t409.5 -181t409.5 181t152.5 488t-152.5 487.5t-409.5 180.5q-258 0 -410 -181t-152 -487zM426 1560q0 98 38.5 155t111.5 57q36 0 68.5 -17t56 -41t45.5 -48t47.5 -41t51.5 -17q89 0 89 154h61q0 -97 -39 -155t-111 -58q-36 0 -67.5 17t-55 41t-45.5 48t-47.5 41t-52.5 17 q-91 0 -91 -153h-60z" />
<glyph unicode="&#x1ee1;" horiz-adv-x="1101" d="M65 538q0 251 130.5 402t348.5 151q61 0 151.5 -10t140.5 -10q71 0 99 23t28 81v127h73v-148q0 -144 -163 -144h-74v-4q104 -50 164.5 -175t60.5 -293q0 -251 -131 -401.5t-349 -150.5q-217 0 -348 150.5t-131 401.5zM143 538q0 -221 108.5 -351.5t292.5 -130.5 t292.5 130.5t108.5 351.5q0 220 -109 351t-292 131q-184 0 -292.5 -130.5t-108.5 -351.5zM260 1265q0 98 38.5 155t111.5 57q36 0 68.5 -17t56 -41t45.5 -48t47 -41t52 -17q89 0 89 154h61q0 -97 -39 -155t-111 -58q-36 0 -67.5 17t-55 41t-45.5 48t-47.5 41t-52.5 17 q-91 0 -91 -153h-60z" />
<glyph unicode="&#x1ee2;" d="M67 722q0 340 174 541t469 201q62 0 176.5 -12.5t210.5 -12.5q104 0 142.5 26.5t38.5 97.5v116h73v-136q0 -88 -54 -128t-174 -40h-89v-5q150 -79 234.5 -251t84.5 -397q0 -342 -173.5 -542.5t-469.5 -200.5t-469.5 200.5t-173.5 542.5zM148 722q0 -307 152.5 -488 t409.5 -181t409.5 181t152.5 488t-152.5 487.5t-409.5 180.5q-258 0 -410 -181t-152 -487zM633 -219q0 31 22.5 53.5t54.5 22.5t54.5 -22.5t22.5 -53.5t-22.5 -53.5t-54.5 -22.5t-54.5 22.5t-22.5 53.5z" />
<glyph unicode="&#x1ee3;" horiz-adv-x="1101" d="M65 538q0 251 130.5 402t348.5 151q61 0 151.5 -10t140.5 -10q71 0 99 23t28 81v127h73v-148q0 -144 -163 -144h-74v-4q104 -50 164.5 -175t60.5 -293q0 -251 -131 -401.5t-349 -150.5q-217 0 -348 150.5t-131 401.5zM143 538q0 -221 108.5 -351.5t292.5 -130.5 t292.5 130.5t108.5 351.5q0 220 -109 351t-292 131q-184 0 -292.5 -130.5t-108.5 -351.5zM467 -219q0 31 22.5 53.5t54.5 22.5t54.5 -22.5t22.5 -53.5t-22.5 -53.5t-54.5 -22.5t-54.5 22.5t-22.5 53.5z" />
<glyph unicode="&#x1ee4;" horiz-adv-x="1332" d="M128 501v942h79v-939q0 -207 124 -329t336 -122t336 122t124 329v939h79v-942q0 -237 -145.5 -379.5t-393.5 -142.5t-393.5 142.5t-145.5 379.5zM589 -219q0 31 22.5 53.5t54.5 22.5t54.5 -22.5t22.5 -53.5t-22.5 -53.5t-54.5 -22.5t-54.5 22.5t-22.5 53.5z" />
<glyph unicode="&#x1ee5;" horiz-adv-x="1074" d="M113 378v699h78v-687q0 -157 88 -245.5t238 -88.5q156 0 258 104t102 273v644h78v-1077h-73v235h-3q-36 -110 -140.5 -179.5t-237.5 -69.5q-175 0 -281.5 106t-106.5 286zM473 -219q0 31 22.5 53.5t54.5 22.5t54.5 -22.5t22.5 -53.5t-22.5 -53.5t-54.5 -22.5t-54.5 22.5 t-22.5 53.5z" />
<glyph unicode="&#x1ee6;" horiz-adv-x="1332" d="M128 501v942h79v-939q0 -207 124 -329t336 -122t336 122t124 329v939h79v-942q0 -237 -145.5 -379.5t-393.5 -142.5t-393.5 142.5t-145.5 379.5zM524 1750v54q48 27 115 27q71 0 115 -37.5t44 -98.5q0 -48 -30 -87.5t-83 -62.5l-34 42q37 16 59.5 44.5t22.5 60.5 q0 37 -28.5 60.5t-74.5 23.5q-63 0 -106 -26z" />
<glyph unicode="&#x1ee7;" horiz-adv-x="1074" d="M113 378v699h78v-687q0 -157 88 -245.5t238 -88.5q156 0 258 104t102 273v644h78v-1077h-73v235h-3q-36 -110 -140.5 -179.5t-237.5 -69.5q-175 0 -281.5 106t-106.5 286zM419 1437v58q48 28 112 28q70 0 113 -39t43 -101q0 -49 -31.5 -91t-81.5 -63l-35 44q83 34 83 106 q0 39 -28.5 63t-74.5 24q-56 0 -100 -29z" />
<glyph unicode="&#x1ee8;" horiz-adv-x="1474" d="M128 501v942h79v-939q0 -204 126 -327.5t334 -123.5t334 123.5t126 327.5v939h137q114 0 114 102v157h74v-173q0 -71 -45 -110t-127 -39h-74v-879q0 -239 -146.5 -380.5t-392.5 -141.5q-247 0 -393 141.5t-146 380.5zM620 1553l279 290h96l-297 -290h-78z" />
<glyph unicode="&#x1ee9;" horiz-adv-x="1189" d="M113 378v699h78v-687q0 -158 88 -246t238 -88q156 0 258 103.5t102 273.5v644h127q114 0 114 101v131h74v-146q0 -71 -45 -110.5t-127 -39.5h-65v-1013h-73v235h-3q-36 -110 -140.5 -179.5t-237.5 -69.5q-175 0 -281.5 106t-106.5 286zM480 1252l230 303h93l-249 -303 h-74z" />
<glyph unicode="&#x1eea;" horiz-adv-x="1474" d="M128 501v942h79v-939q0 -204 126 -327.5t334 -123.5t334 123.5t126 327.5v939h137q114 0 114 102v157h74v-173q0 -71 -45 -110t-127 -39h-74v-879q0 -239 -146.5 -380.5t-392.5 -141.5q-247 0 -393 141.5t-146 380.5zM338 1843h95l280 -290h-78z" />
<glyph unicode="&#x1eeb;" horiz-adv-x="1189" d="M113 378v699h78v-687q0 -158 88 -246t238 -88q156 0 258 103.5t102 273.5v644h127q114 0 114 101v131h74v-146q0 -71 -45 -110.5t-127 -39.5h-65v-1013h-73v235h-3q-36 -110 -140.5 -179.5t-237.5 -69.5q-175 0 -281.5 106t-106.5 286zM262 1555h93l230 -303h-74z" />
<glyph unicode="&#x1eec;" horiz-adv-x="1474" d="M128 501v942h79v-939q0 -204 126 -327.5t334 -123.5t334 123.5t126 327.5v939h137q114 0 114 102v157h74v-173q0 -71 -45 -110t-127 -39h-74v-879q0 -239 -146.5 -380.5t-392.5 -141.5q-247 0 -393 141.5t-146 380.5zM524 1750v54q48 27 115 27q71 0 115 -37.5t44 -98.5 q0 -48 -30 -87.5t-83 -62.5l-34 42q37 16 59.5 44.5t22.5 60.5q0 37 -28.5 60.5t-74.5 23.5q-63 0 -106 -26z" />
<glyph unicode="&#x1eed;" horiz-adv-x="1189" d="M113 378v699h78v-687q0 -158 88 -246t238 -88q156 0 258 103.5t102 273.5v644h127q114 0 114 101v131h74v-146q0 -71 -45 -110.5t-127 -39.5h-65v-1013h-73v235h-3q-36 -110 -140.5 -179.5t-237.5 -69.5q-175 0 -281.5 106t-106.5 286zM419 1437v58q48 28 112 28 q70 0 113 -39t43 -101q0 -49 -31.5 -91t-81.5 -63l-35 44q83 34 83 106q0 39 -28.5 63t-74.5 24q-56 0 -100 -29z" />
<glyph unicode="&#x1eee;" horiz-adv-x="1474" d="M128 501v942h79v-939q0 -204 126 -327.5t334 -123.5t334 123.5t126 327.5v939h137q114 0 114 102v157h74v-173q0 -71 -45 -110t-127 -39h-74v-879q0 -239 -146.5 -380.5t-392.5 -141.5q-247 0 -393 141.5t-146 380.5zM382 1560q0 98 38.5 155t111.5 57q36 0 68.5 -17 t56 -41t45.5 -48t47 -41t52 -17q89 0 89 154h61q0 -97 -39 -155t-111 -58q-36 0 -67.5 17t-55 41t-45.5 48t-47.5 41t-52.5 17q-91 0 -91 -153h-60z" />
<glyph unicode="&#x1eef;" horiz-adv-x="1189" d="M113 378v699h78v-687q0 -158 88 -246t238 -88q156 0 258 103.5t102 273.5v644h127q114 0 114 101v131h74v-146q0 -71 -45 -110.5t-127 -39.5h-65v-1013h-73v235h-3q-36 -110 -140.5 -179.5t-237.5 -69.5q-175 0 -281.5 106t-106.5 286zM250 1265q0 98 38.5 155t111.5 57 q36 0 68.5 -17t56 -41t45.5 -48t47 -41t52 -17q89 0 89 154h61q0 -97 -39 -155t-111 -58q-36 0 -67.5 17t-55 41t-45.5 48t-47.5 41t-52.5 17q-91 0 -91 -153h-60z" />
<glyph unicode="&#x1ef0;" horiz-adv-x="1474" d="M128 501v942h79v-939q0 -204 126 -327.5t334 -123.5t334 123.5t126 327.5v939h137q114 0 114 102v157h74v-173q0 -71 -45 -110t-127 -39h-74v-879q0 -239 -146.5 -380.5t-392.5 -141.5q-247 0 -393 141.5t-146 380.5zM589 -219q0 31 22.5 53.5t54.5 22.5t54.5 -22.5 t22.5 -53.5t-22.5 -53.5t-54.5 -22.5t-54.5 22.5t-22.5 53.5z" />
<glyph unicode="&#x1ef1;" horiz-adv-x="1189" d="M113 378v699h78v-687q0 -158 88 -246t238 -88q156 0 258 103.5t102 273.5v644h127q114 0 114 101v131h74v-146q0 -71 -45 -110.5t-127 -39.5h-65v-1013h-73v235h-3q-36 -110 -140.5 -179.5t-237.5 -69.5q-175 0 -281.5 106t-106.5 286zM473 -219q0 31 22.5 53.5 t54.5 22.5t54.5 -22.5t22.5 -53.5t-22.5 -53.5t-54.5 -22.5t-54.5 22.5t-22.5 53.5z" />
<glyph unicode="&#x1ef2;" horiz-adv-x="1172" d="M22 1443h93l469 -733h5l469 733h92l-524 -814v-629h-79v629zM258 1843h95l280 -290h-78z" />
<glyph unicode="&#x1ef3;" horiz-adv-x="919" d="M7 1077h83l369 -1001h2l369 1001h82l-423 -1126q-72 -192 -133.5 -256t-175.5 -64q-32 0 -54 9v69q24 -8 57 -8q72 0 116 43.5t87 155.5l33 85zM188 1555h93l230 -303h-74z" />
<glyph unicode="&#x1ef4;" horiz-adv-x="1172" d="M22 1443h93l469 -733h5l469 733h92l-524 -814v-629h-79v629zM509 -219q0 31 22.5 53.5t54.5 22.5t54.5 -22.5t22.5 -53.5t-22.5 -53.5t-54.5 -22.5t-54.5 22.5t-22.5 53.5z" />
<glyph unicode="&#x1ef5;" horiz-adv-x="919" d="M7 1077h83l369 -1001h2l369 1001h82l-423 -1126q-72 -192 -133.5 -256t-175.5 -64q-32 0 -54 9v69q24 -8 57 -8q72 0 116 43.5t87 155.5l33 85zM649 -219q0 31 22.5 53.5t54.5 22.5t54.5 -22.5t22.5 -53.5t-22.5 -53.5t-54.5 -22.5t-54.5 22.5t-22.5 53.5z" />
<glyph unicode="&#x1ef6;" horiz-adv-x="1172" d="M22 1443h93l469 -733h5l469 733h92l-524 -814v-629h-79v629zM444 1750v54q48 27 115 27q71 0 115 -37.5t44 -98.5q0 -48 -30 -87.5t-83 -62.5l-34 42q37 16 59.5 44.5t22.5 60.5q0 37 -28.5 60.5t-74.5 23.5q-63 0 -106 -26z" />
<glyph unicode="&#x1ef7;" horiz-adv-x="919" d="M7 1077h83l369 -1001h2l369 1001h82l-423 -1126q-72 -192 -133.5 -256t-175.5 -64q-32 0 -54 9v69q24 -8 57 -8q72 0 116 43.5t87 155.5l33 85zM345 1437v58q48 28 112 28q70 0 113 -39t43 -101q0 -49 -31.5 -91t-81.5 -63l-35 44q83 34 83 106q0 39 -28.5 63t-74.5 24 q-56 0 -100 -29z" />
<glyph unicode="&#x1ef8;" horiz-adv-x="1172" d="M22 1443h93l469 -733h5l469 733h92l-524 -814v-629h-79v629zM302 1560q0 98 38.5 155t111.5 57q36 0 68.5 -17t56 -41t45.5 -48t47 -41t52 -17q89 0 89 154h61q0 -97 -39 -155t-111 -58q-36 0 -67.5 17t-55 41t-45.5 48t-47.5 41t-52.5 17q-91 0 -91 -153h-60z" />
<glyph unicode="&#x1ef9;" horiz-adv-x="919" d="M7 1077h83l369 -1001h2l369 1001h82l-423 -1126q-72 -192 -133.5 -256t-175.5 -64q-32 0 -54 9v69q24 -8 57 -8q72 0 116 43.5t87 155.5l33 85zM176 1265q0 98 38.5 155t111.5 57q36 0 68.5 -17t56 -41t45.5 -48t47 -41t52 -17q89 0 89 154h61q0 -97 -39 -155t-111 -58 q-36 0 -67.5 17t-55 41t-45.5 48t-47.5 41t-52.5 17q-91 0 -91 -153h-60z" />
<glyph unicode="&#x2000;" horiz-adv-x="1043" />
<glyph unicode="&#x2001;" horiz-adv-x="2086" />
<glyph unicode="&#x2002;" horiz-adv-x="1043" />
<glyph unicode="&#x2003;" horiz-adv-x="2086" />
<glyph unicode="&#x2004;" horiz-adv-x="695" />
<glyph unicode="&#x2005;" horiz-adv-x="521" />
<glyph unicode="&#x2006;" horiz-adv-x="347" />
<glyph unicode="&#x2007;" horiz-adv-x="347" />
<glyph unicode="&#x2008;" horiz-adv-x="260" />
<glyph unicode="&#x2009;" horiz-adv-x="417" />
<glyph unicode="&#x200a;" horiz-adv-x="115" />
<glyph unicode="&#x2010;" horiz-adv-x="868" d="M106 539v73h656v-73h-656z" />
<glyph unicode="&#x2011;" horiz-adv-x="868" d="M106 539v73h656v-73h-656z" />
<glyph unicode="&#x2012;" horiz-adv-x="868" d="M106 539v73h656v-73h-656z" />
<glyph unicode="&#x2013;" horiz-adv-x="1024" d="M0 550v73h1024v-73h-1024z" />
<glyph unicode="&#x2014;" horiz-adv-x="2048" d="M0 550v73h2048v-73h-2048z" />
<glyph unicode="&#x2018;" horiz-adv-x="404" d="M98 984l136 459h72l-130 -459h-78z" />
<glyph unicode="&#x2019;" horiz-adv-x="404" d="M108 984l131 459h78l-137 -459h-72z" />
<glyph unicode="&#x201a;" horiz-adv-x="418" d="M96 -360l130 459h78l-136 -459h-72z" />
<glyph unicode="&#x201c;" horiz-adv-x="657" d="M98 984l122 459h72l-116 -459h-78zM365 984l122 459h72l-116 -459h-78z" />
<glyph unicode="&#x201d;" horiz-adv-x="657" d="M108 984l116 459h78l-122 -459h-72zM375 984l116 459h78l-122 -459h-72z" />
<glyph unicode="&#x201e;" horiz-adv-x="671" d="M96 -360l116 459h78l-122 -459h-72zM363 -360l116 459h78l-122 -459h-72z" />
<glyph unicode="&#x2026;" horiz-adv-x="1459" d="M178 60q0 29 20.5 49.5t49.5 20.5t49.5 -20.5t20.5 -49.5t-20.5 -49.5t-49.5 -20.5t-49.5 20.5t-20.5 49.5zM660 60q0 29 20.5 49.5t49.5 20.5t49.5 -20.5t20.5 -49.5t-20.5 -49.5t-49.5 -20.5t-49.5 20.5t-20.5 49.5zM1141 60q0 29 21 49.5t50 20.5t49.5 -20.5 t20.5 -49.5t-20.5 -49.5t-49.5 -20.5t-50 20.5t-21 49.5z" />
<glyph unicode="&#x202f;" horiz-adv-x="417" />
<glyph unicode="&#x2039;" horiz-adv-x="771" d="M153 565v5l370 409h95l-366 -408v-8l366 -408h-95z" />
<glyph unicode="&#x203a;" horiz-adv-x="771" d="M153 155l365 408v8l-365 408h95l370 -409v-5l-370 -410h-95z" />
<glyph unicode="&#x205f;" horiz-adv-x="521" />
<glyph unicode="&#x20ac;" horiz-adv-x="1192" d="M44 544v65h247q-6 54 -6 113q0 48 5 101h-246v66h255q23 139 87 249t155.5 181t205.5 108t242 37q99 0 152 -14v-74q-53 14 -152 14q-229 0 -395.5 -130.5t-212.5 -370.5h584v-66h-594q-5 -55 -5 -102q0 -62 7 -112h592v-65h-582q47 -235 213 -363.5t393 -128.5 q99 0 152 14v-73q-53 -14 -152 -14q-170 0 -312 63t-242.5 192t-133.5 310h-257z" />
<glyph unicode="&#x2122;" horiz-adv-x="1513" d="M15 1383v60h560v-60h-247v-647h-65v647h-248zM694 736v707h81l262 -584h1l262 584h82v-707h-64v595h-1l-259 -566h-41l-258 566h-1v-595h-64z" />
<glyph unicode="&#x25fc;" horiz-adv-x="1075" d="M0 0v1075h1075v-1075h-1075z" />
</font>
</defs>
</svg>
